<?xml version="1.0" encoding="utf-8"?>
<!-- Generator: Adobe Illustrator 24.0.1, SVG Export Plug-In . SVG Version: 6.00 Build 0)  -->
<svg version="1.1" xmlns="http://www.w3.org/2000/svg" xmlns:xlink="http://www.w3.org/1999/xlink" x="0px" y="0px"
	 viewBox="0 0 800 592" style="enable-background:new 0 0 800 592;" xml:space="preserve">
<style type="text/css">
	.st0{fill-rule:evenodd;clip-rule:evenodd;fill:#1B1A19;}
	.st1{fill-rule:evenodd;clip-rule:evenodd;fill:none;stroke:#000000;stroke-width:2;stroke-miterlimit:10;}
</style>
<g id="Layer_1">
	<title>Thedeep</title>
	<desc>Created with Sketch.</desc>
	<path id="Fill-4" class="st0" d="M-441.1,141.7v-2h50.5c0.8,0,1.6-0.6,2.3-1.8c1.5-2.7,1.5-7.2,0-9.8c-0.6-1.1-1.5-1.7-2.3-1.7
		c0,0,0,0,0,0h-50.6v-2h50.5c0,0,0,0,0,0c1.5,0,3,1,4,2.7c1.9,3.3,1.9,8.5,0,11.8c-1,1.8-2.4,2.8-4,2.8H-441.1"/>
	<path id="Fill-5" class="st0" d="M-441.1,126.4C-441.1,126.4-441.1,126.4-441.1,126.4c-0.8,0-1.6,0.6-2.3,1.8
		c-1.5,2.7-1.5,7.2,0,9.8c0.6,1.1,1.5,1.7,2.3,1.7c0,0,0,0,0,0c0.8,0,1.6-0.6,2.3-1.8c1.5-2.7,1.5-7.2,0-9.8
		C-439.5,127-440.3,126.4-441.1,126.4z M-441.2,141.7c-1.6,0-3-1-4-2.7c-1.9-3.3-1.9-8.5,0-11.8c1-1.8,2.5-2.8,4-2.8c0,0,0,0,0,0
		c1.6,0,3,1,4,2.7c1.9,3.3,1.9,8.5,0,11.8C-438.2,140.7-439.6,141.7-441.2,141.7C-441.1,141.7-441.2,141.7-441.2,141.7L-441.2,141.7
		z"/>
	<path id="Fill-6" class="st0" d="M-460.1,230.5h22.4v-15.3L-460.1,230.5z M-435.7,232.5h-30.9l30.9-21.1V232.5L-435.7,232.5z"/>
	<polygon id="Fill-9" class="st0" points="52.5,567.9 586.6,567.9 586.6,563.9 52.5,563.9 	"/>
	<path class="st0" d="M766.9,474.7h3.6V200.6h-4v274.3c0,0,0,0,0,0C766.6,474.8,766.7,474.7,766.9,474.7z"/>
	<polyline id="Fill-11" class="st0" points="770.5,175.4 766.5,175.4 766.5,27.9 553.9,27.9 553.9,23.9 770.5,23.9 770.5,175.4 	"/>
	<polyline id="Fill-12" class="st0" points="38.7,187 34.6,187 34.6,23.9 382,23.9 382,27.9 38.7,27.9 38.7,187 	"/>
	<path id="Fill-13" class="st0" d="M161.8,405.5h437.2v-243H161.8V405.5z M155.8,410h449.3V157.9H155.8V410z"/>
	<path id="Fill-14" class="st0" d="M-352.4,22.5h81.2v-64.1h-81.2V22.5z M-354.4,24.5h85.2v-68.1h-85.2V24.5z"/>
	<path id="Fill-15" class="st0" d="M-301.6-9.5c0,5.6-4.6,10.2-10.2,10.2c-5.6,0-10.2-4.6-10.2-10.2c0-5.6,4.6-10.2,10.2-10.2
		C-306.2-19.7-301.6-15.2-301.6-9.5"/>
	<polyline id="Fill-16" class="st0" points="38.7,564 81.9,564 59.6,531.3 38.7,564 	"/>
	<polyline id="Fill-17" class="st0" points="159.4,162.4 36.2,28.3 38.6,26.1 161.8,160.2 159.4,162.4 	"/>
	<path id="Fill-18" class="st0" d="M599.8,162.4l-0.6-1.5c-0.3-0.8-0.1-1.8,0.5-2.3L768.7,25c0.6-0.5,1.3-0.2,1.6,0.6v0
		c0.3,0.8,0.1,1.8-0.5,2.3L599.8,162.4"/>
	<path class="st0" d="M766.7,478.3l3.8-1.9v-21.1l-183.9,91.6l0.2,21L766.7,478.3C766.6,478.3,766.6,478.3,766.7,478.3z"/>
	<path id="Fill-20" class="st0" d="M-436.4,48.4c-24.8,0-40.1,4.7-40.1,8c0,3.4,15.2,8,40.1,8s40.1-4.7,40.1-8
		C-396.3,53-411.5,48.4-436.4,48.4z M-436.4,66.4c-20.4,0-42.1-3.5-42.1-10c0-6.5,21.7-10,42.1-10c20.4,0,42.1,3.5,42.1,10
		C-394.3,62.9-416,66.4-436.4,66.4L-436.4,66.4z"/>
	<polyline id="Fill-22" class="st0" points="-465.1,309.2 -470.8,316.1 -468,318.4 -462.3,311.5 -465.1,309.2 	"/>
	<path id="Fill-23" class="st0" d="M-398.2,53c-6.1,3.3-20.8,5.7-38.1,5.7c-17.3,0-32.1-2.4-38.1-5.7c-1.9,1-2.9,2.2-2.9,3.4
		c0,5,18.4,9,41.1,9c22.7,0,41.1-4,41.1-9C-395.3,55.2-396.4,54.1-398.2,53"/>
	<path id="Fill-24" class="st0" d="M-385.1,298.5c-11,0-19.9,8.9-19.9,19.9c0,11,8.9,19.9,19.9,19.9s19.9-8.9,19.9-19.9
		C-365.2,307.5-374.2,298.5-385.1,298.5z M-385.1,340.4c-12.1,0-21.9-9.8-21.9-21.9c0-12.1,9.8-21.9,21.9-21.9s21.9,9.8,21.9,21.9
		C-363.2,330.5-373.1,340.4-385.1,340.4L-385.1,340.4z"/>
	<path id="Fill-25" class="st0" d="M-385.6,308.9c-3.8,0.2-6.7,3.5-6.7,7.5v6.1c0,0.4,0.3,0.8,0.8,0.8c0.8,0,1.4,0.7,2.4,2.9
		c0.5,1,1.5,1.7,2.6,1.7h2.7c1.1,0,2.2-0.7,2.6-1.7c1-2.2,1.6-2.9,2.4-2.9c0.4,0,0.8-0.3,0.8-0.8v-6.4c0-2-0.8-3.9-2.3-5.3
		C-381.7,309.5-383.6,308.8-385.6,308.9z M-383.8,330h-2.7c-1.9,0-3.7-1.1-4.5-2.9c-0.5-1.1-0.8-1.6-1-1.8c-1.4-0.2-2.4-1.3-2.4-2.8
		v-6.1c0-5,3.8-9.1,8.6-9.5c2.6-0.2,5,0.7,6.9,2.5c1.8,1.7,2.9,4.2,2.9,6.7v6.4c0,1.4-1.1,2.6-2.4,2.8c-0.1,0.2-0.4,0.7-1,1.8
		C-380.1,328.8-381.9,330-383.8,330L-383.8,330z"/>
	<path id="Fill-26" class="st0" d="M-390.5,315.5c1.2-0.2,3.2-0.5,4-0.3c0.8,0.3,0.9,1.9,0.2,2.4c-0.7,0.5-3.2,1.8-3.7,1.7
		C-390.6,319.3-392.2,315.7-390.5,315.5"/>
	<path id="Fill-27" class="st0" d="M-379.7,315.5c-1.2-0.2-3.2-0.5-4-0.3c-0.8,0.3-0.9,1.9-0.2,2.4c0.7,0.5,3.2,1.8,3.7,1.7
		C-379.7,319.3-378.1,315.7-379.7,315.5"/>
	<path id="Fill-28" class="st0" d="M-386,320.7l-0.8,1.6c-0.3,0.7,0.2,1.4,0.9,1.4h1.5c0.7,0,1.2-0.8,0.9-1.4l-0.8-1.6
		C-384.6,320-385.7,320-386,320.7"/>
	<polyline id="Fill-32" class="st0" points="-508.2,368.6 -509.2,366.9 -496.3,359.5 -495.3,361.3 -508.2,368.6 	"/>
	<path id="Fill-35" class="st0" d="M-407.7,399.5c0,3-2.4,5.4-5.4,5.4c-3,0-5.4-2.4-5.4-5.4c0-3,2.4-5.4,5.4-5.4
		C-410.1,394.1-407.7,396.5-407.7,399.5"/>
	<g>
		<path id="Fill-21" class="st0" d="M-252.9,443.7l31.3,1.9c-3.2-3.5-9.7-11.3-10.1-16.1c-0.2-1.8-0.1-5.3,0-9.3
			c0.2-8.5,0.5-22.6-1.8-25.4c-2.5-3-13.5-6.8-19.2-7.2c-1.9-0.1-2.4,0.2-2.4,0.2c-7.1,10.3-10,18.6-10,28.5c0,5.2,0,10.2,1.9,11.7
			c0.7,0.6,1.8,0.7,3.4,0.4c2.7-0.6,4.1-1.5,5.2-2.2c1.4-0.9,2.7-1.7,5.2-0.7c0.4,0.2,1,0.6,1.3,1.4
			C-246.9,430.5-251.1,440-252.9,443.7z M-216.6,447.9l-39.4-2.4l0.7-1.4c2.5-5,6.2-13.9,5.2-16.4c-0.1-0.2-0.2-0.3-0.2-0.3
			c-1.6-0.7-2.1-0.3-3.4,0.5c-1.2,0.8-2.8,1.8-5.8,2.4c-2.1,0.5-3.8,0.2-5-0.8c-2.6-2.1-2.6-7.3-2.7-13.3c0-10.3,3-18.9,10.4-29.6
			c0.5-0.7,1.4-1,2.7-1.1c5.2-0.3,18.7,3.9,22.1,7.9c2.6,3.1,2.6,13.9,2.3,26.7c-0.1,4-0.2,7.4,0,9.1c0.4,4.6,8.3,13.6,11.3,16.7
			L-216.6,447.9L-216.6,447.9z"/>
		<path id="Fill-33" class="st0" d="M-263,382.7c0.7,6.8,7.1,14.1,14.9,15.3c7.7,1.2,12.1,6.2,12.3,9.9c0.3,3.7-4.8,5.8-3.7,9.9
			c1,4.1,8.8,10.3,13.6,5.8c4.8-4.5,2.7-13.7,3.4-17.8c0.6-4.1,6.6-15.9,1.6-21.2c-5-5.3-20.4-3-23.2-3c-2.8,0-11.4-9-15.1-6.2
			C-262.6,377.8-263.4,379-263,382.7"/>
		<path id="Fill-36" class="st0" d="M-359.9,431.9c-0.2,0.5-0.1,2,0,2.9c0.1,2.1,0.3,4.4-0.9,5.9c-0.4,0.4-0.5,1-0.4,1.6
			c0.8,4.5,11.6,11.9,15.7,14.3l0.2,0.1c12.9,12.2,47.8,43.3,57.1,43.3c0.1,0,0.3,0,0.4,0c1.7-0.2,10.2-6.7,14.3-13
			c1.6-2.4,2.2-4.4,1.8-5.7c-0.3-1-3.1-4.3-5.1-6.7c-1.8-2.1-3.1-3.7-3.9-4.8l-9.9,8.6l-0.6-0.3c-0.2-0.1-22.6-12.3-33.3-18.7
			c-7.9-4.7-16-12.1-16.1-12.1l0,0C-351.2,437.4-358.2,432.1-359.9,431.9z M-288.1,502.1c-11.7,0-53.3-38.9-58.5-43.8
			c-2-1.2-15.5-9.6-16.6-15.6c-0.2-1.2,0.1-2.3,0.8-3.2c0.7-0.8,0.6-2.8,0.4-4.4c-0.1-2.1-0.3-3.9,0.9-4.8
			c0.8-0.6,2.9-2.2,21.8,15.7c0.3,0.2,8.1,7.3,15.7,11.9c9.6,5.7,28.9,16.3,32.6,18.3l10.9-9.4l0.5,1.3c0.3,0.7,2.5,3.4,4.2,5.5
			c3.1,3.7,5.1,6.1,5.5,7.3c0.6,1.9-0.1,4.4-2,7.4c-4,6.1-12.9,13.6-15.8,13.9C-287.8,502.1-287.9,502.1-288.1,502.1L-288.1,502.1z"
			/>
		<path id="Fill-37" class="st0" d="M-263.1,488.5c2,2.2,0.7,22.5-0.1,33.6c7.8-5.2,18.4-14.1,26.9-14.6c13-0.6,8.6,9.2,13.3,14.6
			c3.9,4.6,10.5,5.9,16.9,6.6c2.3,0.2,4.7,0.4,7.1,0.5h23.4c0,0-0.8-16-12.7-43.4c-6.2-14.4-12.8-27.2-22.3-37.2
			c-8.3-8.7-21.8-11.5-28.9-11.8c-14.8-0.7-22,3-26.7,7.7c-2.8,2.8-6,5.9-17.6,21.4c-1.8,2.4,7.8,28.1,7.8,28.1
			S-266.2,485.2-263.1,488.5"/>
	</g>
	<path id="Fill-38" class="st0" d="M-320.4,343.4h-2v-67.3c0-2.2-0.8-4.2-2.4-5.7c-1.5-1.5-3.5-2.3-5.7-2.3c-0.1,0-0.1,0-0.2,0
		c-3.5,0-6.9-1.4-9.4-3.8c-2.5-2.5-4-5.9-4-9.4l-0.1-18.1c-0.2-23.3-19.2-42.2-42.5-42.2h-44.8v-2h44.8c24.4,0,44.3,19.8,44.5,44.2
		l0.1,18.1c0,3,1.2,5.9,3.4,8c2.1,2.1,5,3.3,8,3.3c0.1,0,0.1,0,0.2,0c2.7,0,5.2,1,7.1,2.9c1.9,1.9,3,4.4,3,7.1V343.4"/>
	<polyline id="Fill-42" class="st0" points="-353.4,23.5 -353.4,-32.4 -363.6,-32.4 -363.6,33.7 -280.4,33.7 -280.4,23.5 
		-353.4,23.5 	"/>
	<path id="Fill-43" class="st0" d="M-500.3,157.1v10.3l21.9-12v-10.3L-500.3,157.1z M-502.3,170.7v-14.8l25.9-14.2v14.8
		L-502.3,170.7L-502.3,170.7z"/>
	<g>
		<path id="Fill-1" class="st0" d="M-424.2,572.2c-1.7-4.6-4-12.4-5.4-17.6c-1.8,1-4.3,1.6-7.9,1.3c-5.7-0.5-16.4,5.8-18.2,13.6
			c-0.7,3-1.6,8.1-1.6,8.1l-0.1,0c10.2,8.2,22.1,17.8,31.2,25.5c4.5-8.2,7.2-17.5,7.5-27.4l-0.5,0
			C-421.4,575.7-423.4,574.3-424.2,572.2"/>
		<path id="Fill-2" class="st0" d="M-423.6,528.6l4.4,6.3l5.3-9.8l0.8,0.4c1,0.4,1.9,1,2.7,1.6c1.6,1.1,2.4,1.5,3.1,1.1
			c0.7-0.4,2.2-4.1,2.9-8.4c0.5-3.1,0.1-4.3,0-4.5c-1.4-1.5-5.2-1.9-6.3-1C-411.9,515.3-420,524.4-423.6,528.6z M-419.1,538.7
			l-7.1-10.3l0.5-0.6c0.5-0.6,12-13.7,13.6-15.1c2-1.8,7.1-1.1,9.2,1.1c0.8,0.9,1,3,0.5,6.1c-0.5,3.2-2,8.8-3.9,9.9
			c-1.9,1.1-3.6,0-5.3-1.1c-0.5-0.3-1-0.7-1.5-1L-419.1,538.7L-419.1,538.7z"/>
		<path id="Fill-29" class="st0" d="M-520.7,614.8c4.4,4.5,9.5,8.2,15,11.1l26.1-26.9c-10.1-6.7-13.6-15-10.4-24.6
			C-499.1,581.9-513.9,604.2-520.7,614.8z M-505.3,628.3l-0.7-0.3c-6.3-3.1-11.9-7.3-16.8-12.4l-0.5-0.6l0.4-0.7
			c9.1-14.2,25.7-38.8,34.5-43.7l2.7-1.5l-1.3,2.8c-4.7,10.1-1.9,18.4,8.5,25.3c0.2,0.1,0.4,0.2,0.6,0.4l1.5,0.9L-505.3,628.3
			L-505.3,628.3z"/>
		<path id="Fill-30" class="st0" d="M-466.3,518.8c1.3,0.7,7.9,0.8,10.8,0.2c1.7-0.3,3.3-1.1,4-1.7c0,0-0.1,0-0.1,0
			c-0.6-0.1-1.6-0.1-2.6-0.1c-2.2-0.1-4.9-0.2-7.1-0.5c-1.7-0.3-3.8-0.5-4.5,0.1C-466.1,517-466.3,517.6-466.3,518.8z M-461.2,521.3
			c-2.8,0-5.6-0.3-6.6-1.2c-0.4-0.4-0.6-0.8-0.5-1.3c0.1-1.6,0.3-2.9,1.3-3.7c1.2-1,3.2-0.9,6-0.5c2.1,0.3,4.8,0.4,6.9,0.5
			c1.1,0,2,0.1,2.7,0.1c1.9,0.1,2.3,1,2.3,1.6c0.1,2-4,3.6-6.1,4C-456,521.1-458.6,521.3-461.2,521.3L-461.2,521.3z"/>
		<path id="Fill-40" class="st0" d="M-382.3,575h3.5c0.2,0,0.8-0.2,1.2-0.7c0.2-0.2,0.5-0.6,0.5-1.1c-0.1-1.7,0.4-3.7,1.1-4.8
			c0,0,0-0.1,0-0.1c-0.2,0-0.4-0.1-0.6-0.1c-0.6-0.1-1.2-0.2-1.9-0.4L-382.3,575z M-378.8,577h-7l6.5-11.6l0.8,0.4
			c0.7,0.3,1.5,0.4,2.2,0.5c1,0.1,2,0.3,2.3,1.1c0.4,0.9-0.2,1.8-0.5,2.1c-0.4,0.6-0.8,2.2-0.8,3.6c0,0.9-0.3,1.8-1,2.5
			C-376.9,576.5-377.9,577-378.8,577L-378.8,577z"/>
		<path id="Fill-41" class="st0" d="M-408.8,678.5h18.9c-1-1.1-2.7-2.5-4.8-2.6c-4.3-0.3-9.3-3.4-9.5-3.5l-0.4-0.3l-0.1-0.5
			c-1.7-14-6.5-51.3-8.2-55c-1.4-3.2-40.1-34.4-66.2-54.9c-3.5,2.9-5.3,5.6-6.2,7c-6.9,11.7-4.7,21,6.7,28.6
			c16,10.6,35.4,18.6,47.2,22.3c0.2,0.1,0.4,0.1,0.7,0.2c2.3,0.6,6.1,1.6,6.1,4.1c0,1-0.4,2-0.8,2.9c-0.6,1.5-0.8,2.1-0.4,2.4
			c0.4,0.3,0.9,0.5,1.3,0.7c1.2,0.6,2.7,1.3,2.5,3.9c-0.1,1-0.4,1.7-0.7,2.4c-0.4,0.9-0.6,1.5-0.2,2.6
			C-421.7,641-410.6,673.2-408.8,678.5z M-386.2,680.5h-24l-0.2-0.7c-4.5-13.1-13.2-38.4-14-40.2c-0.8-1.8-0.3-3.1,0.2-4.2
			c0.2-0.6,0.5-1.1,0.5-1.7c0.1-1.2-0.2-1.4-1.4-2c-0.5-0.2-1.1-0.5-1.6-0.9c-1.8-1.3-0.9-3.3-0.3-4.8c0.3-0.8,0.7-1.6,0.7-2.1
			c0-0.5-0.8-1.2-4.6-2.2c-0.3-0.1-0.6-0.2-0.8-0.2c-11.9-3.7-31.5-11.8-47.7-22.5c-12.3-8.2-14.8-18.7-7.3-31.3
			c1.2-1.9,3.4-4.9,7.3-8l0.6-0.5l0.6,0.5c6.7,5.2,65.3,51.4,67.4,56.2c2,4.5,7.6,49.5,8.3,55.1c1.2,0.7,5,2.8,8.2,3
			c4.6,0.3,7.4,4.9,7.5,5.1L-386.2,680.5L-386.2,680.5z"/>
		<path id="Fill-45" class="st0" d="M-419.2,574.7l30.7,0.4l4.3-7.4l-27.3-1.2c-2.7-0.1-3.6-4.1-3.8-4.9l0-0.1
			c-1.1-5.5-3.1-15.6-3.3-18.3c-0.1-1.3-0.4-2.6-0.7-3.6c-2.1,4.5-6.1,11.9-6.3,12.3c-0.7,1.2-1.6,2.3-2.8,3.1
			c1.4,5.2,3.6,12.5,5.2,16.8C-422.6,573.6-421,574.7-419.2,574.7z M-387.3,577.1l-31.8-0.4c-2.6,0-5-1.6-5.9-4.2
			c-1.6-4.6-4-12.3-5.4-17.7l-0.2-0.7l0.7-0.4c1.2-0.7,2.1-1.6,2.7-2.8c2.1-3.9,6.2-11.8,7.2-14.5l0.8-2.4l1,2.3
			c0.1,0.1,1.4,3.1,1.6,6.7c0.2,2.5,2.3,13,3.3,18l0,0.1c0.4,1.8,1.2,3.3,1.9,3.3h0l30.6,1.3L-387.3,577.1L-387.3,577.1z"/>
		<path id="Fill-46" class="st0" d="M-477.3,560.5l19.3,15.4c0.3-1.8,0.9-4.6,1.3-6.5c2.1-8.5,13.3-14.9,19.3-14.4
			c6.2,0.5,8.9-1.9,10-4c2-3.8,6.1-11.6,7.1-14.3c-0.4-1.3-4.6-6.3-8.7-10.7l-3.1,2.6c1.6,1.3,2.4,2.9,2.4,4.8
			c0,5.2-9.7,9.9-16.4,10.8c-1.8,0.2-4.6,0.6-7.6,0.9C-458.2,548.2-472.2,557.2-477.3,560.5z M-456.6,579.5l-24.1-19.2l1.2-0.8
			c3.7-2.4,20.2-13.1,25.2-16.3l0.2-0.1l0.2,0c3-0.3,6-0.7,7.8-0.9c6.4-0.9,14.6-5.3,14.6-8.8c0-1.6-0.9-2.9-2.6-3.8l-1.2-0.7
			l6.6-5.6l0.7,0.7c10.6,11.1,10.1,12.7,9.9,13.2c-1.2,3.4-7.1,14.3-7.3,14.8c-1.2,2.2-4.3,5.7-12,5c-5.2-0.4-15.4,5.6-17.2,12.8
			c-0.7,2.9-1.6,8-1.6,8.1L-456.6,579.5L-456.6,579.5z"/>
		<path id="Fill-47" class="st0" d="M-458.2,517l-0.8-0.1c-0.9-0.1-1.7-0.2-2.3-0.3h0c-0.5-0.1-0.9-0.1-1.3-0.2l0.2-2l5,0.2
			L-458.2,517"/>
		<path id="Fill-48" class="st0" d="M-468.1,519.7c-3.7,8.7-8.2,19.7-8.4,20.8c-0.2,1.2,0.1,2.3,0.9,3.2c0.8,0.9,1.9,1.3,3,1.2
			c10.5-0.9,21.8-2.2,26.4-2.8c6.4-0.9,14.6-5.3,14.6-8.8c0-1.1-0.4-2.1-1.3-2.9c-1.6-1.5-4.4-2.2-6.1-2.1c-2.3,0.1-18.9,4-25.1,5.5
			l-1.7,0.4l4.2-13c-5.1-0.1-6-1-6.3-1.3C-468,519.9-468.1,519.8-468.1,519.7z M-472.9,547c-1.6,0-3.1-0.7-4.2-1.9
			c-1.2-1.3-1.7-3.1-1.4-4.9c0.3-1.9,9.2-22.9,10.3-25.3l0.3-0.6l3.5,0.2l0,2c-1.4,0.1-1.8,0.3-1.9,2.4c0.5,0.2,2.1,0.6,6,0.6l1.4,0
			l-3.9,12.2c5.4-1.3,21.3-5,23.8-5.2c2.2-0.1,5.6,0.7,7.6,2.6c1.3,1.2,1.9,2.7,1.9,4.4c0,5.2-9.7,9.9-16.4,10.8
			c-4.7,0.6-16,1.9-26.5,2.8C-472.6,547-472.7,547-472.9,547L-472.9,547z"/>
		<path id="Fill-50" class="st0" d="M-403.1,502.9c-4.6-2.6-9.6,1.7-14,4.3c-4.4,2.6-9.6-2.5-15.8-2.8c-6.2-0.3-8.7,5.7-12.8,9.2
			c-4.1,3.5-11.1-0.1-33.3-0.1c-28.2,0-51.9,19.4-58.6,45.6h15.1c1.1,0,2.3,0.7,3.1,2.2c1.7,3,1.7,7.8,0,10.8
			c-0.9,1.5-2,2.3-3.1,2.3h-16.9c0.3,33.1,27.3,59.9,60.4,59.9c15.8,0,30.2-6.1,40.9-16c-12.2-4.4-27.3-11.3-39.9-19.5l-27.5,28.4
			c-6.2-3.1-11.8-7.2-16.5-12.2c8.4-13.1,25.4-38.5,34.2-43.3c0.5-1.2,1.2-2.3,1.8-3.4c1.3-2.2,3.6-5,7-7.7
			c3.3-2.1,16.2-10.5,25.2-16.3c-5.2,0.6-12,1.3-18.7,1.8c-3.1,0.3-5.6-2.5-5-5.6c0.3-1.8,10.2-25.1,10.2-25.1l2.8,0.1
			c0.6,0,1.2,0,2,0.1l3.7,0.2l-0.1,0.2c2.8,0.2,5.9,0.2,7.4,0.3c3.6,0.3-0.4,3-3.8,3.7c-1,0.2-2.9,0.4-5,0.4l-4,12.6
			c0,0,22.5-5.4,25.3-5.6c1.5-0.1,3.6,0.3,5.4,1.3l4.8-4.1c0,0,2.6,2.7,5,5.6l-1.1-1.7c0,0,11.9-13.6,13.5-15c1.5-1.4,6-0.9,7.7,1
			c0.4,0.4,0.5,1.3,0.5,2.4l1.9-2C-401.3,515-398.5,505.5-403.1,502.9"/>
	</g>
	<polyline id="Fill-13_1_" class="st0" points="445.8,405.6 301.4,405.6 315.4,391.8 424.9,391.8 424.9,393.8 316.3,393.8 
		306.3,403.6 440.9,403.6 430.9,393.8 424.9,393.8 424.9,391.8 431.8,391.8 445.8,405.6 	"/>
	<polyline id="Fill-14_1_" class="st0" points="443.3,414.8 303.8,414.8 312.2,404.6 435,404.6 443.3,414.8 	"/>
	<path id="Fill-41_1_" class="st0" d="M-292.1,193.7c-7.9,0-13.6,0-13.8,0l0-2c0.4,0,38.4,0.1,53-0.1c8.4-0.1,14.2-5.3,14.2-12.5
		c0-3.4-1.4-5.8-4.2-7.3c-2.3-1.2-5.6-1.9-9.7-1.9c-8.8,0-32.2,9.3-39.1,12.1l-0.8-1.9c9-3.7,31-12.3,39.9-12.3
		c4.4,0,8,0.7,10.6,2.1c3.5,1.9,5.3,4.9,5.3,9.1c0,8.3-6.8,14.4-16.2,14.5C-261.8,193.7-279.6,193.7-292.1,193.7"/>
	<g>
		<path class="st0" d="M53.5,566.4c0-0.1,0-0.1,0-0.2v-2.2H38.7v-97.9h-4v101.9h18.8C53.5,567.4,53.6,566.9,53.5,566.4
			C53.5,566.4,53.5,566.4,53.5,566.4z"/>
		<rect x="52.5" y="563.9" class="st0" width="2.4" height="4"/>
	</g>
	<path class="st1" d="M430.9,392.8"/>
</g>
<g id="Layer_2">
	<path id="Fill-15_1_" class="st0" d="M368.8,244.6l6.9,4.1l8-4.1c-2.2-1.2-4.5-3.2-4.8-5.6c-0.1-1.6-0.1-3.6,0-5.1l0-1l0.1-0.2
		c0.7-1.5,1.3-3.4,1.6-5.2c0.3-1.5-0.5-4.2-2.3-7.8c-0.2,0.2-0.3,0.4-0.5,0.6c-0.6,0.7-1.2,1.5-1.9,1.9l-0.7,0.5
		c-3.1,1.9-4.4,2.7-2.7,9.4c0.2,0.5,0.7,1.3,1.2,2l0.2,0.3l0,0.3c0,1.3,0,2.9-0.1,4.4C373.7,241.4,371.1,243.4,368.8,244.6z
		 M375.6,251l-11.5-6.8l2.2-0.7c2.2-0.7,5.5-2.8,5.7-4.8c0.1-1.3,0.1-2.7,0.1-3.9c-0.4-0.5-0.9-1.4-1.3-2.2l0-0.1
		c-2-7.8-0.1-9.3,3.6-11.6l0.7-0.4c0.4-0.2,0.9-0.9,1.4-1.5c0.6-0.7,1.2-1.5,1.8-1.8l0.9-0.5l0.5,0.9c1.6,3,3.7,7.4,3.1,10.3
		c-0.3,2-0.9,3.9-1.7,5.5l0,0.6c-0.1,1.4-0.1,3.4,0,4.8c0.2,2,3.3,4.1,5.4,4.8l2.3,0.7L375.6,251L375.6,251z"/>
	<path id="Fill-76" class="st0" d="M384.4,246.8l3.4,10.2c1.8,19.5,8.4,32.5,35.1,32.5l6.2,0.6c1-0.6,2-1.3,2.5-1.7
		c-0.2-0.7-0.9-2.2-1.2-2.8l-0.3-0.6c-0.2-0.4-0.4-0.8-0.6-1.2c-0.4,0.9-1.2,1.9-2.8,2c-0.7,0.1-1.3,0.1-2,0c-1.8,0-2.8,0-3.6,1.2
		l-0.4,0.5l-0.6-0.1c-18.1-3.4-27.2-15-27.2-34.5c0-3.1-2.4-6.9-5.2-6.9C385.5,246.2,384.7,246.6,384.4,246.8z M429.6,292.2
		l-6.8-0.6c-29.7,0-35.4-16.5-37-34.2l-3.5-10.5l0-0.2c0-0.6,0.5-2.4,5.5-2.4c4.1,0,7.2,4.8,7.2,8.9c0,18.2,8.4,29.1,25,32.4
		c1.4-1.6,3.3-1.5,4.9-1.5c0.6,0,1.2,0,1.7,0c0.9-0.1,1.2-0.9,1.5-1.8c0.1-0.5,0.3-1.1,0.9-1.2l0.5-0.1l0.5,0.4c0.6,0.5,1.5,2,2,3.1
		l0,0l0.3,0.6c1.3,2.8,1.5,3.6,1.3,4.3c-0.1,0.3-0.3,0.8-3.7,3L429.6,292.2L429.6,292.2z"/>
	<path id="Fill-77" class="st0" d="M321.2,288.4c0.4,0.4,1.5,1.1,2.5,1.7l6.1-0.6c29.4,0,33.4-17.1,34.9-33.2l0-0.2l2.9-9
		c0,0,0.1-0.2-0.1-0.4c-0.1-0.1-0.6-0.6-2.5-0.6c-2.6,0-5,4-5,7.2c0,19.3-9.2,30.7-27.4,34.1l-0.6,0.1l-0.4-0.5
		c-0.8-1.2-1.8-1.2-3.6-1.2c-0.6,0-1.3,0-2,0c-1.6-0.2-2.3-1.1-2.8-2c-0.2,0.4-0.5,0.8-0.6,1.2l-0.3,0.6
		C322.1,286.2,321.4,287.7,321.2,288.4z M323.2,292.2l-0.3-0.2c-3.4-2.1-3.6-2.7-3.7-3c-0.2-0.6,0-1.5,1.3-4.3l0.3-0.6
		c0.5-1.1,1.4-2.5,2-3.1l0.4-0.4l0.6,0.1c0.6,0.2,0.8,0.7,0.9,1.2c0.3,0.9,0.6,1.7,1.5,1.8c0.5,0.1,1.1,0,1.7,0
		c1.5,0,3.5-0.1,4.9,1.5c16.7-3.3,25.2-14.1,25.2-32.1c0-4.3,3.1-9.2,7-9.2c2.1,0,3.5,0.5,4.2,1.5c0.7,1,0.4,2.1,0.3,2.2l-2.9,8.8
		c-1.7,18.1-7.3,34.8-36.8,34.9L323.2,292.2L323.2,292.2z"/>
	<g>
		<path id="Fill-40_1_" class="st0" d="M372,308.6c-0.5-4.1-1.3-7.3-2.4-9.5c-1.3-2.7-2.9-3.9-4.9-3.6c-4.3,0.6-6.7,6.7-5.7,15
			c1.6,12.9,5.6,44.4,6.5,51.2l2.6-1.8c0.3-2.7,2.2-17.3,3.2-30.6C372.3,319.2,372.4,312.2,372,308.6z M362.8,349.6
			c-1.6-12.4-3.9-30.1-4.9-38.9c-1.1-9.3,1.7-16.5,6.6-17.2c2.5-0.3,4.5,1.2,6.1,4.5c1.2,2.5,2,6,2.6,10.4c0.5,3.8,0.3,11-0.5,21.5
			c-1.2,14.7-3.3,31-3.3,31.1l-0.1,0.4l-4.6,3.2l-0.2-1.3C364.5,363.2,363.8,357.4,362.8,349.6L362.8,349.6z"/>
		<path id="Fill-42_1_" class="st0" d="M365.9,364.3l2.7,20.7c0.2-0.5,0.3-1.1,0.3-1.8c0-0.7-0.1-1.3-0.1-2.1
			c-0.2-2.5-0.5-5.4,1.1-9.9c0.9-2.6,1.2-4.7,0.9-6.4c-0.2-1-0.7-1.9-1.4-2.6L365.9,364.3z M367.9,389l-3.4-26l4.8-2.9l0.3,0.2
			c1.2,1.1,2,2.5,2.3,4.2c0.5,2.2,0.2,4.8-0.9,7.9c-1.4,4-1.2,6.4-1,8.7c0.1,0.7,0.1,1.5,0.1,2.3c0,2.8-1.4,4.5-1.5,4.6L367.9,389
			L367.9,389z"/>
		<path id="Fill-78" class="st0" d="M365.2,363.2l1.3-0.9c-0.6-5.1-7.5-40.1-5.2-49.2c2.4-9.4,0.3-17.1,2.4-18.4
			c-4.2,1.4-6.1,8.2-5.2,15.9C360.2,325.3,365.2,363.2,365.2,363.2"/>
	</g>
	<path id="Fill-79" class="st0" d="M391.9,295.9c0,0-4.4-7.9-5.2-10.9c-4.1-14.5,0.6-19.9,0.7-25.2l3.2-13.1l-4.6-1.5l-3.8,0.6
		c-4,1.2-8.3,1.1-12.2-0.1l-3.5-0.4l-4.3,1.2l2.1,12.8c0.1,5.4,5.5,11.5,1.4,26c-0.8,3-4.8,10.7-4.8,10.7l15.5,6.2L391.9,295.9"/>
	<path id="Fill-96" class="st0" d="M373.3,234.3c-0.4-0.6-0.8-1.3-1.1-2.1c-2-8-0.1-8.3,3.6-10.7c1-0.6,2-2.7,2.9-3.2
		c1.2,2.3,3.1,6.4,2.6,9.1c-0.3,1.9-0.9,3.9-1.7,5.5c0,1.4-0.1,4,0,5.8c7.7-0.6,13.7-3.2,13.7-3.2s-2-1.8-3.2-4.6
		c-2.8-6.5-6.8-17.8-13.7-17.8c-7.7,0-11.9,11.2-14.4,17.7c-1,2.6-4.3,4.5-4.3,4.5s7.7,2.8,15.5,3.4
		C373.3,237.5,373.3,235.7,373.3,234.3"/>
	<g>
		<path id="Fill-40_2_" class="st0" d="M379.5,308c0.8-4,1.9-7.1,3.1-9.3c1.5-2.6,3.2-3.7,5.2-3.2c4.3,0.9,6.2,7.2,4.6,15.4
			c-2.5,12.8-9,43.8-10.4,50.6l-2.5-2c-0.1-2.7-0.9-17.4-1-30.7C378.4,318.5,378.8,311.6,379.5,308z M385.7,349.7
			c2.5-12.2,6.1-29.7,7.8-38.5c1.8-9.2-0.4-16.6-5.4-17.6c-2.5-0.5-4.6,0.9-6.5,4.1c-1.4,2.4-2.5,5.8-3.4,10.2
			c-0.8,3.7-1.1,11-1.1,21.5c0.1,14.8,1,31.1,1,31.3l0,0.4l4.3,3.5l0.3-1.3C382.9,363,384.1,357.4,385.7,349.7L385.7,349.7z"/>
		<path id="Fill-42_2_" class="st0" d="M381.4,364.1l-4.2,20.5c-0.2-0.5-0.3-1.2-0.2-1.8c0.1-0.7,0.2-1.3,0.3-2.1
			c0.4-2.5,0.9-5.3-0.4-9.9c-0.7-2.6-0.9-4.8-0.4-6.4c0.3-1,0.8-1.8,1.6-2.5L381.4,364.1z M377.6,388.5l5.3-25.7l-4.6-3.2l-0.3,0.2
			c-1.3,1-2.2,2.4-2.6,4c-0.6,2.2-0.5,4.8,0.3,8c1.1,4.1,0.7,6.4,0.3,8.7c-0.1,0.7-0.3,1.5-0.3,2.3c-0.2,2.7,1.1,4.6,1.2,4.7
			L377.6,388.5L377.6,388.5z"/>
		<path id="Fill-78_1_" class="st0" d="M382.3,363l-1.2-1c1-5,10.5-39.4,8.9-48.7c-1.7-9.5,1-17.1-1-18.5c4.2,1.7,5.5,8.7,4,16.2
			C390.1,325.6,382.3,363,382.3,363"/>
	</g>
</g>
</svg>
