<?xml version="1.0" encoding="utf-8"?>
<!-- Generator: Adobe Illustrator 24.0.1, SVG Export Plug-In . SVG Version: 6.00 Build 0)  -->
<svg version="1.1" id="Layer_1" xmlns="http://www.w3.org/2000/svg" xmlns:xlink="http://www.w3.org/1999/xlink" x="0px" y="0px"
	 viewBox="0 0 36 48" style="enable-background:new 0 0 36 48;" xml:space="preserve">
<style type="text/css">
	.st0{fill:#FFC107;}
</style>
<title>Idea</title>
<desc>Created with Sketch.</desc>
<polygon class="st0" points="14.1,20.3 14.5,22.1 16.3,22.8 18.5,23 20.9,21.5 21.8,19.4 14.1,19.7 "/>
<g>
	<path d="M33.1,29.5c-0.2-0.3-0.6-0.5-1-0.5c-0.4,0-0.7,0.1-1,0.3c-0.8,0.7-1.7,1.3-2.7,1.8c-0.6-1.5-2.3-6.1-1.3-10.6l3,2
		c0.6,0.4,1.4,0.5,2,0.1c0.8-0.4,1.3-1.4,1.1-2.3l-1-4.4c-0.1-0.5-0.4-1-0.8-1.4L31,14.3l0-1.3c0-0.4,0-0.7,0-1l0-0.4
		c0-0.4-0.3-0.5-0.5-0.5c-1.4,0-2.1,1.1-2.3,1.9C27,13.2,26,13.7,25,14.8c-1,1-2,2.6-3,4.3c-0.1,0.1-0.1,0.2-0.2,0.3h-7.1
		c-1.3,0-2.8-0.2-4.4-0.6c-1.6-0.4-4.4-0.4-5.8,4.3c-0.1,0.2,0,0.4,0.1,0.5l2.4,1.9c0.1,0.1,0.3,0.1,0.4,0.1
		c0.2-0.1,0.3-0.2,0.3-0.3c0.1-0.8,0.7-2.9,1.8-3.5c0.3-0.2,0.7-0.2,1-0.1l-3.1,9.6c-1-0.5-1.9-1.1-2.7-1.8c-0.3-0.2-0.7-0.4-1-0.3
		c-0.4,0-0.7,0.2-1,0.5c-0.2,0.3-0.4,0.7-0.3,1c0,0.4,0.2,0.7,0.5,1c3.6,3.1,9,4.9,14.9,4.9c5.9,0,11.4-1.8,14.9-4.9
		c0.3-0.2,0.5-0.6,0.5-1C33.5,30.2,33.3,29.8,33.1,29.5z M21.2,20.3c-0.9,1.3-2.1,2.5-3.7,2.5c-0.7,0-1.4-0.2-2-0.5
		c-0.8-0.5-1.3-1.2-1.4-2c0.2,0,0.4,0,0.6,0H21.2z M11.7,21.4c0.1-0.2,0-0.5-0.3-0.6c-0.8-0.3-1.5-0.3-2.2,0
		c-1.2,0.7-1.9,2.4-2.1,3.4l-1.6-1.3c0.5-1.6,1.3-2.7,2.2-3.2c0.7-0.4,1.5-0.5,2.4-0.2c1.1,0.3,2.1,0.5,3.1,0.6
		c0.1,1.1,0.8,2.1,1.9,2.8c0.7,0.4,1.6,0.7,2.4,0.7c2.8,0,4.4-2.7,5.2-4.1c1-1.7,1.9-3.2,2.9-4.2c0.9-1,1.9-1.4,3-1.4
		c0.2,0,0.4-0.2,0.4-0.4c0,0,0.1-0.4,0.3-0.8c0.2-0.3,0.4-0.5,0.7-0.6c0,0.6,0,1.6,0,2.4c0,0.1,0,0.2,0.1,0.3l0.5,0.5
		c0.3,0.3,0.4,0.6,0.5,0.9l1,4.4c0.1,0.5-0.1,1-0.6,1.3c-0.4,0.2-0.8,0.2-1.1-0.1l-3.6-2.4c-0.1-0.1-0.3-0.1-0.4,0
		c-0.1,0.1-0.2,0.2-0.3,0.3C25,24.8,26.9,30,27.5,31.6l-1.2,0.5c-0.4-0.7-1.1-1.9-2.2-2.9c-1.8-1.7-3.8-2.5-6.1-2.5
		s-4.3,0.9-6.1,2.5c-1.1,1.1-1.9,2.3-2.2,2.9c-0.4-0.2-0.8-0.3-1.2-0.5L11.7,21.4z M25.5,32.4c-2.3,0.7-4.8,1.1-7.5,1.1
		c-2.6,0-5.2-0.4-7.5-1.1c0.8-1.4,3.2-4.9,7.5-4.9C22.3,27.5,24.7,31,25.5,32.4z M32.5,30.5c0,0.1-0.1,0.3-0.2,0.4
		c-3.4,3-8.6,4.7-14.3,4.7c-5.7,0-10.9-1.7-14.3-4.7c-0.2-0.2-0.2-0.5-0.1-0.7C3.7,30,3.8,30,4,30c0,0,0,0,0,0c0.1,0,0.2,0,0.3,0.1
		c3.2,2.8,8.3,4.4,13.7,4.4c5.4,0,10.5-1.6,13.7-4.4C31.8,30,31.9,30,32,30c0.1,0,0.3,0.1,0.4,0.2C32.5,30.2,32.5,30.4,32.5,30.5z"
		/>
	<path d="M29.6,18.1c0.3,0,0.5-0.2,0.5-0.5v-0.5c0-0.3-0.2-0.5-0.5-0.5s-0.5,0.2-0.5,0.5v0.5C29.1,17.9,29.3,18.1,29.6,18.1z"/>
</g>
</svg>
