<svg xmlns="http://www.w3.org/2000/svg" width="29" height="32" viewBox="0 0 29 32">
    <g fill="#000" fill-rule="evenodd">
        <path d="M22.482 22.678a9.26 9.26 0 0 1-6.195 2.26c-5.251 0-9.108-3.793-9.108-8.998 0-5.206 3.734-8.837 9.108-8.837a9.49 9.49 0 0 1 6.236 2.22l1.149.968 5.087-5.004-1.272-1.17a16.625 16.625 0 0 0-11.2-4.115C6.851.002 0 6.7 0 15.899 0 25.1 7.015 32 16.287 32a16.627 16.627 0 0 0 11.282-4.197l1.231-1.13-5.17-5.003-1.148 1.009z"/>
        <circle cx="16" cy="16" r="5.6"/>
    </g>
</svg>
