<svg xmlns="http://www.w3.org/2000/svg" width="34" height="24" viewBox="0 0 34 24">
    <path fill="#000" fill-rule="nonzero" d="M23.065 14.938c-.858 4.73-4.9 8.6-11.134 8.6C4.484 23.538 0 18.04 0 11.772 0 5.631 4.262 0 11.866 0c6.523 0 10.565 4.125 11.167 9.273h-5.376c-.476-2.622-2.45-4.603-5.725-4.603-4.266 0-6.682 3.39-6.682 7.102 0 3.933 2.704 7.1 6.745 7.1 2.99 0 4.963-1.728 5.599-3.934h5.471zM29.31.523l-3.285 1.415 4.117 9.68-4.119 9.683 3.287 1.412 2.764-6.543.014.03L34 11.618 29.31.523z"/>
</svg>
