<svg xmlns="http://www.w3.org/2000/svg" width="20" height="20" viewBox="0 0 20 20">
    <path fill="#000" fill-rule="evenodd" d="M9.997 0C4.477 0 0 4.59 0 10.252c0 4.53 2.865 8.373 6.837 9.73.5.094.683-.223.683-.494 0-.245-.01-1.052-.014-1.909-2.781.62-3.368-1.21-3.368-1.21-.455-1.185-1.11-1.5-1.11-1.5-.907-.636.068-.623.068-.623 1.004.072 1.533 1.057 1.533 1.057.892 1.567 2.339 1.114 2.91.852.089-.663.348-1.115.634-1.371-2.22-.26-4.555-1.138-4.555-5.067 0-1.12.39-2.034 1.03-2.752-.104-.258-.446-1.3.097-2.713 0 0 .84-.276 2.75 1.05a9.354 9.354 0 0 1 2.502-.344c.85.004 1.706.118 2.505.345 1.908-1.327 2.746-1.051 2.746-1.051.544 1.412.202 2.455.098 2.713.641.718 1.03 1.633 1.03 2.752 0 3.938-2.34 4.805-4.566 5.059.359.318.678.942.678 1.898 0 1.372-.011 2.476-.011 2.814 0 .273.18.592.687.492 3.97-1.357 6.83-5.2 6.83-9.728C19.995 4.59 15.52 0 9.998 0"/>
</svg>
