<svg xmlns="http://www.w3.org/2000/svg" width="34" height="34" viewBox="0 0 34 34">
    <g fill="#000" fill-rule="evenodd">
        <path d="M17 .022C7.654.022.076 7.815.076 17.43c0 7.691 4.85 14.216 11.574 16.518.845.161 1.156-.378 1.156-.837 0-.415-.015-1.787-.023-3.241-4.708 1.053-5.702-2.054-5.702-2.054-.77-2.012-1.88-2.548-1.88-2.548-1.535-1.08.117-1.058.117-1.058 1.699.123 2.594 1.795 2.594 1.795 1.51 2.66 3.96 1.891 4.925 1.446.152-1.125.59-1.893 1.075-2.328-3.76-.44-7.711-1.932-7.711-8.603 0-1.9.661-3.453 1.744-4.672-.176-.439-.756-2.21.164-4.607 0 0 1.42-.468 4.655 1.785 1.35-.386 2.798-.58 4.236-.586 1.438.006 2.887.2 4.24.586 3.23-2.253 4.65-1.785 4.65-1.785.92 2.398.341 4.168.166 4.607 1.085 1.219 1.741 2.772 1.741 4.672 0 6.687-3.959 8.158-7.728 8.59.607.54 1.148 1.6 1.148 3.224 0 2.329-.02 4.203-.02 4.777 0 .463.306 1.006 1.164.835 6.72-2.304 11.564-8.827 11.564-16.516C33.925 7.815 26.347.022 17 .022z"/>
        <path d="M6.486 25.016c-.037.086-.17.112-.29.053-.123-.057-.192-.175-.152-.262.036-.089.169-.113.291-.054.123.057.193.176.151.263zM7.171 25.803c-.08.076-.238.04-.345-.081-.111-.121-.132-.284-.05-.362.084-.076.236-.04.347.08.111.124.133.284.048.363zM7.839 26.805c-.104.074-.274.004-.378-.15-.104-.155-.104-.341.002-.416.105-.074.272-.007.378.147.104.157.104.343-.002.419zM8.753 27.773c-.093.106-.29.077-.435-.066-.148-.14-.19-.34-.097-.445.095-.106.294-.076.439.067.147.14.192.34.093.444zM10.014 28.336c-.041.136-.231.198-.423.14-.191-.06-.316-.22-.278-.357.04-.137.231-.201.424-.14.192.06.317.218.277.357zM11.4 28.44c.004.144-.158.263-.36.266-.202.004-.366-.112-.368-.254 0-.144.159-.262.361-.266.201-.004.366.112.366.254zM12.688 28.215c.024.14-.116.284-.315.322-.197.037-.379-.05-.404-.189-.024-.143.118-.287.314-.325.2-.035.38.05.405.192z"/>
    </g>
</svg>
