<?xml version="1.0" encoding="utf-8"?>
<!-- Generator: Adobe Illustrator 24.0.1, SVG Export Plug-In . SVG Version: 6.00 Build 0)  -->
<svg version="1.1" xmlns="http://www.w3.org/2000/svg" xmlns:xlink="http://www.w3.org/1999/xlink" x="0px" y="0px"
	 viewBox="0 0 800 592" style="enable-background:new 0 0 800 592;" xml:space="preserve">
<style type="text/css">
	.st0{display:none;}
	.st1{display:inline;}
	.st2{fill-rule:evenodd;clip-rule:evenodd;fill:#1B1A19;}
	.st3{filter:url(#Adobe_OpacityMaskFilter);}
	.st4{fill-rule:evenodd;clip-rule:evenodd;fill:#FFFFFF;}
	.st5{mask:url(#mask-2_1_);fill-rule:evenodd;clip-rule:evenodd;fill:#1B1A19;}
	.st6{filter:url(#Adobe_OpacityMaskFilter_1_);}
	.st7{mask:url(#mask-4_1_);fill-rule:evenodd;clip-rule:evenodd;fill:#1B1A19;}
	.st8{filter:url(#Adobe_OpacityMaskFilter_2_);}
	.st9{mask:url(#mask-6_1_);fill-rule:evenodd;clip-rule:evenodd;fill:#1B1A19;}
	.st10{fill-rule:evenodd;clip-rule:evenodd;fill:#FFFFFE;}
	.st11{fill-rule:evenodd;clip-rule:evenodd;fill:none;stroke:#000000;stroke-width:2;stroke-miterlimit:10;}
</style>
<g id="Layer_1" class="st0">
	<title>Hes</title>
	<desc>Created with Sketch.</desc>
	<g id="Scenarios" class="st1">
		<g id="_x2D_g-Exyte_x5F_Illustrations" transform="translate(-302.000000, -1534.000000)">
			<g id="Hes" transform="translate(436.000000, 1624.000000)">
				<path id="Fill-1" class="st2" d="M190.1,231.4l-0.9,0.9c-1.2,1.1-4,3.1-5.4,2.6c-1.8-0.7-3.9-3.5-4.5-4.6l-0.6-1l-0.9,0.8
					c-0.5,0.4-2.4,1.5-10,2l-1.3,0.1l0.4,1.2c2.4,7.2-0.3,11.8-2,13.9c-1.8,2.1-3.6,2.7-4,2.7l-1.1-0.2l-1.8,23.9l0.2,0.3
					c1.3,1.9,2.1,3.1,2.1,3.1l1.5,2.1l0.4-3.2c0.5-0.7,1.1-1.3,1.5-1.6c0.4,0.7,0.6,1.9,0.8,2.8c0.1,0.5,0.2,1,0.3,1.4l0.1,0.2
					c0.4,1.4,0.7,1.8,2.7,2.7c0.2,0.1,0.3,0.4,0.3,1.1c0,0.7-0.2,1.7-0.5,2.4l-0.4,0.8l14.5,8.6l17.3-48.6L190.1,231.4"/>
				<polyline id="Fill-2" class="st2" points="99,361.5 96.5,350.6 107.7,346.6 108.4,348.5 98.8,351.9 100.5,359 110,356.3 
					110.6,358.2 99,361.5 				"/>
				<path id="Fill-3" class="st2" d="M120.8,355.3l-0.6-1.9l27.9-8c2.2-0.6,4.2-2,5.6-3.9l19.4-25.7l1.6,1.2l-19.4,25.7
					c-1.7,2.2-4,3.8-6.7,4.6L120.8,355.3"/>
				<path id="Fill-4" class="st2" d="M119.6,344.6l-0.7-1.9l15.3-5.4c0.2-4.4,1.1-6.7,2.6-6.8c0.6-0.1,1.2,0.1,1.7,0.2
					c0.9,0.2,0.9,0.2,1.3-0.6c0.7-1.7,9.8-15.8,17.2-27.3l1.7,1.1c-10.2,15.8-16.6,25.9-17.1,27c-1,2.4-2.6,2-3.6,1.8
					c-0.3-0.1-0.6-0.1-0.9-0.1c-0.4,0.6-0.9,3.1-1,5.6l0,0.7L119.6,344.6"/>
				<path id="Fill-5" class="st2" d="M155.4,307c-0.5,5,5.5,7.7,7,12.6c1.5,4.9,1,10.8,1,10.8l10.7-13.8l-16.3-13.4L155.4,307"/>
				<polygon id="Fill-6" class="st2" points="205.7,268.1 207.7,268.1 207.7,132.3 205.7,132.3 				"/>
				<polygon id="Fill-7" class="st2" points="205.7,318.2 207.7,318.2 207.7,281.6 205.7,281.6 				"/>
				<polyline id="Fill-8" class="st2" points="368.7,341 216.3,341 216.3,339 366.7,339 366.7,261.7 368.7,261.7 368.7,341 				"/>
				<polyline id="Fill-9" class="st2" points="368.7,201 366.7,201 366.7,59 207.7,59 207.7,92.8 205.7,92.8 205.7,57 368.7,57 
					368.7,201 				"/>
				<polygon id="Fill-10" class="st2" points="224.8,257 226.8,257 226.8,132.3 224.8,132.3 				"/>
				<polyline id="Fill-11" class="st2" points="349.5,276.5 224.8,276.5 224.8,267 226.8,267 226.8,274.5 347.5,274.5 347.5,261.7 
					349.5,261.7 349.5,276.5 				"/>
				<polyline id="Fill-12" class="st2" points="349.5,201 347.5,201 347.5,79.9 226.8,79.9 226.8,92.8 224.8,92.8 224.8,77.9 
					349.5,77.9 349.5,201 				"/>
				<polyline id="Fill-13" class="st2" points="532.6,168.7 388.2,168.7 402.3,154.9 411.5,154.9 411.5,156.9 403.1,156.9 
					393.1,166.7 527.7,166.7 517.8,156.9 511.8,156.9 511.8,154.9 518.6,154.9 532.6,168.7 				"/>
				<polyline id="Fill-14" class="st2" points="530.2,177.9 390.7,177.9 399,167.7 521.9,167.7 530.2,177.9 				"/>
				<path id="Fill-15" class="st2" d="M453,91.4l6.9,4.1l8-4.1c-2.2-1.2-4.5-3.2-4.8-5.6c-0.1-1.6-0.1-3.6,0-5.1l0-1l0.1-0.2
					c0.7-1.5,1.3-3.4,1.6-5.2c0.3-1.5-0.5-4.2-2.3-7.8c-0.2,0.2-0.3,0.4-0.5,0.6c-0.6,0.7-1.2,1.5-1.9,1.9l-0.7,0.5
					c-3.1,1.9-4.4,2.7-2.7,9.4c0.2,0.5,0.7,1.3,1.2,2l0.2,0.3l0,0.3c0,1.3,0,2.9-0.1,4.4C457.9,88.2,455.4,90.2,453,91.4z
					 M459.9,97.8L448.3,91l2.2-0.7c2.2-0.7,5.5-2.8,5.7-4.8c0.1-1.3,0.1-2.7,0.1-3.9c-0.4-0.5-0.9-1.4-1.3-2.2l0-0.1
					c-2-7.8-0.1-9.3,3.6-11.6l0.7-0.4c0.4-0.2,0.9-0.9,1.4-1.5c0.6-0.7,1.2-1.5,1.8-1.8l0.9-0.5l0.5,0.9c1.6,3,3.7,7.4,3.1,10.3
					c-0.3,2-0.9,3.9-1.7,5.5l0,0.6c-0.1,1.4-0.1,3.4,0,4.8c0.2,2,3.3,4.1,5.4,4.8l2.3,0.7L459.9,97.8L459.9,97.8z"/>
				<path id="Fill-16" class="st2" d="M101.5,271c1.8,0.8,3.5,0.7,5.3-0.2l17.5-7.9l-4.5-4l-15.2,5.3l-0.8-0.3L101.5,271z
					 M103.9,273.5c-1.4,0-2.7-0.4-4.1-1.1l-0.7-0.4l3.5-10.6l2.1,0.7l15.7-5.4l7.7,6.8l-20.3,9.2
					C106.4,273.2,105.2,273.5,103.9,273.5L103.9,273.5z"/>
				<path id="Fill-17" class="st2" d="M192.5,263.5l6.8,14.2c0.5,1.5,2,2.8,3.7,3.3c1.5,0.4,2.9,0.1,3.9-0.7l19.2-14.7l-3.2-5.1
					l-18.4,10.1l-7.1-20.7L192.5,263.5z M204.3,283.1c-0.6,0-1.2-0.1-1.8-0.2c-2.4-0.6-4.3-2.3-5.1-4.5l-7.1-14.9l7.1-19.9l8.2,23.9
					l18-9.8l5.2,8.3l-20.6,15.8C207.1,282.7,205.8,283.1,204.3,283.1L204.3,283.1z"/>
				<path id="Fill-18" class="st2" d="M90,229.2l7.8,1.5v-7.1l1.5,0.8c0.9,0.5,3,1.3,4.1,0.9c0.8-1.3-0.5-9.4-1.4-12.2
					c-0.8-2.6-2.7-4.6-3.5-5.3l-6.8,1.7l-1.3,8.4L90,229.2z M99.8,233.2L88,230.9l0.5-13.3l1.5-9.8l9.1-2.2l0.4,0.3
					c0.1,0.1,3.2,2.7,4.5,6.6c0,0.1,3.6,13.2,0.4,14.6c-1.4,0.6-3.2,0.2-4.4-0.3V233.2L99.8,233.2z"/>
				<polygon id="Fill-19" class="st2" points="206.7,296.3 367.7,296.3 367.7,294.3 206.7,294.3 				"/>
				<path id="Fill-20" class="st2" d="M300.4,318.2c0,7.3-5.9,13.2-13.2,13.2c-7.3,0-13.2-5.9-13.2-13.2c0-7.3,5.9-13.2,13.2-13.2
					C294.5,304.9,300.4,310.9,300.4,318.2"/>
				<path id="Fill-21" class="st2" d="M406.1,333.8c1.1,0,2.2,0.4,3.2,0.7c1.6,0.6,3.2,1.1,5.3,0.3c5.3-2,8.1-15.8,8.1-22.6
					c0-3.5-1.2-6-3.6-7.4c-3.1-1.8-7.4-1.2-10,0.3c-1.8,1-4,1.1-5.9,0.1c-2.6-1.4-6.9-1.9-9.9-0.1c-2.4,1.4-3.7,4-3.7,7.6
					c0,6.8,2.7,20,8,22.1c2.1,0.8,3.7,0.3,5.3-0.3C403.9,334.2,404.9,333.8,406.1,333.8z M412.4,337.2c-1.5,0-2.7-0.4-3.8-0.8
					c-0.9-0.3-1.7-0.6-2.5-0.6c-0.8,0-1.6,0.3-2.5,0.6c-1.7,0.6-3.9,1.3-6.7,0.3c-6.6-2.5-9.3-16.8-9.3-23.9c0-5.4,2.5-8,4.7-9.3
					c3.3-2,8.2-2,11.9,0c1.2,0.7,2.7,0.7,3.9,0c3.1-1.7,8.1-2.6,12-0.3c2.1,1.2,4.6,3.8,4.6,9.1c0,7-2.8,21.9-9.4,24.4
					C414.2,337.1,413.3,337.2,412.4,337.2L412.4,337.2z"/>
				<path id="Fill-22" class="st2" d="M418.9,291.4c-1.8,0.3-5.4,1.2-8,3.7c-2.5,2.5-3.4,6.1-3.7,8c1.8-0.3,5.4-1.2,8-3.7
					C417.8,296.9,418.6,293.3,418.9,291.4z M405,305.3l0-1.1c0-0.3,0.3-6.4,4.4-10.5c4.1-4.1,10.2-4.4,10.5-4.4l1.1-0.1l-0.1,1.1
					c0,0.3-0.3,6.4-4.4,10.5c-4.1,4.1-10.2,4.4-10.5,4.4L405,305.3L405,305.3z"/>
				<path id="Fill-23" class="st2" d="M142.8,131.3h96.7V93.8h-96.7V131.3z M140.8,133.3h100.7V91.8H140.8V133.3z"/>
				<path id="Fill-24" class="st2" d="M161.8,112.3c0,2.7-2.2,4.8-4.8,4.8c-2.7,0-4.8-2.2-4.8-4.8s2.2-4.8,4.8-4.8
					C159.6,107.5,161.8,109.7,161.8,112.3"/>
				<path id="Fill-25" class="st2" d="M184.6,112.3c0,2.7-2.2,4.8-4.8,4.8c-2.7,0-4.8-2.2-4.8-4.8s2.2-4.8,4.8-4.8
					C182.4,107.5,184.6,109.7,184.6,112.3"/>
				<path id="Fill-26" class="st2" d="M207.4,112.3c0,2.7-2.2,4.8-4.8,4.8c-2.7,0-4.8-2.2-4.8-4.8s2.2-4.8,4.8-4.8
					C205.2,107.5,207.4,109.7,207.4,112.3"/>
				<path id="Fill-27" class="st2" d="M230.2,112.3c0,2.7-2.2,4.8-4.8,4.8c-2.7,0-4.8-2.2-4.8-4.8s2.2-4.8,4.8-4.8
					C228,107.5,230.2,109.7,230.2,112.3"/>
				<path id="Fill-28" class="st2" d="M447.4,14.7l10.9,6.3l10.8-6.3l-10.9-6.3L447.4,14.7z M457.8,23.1l-12.9-7.4l0-1.7l12.8-7.4
					l1,0l12.9,7.4l0,1.7l-12.8,7.4L457.8,23.1L457.8,23.1z"/>
				<g id="Group-31" transform="translate(444.287000, 6.410000)">
					<g id="Clip-30">
					</g>
					<defs>
						<filter id="Adobe_OpacityMaskFilter" filterUnits="userSpaceOnUse" x="0.6" y="0" width="26.7" height="16.6">
							<feColorMatrix  type="matrix" values="1 0 0 0 0  0 1 0 0 0  0 0 1 0 0  0 0 0 1 0"/>
						</filter>
					</defs>
					<mask maskUnits="userSpaceOnUse" x="0.6" y="0" width="26.7" height="16.6" id="mask-2_1_">
						<g class="st3">
							<path id="path-1_1_" class="st4" d="M3.1,8.3L14,14.6l10.8-6.3L13.9,2.1L3.1,8.3z M13.5,16.6L0.6,9.2l0-1.7L13.4,0l1,0
								l12.9,7.4l0,1.7l-12.8,7.4L13.5,16.6L13.5,16.6z"/>
						</g>
					</mask>
					<path id="Fill-29" class="st5" d="M3.1,8.3L14,14.6l10.8-6.3L13.9,2.1L3.1,8.3z M13.5,16.6L0.6,9.2l0-1.7L13.4,0l1,0l12.9,7.4
						l0,1.7l-12.8,7.4L13.5,16.6L13.5,16.6z"/>
				</g>
				<path id="Fill-32" class="st2" d="M459.3,22.8l0,12.5l10.9-6.3l0-12.5L459.3,22.8z M458.8,37.9l-1.5-0.9l0-14.8l0.5-0.9
					l12.9-7.4l1.5,0.9l0,14.8l-0.5,0.9L458.8,37.9L458.8,37.9z"/>
				<g id="Group-35" transform="translate(456.287000, 13.410000)">
					<g id="Clip-34">
					</g>
					<defs>
						<filter id="Adobe_OpacityMaskFilter_1_" filterUnits="userSpaceOnUse" x="1" y="0.5" width="14.9" height="24">
							<feColorMatrix  type="matrix" values="1 0 0 0 0  0 1 0 0 0  0 0 1 0 0  0 0 0 1 0"/>
						</filter>
					</defs>
					<mask maskUnits="userSpaceOnUse" x="1" y="0.5" width="14.9" height="24" id="mask-4_1_">
						<g class="st6">
							<path id="path-3_1_" class="st4" d="M3,9.4l0,12.5l10.9-6.3l0-12.5L3,9.4z M2.5,24.5L1,23.6L1,8.8l0.5-0.9l12.9-7.4l1.5,0.9
								l0,14.8L15.4,17L2.5,24.5L2.5,24.5z"/>
						</g>
					</mask>
					<path id="Fill-33" class="st7" d="M3,9.4l0,12.5l10.9-6.3l0-12.5L3,9.4z M2.5,24.5L1,23.6L1,8.8l0.5-0.9l12.9-7.4l1.5,0.9
						l0,14.8L15.4,17L2.5,24.5L2.5,24.5z"/>
				</g>
				<path id="Fill-36" class="st2" d="M446.4,29l10.9,6.3l0-12.5l-10.9-6.3L446.4,29z M457.8,37.9l-12.9-7.4l-0.5-0.9l0-14.8
					l1.5-0.9l12.9,7.4l0.5,0.9l0,14.8L457.8,37.9L457.8,37.9z"/>
				<g id="Group-39" transform="translate(444.287000, 13.410000)">
					<g id="Clip-38">
					</g>
					<defs>
						<filter id="Adobe_OpacityMaskFilter_2_" filterUnits="userSpaceOnUse" x="0.1" y="0.5" width="14.9" height="24">
							<feColorMatrix  type="matrix" values="1 0 0 0 0  0 1 0 0 0  0 0 1 0 0  0 0 0 1 0"/>
						</filter>
					</defs>
					<mask maskUnits="userSpaceOnUse" x="0.1" y="0.5" width="14.9" height="24" id="mask-6_1_">
						<g class="st8">
							<path id="path-5_1_" class="st4" d="M2.1,15.6L13,21.9l0-12.5L2.2,3.1L2.1,15.6z M13.5,24.5L0.6,17l-0.5-0.9l0-14.8l1.5-0.9
								l12.9,7.4l0.5,0.9l0,14.8L13.5,24.5L13.5,24.5z"/>
						</g>
					</mask>
					<path id="Fill-37" class="st9" d="M2.1,15.6L13,21.9l0-12.5L2.2,3.1L2.1,15.6z M13.5,24.5L0.6,17l-0.5-0.9l0-14.8l1.5-0.9
						l12.9,7.4l0.5,0.9l0,14.8L13.5,24.5L13.5,24.5z"/>
				</g>
				<path id="Fill-40" class="st2" d="M421,138c-4.1,0-7.4,0.6-9.7,1.9c-2.8,1.5-4.2,3.9-4.2,7.3c0,7.3,5.8,12.4,14.2,12.5
					c13,0.2,44.7,0.2,51.7,0.1l-1.5-4.7c-2.6-1.1-16.8-7.2-29.9-11.8C431.5,139.8,424.6,138,421,138z M460.5,161.8
					c-12.5,0-30.3,0-39.3-0.2c-9.4-0.1-16.2-6.2-16.2-14.5c0-4.1,1.8-7.2,5.3-9.1c2.6-1.4,6.2-2.1,10.6-2.1c3.8,0,11,1.8,21.2,5.4
					c14.4,5.1,30.3,12,30.5,12.1l0.4,0.2l2.6,8.2l-1.4,0C474.2,161.8,468.4,161.8,460.5,161.8L460.5,161.8z"/>
				<path id="Fill-41" class="st2" d="M460.7,161.8c-7.9,0-13.6,0-13.8,0l0-2c0.4,0,38.4,0.1,53-0.1c8.4-0.1,14.2-5.3,14.2-12.5
					c0-3.4-1.4-5.8-4.2-7.3c-2.3-1.2-5.6-1.9-9.7-1.9c-8.8,0-32.2,9.3-39.1,12.1l-0.8-1.9c9-3.7,31-12.3,39.9-12.3
					c4.4,0,8,0.7,10.6,2.1c3.5,1.9,5.3,4.9,5.3,9.1c0,8.3-6.8,14.4-16.2,14.5C491,161.8,473.2,161.8,460.7,161.8"/>
				<path id="Fill-42" class="st2" d="M475.5,159.8h20.9c-0.5-0.4-1.1-0.8-1.8-0.9c-0.7-0.1-1.3-0.2-2.1-0.2
					c-2.5-0.2-5.4-0.3-9.6-3.9c-2.4-2-4.5-3-6.2-2.8c-1,0.1-2,0.7-2.8,1.7L475.5,159.8z M500.2,161.8H474l-2.2-8.5l0.3-0.4
					c1.2-1.7,2.7-2.7,4.5-2.9c2.3-0.3,4.8,0.8,7.7,3.2c3.8,3.2,6.2,3.3,8.5,3.5c0.8,0,1.5,0.1,2.3,0.2c2.7,0.5,4.3,3.3,4.4,3.4
					L500.2,161.8L500.2,161.8z"/>
				<path id="Fill-43" class="st2" d="M275.9,181.3c-8.5,0-15.7-7.3-23.5-15.1c-9.2-9.3-18.8-18.9-31.8-18.9
					c-12.6,0-30.8,10.8-30.8,27.7h-2c0-18.4,19.1-29.7,32.8-29.7c13.8,0,24.1,10.3,33.2,19.5c7.4,7.5,14.4,14.5,22.1,14.5
					c16.3,0,29.6-19.9,29.6-44.4c0-9.3-0.3-18.9-0.6-28.2C303.8,69,302.6,30.2,319.3,0l1.8,1c-16.4,29.7-15.3,68.3-14.1,105.6
					c0.3,9.3,0.6,19,0.6,28.3C307.5,160.4,293.3,181.3,275.9,181.3"/>
				<path id="Fill-44" class="st2" d="M324.9,411.9h-2c0-5.3-1.7-7.9-3.4-10.6c-1.8-2.9-3.7-5.8-3.7-11.7c0-5.9,1.9-8.8,3.7-11.7
					c1.8-2.7,3.4-5.3,3.4-10.6c0-5.3-1.7-7.9-3.4-10.6c-1.8-2.9-3.7-5.8-3.7-11.7c0-5.9,1.9-8.8,3.7-11.7c1.8-2.7,3.4-5.3,3.4-10.6
					h2c0,5.9-1.9,8.8-3.7,11.7c-1.8,2.7-3.4,5.3-3.4,10.6c0,5.3,1.7,7.9,3.4,10.6c1.8,2.9,3.7,5.8,3.7,11.7c0,5.9-1.9,8.8-3.7,11.7
					c-1.8,2.7-3.4,5.3-3.4,10.6c0,5.3,1.7,7.9,3.4,10.6C323,403,324.9,406,324.9,411.9"/>
				<path id="Fill-45" class="st2" d="M341,411.9h-2c0-5.3-1.7-7.9-3.4-10.6c-1.8-2.9-3.7-5.8-3.7-11.7c0-5.9,1.9-8.8,3.7-11.7
					c1.8-2.7,3.4-5.3,3.4-10.6c0-5.3-1.7-7.9-3.4-10.6c-1.8-2.9-3.7-5.8-3.7-11.7c0-5.9,1.9-8.8,3.7-11.7c1.8-2.7,3.4-5.3,3.4-10.6
					h2c0,5.9-1.9,8.8-3.7,11.7c-1.8,2.7-3.4,5.3-3.4,10.6c0,5.3,1.7,7.9,3.4,10.6c1.8,2.9,3.7,5.8,3.7,11.7c0,5.9-1.9,8.8-3.7,11.7
					c-1.8,2.7-3.4,5.3-3.4,10.6c0,5.3,1.7,7.9,3.4,10.6C339.1,403,341,406,341,411.9"/>
				<polyline id="Fill-46" class="st2" points="12.8,352.4 7.6,345.1 50.5,325 75.1,296.6 76.6,297.9 51.7,326.7 51.5,326.8 
					10.6,345.9 13.5,350.1 63.6,333.4 84.7,311.9 86.1,313.3 64.7,335.1 12.8,352.4 				"/>
				<path id="Fill-47" class="st2" d="M118.2,388l2.1,8.4l18.1,0c-0.9-1.2-3-3.6-6-3.8c-7.1-0.6-8.6-5.2-8.9-7L118.2,388z
					 M119.5,397.4l-2.5-9.9l7.5-3.4l0,0.8c0,0.2,0.2,6.1,8,6.7c4.6,0.4,7.1,4.9,7.2,5.1l0.4,0.7L119.5,397.4L119.5,397.4z"/>
				<path id="Fill-48" class="st2" d="M210.7,389.9l0.8,6.5l19,0c-0.9-1.1-2.8-3.2-5.8-3.5c-5.7-0.7-7.2-3.3-7.6-4.4L210.7,389.9z
					 M210.6,397.4l-1-8.2l8.2-1.9l0.1,0.5c0,0.1,0.6,3.3,6.9,4.1c4.6,0.5,6.9,4.6,7,4.7l0.4,0.8L210.6,397.4L210.6,397.4z"/>
				<path id="Fill-49" class="st2" d="M89.1,354.8l3,17.8c1.2-1.1,2.7-2.9,2.6-5.4c-0.3-5.4,2.3-7.4,3.8-8.2l-1.5-6.5L89.1,354.8z
					 M90.7,376l-3.8-22.6l11.6-3.4l2.4,10.4l-1,0.2c-0.1,0-3.4,1-3.2,6.5c0.3,5.1-4.5,8.1-4.7,8.2L90.7,376L90.7,376z"/>
				<path id="Fill-50" class="st2" d="M2.2,349.8l2.3,16.6c1-1.2,2.3-3.1,2.1-5.3c-0.3-6.7,3.4-9.5,5.5-10.5l-2.7-3.7L2.2,349.8z
					 M3,370.2l-3-21.7l10.2-4.1l5.2,7.2l-1.5,0.3c-0.2,0.1-5.7,1.5-5.3,9c0.2,4.9-4.1,8.1-4.3,8.3L3,370.2L3,370.2z"/>
				<path id="Fill-51" class="st2" d="M116.9,389.1l-12.5-52.4c-3.8-4.1-29.9-32.8-29.9-41.5c0-4.6,0.4-6.9,1.7-9.8l1.8,0.8
					c-1.2,2.6-1.5,4.8-1.5,9c0,6.8,21.3,31.4,29.5,40.3l0.2,0.2l12,50.6l4.7-2.1l-6-52.4l-32.8-56.7c-0.4,0.8-0.8,1.5-1.2,2.2
					l-1.8-1c0.6-1.1,1.3-2.4,2-3.8l0.8-1.6l34.9,60.2l6.2,54.3L116.9,389.1"/>
				<path id="Fill-52" class="st2" d="M87.5,230c-8.9,0.8-23.2,13.3-28.1,18.3c-4,4.1-4.2,10.6-0.4,14.9l13.3,15l2-2.7
					c-1.8-2.8-9.1-14.4-9.2-19.6c-0.1-4.3,5.2-8.2,15.6-11.7c4.6-1.6,7.5-6.1,7.1-10.9L87.5,230z M72.4,281.3l-14.9-16.8
					c-4.5-5.1-4.3-12.8,0.5-17.6c0.2-0.2,18.9-18.9,30.4-18.9c0,0,0,0,0,0l0.9,0l0.5,5.1c0.5,5.8-2.9,11.2-8.4,13
					c-9.3,3.1-14.3,6.6-14.2,9.8c0.1,4.3,6.7,15.2,9.3,19.1l0.4,0.6L72.4,281.3L72.4,281.3z"/>
				<path id="Fill-53" class="st2" d="M179.6,230.7c0.9,1.2,2.6,3.5,4.2,4.1c1.3,0.5,3.8-1.1,5.1-2.3c-0.1-2.1-0.4-11.2-1-19
					c-0.1-0.9-1.3-1.7-2.3-2.2c-1.1-0.4-1.3-1.9-1.6-4.2c-0.3-1.8-0.7-4.6-1.6-5.2c-0.4-0.2-0.7-0.3-1.1-0.2c-1.2,0.3-2.6,2.2-3.9,5
					c-1.4,3.1,0.3,13.5,1.4,15.3c0.5-0.1,1.2-0.5,1.8-0.7c1-0.5,1.8-0.9,2.5-0.6c0.3,0.1,0.6,0.4,0.7,0.7
					C183.7,222.1,184,222.8,179.6,230.7z M184.3,236.9c-0.4,0-0.9-0.1-1.3-0.2c-2.8-1.1-5.4-5.2-5.5-5.4l-0.3-0.5l0.3-0.5
					c1.4-2.4,2.8-5.2,3.6-6.9c-0.9,0.4-1.8,0.9-2.7,0.9c-0.5,0-1-0.3-1.3-0.9c-1.5-2.4-3.3-13.5-1.6-17.3c1.6-3.5,3.4-5.6,5.2-6.1
					c0.9-0.3,1.9-0.1,2.7,0.4c1.7,1.1,2.1,4,2.5,6.6c0.1,1,0.3,2.2,0.5,2.7c1.6,0.7,3.3,2,3.4,3.8c0.8,8.9,1.1,19.5,1.1,19.6l0,0.4
					l-0.3,0.3C190.2,234.1,187.1,236.9,184.3,236.9L184.3,236.9z"/>
				<path id="Fill-54" class="st2" d="M307.8,260.7h147V202h-147V260.7z M305.8,262.7h151V200h-151V262.7z"/>
				<path id="Fill-55" class="st2" d="M317.3,252.8h128v-42.9h-128V252.8z M315.3,254.8h132v-46.9h-132V254.8z"/>
				<polygon id="Fill-56" class="st2" points="316.3,209.8 446.2,209.8 446.2,207.8 316.3,207.8 				"/>
				<polygon id="Fill-57" class="st2" points="316.3,221.1 446.2,221.1 446.2,219.1 316.3,219.1 				"/>
				<polygon id="Fill-58" class="st2" points="316.3,232.3 446.2,232.3 446.2,230.3 316.3,230.3 				"/>
				<polygon id="Fill-59" class="st2" points="316.3,243.6 446.2,243.6 446.2,241.6 316.3,241.6 				"/>
				<polygon id="Fill-60" class="st2" points="316.3,254.8 446.2,254.8 446.2,252.8 316.3,252.8 				"/>
				<polygon id="Fill-61" class="st2" points="315.6,253.8 317.6,253.8 317.6,208.8 315.6,208.8 				"/>
				<polygon id="Fill-62" class="st2" points="326.4,253.8 328.4,253.8 328.4,208.8 326.4,208.8 				"/>
				<polygon id="Fill-63" class="st2" points="337.2,253.8 339.2,253.8 339.2,208.8 337.2,208.8 				"/>
				<polygon id="Fill-64" class="st2" points="348,253.8 350,253.8 350,208.8 348,208.8 				"/>
				<polygon id="Fill-65" class="st2" points="358.8,253.8 360.8,253.8 360.8,208.8 358.8,208.8 				"/>
				<polygon id="Fill-66" class="st2" points="369.6,253.8 371.6,253.8 371.6,208.8 369.6,208.8 				"/>
				<polygon id="Fill-67" class="st2" points="380.4,253.8 382.4,253.8 382.4,208.8 380.4,208.8 				"/>
				<polygon id="Fill-68" class="st2" points="391.2,253.8 393.2,253.8 393.2,208.8 391.2,208.8 				"/>
				<polygon id="Fill-69" class="st2" points="402,253.8 404,253.8 404,208.8 402,208.8 				"/>
				<polygon id="Fill-70" class="st2" points="412.8,253.8 414.8,253.8 414.8,208.8 412.8,208.8 				"/>
				<polygon id="Fill-71" class="st2" points="423.6,253.8 425.6,253.8 425.6,208.8 423.6,208.8 				"/>
				<polygon id="Fill-72" class="st2" points="434.4,253.8 436.4,253.8 436.4,208.8 434.4,208.8 				"/>
				<polygon id="Fill-73" class="st2" points="445.2,253.8 447.2,253.8 447.2,208.8 445.2,208.8 				"/>
				<path id="Fill-74" class="st2" d="M403.6,304.4c0.1,0.1,0.2,0.1,0.3,0.1c-3.3,0.5-5.9,1.4-8.1,3.7c-3.8,4.1,2.5,4.4,1.9,9.9
					c-0.7,6.2,3,9.9,9.6,10.9c3.7,0.5,8.3,0.4,13.6-1.7c-1.4,4-3.4,7.4-6.1,8.4c-3.9,1.5-6.2-0.9-8.9-0.9c-2.7,0-5,2.4-8.9,0.9
					c-6-2.3-8.7-16.2-8.7-23C388.5,302.6,398.3,301.5,403.6,304.4"/>
				<path id="Fill-75" class="st2" d="M165.2,234c-2,0-4.9,0.2-7.3,1c-7.7,2.7-17.1,12.2-19.5,16.3c-1.8,3.2,7.6,23.5,15.8,29.1
					c1.5,1.1,3.5,2.3,4.8,3.2l0.8-6.7c-2-2.8-11.8-17.2-11.5-21.7c0.2-2.4,1.4-4.5,3.3-5.8c1.5-1,3.3-1.3,4.7-0.7
					c0.8,0.3,2.2,0.8,4.2,1.4c0.4,0.1,2.1-0.5,3.8-2.4c1.5-1.6,4.6-6.2,2.5-13.5C166.6,234,166,234,165.2,234z M160.8,286.8
					l-1.3-0.8c0,0-3.7-2.3-6.2-4c-8.1-5.5-19.2-26.9-16.4-31.7c2.5-4.4,12.2-14.3,20.5-17.2c4.6-1.6,10.3-1,10.6-1l0.6,0.1l0.2,0.6
					c3,9-1.1,14.4-3,16.4c-1.9,2-4.2,3.1-5.6,2.7c-2.1-0.6-3.6-1.1-4.4-1.4c-0.6-0.2-1.7-0.1-2.9,0.6c-0.8,0.5-2.2,1.8-2.4,4.2
					c-0.2,3,6.8,14.3,11.3,20.7l0.2,0.3L160.8,286.8L160.8,286.8z"/>
				<path id="Fill-76" class="st2" d="M468.6,93.6l3.4,10.2c1.8,19.5,8.4,32.5,35.1,32.5l6.2,0.6c1-0.6,2-1.3,2.5-1.7
					c-0.2-0.7-0.9-2.2-1.2-2.8l-0.3-0.6c-0.2-0.4-0.4-0.8-0.6-1.2c-0.4,0.9-1.2,1.9-2.8,2c-0.7,0.1-1.3,0.1-2,0
					c-1.8,0-2.8,0-3.6,1.2l-0.4,0.5l-0.6-0.1c-18.1-3.4-27.2-15-27.2-34.5c0-3.1-2.4-6.9-5.2-6.9C469.7,93,468.9,93.4,468.6,93.6z
					 M513.8,139l-6.8-0.6c-29.7,0-35.4-16.5-37-34.2l-3.5-10.5l0-0.2c0-0.6,0.5-2.4,5.5-2.4c4.1,0,7.2,4.8,7.2,8.9
					c0,18.2,8.4,29.1,25,32.4c1.4-1.6,3.3-1.5,4.9-1.5c0.6,0,1.2,0,1.7,0c0.9-0.1,1.2-0.9,1.5-1.8c0.1-0.5,0.3-1.1,0.9-1.2l0.5-0.1
					l0.5,0.4c0.6,0.5,1.5,2,2,3.1l0,0l0.3,0.6c1.3,2.8,1.5,3.6,1.3,4.3c-0.1,0.3-0.3,0.8-3.7,3L513.8,139L513.8,139z"/>
				<path id="Fill-77" class="st2" d="M405.4,135.2c0.4,0.4,1.5,1.1,2.5,1.7l6.1-0.6c29.4,0,33.4-17.1,34.9-33.2l0-0.2l2.9-9
					c0,0,0.1-0.2-0.1-0.4c-0.1-0.1-0.6-0.6-2.5-0.6c-2.6,0-5,4-5,7.2c0,19.3-9.2,30.7-27.4,34.1l-0.6,0.1l-0.4-0.5
					c-0.8-1.2-1.8-1.2-3.6-1.2c-0.6,0-1.3,0-2,0c-1.6-0.2-2.3-1.1-2.8-2c-0.2,0.4-0.5,0.8-0.6,1.2l-0.3,0.6
					C406.3,133,405.6,134.5,405.4,135.2z M407.4,139l-0.3-0.2c-3.4-2.1-3.6-2.7-3.7-3c-0.2-0.6,0-1.5,1.3-4.3l0.3-0.6
					c0.5-1.1,1.4-2.5,2-3.1l0.4-0.4l0.6,0.1c0.6,0.2,0.8,0.7,0.9,1.2c0.3,0.9,0.6,1.7,1.5,1.8c0.5,0.1,1.1,0,1.7,0
					c1.5,0,3.5-0.1,4.9,1.5c16.7-3.3,25.2-14.1,25.2-32.1c0-4.3,3.1-9.2,7-9.2c2.1,0,3.5,0.5,4.2,1.5c0.7,1,0.4,2.1,0.3,2.2
					l-2.9,8.8c-1.7,18.1-7.3,34.8-36.8,34.9L407.4,139L407.4,139z"/>
				<path id="Fill-78" class="st2" d="M474.3,160.8l-0.7-2.3c-5.1-0.1-40.7,3.8-49.4-1.9c-9-5.9-17-4.2-18-7.8
					c0.9,7.3,7.4,11.8,15.1,11.9C436,160.9,474.3,160.8,474.3,160.8"/>
				<path id="Fill-79" class="st2" d="M476.2,142.7c0,0-4.4-7.9-5.2-10.9c-4.1-14.5,0.6-19.9,0.7-25.2l3.2-13.1l-4.6-1.5l-3.8,0.6
					c-4,1.2-8.3,1.1-12.2-0.1l-3.5-0.4l-4.3,1.2l2.1,12.8c0.1,5.4,5.5,11.5,1.4,26c-0.8,3-4.8,10.7-4.8,10.7l15.5,6.2L476.2,142.7"
					/>
				<polygon id="Fill-80" class="st2" points="338.2,230.9 349,230.9 349,220.1 338.2,220.1 				"/>
				<polygon id="Fill-81" class="st2" points="370.5,242.6 381.3,242.6 381.3,231.8 370.5,231.8 				"/>
				<polygon id="Fill-82" class="st2" points="381.3,220.1 392.1,220.1 392.1,209.3 381.3,209.3 				"/>
				<polygon id="Fill-83" class="st2" points="392.2,253.8 403,253.8 403,243 392.2,243 				"/>
				<polygon id="Fill-84" class="st2" points="424.6,231.3 435.4,231.3 435.4,220.5 424.6,220.5 				"/>
				<polygon id="Fill-85" class="st2" points="327.4,242.6 338.2,242.6 338.2,231.8 327.4,231.8 				"/>
				<path id="Fill-86" class="st2" d="M73.6,279.7l1.4,1.6c0.5,0.6,0.9,1.3,1.3,1.8c1.2,1.8,2.1,3,3.3,3.4l0.4,0.1
					c2.4,0.7,3.5,0.8,4,0.8c-0.4-1.1-1.8-3.6-2.4-4.8c-0.4-0.8-0.8-1.4-0.9-1.7c-0.7-1.5,0.8-2.4,1.5-2.8c0.1-0.1,0.2-0.1,0.3-0.2
					c-0.1,0-0.3-0.1-0.6-0.1c-0.7-0.1-1.9,0-2.7,0.1c-0.5,0-0.9,0.1-1.2,0.1c-0.6,0-1.6-0.5-2.4-1.1L73.6,279.7z M83.9,289.4
					c-1.3,0-2.8-0.4-4.3-0.9l-0.4-0.1c-1.9-0.5-3.1-2.2-4.4-4.2c-0.4-0.6-0.8-1.1-1.2-1.7l-2.4-2.7l4.3-5.7l0.8,0.6
					c0.8,0.6,1.8,1.2,2.1,1.3c0.1,0,0.5,0,0.9-0.1c0.9-0.1,2.1-0.2,3-0.1c1.2,0.1,2,0.5,2.4,1.1c0.3,0.5,0.3,1,0.1,1.6
					c-0.3,0.6-0.8,0.9-1.4,1.3c-0.2,0.1-0.5,0.3-0.6,0.4c0.2,0.3,0.4,0.8,0.8,1.4c2.8,5,3.2,6.1,2.6,6.9
					C85.5,289.2,84.8,289.4,83.9,289.4L83.9,289.4z"/>
				<path id="Fill-87" class="st2" d="M121.8,257.9l4.5,4c1.2-0.6,2.5-1.3,2.9-1.6c0.4-1.1-0.6-5.9-1.7-6.7c-0.6-0.5-1-0.4-1.1-0.4
					c-0.4,0.1-1,0.5-1.8,1.9C123.9,256.4,122.7,257.4,121.8,257.9z M126,264.3l-7.8-6.9l1.5-0.6c0,0,2.1-0.9,3.2-2.8
					c1-1.7,2-2.6,3.2-2.8c0.9-0.2,1.8,0.1,2.7,0.8c1.5,1.2,2.3,4.7,2.5,6.4c0.2,2.1-0.1,2.8-0.4,3.1c-0.9,1-3.7,2.2-4.2,2.5
					L126,264.3L126,264.3z"/>
				<path id="Fill-88" class="st2" d="M161,284.7c1.7,1,4.3,1.7,5.5,1.4c0.3-0.1,1.1-1.2,1.2-2.8c0.1-1-0.1-1.6-0.3-1.7
					c-1.9-0.9-2.3-1.3-2.7-2.7l-0.1-0.2c-0.1-0.4-0.2-0.9-0.3-1.4c-0.2-0.9-0.5-2.2-0.8-2.8c-0.4,0.3-1,0.9-1.5,1.6L161,284.7z
					 M165.9,288.2c-2.2,0-5.1-1.2-6.5-2.2l-0.5-0.3l1.2-10.4l0.1-0.2c0.5-0.8,2-2.7,3.3-2.8c0.5,0,0.9,0.2,1.3,0.5
					c0.8,0.9,1.1,2.5,1.5,4c0.1,0.5,0.2,0.9,0.3,1.3l0.1,0.3c0.2,0.8,0.2,0.9,1.6,1.5c1.1,0.5,1.7,1.9,1.5,3.7
					c-0.2,1.6-1.1,4.2-2.8,4.6C166.6,288.1,166.3,288.2,165.9,288.2L165.9,288.2z"/>
				<path id="Fill-89" class="st2" d="M224.5,259.2l3.1,5c2.9-2.4,5.8-5,6.2-5.6c0.2-0.5,0.3-2.1-0.2-2.9c-0.2-0.3-0.4-0.4-0.6-0.4
					C231.5,255.3,227.2,256.8,224.5,259.2z M227.2,267.2l-5.2-8.3l0.5-0.6c2.7-2.9,8.1-5.2,10.7-5c0.9,0.1,1.7,0.5,2.2,1.3
					c0.9,1.5,0.7,3.8,0.3,4.8c-0.5,1.2-5.5,5.3-7.6,7.1L227.2,267.2L227.2,267.2z"/>
				<path id="Fill-90" class="st10" d="M62.7,312.4l11.9,11.1"/>
				<polyline id="Fill-91" class="st2" points="74,324.3 62.1,313.1 63.4,311.7 75.4,322.8 74,324.3 				"/>
				<path id="Fill-92" class="st10" d="M95.9,325.5l13.4-9"/>
				<polyline id="Fill-93" class="st2" points="96.4,326.4 95.3,324.7 108.7,315.7 109.8,317.4 96.4,326.4 				"/>
				<path id="Fill-94" class="st2" d="M75.1,298.1c-2.3,2.7-1.6,7.2,0.5,11.4c2.1,4.2,1.6,11.5,1.6,11.5l8.3-8.4L75.1,298.1"/>
				<polyline id="Fill-95" class="st2" points="66.4,273 71.7,269.3 75.6,275.5 72.3,279.7 66.4,273 				"/>
				<path id="Fill-96" class="st2" d="M457.5,81.1c-0.4-0.6-0.8-1.3-1.1-2.1c-2-8-0.1-8.3,3.6-10.7c1-0.6,2-2.7,2.9-3.2
					c1.2,2.3,3.1,6.4,2.6,9.1c-0.3,1.9-0.9,3.9-1.7,5.5c0,1.4-0.1,4,0,5.8c7.7-0.6,13.7-3.2,13.7-3.2s-2-1.8-3.2-4.6
					c-2.8-6.5-6.8-17.8-13.7-17.8c-7.7,0-11.9,11.2-14.4,17.7c-1,2.6-4.3,4.5-4.3,4.5s7.7,2.8,15.5,3.4
					C457.5,84.3,457.5,82.5,457.5,81.1"/>
				<path id="Fill-97" class="st2" d="M217.4,377c0.3,6,0.5,10.8,0.5,10.8l-0.5,0.1c0.8,1.9,2.7,4.1,7.3,4.5
					c4.4,0.4,6.7,4.5,6.7,4.5l-20.4,0l-0.5-7.4l-0.4,0.1c0,0-1-4.2-2.2-9.7c-7.8,2.3-14.5,4.2-18.6,4.2c-17.5,0-19.2-5.8-39.5-5.8
					c-10,0-18.4,3.2-25.9,6.5c0,0,0,6.5,8.5,7.2c4.4,0.4,6.8,4.8,6.8,4.8l-19.5,0l-2.3-9.1c-5.7,2.6-11,4.8-16.1,4.8
					c-8.5,0-14.6-3.8-29.9-3.8c-9.5,0-18.2,3.7-27.6,9.2h208.1v-28C241.9,370,229.1,373.5,217.4,377"/>
				<path id="Fill-98" class="st2" d="M93.8,203c-5.5,0.8-11.1,12-14.4,13.8c-3.4,1.8-11.5-2.9-15.4,0c-3.9,2.9-4.4,12-9.6,13.2
					c-5.1,1.2-13.9,5-11.6,12c1.9,5.9,5.8,8.3,13,9.9c0.6-1.6,1.5-3.1,2.8-4.4c4.5-4.5,20.2-18.6,29.7-18.6l0.3,3
					c3.6-3.6,6.5-9.5,4.5-10.1c-1.6-0.5-3.4-3.5-2.3-4.3c1-0.8,4.7-0.3,4.7-1.3c0-1-1.6-5.5,0-7.1c1.6-1.6,6.8,0,6.8,0
					S99.3,202.3,93.8,203"/>
				<path id="Fill-99" class="st2" d="M85,272.8l12.3,21.3c-0.2-5.8-0.3-16.3,1.5-21.4c2.8-8.2,6-18.5,6.2-20.2
					c0.2-1.6-2-8.7-3.2-11.2c-0.9-2-2.5-7.3-2.9-9c-2.2-0.7-6.7-2.1-9.5-2.3l0.3,3.1c0.4,4.5-1.7,8.9-5.4,11.5
					C86.5,255.5,85.3,270.3,85,272.8z M99.8,302.3L83,273.2l0-0.3c0-0.2,1.7-17.2-0.7-28.6l-0.1-0.7l0.6-0.4c3.4-2.1,5.4-6,5-10
					l-0.5-5.2l1-0.1c3.7-0.3,11.5,2.4,11.8,2.6l0.5,0.2l0.1,0.5c0,0.1,2,7.1,3,9.3c0.9,2.1,3.6,9.9,3.3,12.3
					c-0.3,2.3-4.5,15.1-6.3,20.6c-2.3,6.7-1.2,24.5-1.2,24.7L99.8,302.3L99.8,302.3z"/>
				<path id="Fill-100" class="st2" d="M176.4,206.5c1.8-3.8,4.1-6.8,6.4-5.2c2.3,1.5,1.8,8.8,3.1,9.2s2.8,1.6,2.9,3
					c0.2,2.7,0.4,5.5,0.6,8.1c1.5-1.7,5.4-6.5,5.2-10.1c-0.2-4.5-4.5-5.2-5.8-8.5c-1.3-3.2-3.7-11.2-8.9-8.9c-4.6,2-8.1,7.4-4,14.5
					C176,207.8,176.2,207,176.4,206.5"/>
				<path id="Fill-101" class="st2" d="M209.4,390.7l-0.2-1c-0.3-1.2-7-30.6-7.3-35.4c-0.2-4.5,0.6-11.4,0.9-14l0.1-0.5
					c0.1-0.8,0-0.9-0.8-1.5c-0.4-0.3-0.9-0.8-1.5-1.4c-1-1.2-0.5-2.3,0-3c-1.3-0.5-3.5-1.9-7.6-4.6c-5.6-3.8-13.3-8.9-21.6-12.8
					c-19.5-9.2-17-21.5-15-31.4l0.6-2.9l1.2,0.8c1.3,0.8,2.2,1.4,2.2,1.4l-1.1,1.7c0,0-0.4-0.2-1-0.6l0,0.1
					c-2,9.7-4.2,20.7,13.9,29.2c8.4,3.9,16.2,9.1,21.8,13c3.2,2.2,6.5,4.4,7.3,4.5c0.4,0,1.4,0.1,1.7,0.9c0.3,0.7-0.2,1.3-0.6,1.7
					c-0.6,0.7-0.6,0.7-0.4,0.9c0.4,0.5,0.9,0.9,1.2,1.2c0.9,0.7,1.7,1.4,1.5,3.3l-0.1,0.5c-0.3,2.5-1.2,9.3-0.9,13.6
					c0.2,4.1,5.8,28.9,7,34.1l6-1.4c-0.2-5.1-1.5-32-1.7-35.6c-0.1-1.6,0-5.3,0.1-9.1c0.1-5.1,0.3-12.1-0.1-13.4
					c-1-2.1-21.9-22.5-34.9-35l-12.6-7.5l1-1.7l12.9,7.6c8.1,7.8,34.8,33.4,35.5,35.9c0.5,1.5,0.4,6.6,0.1,14.1
					c-0.1,3.8-0.2,7.4-0.1,8.9c0.2,4,1.7,36.2,1.8,36.5l0,0.8L209.4,390.7"/>
			</g>
		</g>
	</g>
</g>
<g id="Layer_2">
	<polygon id="Fill-9_1_" class="st2" points="162.9,539.4 588.2,539.4 588.2,536.2 162.9,536.2 	"/>
	<path class="st2" d="M731.7,465.2h2.9V246.9h-3.2v218.4c0,0,0,0,0,0C731.5,465.3,731.6,465.2,731.7,465.2z"/>
	<polyline id="Fill-11_1_" class="st2" points="734.6,226.9 731.4,226.9 731.4,109.4 562.2,109.4 562.2,106.2 734.6,106.2 
		734.6,226.9 	"/>
	<polyline id="Fill-12_1_" class="st2" points="151.9,236.1 148.7,236.1 148.7,106.2 425.2,106.2 425.2,109.4 151.9,109.4 
		151.9,236.1 	"/>
	<path id="Fill-13_2_" class="st2" d="M250,410.1h348.2V216.5H250V410.1z M245.2,413.7h357.8V212.9H245.2V413.7z"/>
	<polyline id="Fill-16_1_" class="st2" points="151.9,536.3 186.3,536.3 168.5,510.3 151.9,536.3 	"/>
	<polyline id="Fill-17_1_" class="st2" points="248,216.5 149.9,109.7 151.8,107.9 250,214.7 248,216.5 	"/>
	<path id="Fill-18_1_" class="st2" d="M598.7,216.5l-0.5-1.2c-0.3-0.6-0.1-1.5,0.4-1.8l134.6-106.4c0.5-0.4,1-0.1,1.3,0.5l0,0
		c0.3,0.6,0.1,1.5-0.4,1.8L598.7,216.5"/>
	<path class="st2" d="M731.6,468.1l3-1.5v-16.8l-146.5,73l0.2,16.7L731.6,468.1C731.6,468.1,731.6,468.1,731.6,468.1z"/>
	<polyline id="Fill-13_1_" class="st2" points="476.1,410.1 361.1,410.1 372.3,399.2 459.5,399.2 459.5,400.7 372.9,400.8 
		365,408.6 472.2,408.6 464.2,400.8 459.5,400.8 459.5,399.2 464.9,399.2 476.1,410.1 	"/>
	<polyline id="Fill-14_1_" class="st2" points="474.1,417.5 363,417.5 369.7,409.4 467.5,409.4 474.1,417.5 	"/>
	<g>
		<path class="st2" d="M163.7,538.2c0-0.1,0-0.1,0-0.2v-1.8h-11.9v-77.9h-3.2v81.1h15C163.7,539,163.7,538.6,163.7,538.2
			C163.7,538.2,163.7,538.2,163.7,538.2z"/>
		<rect x="162.9" y="536.2" class="st2" width="1.9" height="3.2"/>
	</g>
	<path class="st11" d="M464.2,400"/>
	<path id="Fill-76_1_" class="st2" d="M427.1,283.7l2.7,8.2c1.4,15.5,6.7,25.9,28,25.9l5,0.5c0.8-0.5,1.6-1.1,2-1.4
		c-0.2-0.5-0.7-1.7-0.9-2.2l-0.2-0.5c-0.1-0.3-0.3-0.6-0.5-0.9c-0.3,0.7-1,1.5-2.2,1.6c-0.5,0.1-1.1,0-1.6,0c-1.4,0-2.2,0-2.9,0.9
		l-0.3,0.4l-0.5-0.1c-14.4-2.7-21.7-11.9-21.7-27.5c0-2.5-1.9-5.5-4.1-5.5C428.1,283.2,427.4,283.5,427.1,283.7z M463.2,319.8
		l-5.4-0.5c-23.7,0-28.2-13.1-29.5-27.3l-2.8-8.4l0-0.1c0-0.5,0.4-1.9,4.3-1.9c3.2,0,5.7,3.8,5.7,7.1c0,14.5,6.7,23.2,19.9,25.8
		c1.1-1.3,2.7-1.2,3.9-1.2c0.5,0,0.9,0,1.3,0c0.8-0.1,1-0.7,1.2-1.4c0.1-0.4,0.2-0.8,0.7-1l0.4-0.1l0.4,0.3c0.4,0.4,1.2,1.6,1.6,2.4
		l0,0l0.2,0.5c1,2.2,1.2,2.9,1.1,3.4c-0.1,0.2-0.2,0.7-2.9,2.3L463.2,319.8L463.2,319.8z"/>
	<path id="Fill-77_1_" class="st2" d="M376.9,316.8c0.4,0.3,1.2,0.9,2,1.4l4.9-0.4c23.4,0,26.6-13.7,27.8-26.4l0-0.2l2.3-7.1
		c0,0,0-0.2-0.1-0.3c-0.1-0.1-0.5-0.5-2-0.5c-2.1,0-4,3.2-4,5.7c0,15.3-7.3,24.5-21.8,27.2l-0.5,0.1l-0.3-0.4
		c-0.6-0.9-1.5-1-2.9-0.9c-0.5,0-1,0-1.6,0c-1.2-0.1-1.9-0.9-2.2-1.6c-0.2,0.3-0.4,0.6-0.5,0.9l-0.2,0.5
		C377.6,315.1,377,316.3,376.9,316.8z M378.5,319.8l-0.2-0.1c-2.7-1.7-2.9-2.1-2.9-2.4c-0.2-0.5,0-1.2,1.1-3.4l0.2-0.5
		c0.4-0.8,1.1-2,1.6-2.4l0.3-0.3l0.5,0.1c0.5,0.1,0.6,0.6,0.7,1c0.2,0.7,0.4,1.4,1.2,1.4c0.4,0,0.9,0,1.3,0c1.2,0,2.8-0.1,3.9,1.2
		c13.3-2.6,20.1-11.2,20.1-25.5c0-3.4,2.4-7.3,5.6-7.3c1.7,0,2.8,0.4,3.3,1.2c0.6,0.8,0.3,1.6,0.3,1.7l-2.3,7
		c-1.3,14.4-5.8,27.7-29.3,27.8L378.5,319.8L378.5,319.8z"/>
	<g>
		<path id="Fill-40_1_" class="st2" d="M417.3,332.9c-0.4-3.2-1.1-5.8-1.9-7.5c-1-2.2-2.3-3.1-3.9-2.9c-3.5,0.4-5.3,5.4-4.5,12
			c1.2,10.3,4.5,35.3,5.2,40.8l2.1-1.5c0.3-2.1,1.7-13.7,2.6-24.3C417.5,341.3,417.7,335.8,417.3,332.9z M410,365.6
			c-1.3-9.9-3.1-23.9-3.9-31c-0.9-7.4,1.3-13.2,5.3-13.7c2-0.3,3.6,1,4.9,3.6c0.9,2,1.6,4.8,2.1,8.3c0.4,3,0.2,8.8-0.4,17.1
			c-0.9,11.7-2.6,24.7-2.6,24.8l0,0.3l-3.6,2.5l-0.1-1.1C411.4,376.4,410.8,371.8,410,365.6L410,365.6z"/>
		<path id="Fill-42_1_" class="st2" d="M412.5,377.3l2.1,16.5c0.2-0.4,0.3-0.9,0.3-1.5c0-0.5-0.1-1.1-0.1-1.6
			c-0.2-2-0.4-4.3,0.9-7.9c0.7-2,1-3.8,0.7-5.1c-0.2-0.8-0.5-1.5-1.1-2.1L412.5,377.3z M414,396.9l-2.7-20.7l3.8-2.3l0.2,0.2
			c0.9,0.9,1.6,2,1.8,3.3c0.4,1.8,0.1,3.9-0.7,6.3c-1.1,3.2-0.9,5.1-0.8,6.9c0.1,0.6,0.1,1.2,0.1,1.8c0,2.2-1.1,3.6-1.2,3.7
			L414,396.9L414,396.9z"/>
		<path id="Fill-78_2_" class="st2" d="M411.9,376.4l1-0.7c-0.5-4.1-6-31.9-4.1-39.2c1.9-7.5,0.2-13.7,1.9-14.7
			c-3.4,1.1-4.8,6.6-4.1,12.6C407.9,346.2,411.9,376.4,411.9,376.4"/>
	</g>
	<path id="Fill-79_1_" class="st2" d="M433.2,322.8c0,0-3.5-6.3-4.2-8.7c-3.3-11.6,0.5-15.8,0.6-20.1l2.6-10.5l-3.7-1.2l-3,0.5
		c-3.2,0.9-6.6,0.9-9.7-0.1l-2.8-0.3l-3.5,0.9l1.7,10.2c0.1,4.3,4.4,9.1,1.1,20.7c-0.7,2.4-3.8,8.6-3.8,8.6l12.3,5L433.2,322.8"/>
	<g>
		<path id="Fill-40_2_" class="st2" d="M423.3,332.5c0.7-3.2,1.5-5.7,2.4-7.4c1.2-2.1,2.5-2.9,4.1-2.6c3.4,0.7,4.9,5.8,3.6,12.3
			c-2,10.2-7.1,34.9-8.3,40.3l-2-1.6c-0.1-2.1-0.7-13.8-0.8-24.5C422.4,340.8,422.7,335.3,423.3,332.5z M428.2,365.6
			c2-9.8,4.9-23.6,6.3-30.6c1.4-7.3-0.4-13.2-4.3-14c-2-0.4-3.7,0.7-5.1,3.2c-1.1,1.9-2,4.6-2.7,8.1c-0.6,3-0.9,8.7-0.9,17.1
			c0.1,11.8,0.8,24.8,0.8,24.9l0,0.3l3.5,2.8l0.2-1.1C426,376.3,426.9,371.8,428.2,365.6L428.2,365.6z"/>
		<path id="Fill-42_2_" class="st2" d="M424.8,377.1l-3.4,16.3c-0.1-0.4-0.2-0.9-0.2-1.5c0-0.5,0.1-1.1,0.2-1.6
			c0.3-2,0.7-4.2-0.3-7.9c-0.6-2.1-0.7-3.8-0.3-5.1c0.2-0.8,0.6-1.5,1.3-2L424.8,377.1z M421.8,396.5l4.2-20.4l-3.7-2.6l-0.2,0.2
			c-1,0.8-1.7,1.9-2.1,3.2c-0.5,1.8-0.4,3.8,0.3,6.4c0.9,3.2,0.6,5.1,0.3,6.9c-0.1,0.6-0.2,1.2-0.3,1.8c-0.2,2.2,0.9,3.7,0.9,3.7
			L421.8,396.5L421.8,396.5z"/>
		<path id="Fill-78_1_" class="st2" d="M425.5,376.3l-1-0.8c0.8-4,8.4-31.4,7.1-38.7c-1.3-7.6,0.8-13.6-0.8-14.8
			c3.3,1.4,4.4,6.9,3.2,12.9C431.7,346.4,425.5,376.3,425.5,376.3"/>
	</g>
	<path id="Fill-28_1_" class="st2" d="M421.3,222.4 M420.8,220.5h1"/>
	<g id="Group-31_1_" transform="translate(444.287000, 6.410000)">
		<g id="Clip-30_1_">
		</g>
		<path id="Fill-29_1_" class="st2" d="M-22.9,216 M-23.4,214.1h1"/>
	</g>
	<g>
		<path id="Fill-32_1_" class="st2" d="M379.9,309.7l10.9-6.3 M392.8,304l-0.5,0.9l-12.9,7.4l0,0l-1.5-0.9"/>
		<g id="Group-35_1_" transform="translate(456.287000, 13.410000)">
			<g id="Clip-34_1_">
			</g>
			<path id="Fill-33_1_" class="st2" d="M-76.4,296.3l10.9-6.3 M-63.4,290.6l-0.5,0.9l-12.9,7.4l0,0l-1.5-0.9"/>
		</g>
		<path id="Fill-36_1_" class="st2" d="M367.1,303.4l10.9,6.3 M379.9,311.4l-1.5,0.9l0,0l-12.9-7.4L365,304"/>
		<g id="Group-39_1_" transform="translate(444.287000, 13.410000)">
			<g id="Clip-38_1_">
			</g>
			<path id="Fill-37_1_" class="st2" d="M-77.2,290l10.9,6.3 M-64.3,298l-1.5,0.9l0,0l-12.9-7.4l-0.5-0.9"/>
		</g>
	</g>
	<g>
		<path id="Fill-32_2_" class="st2" d="M462.6,309.1l10.9-6.3 M475.5,303.4l-0.5,0.9l-12.9,7.4l0,0l-1.5-0.9"/>
		<g id="Group-35_2_" transform="translate(456.287000, 13.410000)">
			<g id="Clip-34_2_">
			</g>
			<path id="Fill-33_2_" class="st2" d="M6.3,295.7l10.9-6.3 M19.3,290l-0.5,0.9l-12.9,7.4l0,0l-1.5-0.9"/>
		</g>
		<path id="Fill-36_2_" class="st2" d="M449.8,302.8l10.9,6.3 M462.6,310.8l-1.5,0.9l0,0l-12.9-7.4l-0.5-0.9"/>
		<g id="Group-39_2_" transform="translate(444.287000, 13.410000)">
			<g id="Clip-38_2_">
			</g>
			<path id="Fill-37_2_" class="st2" d="M5.5,289.4l10.9,6.3 M18.4,297.4l-1.5,0.9l0,0L4,290.9L3.5,290"/>
		</g>
	</g>
	<path id="Fill-15_1_" class="st2" d="M413.3,282.6l6.9,4.1l8-4.1c-2.2-1.2-4.5-3.2-4.8-5.6c-0.1-1.6-0.1-3.6,0-5.1l0-1l0.1-0.2
		c0.7-1.5,1.3-3.4,1.6-5.2c0.3-1.5-0.5-4.2-2.3-7.8c-0.2,0.2-0.3,0.4-0.5,0.6c-0.6,0.7-1.2,1.5-1.9,1.9l-0.7,0.5
		c-3.1,1.9-4.4,2.7-2.7,9.4c0.2,0.5,0.7,1.3,1.2,2l0.2,0.3l0,0.3c0,1.3,0,2.9-0.1,4.4C418.2,279.4,415.7,281.4,413.3,282.6z
		 M420.2,288.9l-11.5-6.8l2.2-0.7c2.2-0.7,5.5-2.8,5.7-4.8c0.1-1.3,0.1-2.7,0.1-3.9c-0.4-0.5-0.9-1.4-1.3-2.2l0-0.1
		c-2-7.8-0.1-9.3,3.6-11.6l0.7-0.4c0.4-0.2,0.9-0.9,1.4-1.5c0.6-0.7,1.2-1.5,1.8-1.8l0.9-0.5l0.5,0.9c1.6,3,3.7,7.4,3.1,10.3
		c-0.3,2-0.9,3.9-1.7,5.5l0,0.6c-0.1,1.4-0.1,3.4,0,4.8c0.2,2,3.3,4.1,5.4,4.8l2.3,0.7L420.2,288.9L420.2,288.9z"/>
	<path id="Fill-96_1_" class="st2" d="M417.8,273.8c-0.4-0.6-0.8-1.2-1.1-1.9c0-0.1-0.1-0.2-0.1-0.3c-1.9-7.8,0-8.2,3.7-10.6
		c0.5-0.3,1-1,1.5-1.6c0.6-0.8,1.9-0.7,2.3,0.3c1,2.3,2.1,5.2,1.7,7.3c-0.3,1.8-0.8,3.7-1.6,5.3c-0.1,0.2-0.1,0.3-0.1,0.5
		c0,1.1-0.1,2.7,0,4.1c0.6,0.5,0.9,0.8,1.6,1.3c6,4.3,8.1-1.6,10.2-2.3c0.9-0.3,1.2-1.4,0.6-2.2c-0.6-0.8-1.4-1.9-1.9-3.2
		c-2.8-6.5-6.8-17.8-13.7-17.8c-7.8,0-11.9,11.3-14.5,17.8c-0.2,0.5-1.5,4.6-1.9,5c-1.3,1.6,0.9,1.7,2.4,0.9
		c2.3-1.3,5.9,1.4,9.3,1.8c0.6-0.5,0.9-0.8,1.6-1.3C417.8,275.8,417.8,274.8,417.8,273.8"/>
</g>
</svg>
