<?xml version="1.0" encoding="UTF-8"?>
<svg width="800px" height="592px" viewBox="0 0 800 592" version="1.1" xmlns="http://www.w3.org/2000/svg" xmlns:xlink="http://www.w3.org/1999/xlink">
    <!-- Generator: Sketch 53.2 (72643) - https://sketchapp.com -->
    <title>Hes</title>
    <desc>Created with Sketch.</desc>
    <defs>
        <path d="M3.125,8.337 L14.017,14.625 L24.828,8.343 L13.937,2.054 L3.125,8.337 Z M13.519,16.647 L0.63,9.206 L0.627,7.475 L13.432,0.034 L14.435,0.032 L27.323,7.474 L27.326,9.205 L14.521,16.646 L13.519,16.647 L13.519,16.647 Z" id="path-1"></path>
        <path d="M2.979,9.359 L3.014,21.864 L13.909,15.574 L13.874,3.069 L2.979,9.359 Z M2.519,24.459 L1.019,23.596 L0.977,8.786 L1.477,7.917 L14.369,0.474 L15.869,1.337 L15.911,16.147 L15.411,17.016 L2.519,24.459 L2.519,24.459 Z" id="path-3"></path>
        <path d="M2.132,15.574 L13.027,21.864 L13.063,9.359 L2.167,3.069 L2.132,15.574 Z M13.522,24.459 L0.63,17.016 L0.13,16.147 L0.172,1.337 L1.672,0.474 L14.564,7.917 L15.064,8.786 L15.022,23.596 L13.522,24.459 L13.522,24.459 Z" id="path-5"></path>
    </defs>
    <g id="Scenarios" stroke="none" stroke-width="1" fill="none" fill-rule="evenodd">
        <g id="-g-Exyte_Illustrations" transform="translate(-302.000000, -1534.000000)">
            <g id="Hes" transform="translate(436.000000, 1624.000000)">
                <path d="M190.131,231.424 L189.224,232.274 C188.071,233.355 185.219,235.403 183.78,234.825 C181.982,234.106 179.903,231.282 179.254,230.255 L178.612,229.24 L177.73,230.054 C177.244,230.502 175.296,231.597 167.725,232.068 L166.431,232.149 L166.838,233.381 C169.23,240.607 166.582,245.18 164.79,247.262 C162.994,249.349 161.195,250.006 160.747,249.931 L159.663,249.744 L157.862,273.658 L158.053,273.945 C159.313,275.835 160.184,277.075 160.184,277.075 L161.688,279.214 L162.073,275.968 C162.558,275.285 163.154,274.634 163.524,274.368 C163.891,275.033 164.169,276.318 164.362,277.209 C164.478,277.751 164.587,278.247 164.7,278.624 L164.773,278.871 C165.178,280.258 165.494,280.705 167.442,281.583 C167.595,281.652 167.767,282.024 167.783,282.678 C167.8,283.426 167.605,284.347 167.273,285.082 L166.904,285.899 L181.443,294.48 L198.758,245.895 L190.131,231.424" id="Fill-1" fill="#1B1A19"></path>
                <polyline id="Fill-2" fill="#1B1A19" points="99.046 361.503 96.479 350.609 107.69 346.648 108.356 348.534 98.837 351.897 100.512 359.003 110.046 356.273 110.597 358.196 99.046 361.503"></polyline>
                <path d="M120.774,355.281 L120.224,353.358 L148.11,345.372 C150.336,344.735 152.33,343.367 153.725,341.519 L173.118,315.836 L174.714,317.041 L155.321,342.724 C153.666,344.916 151.301,346.539 148.661,347.295 L120.774,355.281" id="Fill-3" fill="#1B1A19"></path>
                <path d="M119.6,344.561 L118.934,342.675 L134.191,337.285 C134.434,332.923 135.307,330.622 136.787,330.443 C137.433,330.365 138.01,330.5 138.473,330.611 C139.328,330.813 139.379,330.826 139.737,329.979 C140.445,328.304 149.504,314.193 156.978,302.651 L158.657,303.738 C148.457,319.489 142.073,329.59 141.579,330.758 C140.562,333.162 138.964,332.782 138.011,332.556 C137.707,332.485 137.409,332.415 137.159,332.42 C136.714,332.993 136.255,335.54 136.157,338.042 L136.131,338.72 L119.6,344.561" id="Fill-4" fill="#1B1A19"></path>
                <path d="M155.37,306.979 C154.908,312.003 160.908,314.718 162.408,319.611 C163.908,324.503 163.398,330.368 163.398,330.368 L174.075,316.558 L157.818,303.194 L155.37,306.979" id="Fill-5" fill="#1B1A19"></path>
                <polygon id="Fill-6" fill="#1B1A19" points="205.658 268.117 207.658 268.117 207.658 132.253 205.658 132.253"></polygon>
                <polygon id="Fill-7" fill="#1B1A19" points="205.658 318.186 207.658 318.186 207.658 281.582 205.658 281.582"></polygon>
                <polyline id="Fill-8" fill="#1B1A19" points="368.658 340.958 216.329 340.958 216.329 338.958 366.658 338.958 366.658 261.652 368.658 261.652 368.658 340.958"></polyline>
                <polyline id="Fill-9" fill="#1B1A19" points="368.658 200.988 366.658 200.988 366.658 59.048 207.658 59.048 207.658 92.753 205.658 92.753 205.658 57.048 368.658 57.048 368.658 200.988"></polyline>
                <polygon id="Fill-10" fill="#1B1A19" points="224.794 256.996 226.794 256.996 226.794 132.253 224.794 132.253"></polygon>
                <polyline id="Fill-11" fill="#1B1A19" points="349.522 276.503 224.794 276.503 224.794 267.003 226.794 267.003 226.794 274.503 347.522 274.503 347.522 261.652 349.522 261.652 349.522 276.503"></polyline>
                <polyline id="Fill-12" fill="#1B1A19" points="349.522 200.988 347.522 200.988 347.522 79.935 226.794 79.935 226.794 92.753 224.794 92.753 224.794 77.935 349.522 77.935 349.522 200.988"></polyline>
                <polyline id="Fill-13" fill="#1B1A19" points="532.636 168.66 388.235 168.66 402.277 154.91 411.515 154.91 411.515 156.91 403.094 156.91 393.136 166.66 527.735 166.66 517.777 156.91 511.789 156.91 511.789 154.91 518.594 154.91 532.636 168.66"></polyline>
                <polyline id="Fill-14" fill="#1B1A19" points="530.185 177.897 390.685 177.897 399.015 167.66 521.856 167.66 530.185 177.897"></polyline>
                <path d="M453.025,91.417 L459.939,95.483 L467.938,91.346 C465.732,90.178 463.389,88.178 463.178,85.705 C463.044,84.132 463.126,82.104 463.185,80.624 L463.224,79.626 L463.313,79.438 C464.037,77.919 464.614,76.072 464.939,74.236 C465.213,72.693 464.429,70.071 462.607,66.432 C462.444,66.623 462.28,66.824 462.129,67.009 C461.522,67.749 460.895,68.514 460.258,68.92 L459.537,69.373 C456.456,71.295 455.175,72.096 456.834,78.757 C457.061,79.278 457.503,80.013 458.027,80.743 L458.209,80.995 L458.216,81.306 C458.242,82.57 458.256,84.213 458.129,85.705 C457.917,88.2 455.364,90.245 453.025,91.417 Z M459.877,97.767 L448.329,90.976 L450.486,90.305 C452.687,89.619 455.967,87.526 456.137,85.535 C456.246,84.251 456.243,82.819 456.222,81.653 C455.864,81.137 455.289,80.251 454.96,79.461 L454.913,79.32 C452.962,71.538 454.794,69.976 458.478,67.676 L459.183,67.233 C459.551,66.999 460.099,66.331 460.581,65.742 C461.194,64.993 461.773,64.286 462.366,63.929 L463.271,63.383 L463.766,64.317 C465.362,67.331 467.424,71.675 466.908,74.584 C466.561,76.546 465.975,78.452 465.207,80.11 L465.184,80.705 C465.126,82.132 465.048,84.087 465.17,85.535 C465.344,87.576 468.479,89.65 470.58,90.305 L472.906,91.029 L459.877,97.767 L459.877,97.767 Z" id="Fill-15" fill="#1B1A19"></path>
                <path d="M101.513,270.971 C103.285,271.727 104.991,271.648 106.824,270.739 L124.335,262.825 L119.842,258.867 L104.619,264.153 L103.821,263.893 L101.513,270.971 Z M103.911,273.478 C102.536,273.478 101.164,273.107 99.811,272.363 L99.085,271.963 L102.54,261.372 L104.599,262.043 L120.288,256.594 L127.981,263.371 L107.68,272.546 C106.429,273.167 105.168,273.478 103.911,273.478 L103.911,273.478 Z" id="Fill-16" fill="#1B1A19"></path>
                <path d="M192.5,263.455 L199.284,277.695 C199.829,279.225 201.3,280.509 203.029,280.968 C204.492,281.354 205.896,281.092 206.881,280.245 L226.108,265.502 L222.915,260.388 L204.471,270.449 L197.387,249.742 L192.5,263.455 Z M204.347,283.145 C203.751,283.145 203.136,283.065 202.517,282.901 C200.152,282.274 198.203,280.558 197.418,278.417 L190.337,263.566 L197.426,243.675 L205.596,267.557 L223.613,257.728 L228.766,265.984 L208.141,281.797 C207.118,282.679 205.786,283.145 204.347,283.145 L204.347,283.145 Z" id="Fill-17" fill="#1B1A19"></path>
                <path d="M90.03,229.238 L97.804,230.757 L97.804,223.649 L99.268,224.412 C100.161,224.879 102.299,225.692 103.371,225.323 C104.162,224.041 102.901,215.941 101.987,213.115 C101.137,210.482 99.304,208.53 98.527,207.789 L91.726,209.455 L90.45,217.846 L90.03,229.238 Z M99.804,233.186 L87.968,230.873 L88.464,217.601 L89.95,207.831 L99.053,205.601 L99.44,205.92 C99.57,206.027 102.623,208.577 103.891,212.499 C103.933,212.629 107.496,225.735 104.244,227.128 C102.874,227.716 101.065,227.279 99.804,226.821 L99.804,233.186 L99.804,233.186 Z" id="Fill-18" fill="#1B1A19"></path>
                <polygon id="Fill-19" fill="#1B1A19" points="206.658 296.269 367.658 296.269 367.658 294.269 206.658 294.269"></polygon>
                <path d="M300.408,318.186 C300.408,325.503 294.475,331.435 287.158,331.435 C279.84,331.435 273.909,325.503 273.909,318.186 C273.909,310.868 279.84,304.936 287.158,304.936 C294.475,304.936 300.408,310.868 300.408,318.186" id="Fill-20" fill="#1B1A19"></path>
                <path d="M406.052,333.814 C407.199,333.814 408.244,334.177 409.255,334.529 C410.887,335.097 412.427,335.632 414.551,334.819 C419.874,332.784 422.658,319.047 422.658,312.253 C422.658,308.784 421.417,306.23 419.068,304.869 C415.988,303.084 411.693,303.687 409.042,305.206 C407.242,306.237 404.993,306.257 403.17,305.261 C400.569,303.837 396.319,303.356 393.23,305.187 C390.811,306.62 389.533,309.237 389.533,312.753 C389.533,319.572 392.213,332.778 397.553,334.819 C399.679,335.633 401.218,335.097 402.849,334.529 C403.859,334.177 404.904,333.814 406.052,333.814 Z M412.421,337.232 C410.937,337.232 409.683,336.796 408.598,336.418 C407.666,336.094 406.861,335.814 406.052,335.814 C405.242,335.814 404.437,336.094 403.506,336.418 C401.786,337.016 399.647,337.761 396.838,336.687 C390.263,334.173 387.533,319.858 387.533,312.753 C387.533,307.369 390.076,304.731 392.21,303.467 C395.559,301.482 400.459,301.498 404.131,303.506 C405.346,304.171 406.847,304.158 408.048,303.471 C411.1,301.723 416.163,300.874 420.071,303.139 C422.164,304.351 424.658,306.917 424.658,312.253 C424.658,319.294 421.822,334.181 415.266,336.687 C414.23,337.083 413.286,337.231 412.421,337.232 L412.421,337.232 Z" id="Fill-21" fill="#1B1A19"></path>
                <path d="M418.913,291.436 C417.07,291.726 413.465,292.597 410.93,295.132 C408.393,297.667 407.523,301.272 407.233,303.116 C409.076,302.826 412.682,301.955 415.218,299.42 C417.753,296.885 418.623,293.279 418.913,291.436 Z M405.047,305.302 L405.097,304.208 C405.108,303.948 405.433,297.798 409.516,293.718 C413.597,289.637 419.745,289.311 420.005,289.299 L421.1,289.249 L421.05,290.344 C421.038,290.603 420.713,296.753 416.632,300.834 C412.55,304.915 406.401,305.241 406.141,305.252 L405.047,305.302 L405.047,305.302 Z" id="Fill-22" fill="#1B1A19"></path>
                <path d="M142.825,131.253 L239.492,131.253 L239.492,93.753 L142.825,93.753 L142.825,131.253 Z M140.825,133.253 L241.492,133.253 L241.492,91.753 L140.825,91.753 L140.825,133.253 Z" id="Fill-23" fill="#1B1A19"></path>
                <path d="M161.771,112.337 C161.771,114.993 159.619,117.145 156.963,117.145 C154.307,117.145 152.154,114.993 152.154,112.337 C152.154,109.681 154.307,107.528 156.963,107.528 C159.619,107.528 161.771,109.681 161.771,112.337" id="Fill-24" fill="#1B1A19"></path>
                <path d="M184.568,112.337 C184.568,114.993 182.415,117.145 179.76,117.145 C177.104,117.145 174.951,114.993 174.951,112.337 C174.951,109.681 177.104,107.528 179.76,107.528 C182.415,107.528 184.568,109.681 184.568,112.337" id="Fill-25" fill="#1B1A19"></path>
                <path d="M207.365,112.337 C207.365,114.993 205.212,117.145 202.557,117.145 C199.901,117.145 197.748,114.993 197.748,112.337 C197.748,109.681 199.901,107.528 202.557,107.528 C205.212,107.528 207.365,109.681 207.365,112.337" id="Fill-26" fill="#1B1A19"></path>
                <path d="M230.162,112.337 C230.162,114.993 228.009,117.145 225.353,117.145 C222.698,117.145 220.545,114.993 220.545,112.337 C220.545,109.681 222.698,107.528 225.353,107.528 C228.009,107.528 230.162,109.681 230.162,112.337" id="Fill-27" fill="#1B1A19"></path>
                <path d="M447.412,14.747 L458.304,21.035 L469.115,14.753 L458.224,8.464 L447.412,14.747 Z M457.806,23.057 L444.917,15.616 L444.914,13.885 L457.719,6.444 L458.722,6.442 L471.61,13.884 L471.613,15.615 L458.808,23.056 L457.806,23.057 L457.806,23.057 Z" id="Fill-28" fill="#1B1A19"></path>
                <g id="Group-31" transform="translate(444.287000, 6.410000)">
                    <mask id="mask-2" fill="white">
                        <use xlink:href="#path-1"></use>
                    </mask>
                    <g id="Clip-30"></g>
                    <path d="M3.125,8.337 L14.017,14.625 L24.828,8.343 L13.937,2.054 L3.125,8.337 Z M13.519,16.647 L0.63,9.206 L0.627,7.475 L13.432,0.034 L14.435,0.032 L27.323,7.474 L27.326,9.205 L14.521,16.646 L13.519,16.647 L13.519,16.647 Z" id="Fill-29" fill="#1B1A19" mask="url(#mask-2)"></path>
                </g>
                <path d="M459.266,22.769 L459.301,35.274 L470.196,28.984 L470.161,16.479 L459.266,22.769 Z M458.806,37.869 L457.306,37.006 L457.264,22.196 L457.764,21.327 L470.656,13.884 L472.156,14.747 L472.198,29.557 L471.698,30.426 L458.806,37.869 L458.806,37.869 Z" id="Fill-32" fill="#1B1A19"></path>
                <g id="Group-35" transform="translate(456.287000, 13.410000)">
                    <mask id="mask-4" fill="white">
                        <use xlink:href="#path-3"></use>
                    </mask>
                    <g id="Clip-34"></g>
                    <path d="M2.979,9.359 L3.014,21.864 L13.909,15.574 L13.874,3.069 L2.979,9.359 Z M2.519,24.459 L1.019,23.596 L0.977,8.786 L1.477,7.917 L14.369,0.474 L15.869,1.337 L15.911,16.147 L15.411,17.016 L2.519,24.459 L2.519,24.459 Z" id="Fill-33" fill="#1B1A19" mask="url(#mask-4)"></path>
                </g>
                <path d="M446.419,28.984 L457.314,35.274 L457.35,22.769 L446.454,16.479 L446.419,28.984 Z M457.809,37.869 L444.917,30.426 L444.417,29.557 L444.459,14.747 L445.959,13.884 L458.851,21.327 L459.351,22.196 L459.309,37.006 L457.809,37.869 L457.809,37.869 Z" id="Fill-36" fill="#1B1A19"></path>
                <g id="Group-39" transform="translate(444.287000, 13.410000)">
                    <mask id="mask-6" fill="white">
                        <use xlink:href="#path-5"></use>
                    </mask>
                    <g id="Clip-38"></g>
                    <path d="M2.132,15.574 L13.027,21.864 L13.063,9.359 L2.167,3.069 L2.132,15.574 Z M13.522,24.459 L0.63,17.016 L0.13,16.147 L0.172,1.337 L1.672,0.474 L14.564,7.917 L15.064,8.786 L15.022,23.596 L13.522,24.459 L13.522,24.459 Z" id="Fill-37" fill="#1B1A19" mask="url(#mask-6)"></path>
                </g>
                <path d="M421.009,138.003 C416.896,138.003 413.636,138.629 411.317,139.863 C408.475,141.376 407.095,143.763 407.096,147.158 C407.099,154.418 412.935,159.572 421.292,159.693 C434.302,159.882 466,159.849 472.954,159.84 L471.475,155.136 C468.879,154.013 454.638,147.901 441.577,143.32 C431.522,139.792 424.601,138.003 421.009,138.003 Z M460.52,161.848 C448.016,161.848 430.221,161.823 421.263,161.693 C411.897,161.557 405.099,155.445 405.096,147.159 C405.094,143.013 406.871,139.964 410.378,138.098 C412.988,136.708 416.565,136.003 421.009,136.003 C424.828,136.003 431.971,137.83 442.239,141.432 C456.676,146.496 472.534,153.415 472.692,153.485 L473.109,153.667 L475.679,161.836 L474.318,161.838 C474.17,161.839 468.393,161.848 460.52,161.848 L460.52,161.848 Z" id="Fill-40" fill="#1B1A19"></path>
                <path d="M460.733,161.848 C452.858,161.848 447.084,161.839 446.935,161.838 L446.939,159.838 C447.32,159.839 485.381,159.905 499.962,159.693 C508.318,159.572 514.155,154.418 514.158,147.158 C514.159,143.763 512.778,141.376 509.936,139.863 C507.618,138.629 504.357,138.003 500.245,138.003 C491.411,138.003 468.048,147.3 461.098,150.149 L460.34,148.299 C469.356,144.602 491.297,136.003 500.245,136.003 C504.688,136.003 508.266,136.708 510.876,138.098 C514.383,139.964 516.16,143.013 516.158,147.159 C516.155,155.445 509.356,161.557 499.991,161.693 C491.034,161.823 473.237,161.848 460.733,161.848" id="Fill-41" fill="#1B1A19"></path>
                <path d="M475.514,159.849 L496.407,159.849 C495.932,159.421 495.333,159.034 494.64,158.903 C493.972,158.777 493.292,158.734 492.572,158.689 C490.051,158.532 487.193,158.354 482.932,154.768 C480.499,152.723 478.415,151.789 476.718,151.998 C475.674,152.128 474.753,152.693 473.916,153.723 L475.514,159.849 Z M500.176,161.849 L473.969,161.849 L471.738,153.3 L472.015,152.918 C473.252,151.203 474.752,150.226 476.473,150.014 C478.762,149.731 481.303,150.785 484.219,153.238 C487.976,156.399 490.376,156.549 492.696,156.693 C493.446,156.74 494.221,156.788 495.011,156.938 C497.75,157.456 499.304,160.251 499.369,160.37 L500.176,161.849 L500.176,161.849 Z" id="Fill-42" fill="#1B1A19"></path>
                <path d="M275.908,181.253 C267.457,181.253 260.159,173.908 252.432,166.131 C243.21,156.85 233.674,147.253 220.658,147.253 C208.095,147.253 189.846,158.043 189.846,174.95 L187.846,174.95 C187.846,156.551 206.957,145.253 220.658,145.253 C234.506,145.253 244.783,155.596 253.85,164.722 C261.276,172.195 268.289,179.253 275.908,179.253 C292.232,179.253 305.514,159.327 305.514,134.834 C305.514,125.575 305.22,115.923 304.935,106.589 C303.791,69.02 302.608,30.172 319.304,0 L321.054,0.969 C304.624,30.66 305.799,69.229 306.934,106.528 C307.22,115.877 307.514,125.545 307.514,134.834 C307.514,160.43 293.336,181.253 275.908,181.253" id="Fill-43" fill="#1B1A19"></path>
                <path d="M324.919,411.883 L322.919,411.883 C322.919,406.592 321.26,403.999 319.504,401.255 C317.669,398.389 315.772,395.424 315.772,389.548 C315.772,383.671 317.669,380.707 319.503,377.841 C321.26,375.097 322.919,372.504 322.919,367.213 C322.919,361.922 321.26,359.33 319.504,356.586 C317.669,353.72 315.772,350.756 315.772,344.881 C315.772,339.005 317.669,336.042 319.504,333.176 C321.26,330.432 322.919,327.84 322.919,322.55 L324.919,322.55 C324.919,328.425 323.022,331.389 321.187,334.254 C319.432,336.998 317.772,339.591 317.772,344.881 C317.772,350.171 319.432,352.764 321.187,355.508 C323.022,358.373 324.919,361.337 324.919,367.213 C324.919,373.089 323.022,376.053 321.188,378.919 C319.432,381.664 317.772,384.257 317.772,389.548 C317.772,394.839 319.432,397.432 321.188,400.177 C323.022,403.043 324.919,406.007 324.919,411.883" id="Fill-44" fill="#1B1A19"></path>
                <path d="M340.962,411.883 L338.962,411.883 C338.962,406.592 337.303,403.999 335.547,401.255 C333.712,398.389 331.815,395.424 331.815,389.548 C331.815,383.671 333.712,380.707 335.546,377.841 C337.303,375.097 338.962,372.504 338.962,367.213 C338.962,361.922 337.303,359.33 335.547,356.586 C333.712,353.72 331.815,350.756 331.815,344.881 C331.815,339.005 333.712,336.042 335.547,333.176 C337.303,330.432 338.962,327.84 338.962,322.55 L340.962,322.55 C340.962,328.425 339.065,331.389 337.23,334.254 C335.475,336.998 333.815,339.591 333.815,344.881 C333.815,350.171 335.475,352.764 337.23,355.508 C339.065,358.373 340.962,361.337 340.962,367.213 C340.962,373.089 339.065,376.053 337.231,378.919 C335.475,381.664 333.815,384.257 333.815,389.548 C333.815,394.839 335.475,397.432 337.231,400.177 C339.065,403.043 340.962,406.007 340.962,411.883" id="Fill-45" fill="#1B1A19"></path>
                <polyline id="Fill-46" fill="#1B1A19" points="12.768 352.437 7.591 345.074 50.499 325.042 75.098 296.561 76.612 297.869 51.732 326.673 51.538 326.764 10.6 345.876 13.548 350.069 63.614 333.381 84.7 311.924 86.127 313.327 64.703 335.126 12.768 352.437"></polyline>
                <path d="M118.173,388.007 L120.264,396.366 L138.4,396.338 C137.512,395.109 135.44,392.758 132.449,392.501 C125.379,391.896 123.897,387.332 123.587,385.517 L118.173,388.007 Z M119.483,397.367 L117.002,387.444 L124.497,383.998 L124.505,384.77 C124.508,385.017 124.658,390.83 132.534,391.505 C137.123,391.898 139.657,396.404 139.763,396.596 L140.17,397.335 L119.483,397.367 L119.483,397.367 Z" id="Fill-47" fill="#1B1A19"></path>
                <path d="M210.708,389.89 L211.49,396.349 L230.448,396.338 C229.566,395.211 227.599,393.176 224.683,392.833 C219.028,392.17 217.477,389.567 217.066,388.431 L210.708,389.89 Z M210.604,397.35 L209.608,389.117 L217.844,387.227 L217.916,387.772 C217.936,387.903 218.491,391.1 224.8,391.84 C229.357,392.375 231.742,396.415 231.841,396.587 L232.274,397.337 L210.604,397.35 L210.604,397.35 Z" id="Fill-48" fill="#1B1A19"></path>
                <path d="M89.088,354.809 L92.102,372.593 C93.253,371.535 94.785,369.649 94.66,367.179 C94.386,361.808 96.97,359.738 98.422,359.003 L96.922,352.511 L89.088,354.809 Z M90.654,376.021 L86.82,353.39 L98.394,349.995 L100.788,360.358 L99.817,360.585 C99.686,360.619 96.375,361.538 96.657,367.077 C96.917,372.19 92.115,375.141 91.911,375.264 L90.654,376.021 L90.654,376.021 Z" id="Fill-49" fill="#1B1A19"></path>
                <path d="M2.196,349.796 L4.478,366.354 C5.504,365.187 6.734,363.301 6.622,361.053 C6.286,354.337 10.06,351.557 12.152,350.538 L9.494,346.876 L2.196,349.796 Z M2.995,370.238 L-7.10542736e-15,348.52 L10.198,344.44 L15.411,351.624 L13.947,351.968 C13.719,352.024 8.245,353.457 8.619,360.953 C8.863,365.817 4.536,369.093 4.351,369.229 L2.995,370.238 L2.995,370.238 Z" id="Fill-50" fill="#1B1A19"></path>
                <path d="M116.897,389.143 L104.404,336.72 C100.6,332.582 74.552,303.93 74.552,295.269 C74.552,290.706 74.952,288.416 76.264,285.467 L78.091,286.281 C76.912,288.931 76.552,291.032 76.552,295.269 C76.552,302.064 97.847,326.655 106.052,335.556 L106.228,335.748 L118.277,386.307 L122.929,384.168 L116.894,331.757 L84.057,275.079 C83.644,275.858 83.253,276.587 82.882,277.273 L81.123,276.322 C81.734,275.191 82.401,273.941 83.128,272.549 L83.969,270.938 L118.834,331.114 L125.081,385.38 L116.897,389.143" id="Fill-51" fill="#1B1A19"></path>
                <path d="M87.483,229.989 C78.554,230.797 64.284,243.325 59.382,248.255 C55.339,252.32 55.156,258.865 58.964,263.153 L72.283,278.15 L74.329,275.459 C72.523,272.661 65.228,261.058 65.108,255.899 C65.009,251.647 70.26,247.705 80.714,244.182 C85.327,242.627 88.234,238.127 87.783,233.238 L87.483,229.989 Z M72.402,281.296 L57.469,264.481 C52.96,259.404 53.178,251.658 57.964,246.845 C58.152,246.656 76.885,227.948 88.364,227.948 C88.374,227.948 88.384,227.948 88.394,227.948 L89.304,227.951 L89.774,233.055 C90.31,238.87 86.847,244.225 81.352,246.077 C72.092,249.198 67.033,252.669 67.107,255.852 C67.208,260.161 73.839,271.1 76.386,274.952 L76.778,275.544 L72.402,281.296 L72.402,281.296 Z" id="Fill-52" fill="#1B1A19"></path>
                <path d="M179.579,230.743 C180.443,231.987 182.218,234.2 183.78,234.825 C185.1,235.357 187.596,233.685 188.894,232.569 C188.829,230.445 188.52,221.398 187.85,213.589 C187.774,212.712 186.598,211.856 185.537,211.432 C184.468,211.004 184.248,209.521 183.917,207.276 C183.648,205.455 183.242,202.705 182.296,202.093 C181.935,201.859 181.61,201.803 181.238,201.91 C180.076,202.244 178.646,204.073 177.314,206.926 C175.865,210.032 177.575,220.417 178.689,222.219 C179.193,222.109 179.905,221.766 180.45,221.503 C181.481,221.006 182.226,220.645 182.919,220.939 C183.248,221.078 183.493,221.344 183.607,221.687 C183.749,222.115 183.986,222.826 179.579,230.743 Z M184.329,236.92 C183.886,236.92 183.451,236.848 183.037,236.682 C180.267,235.574 177.671,231.496 177.562,231.323 L177.245,230.82 L177.536,230.301 C178.897,227.868 180.372,225.062 181.14,223.39 C180.264,223.811 179.292,224.253 178.408,224.253 C177.889,224.253 177.436,223.957 177.064,223.373 C175.536,220.973 173.726,209.886 175.502,206.08 C177.148,202.554 178.891,200.504 180.685,199.989 C181.607,199.722 182.541,199.868 183.383,200.414 C185.088,201.517 185.517,204.421 185.895,206.983 C186.037,207.94 186.227,209.228 186.432,209.638 C188.008,210.307 189.688,211.629 189.842,213.418 C190.609,222.347 190.905,232.87 190.908,232.976 L190.92,233.425 L190.592,233.733 C190.198,234.102 187.101,236.92 184.329,236.92 L184.329,236.92 Z" id="Fill-53" fill="#1B1A19"></path>
                <path d="M307.754,260.652 L454.754,260.652 L454.754,201.988 L307.754,201.988 L307.754,260.652 Z M305.754,262.652 L456.754,262.652 L456.754,199.988 L305.754,199.988 L305.754,262.652 Z" id="Fill-54" fill="#1B1A19"></path>
                <path d="M317.259,252.791 L445.25,252.791 L445.25,209.848 L317.259,209.848 L317.259,252.791 Z M315.259,254.791 L447.25,254.791 L447.25,207.848 L315.259,207.848 L315.259,254.791 Z" id="Fill-55" fill="#1B1A19"></path>
                <polygon id="Fill-56" fill="#1B1A19" points="316.259 209.848 446.25 209.848 446.25 207.848 316.259 207.848"></polygon>
                <polygon id="Fill-57" fill="#1B1A19" points="316.259 221.084 446.25 221.084 446.25 219.084 316.259 219.084"></polygon>
                <polygon id="Fill-58" fill="#1B1A19" points="316.259 232.32 446.25 232.32 446.25 230.32 316.259 230.32"></polygon>
                <polygon id="Fill-59" fill="#1B1A19" points="316.259 243.556 446.25 243.556 446.25 241.556 316.259 241.556"></polygon>
                <polygon id="Fill-60" fill="#1B1A19" points="316.259 254.791 446.25 254.791 446.25 252.791 316.259 252.791"></polygon>
                <polygon id="Fill-61" fill="#1B1A19" points="315.599 253.791 317.599 253.791 317.599 208.848 315.599 208.848"></polygon>
                <polygon id="Fill-62" fill="#1B1A19" points="326.402 253.791 328.402 253.791 328.402 208.848 326.402 208.848"></polygon>
                <polygon id="Fill-63" fill="#1B1A19" points="337.207 253.791 339.207 253.791 339.207 208.848 337.207 208.848"></polygon>
                <polygon id="Fill-64" fill="#1B1A19" points="348.011 253.791 350.011 253.791 350.011 208.848 348.011 208.848"></polygon>
                <polygon id="Fill-65" fill="#1B1A19" points="358.815 253.791 360.815 253.791 360.815 208.848 358.815 208.848"></polygon>
                <polygon id="Fill-66" fill="#1B1A19" points="369.62 253.791 371.62 253.791 371.62 208.848 369.62 208.848"></polygon>
                <polygon id="Fill-67" fill="#1B1A19" points="380.424 253.791 382.424 253.791 382.424 208.848 380.424 208.848"></polygon>
                <polygon id="Fill-68" fill="#1B1A19" points="391.228 253.791 393.228 253.791 393.228 208.848 391.228 208.848"></polygon>
                <polygon id="Fill-69" fill="#1B1A19" points="402.033 253.791 404.033 253.791 404.033 208.848 402.033 208.848"></polygon>
                <polygon id="Fill-70" fill="#1B1A19" points="412.837 253.791 414.837 253.791 414.837 208.848 412.837 208.848"></polygon>
                <polygon id="Fill-71" fill="#1B1A19" points="423.641 253.791 425.641 253.791 425.641 208.848 423.641 208.848"></polygon>
                <polygon id="Fill-72" fill="#1B1A19" points="434.446 253.791 436.446 253.791 436.446 208.848 434.446 208.848"></polygon>
                <polygon id="Fill-73" fill="#1B1A19" points="445.25 253.791 447.25 253.791 447.25 208.848 445.25 208.848"></polygon>
                <path d="M403.65,304.384 C403.751,304.439 403.857,304.48 403.961,304.528 C400.661,305.013 398.045,305.914 395.908,308.253 C392.141,312.378 398.378,312.663 397.783,318.186 C397.116,324.378 400.783,328.128 407.389,329.094 C411.13,329.641 415.641,329.45 420.98,327.345 C419.555,331.376 417.544,334.745 414.908,335.753 C411.027,337.237 408.734,334.814 406.052,334.814 C403.369,334.814 401.076,337.237 397.195,335.753 C391.21,333.465 388.533,319.503 388.533,312.753 C388.533,302.587 398.334,301.474 403.65,304.384" id="Fill-74" fill="#1B1A19"></path>
                <path d="M165.241,233.968 C163.249,233.968 160.386,234.144 157.984,234.978 C150.258,237.662 140.862,247.172 138.526,251.25 C136.7,254.437 146.163,274.719 154.347,280.302 C155.888,281.353 157.874,282.633 159.169,283.457 L159.964,276.761 C158.012,273.962 148.17,259.606 148.494,255.098 C148.668,252.674 149.886,250.573 151.834,249.335 C153.371,248.358 155.158,248.069 156.496,248.586 C157.25,248.876 158.718,249.343 160.743,249.936 C161.132,250.023 162.834,249.424 164.584,247.494 C166.067,245.86 169.203,241.334 167.037,234.016 C166.606,233.992 165.984,233.968 165.241,233.968 Z M160.782,286.838 L159.444,285.998 C159.407,285.975 155.734,283.67 153.22,281.954 C145.085,276.405 134.03,255.075 136.79,250.256 C139.32,245.84 149.039,235.968 157.328,233.089 C161.888,231.506 167.642,232.048 167.885,232.072 L168.532,232.135 L168.736,232.752 C171.702,241.712 167.657,247.199 165.781,249.142 C163.851,251.14 161.544,252.254 160.181,251.855 C158.075,251.238 156.594,250.766 155.778,250.452 C155.166,250.216 154.041,250.303 152.907,251.023 C152.079,251.549 150.665,252.796 150.489,255.242 C150.272,258.26 157.324,269.53 161.82,275.925 L162.04,276.238 L160.782,286.838 L160.782,286.838 Z" id="Fill-75" fill="#1B1A19"></path>
                <path d="M468.589,93.572 L471.987,103.807 C473.755,123.319 480.402,136.32 507.099,136.348 L513.318,136.916 C514.298,136.298 515.365,135.567 515.808,135.186 C515.618,134.515 514.929,133.026 514.647,132.419 L514.375,131.824 C514.21,131.457 513.978,131.038 513.741,130.65 C513.311,131.546 512.523,132.515 510.969,132.692 C510.301,132.767 509.643,132.753 509.009,132.74 C507.239,132.703 506.202,132.737 505.397,133.903 L505.028,134.436 L504.391,134.318 C486.32,130.953 477.158,119.346 477.158,99.817 C477.158,96.731 474.758,92.962 471.956,92.962 C469.73,92.962 468.88,93.364 468.589,93.572 Z M513.804,138.969 L507.006,138.344 C477.289,138.317 471.636,121.887 470.006,104.105 L466.487,93.594 L466.495,93.41 C466.519,92.835 466.987,90.962 471.956,90.962 C476.012,90.962 479.158,95.722 479.158,99.817 C479.158,118.029 487.571,128.934 504.169,132.239 C505.596,130.667 507.497,130.707 509.051,130.74 C509.647,130.754 510.208,130.765 510.744,130.704 C511.691,130.597 511.987,129.821 512.252,128.893 C512.394,128.397 512.555,127.834 513.188,127.665 L513.735,127.518 L514.232,127.949 C514.786,128.486 515.723,129.943 516.199,131.006 L516.2,131.007 L516.462,131.579 C517.749,134.358 518.009,135.195 517.787,135.842 C517.685,136.137 517.497,136.686 514.088,138.793 L513.804,138.969 L513.804,138.969 Z" id="Fill-76" fill="#1B1A19"></path>
                <path d="M405.439,135.186 C405.884,135.567 406.949,136.298 407.93,136.916 L414.058,136.353 C443.49,136.317 447.497,119.211 448.949,103.179 L448.994,102.96 L451.909,93.993 C451.918,93.96 451.963,93.765 451.828,93.588 C451.716,93.441 451.202,92.962 449.29,92.962 C446.641,92.962 444.283,96.998 444.283,100.18 C444.283,119.444 435.056,130.93 416.856,134.318 L416.22,134.436 L415.851,133.903 C415.046,132.738 414.011,132.704 412.239,132.74 C411.606,132.753 410.949,132.768 410.279,132.692 C408.725,132.515 407.936,131.546 407.507,130.65 C407.269,131.038 407.038,131.457 406.873,131.824 L406.6,132.419 C406.319,133.026 405.63,134.515 405.439,135.186 Z M407.444,138.969 L407.16,138.793 C403.751,136.686 403.562,136.137 403.461,135.841 C403.239,135.195 403.499,134.358 404.786,131.579 L405.049,131.006 C405.525,129.943 406.462,128.486 407.015,127.95 L407.422,127.555 L408.059,127.665 C408.693,127.834 408.853,128.397 408.996,128.893 C409.261,129.821 409.557,130.597 410.504,130.704 C411.04,130.765 411.602,130.753 412.197,130.74 C413.746,130.707 415.651,130.666 417.079,132.239 C433.804,128.914 442.283,118.132 442.283,100.18 C442.283,95.917 445.344,90.962 449.29,90.962 C451.367,90.962 452.773,91.462 453.472,92.448 C454.187,93.46 453.845,94.517 453.804,94.635 L450.931,103.472 C449.273,121.582 443.64,138.317 414.15,138.348 L407.444,138.969 L407.444,138.969 Z" id="Fill-77" fill="#1B1A19"></path>
                <path d="M474.316,160.838 L473.6,158.561 C468.47,158.505 432.908,162.378 424.158,156.628 C415.172,150.723 407.193,152.47 406.202,148.832 C407.073,156.115 413.591,160.582 421.277,160.693 C436.035,160.908 474.316,160.838 474.316,160.838" id="Fill-78" fill="#1B1A19"></path>
                <path d="M476.153,142.684 C476.153,142.684 471.751,134.779 470.908,131.814 C466.783,117.308 471.515,111.947 471.64,106.583 L474.868,93.452 L470.283,91.962 L466.456,92.539 C462.464,93.706 458.202,93.658 454.239,92.4 L450.783,91.962 L446.44,93.129 L448.533,105.972 C448.658,111.335 454.033,117.43 449.908,131.936 C449.065,134.901 445.137,142.684 445.137,142.684 L460.645,148.926 L476.153,142.684" id="Fill-79" fill="#1B1A19"></path>
                <polygon id="Fill-80" fill="#1B1A19" points="338.207 230.889 349.011 230.889 349.011 220.084 338.207 220.084"></polygon>
                <polygon id="Fill-81" fill="#1B1A19" points="370.45 242.556 381.254 242.556 381.254 231.751 370.45 231.751"></polygon>
                <polygon id="Fill-82" fill="#1B1A19" points="381.254 220.084 392.058 220.084 392.058 209.28 381.254 209.28"></polygon>
                <polygon id="Fill-83" fill="#1B1A19" points="392.228 253.791 403.033 253.791 403.033 242.987 392.228 242.987"></polygon>
                <polygon id="Fill-84" fill="#1B1A19" points="424.641 231.32 435.446 231.32 435.446 220.515 424.641 220.515"></polygon>
                <polygon id="Fill-85" fill="#1B1A19" points="327.413 242.556 338.218 242.556 338.218 231.751 327.413 231.751"></polygon>
                <path d="M73.638,279.671 L75.042,281.244 C75.523,281.888 75.953,282.509 76.354,283.093 C77.561,284.844 78.434,286.109 79.678,286.457 L80.109,286.585 C82.513,287.309 83.599,287.421 84.086,287.384 C83.673,286.259 82.291,283.759 81.65,282.6 C81.211,281.808 80.895,281.236 80.75,280.922 C80.069,279.448 81.541,278.551 82.248,278.12 C82.344,278.062 82.461,277.991 82.568,277.921 C82.428,277.885 82.242,277.852 82.001,277.834 C81.256,277.782 80.134,277.868 79.313,277.933 C78.82,277.972 78.404,278.003 78.158,278.003 C77.534,278.003 76.604,277.481 75.753,276.891 L73.638,279.671 Z M83.856,289.372 C82.591,289.372 81.018,288.948 79.532,288.5 L79.139,288.383 C77.198,287.84 76.044,286.166 74.708,284.227 C74.327,283.675 73.921,283.086 73.467,282.478 L71.046,279.775 L75.366,274.096 L76.164,274.712 C76.975,275.339 77.941,275.945 78.23,276.009 C78.37,276.003 78.729,275.973 79.155,275.939 C80.088,275.866 81.248,275.773 82.148,275.84 C83.347,275.928 84.191,276.325 84.588,276.987 C84.874,277.465 84.898,278.03 84.656,278.576 C84.4,279.151 83.835,279.495 83.288,279.828 C83.099,279.944 82.809,280.12 82.649,280.254 C82.804,280.555 83.084,281.062 83.4,281.632 C86.174,286.647 86.579,287.749 85.954,288.571 C85.51,289.155 84.762,289.372 83.856,289.372 L83.856,289.372 Z" id="Fill-86" fill="#1B1A19"></path>
                <path d="M121.807,257.932 L126.337,261.923 C127.55,261.365 128.84,260.663 129.228,260.277 C129.582,259.224 128.643,254.388 127.548,253.546 C126.925,253.067 126.579,253.136 126.467,253.158 C126.095,253.231 125.477,253.618 124.648,255.047 C123.851,256.421 122.704,257.357 121.807,257.932 Z M125.972,264.267 L118.169,257.393 L119.701,256.799 C119.74,256.784 121.818,255.938 122.918,254.043 C123.899,252.353 124.933,251.422 126.079,251.196 C126.974,251.019 127.878,251.276 128.768,251.961 C130.303,253.141 131.043,256.687 131.221,258.397 C131.438,260.502 131.08,261.193 130.792,261.529 C129.935,262.53 127.111,263.777 126.554,264.016 L125.972,264.267 L125.972,264.267 Z" id="Fill-87" fill="#1B1A19"></path>
                <path d="M161.041,284.654 C162.695,285.637 165.318,286.353 166.518,286.098 C166.812,286.035 167.586,284.908 167.757,283.288 C167.866,282.259 167.638,281.672 167.442,281.583 C165.494,280.705 165.178,280.258 164.773,278.871 L164.7,278.624 C164.587,278.247 164.478,277.751 164.362,277.209 C164.169,276.318 163.891,275.033 163.524,274.368 C163.154,274.634 162.558,275.285 162.073,275.968 L161.041,284.654 Z M165.933,288.151 C163.731,288.151 160.813,286.99 159.39,285.962 L158.912,285.618 L160.145,275.245 L160.279,275.045 C160.823,274.236 162.233,272.344 163.577,272.259 C164.074,272.23 164.527,272.417 164.855,272.793 C165.651,273.702 166.004,275.341 166.317,276.787 C166.421,277.27 166.515,277.713 166.616,278.05 L166.693,278.31 C166.938,279.148 166.942,279.164 168.263,279.76 C169.404,280.273 169.944,281.638 169.745,283.503 C169.573,285.128 168.682,287.681 166.937,288.055 C166.627,288.12 166.289,288.151 165.933,288.151 L165.933,288.151 Z" id="Fill-88" fill="#1B1A19"></path>
                <path d="M224.533,259.202 L227.682,264.247 C230.539,261.879 233.508,259.242 233.851,258.632 C234.084,258.106 234.184,256.525 233.688,255.71 C233.498,255.398 233.3,255.345 233.115,255.334 C231.541,255.254 227.173,256.76 224.533,259.202 Z M227.189,267.235 L222.012,258.94 L222.529,258.38 C225.203,255.483 230.644,253.191 233.232,253.338 C234.137,253.39 234.905,253.864 235.396,254.67 C236.29,256.139 236.125,258.437 235.668,259.464 C235.13,260.676 230.174,264.801 228.069,266.518 L227.189,267.235 L227.189,267.235 Z" id="Fill-89" fill="#1B1A19"></path>
                <path d="M62.744,312.395 L74.691,323.536" id="Fill-90" fill="#FFFFFE"></path>
                <polyline id="Fill-91" fill="#1B1A19" points="74.009 324.267 62.061 313.127 63.426 311.664 75.373 322.805 74.009 324.267"></polyline>
                <path d="M95.888,325.547 L109.239,316.549" id="Fill-92" fill="#FFFFFE"></path>
                <polyline id="Fill-93" fill="#1B1A19" points="96.447 326.376 95.329 324.718 108.68 315.72 109.798 317.378 96.447 326.376"></polyline>
                <path d="M75.09,298.1 C72.795,300.758 73.446,305.253 75.552,309.503 C77.658,313.753 77.137,321.048 77.137,321.048 L85.413,312.625 L75.09,298.1" id="Fill-94" fill="#1B1A19"></path>
                <polyline id="Fill-95" fill="#1B1A19" points="66.382 273.012 71.73 269.271 75.552 275.503 72.342 279.723 66.382 273.012"></polyline>
                <path d="M457.491,81.124 C457.046,80.505 456.65,79.795 456.346,79.066 C454.35,71.105 456.241,70.751 459.971,68.378 C460.965,67.745 461.999,65.681 462.899,65.138 C464.122,67.447 465.981,71.534 465.498,74.263 C465.155,76.194 464.602,78.181 463.835,79.791 C463.785,81.232 463.729,83.812 463.871,85.616 C471.574,84.976 477.533,82.38 477.533,82.38 C477.533,82.38 475.506,80.538 474.316,77.758 C471.524,71.236 467.494,60.005 460.645,60.005 C452.922,60.005 448.754,71.219 446.197,77.704 C445.157,80.343 441.908,82.199 441.908,82.199 C441.908,82.199 449.598,84.969 457.418,85.62 C457.523,84.288 457.521,82.535 457.491,81.124" id="Fill-96" fill="#1B1A19"></path>
                <path d="M217.408,376.975 C217.691,383.02 217.908,387.725 217.908,387.725 L217.42,387.837 C218.234,389.759 220.161,391.944 224.742,392.337 C229.117,392.712 231.408,396.837 231.408,396.837 L211.047,396.85 L210.537,389.416 L210.158,389.503 C210.158,389.503 209.199,385.323 207.978,379.82 C200.157,382.163 193.484,384.003 189.408,384.003 C171.908,384.003 170.158,378.253 149.908,378.253 C139.883,378.253 131.474,381.425 124.005,384.775 C124.005,384.782 124.041,391.279 132.492,392.003 C136.867,392.378 139.325,396.837 139.325,396.837 L119.873,396.866 L117.587,387.725 C111.853,390.353 106.62,392.503 101.519,392.503 C93.019,392.503 86.908,388.753 71.658,388.753 C62.158,388.753 53.421,392.479 44.081,398.003 L252.158,398.003 L252.158,370.003 C241.935,370.003 229.101,373.485 217.408,376.975" id="Fill-97" fill="#1B1A19"></path>
                <path d="M93.83,203.048 C88.366,203.829 82.77,215.019 79.388,216.841 C76.004,218.662 67.937,213.978 64.034,216.841 C60.13,219.703 59.609,228.811 54.467,230.056 C49.324,231.299 40.612,235.057 42.875,242.084 C44.776,247.987 48.696,250.397 55.915,251.943 C56.485,250.34 57.398,248.832 58.673,247.55 C63.183,243.013 78.908,228.92 88.391,228.948 L88.672,231.994 C92.262,228.387 95.145,222.473 93.18,221.915 C91.577,221.46 89.797,218.402 90.838,217.621 C91.879,216.841 95.522,217.361 95.531,216.32 C95.54,215.279 93.961,210.855 95.531,209.266 C97.101,207.678 102.288,209.266 102.288,209.266 C102.288,209.266 99.295,202.267 93.83,203.048" id="Fill-98" fill="#1B1A19"></path>
                <path d="M85.041,272.788 L97.364,294.057 C97.169,288.24 97.104,277.779 98.832,272.69 C101.609,264.51 104.854,254.189 105.071,252.459 C105.269,250.872 103.021,243.764 101.899,241.24 C101.027,239.277 99.446,233.898 98.96,232.22 C96.793,231.471 92.255,230.081 89.487,229.932 L89.774,233.055 C90.191,237.569 88.098,242 84.403,244.542 C86.537,255.467 85.271,270.34 85.041,272.788 Z M99.819,302.284 L82.987,273.233 L83.019,272.91 C83.037,272.74 84.725,255.693 82.308,244.28 L82.162,243.585 L82.769,243.217 C86.183,241.15 88.151,237.233 87.783,233.238 L87.304,228.048 L88.296,227.952 C91.998,227.603 99.788,230.389 100.118,230.508 L100.6,230.682 L100.741,231.174 C100.761,231.245 102.766,238.267 103.726,240.427 C104.642,242.486 107.351,250.335 107.055,252.707 C106.762,255.055 102.586,267.855 100.725,273.333 C98.437,280.073 99.537,297.858 99.549,298.037 L99.819,302.284 L99.819,302.284 Z" id="Fill-99" fill="#1B1A19"></path>
                <path d="M176.408,206.503 C178.158,202.753 180.521,199.753 182.839,201.253 C185.158,202.753 184.658,210.003 185.908,210.503 C187.158,211.003 188.723,212.072 188.846,213.503 C189.076,216.188 189.264,219.004 189.413,221.636 C190.913,219.951 194.861,215.153 194.658,211.503 C194.408,207.003 190.158,206.253 188.846,203.003 C187.533,199.753 185.158,191.839 179.908,194.089 C175.268,196.077 171.806,201.469 175.893,208.602 C175.994,207.76 176.16,207.036 176.408,206.503" id="Fill-100" fill="#1B1A19"></path>
                <path d="M209.407,390.702 L209.183,389.727 C208.897,388.478 202.161,359.087 201.91,354.306 C201.673,349.807 202.529,342.939 202.851,340.353 L202.915,339.837 C203.016,339.015 202.882,338.906 202.136,338.298 C201.719,337.958 201.2,337.535 200.645,336.881 C199.62,335.671 200.139,334.547 200.657,333.844 C199.331,333.385 197.14,331.939 193.067,329.212 C187.438,325.443 179.73,320.282 171.483,316.409 C151.968,307.243 154.464,294.927 156.469,285.03 L157.051,282.1 L158.288,282.894 C159.553,283.705 160.505,284.303 160.507,284.304 L159.443,285.998 C159.443,285.998 159.054,285.754 158.441,285.365 L158.429,285.427 C156.466,295.118 154.241,306.101 172.333,314.598 C180.717,318.535 188.498,323.746 194.18,327.55 C197.395,329.703 200.72,331.93 201.508,332.008 C201.914,332.049 202.867,332.144 203.172,332.936 C203.461,333.683 202.926,334.275 202.573,334.667 C201.963,335.342 202.015,335.404 202.171,335.587 C202.606,336.101 203.028,336.445 203.399,336.747 C204.252,337.443 205.135,338.162 204.901,340.08 L204.836,340.601 C204.52,343.139 203.679,349.878 203.907,354.201 C204.124,358.338 209.716,383.061 210.91,388.305 L216.87,386.937 C216.634,381.827 215.384,354.903 215.16,351.316 C215.058,349.674 215.159,346.059 215.266,342.232 C215.409,337.128 215.604,330.139 215.2,328.79 C214.246,326.721 193.322,306.264 180.3,293.806 L167.676,286.355 L168.693,284.632 L181.6,292.281 C189.737,300.065 216.35,325.661 217.116,328.216 C217.578,329.757 217.475,334.788 217.265,342.288 C217.159,346.069 217.059,349.639 217.156,351.191 C217.404,355.153 218.892,387.354 218.907,387.68 L218.946,388.514 L209.407,390.702" id="Fill-101" fill="#1B1A19"></path>
            </g>
        </g>
    </g>
</svg>