<svg xmlns="http://www.w3.org/2000/svg" width="20" height="20" viewBox="0 0 20 20">
    <path fill="#000" fill-rule="nonzero" d="M6.667 10a3.333 3.333 0 1 1 6.667 0 3.333 3.333 0 0 1-6.667 0m-1.802 0a5.135 5.135 0 1 0 10.27 0 5.135 5.135 0 0 0-10.27 0m9.274-5.338a1.2 1.2 0 1 0 1.2-1.2 1.2 1.2 0 0 0-1.2 1.2M5.96 18.14c-.975-.045-1.505-.207-1.857-.344a3.108 3.108 0 0 1-1.15-.748 3.085 3.085 0 0 1-.748-1.15c-.137-.352-.3-.882-.344-1.857-.049-1.054-.058-1.37-.058-4.04 0-2.671.01-2.987.058-4.042.044-.975.208-1.504.344-1.857.182-.467.398-.8.748-1.15.35-.35.682-.567 1.15-.748.352-.138.882-.3 1.857-.344 1.054-.049 1.371-.058 4.04-.058 2.67 0 2.987.01 4.042.058.975.044 1.504.208 1.857.344.467.18.8.398 1.15.748.35.35.566.683.748 1.15.137.352.3.882.344 1.857.049 1.055.058 1.37.058 4.041 0 2.67-.01 2.987-.058 4.042-.044.974-.207 1.504-.344 1.857-.182.466-.398.8-.748 1.149-.35.35-.683.566-1.15.748-.352.137-.882.3-1.857.344-1.054.048-1.371.058-4.042.058-2.67 0-2.986-.01-4.04-.058M5.877.06C4.813.11 4.085.279 3.45.526A4.908 4.908 0 0 0 1.68 1.678 4.883 4.883 0 0 0 .525 3.45C.278 4.086.11 4.813.061 5.877.01 6.943 0 7.284 0 10s.011 3.057.06 4.123c.049 1.064.218 1.791.465 2.427a4.888 4.888 0 0 0 1.154 1.772 4.914 4.914 0 0 0 1.771 1.153c.637.247 1.363.416 2.427.464C6.944 19.988 7.285 20 10 20c2.716 0 3.057-.011 4.123-.06 1.065-.049 1.792-.218 2.428-.465a4.918 4.918 0 0 0 1.771-1.153 4.899 4.899 0 0 0 1.154-1.772c.247-.636.417-1.363.464-2.427.049-1.067.06-1.407.06-4.123s-.011-3.057-.06-4.123c-.048-1.064-.217-1.792-.464-2.427a4.918 4.918 0 0 0-1.154-1.772 4.893 4.893 0 0 0-1.77-1.153c-.637-.247-1.364-.417-2.428-.464C13.058.01 12.717 0 10.002 0 7.286 0 6.945.011 5.878.06"/>
</svg>
