<?xml version="1.0" encoding="utf-8"?>
<!-- Generator: Adobe Illustrator 24.0.1, SVG Export Plug-In . SVG Version: 6.00 Build 0)  -->
<svg version="1.1" id="Layer_1" xmlns="http://www.w3.org/2000/svg" xmlns:xlink="http://www.w3.org/1999/xlink" x="0px" y="0px"
	 viewBox="0 0 36 48" style="enable-background:new 0 0 36 48;" xml:space="preserve">
<style type="text/css">
	.st0{enable-background:new    ;}
</style>
<title>Idea</title>
<desc>Created with Sketch.</desc>
<g class="st0">
	<path d="M8,15.4L12.6,27l4.6-11.6h2.4v14.2h-1.9v-5.5l0.2-6l-4.7,11.5h-1.4L7.2,18.1l0.2,5.9v5.5H5.5V15.4H8z"/>
	<path d="M31,23.1h-6.2v5H32v1.5h-9V15.4h8.9V17h-7v4.6H31V23.1z"/>
</g>
<g class="st0">
	<path d="M3.6,34.1l0,0.4C3.8,34.2,4.1,34,4.5,34c0.4,0,0.7,0.2,0.9,0.5c0.1-0.2,0.2-0.3,0.4-0.4S6.2,34,6.4,34c0.7,0,1,0.4,1.1,1.1
		v2.1H7v-2.1c0-0.2-0.1-0.4-0.2-0.5c-0.1-0.1-0.3-0.2-0.5-0.2c-0.2,0-0.4,0.1-0.5,0.2c-0.1,0.1-0.2,0.3-0.2,0.5v2.1H5v-2.1
		c0-0.5-0.2-0.7-0.7-0.7c-0.4,0-0.6,0.2-0.7,0.5v2.3H3.1v-3.2H3.6z"/>
	<path d="M9.6,37.3c-0.4,0-0.8-0.1-1-0.4c-0.3-0.3-0.4-0.7-0.4-1.1v-0.1c0-0.3,0.1-0.6,0.2-0.8c0.1-0.2,0.3-0.4,0.5-0.6
		C9.1,34.1,9.3,34,9.6,34c0.4,0,0.7,0.1,1,0.4s0.3,0.7,0.3,1.2v0.2H8.7c0,0.3,0.1,0.6,0.3,0.8c0.2,0.2,0.4,0.3,0.7,0.3
		c0.2,0,0.4,0,0.5-0.1s0.2-0.2,0.3-0.3l0.3,0.3C10.6,37.1,10.2,37.3,9.6,37.3z M9.6,34.5c-0.2,0-0.4,0.1-0.6,0.2
		c-0.1,0.2-0.2,0.4-0.3,0.7h1.6v0c0-0.3-0.1-0.5-0.2-0.6C10,34.5,9.8,34.5,9.6,34.5z"/>
	<path d="M12.8,36.9c0.2,0,0.4-0.1,0.5-0.2s0.2-0.3,0.2-0.4H14c0,0.2-0.1,0.4-0.2,0.5s-0.3,0.3-0.5,0.4s-0.4,0.1-0.6,0.1
		c-0.4,0-0.8-0.1-1-0.4c-0.3-0.3-0.4-0.7-0.4-1.2v-0.1c0-0.3,0.1-0.6,0.2-0.8s0.3-0.4,0.5-0.6s0.5-0.2,0.8-0.2
		c0.4,0,0.7,0.1,0.9,0.3s0.4,0.5,0.4,0.8h-0.5c0-0.2-0.1-0.4-0.2-0.5c-0.1-0.1-0.3-0.2-0.5-0.2c-0.3,0-0.5,0.1-0.6,0.3
		c-0.2,0.2-0.2,0.5-0.2,0.9v0.1c0,0.4,0.1,0.6,0.2,0.8S12.5,36.9,12.8,36.9z"/>
	<path d="M15.2,34.5c0.2-0.3,0.6-0.4,0.9-0.4c0.7,0,1,0.4,1,1.1v2.1h-0.5v-2.1c0-0.2-0.1-0.4-0.2-0.5s-0.3-0.2-0.5-0.2
		c-0.2,0-0.3,0-0.5,0.1s-0.2,0.2-0.3,0.4v2.3h-0.5v-4.5h0.5V34.5z"/>
	<path d="M19.9,37.3c0-0.1-0.1-0.2-0.1-0.3c-0.3,0.3-0.6,0.4-0.9,0.4c-0.3,0-0.6-0.1-0.8-0.3c-0.2-0.2-0.3-0.4-0.3-0.7
		c0-0.3,0.1-0.6,0.4-0.8c0.3-0.2,0.6-0.3,1.1-0.3h0.5v-0.2c0-0.2-0.1-0.3-0.2-0.5c-0.1-0.1-0.3-0.2-0.5-0.2c-0.2,0-0.4,0-0.5,0.1
		s-0.2,0.2-0.2,0.4h-0.5c0-0.2,0.1-0.3,0.2-0.5c0.1-0.1,0.3-0.3,0.5-0.3s0.4-0.1,0.6-0.1c0.4,0,0.7,0.1,0.9,0.3
		c0.2,0.2,0.3,0.4,0.3,0.8v1.5c0,0.3,0,0.5,0.1,0.7v0H19.9z M19,36.8c0.2,0,0.3,0,0.5-0.1s0.3-0.2,0.3-0.3v-0.7h-0.4
		c-0.7,0-1,0.2-1,0.6c0,0.2,0.1,0.3,0.2,0.4S18.8,36.8,19,36.8z"/>
	<path d="M21.7,34.1l0,0.4c0.2-0.3,0.6-0.5,0.9-0.5c0.7,0,1,0.4,1,1.1v2.1h-0.5v-2.1c0-0.2-0.1-0.4-0.2-0.5s-0.3-0.2-0.5-0.2
		c-0.2,0-0.3,0-0.5,0.1s-0.2,0.2-0.3,0.4v2.3h-0.5v-3.2H21.7z"/>
	<path d="M24.5,33.2c0-0.1,0-0.2,0.1-0.2s0.1-0.1,0.2-0.1s0.2,0,0.2,0.1s0.1,0.1,0.1,0.2s0,0.2-0.1,0.2s-0.1,0.1-0.2,0.1
		s-0.2,0-0.2-0.1S24.5,33.3,24.5,33.2z M25.1,37.3h-0.5v-3.2h0.5V37.3z"/>
	<path d="M27.8,36.4c0-0.1-0.1-0.3-0.2-0.3c-0.1-0.1-0.3-0.2-0.6-0.2s-0.5-0.1-0.7-0.2s-0.3-0.2-0.4-0.3s-0.1-0.2-0.1-0.4
		c0-0.3,0.1-0.5,0.3-0.7s0.5-0.3,0.8-0.3c0.4,0,0.7,0.1,0.9,0.3s0.3,0.4,0.3,0.7h-0.5c0-0.1-0.1-0.3-0.2-0.4s-0.3-0.2-0.5-0.2
		c-0.2,0-0.4,0-0.5,0.1s-0.2,0.2-0.2,0.3c0,0.1,0.1,0.2,0.2,0.3s0.3,0.1,0.6,0.2s0.5,0.1,0.7,0.2s0.3,0.2,0.4,0.3
		c0.1,0.1,0.1,0.3,0.1,0.4c0,0.3-0.1,0.5-0.3,0.7c-0.2,0.2-0.5,0.3-0.9,0.3c-0.3,0-0.5,0-0.7-0.1S26.1,37,26,36.8
		c-0.1-0.2-0.2-0.3-0.2-0.5h0.5c0,0.2,0.1,0.3,0.2,0.4c0.1,0.1,0.3,0.2,0.5,0.2c0.2,0,0.4,0,0.5-0.1C27.8,36.7,27.8,36.6,27.8,36.4z
		"/>
	<path d="M29.6,34.1l0,0.4c0.2-0.3,0.5-0.4,0.9-0.4c0.4,0,0.7,0.2,0.9,0.5c0.1-0.2,0.2-0.3,0.4-0.4s0.4-0.1,0.6-0.1
		c0.7,0,1,0.4,1.1,1.1v2.1H33v-2.1c0-0.2-0.1-0.4-0.2-0.5c-0.1-0.1-0.3-0.2-0.5-0.2c-0.2,0-0.4,0.1-0.5,0.2
		c-0.1,0.1-0.2,0.3-0.2,0.5v2.1H31v-2.1c0-0.5-0.2-0.7-0.7-0.7c-0.4,0-0.6,0.2-0.7,0.5v2.3h-0.5v-3.2H29.6z"/>
</g>
</svg>
