<svg xmlns="http://www.w3.org/2000/svg" viewBox="0 0 148.69 19.5"><title>MoMoMe_1</title><g id="Layer_2" data-name="Layer 2"><g id="Layer_1-2" data-name="Layer 1"><path d="M28.54,31.36H27.11c0-.41,0-1.2,0-2.34s0-2.95,0-5.41c0-.86,0-1.82,0-2.9s0-1.83,0-2.23a6.48,6.48,0,0,0-.92-3.87,3.56,3.56,0,0,0-3-1.12,7.91,7.91,0,0,0-2.63.59,25.78,25.78,0,0,0-4.07,2.1l.06.69c0,.36,0,.67,0,.94v6.37c0,.6,0,1.76,0,3.47s0,3,0,3.71H15.2c0-.48,0-1.52,0-3.12s0-3,0-4.26,0-2.39,0-3.42,0-1.73,0-2.08a10,10,0,0,0-.24-2.3,4.2,4.2,0,0,0-.68-1.59,2.67,2.67,0,0,0-1.09-.8,4.7,4.7,0,0,0-1.82-.3,7.43,7.43,0,0,0-2.78.7,26.81,26.81,0,0,0-3.9,2.17v6.08c0,1.34,0,3,0,5s0,3.29,0,3.94H3.3c0-.43,0-1.27,0-2.51s0-3.52,0-6.82c0-1.33,0-2.8,0-4.41s0-3.26,0-5H4.7v2.45l0,0A28.63,28.63,0,0,1,8.67,13a8,8,0,0,1,3.13-.74,4.71,4.71,0,0,1,2.86.84,4.22,4.22,0,0,1,1.56,2h.08a22.11,22.11,0,0,1,3.89-2,9.7,9.7,0,0,1,3.44-.82,4.43,4.43,0,0,1,3.68,1.5,6.28,6.28,0,0,1,1.21,4.06c0,1.44,0,2.64,0,3.57s0,1.75,0,2.43,0,2,0,3.82S28.54,30.7,28.54,31.36Z" transform="translate(-3.3 -12.25)"/><path d="M50.22,22a11.92,11.92,0,0,1-.67,4.15,9.22,9.22,0,0,1-2.09,3.28,7.73,7.73,0,0,1-2.6,1.76,8.94,8.94,0,0,1-6.2,0,7.42,7.42,0,0,1-2.6-1.75A9,9,0,0,1,34,26.2,11.77,11.77,0,0,1,33.3,22a12.21,12.21,0,0,1,.61-4,9.18,9.18,0,0,1,1.87-3.15,7.69,7.69,0,0,1,2.75-2,8.62,8.62,0,0,1,3.25-.61,8.2,8.2,0,0,1,3.23.63,7.57,7.57,0,0,1,2.64,1.89,9.36,9.36,0,0,1,2,3.27A12.16,12.16,0,0,1,50.22,22Zm-1.4,0a10.77,10.77,0,0,0-.68-4,8.53,8.53,0,0,0-1.92-2.92,5.48,5.48,0,0,0-2-1.32,7,7,0,0,0-2.39-.43,7.28,7.28,0,0,0-2.57.43A5.91,5.91,0,0,0,37,15.36a8.39,8.39,0,0,0-1.75,2.89A11.19,11.19,0,0,0,34.7,22a10.68,10.68,0,0,0,.73,4.12,8.13,8.13,0,0,0,2.09,3,5.2,5.2,0,0,0,1.9,1.12,6.77,6.77,0,0,0,2.34.4,7,7,0,0,0,2.45-.45,5.61,5.61,0,0,0,2.11-1.38,8.61,8.61,0,0,0,1.87-2.95A10.8,10.8,0,0,0,48.82,22.05Z" transform="translate(-3.3 -12.25)"/><path d="M80.35,31.36H78.93c0-.41,0-1.2,0-2.34s0-2.95,0-5.41c0-.86,0-1.82,0-2.9s0-1.83,0-2.23A6.63,6.63,0,0,0,78,14.61a3.57,3.57,0,0,0-3-1.12,7.86,7.86,0,0,0-2.63.59,25.8,25.8,0,0,0-4.08,2.1c0,.11,0,.34.06.69s0,.67,0,.94v6.37c0,.6,0,1.76,0,3.47s0,3,0,3.71H67c0-.48,0-1.52,0-3.12s0-3,0-4.26,0-2.39,0-3.42,0-1.73,0-2.08a10,10,0,0,0-.24-2.3,4.05,4.05,0,0,0-.69-1.59,2.61,2.61,0,0,0-1.09-.8,4.67,4.67,0,0,0-1.82-.3,7.38,7.38,0,0,0-2.77.7,26.84,26.84,0,0,0-3.91,2.17v6.08c0,1.34,0,3,0,5s0,3.29,0,3.94H55.11c0-.43,0-1.27,0-2.51s0-3.52,0-6.82c0-1.33,0-2.8,0-4.41s0-3.26,0-5h1.41l0,2.45.06,0A28,28,0,0,1,60.48,13a8.08,8.08,0,0,1,3.13-.74,4.68,4.68,0,0,1,2.86.84,4.3,4.3,0,0,1,1.57,2h.07a22.56,22.56,0,0,1,3.9-2,9.65,9.65,0,0,1,3.43-.82,4.44,4.44,0,0,1,3.69,1.5,6.33,6.33,0,0,1,1.2,4.06c0,1.44,0,2.64,0,3.57s0,1.75,0,2.43,0,2,0,3.82S80.35,30.7,80.35,31.36Z" transform="translate(-3.3 -12.25)"/><path d="M102,22a11.92,11.92,0,0,1-.68,4.15,9.19,9.19,0,0,1-2.08,3.28,7.73,7.73,0,0,1-2.6,1.76,9,9,0,0,1-6.21,0,7.6,7.6,0,0,1-2.6-1.75,9.11,9.11,0,0,1-2.06-3.24,12,12,0,0,1-.7-4.17,12.21,12.21,0,0,1,.61-4,9.18,9.18,0,0,1,1.87-3.15,7.78,7.78,0,0,1,2.75-2,8.66,8.66,0,0,1,3.25-.61,8.2,8.2,0,0,1,3.23.63,7.39,7.39,0,0,1,2.64,1.89,9.39,9.39,0,0,1,2,3.27A12.43,12.43,0,0,1,102,22Zm-1.41,0a10.77,10.77,0,0,0-.68-4A8.65,8.65,0,0,0,98,15.11a5.52,5.52,0,0,0-2-1.32,6.92,6.92,0,0,0-2.39-.43,7.23,7.23,0,0,0-2.56.43,6,6,0,0,0-2.2,1.57,8.39,8.39,0,0,0-1.75,2.89A11.2,11.2,0,0,0,86.52,22a10.69,10.69,0,0,0,.72,4.12,8.13,8.13,0,0,0,2.09,3,5.2,5.2,0,0,0,1.9,1.12,6.85,6.85,0,0,0,2.34.4A7,7,0,0,0,96,30.19a5.49,5.49,0,0,0,2.1-1.38A8.47,8.47,0,0,0,100,25.86,10.8,10.8,0,0,0,100.63,22.05Z" transform="translate(-3.3 -12.25)"/><path d="M132.17,31.36h-1.43c0-.41,0-1.2,0-2.34s0-2.95,0-5.41c0-.86,0-1.82,0-2.9s0-1.83,0-2.23a6.55,6.55,0,0,0-.92-3.87,3.56,3.56,0,0,0-3-1.12,7.91,7.91,0,0,0-2.63.59,25.78,25.78,0,0,0-4.07,2.1c0,.11,0,.34.05.69s0,.67,0,.94v6.37c0,.6,0,1.76,0,3.47s0,3,0,3.71h-1.43c0-.48,0-1.52,0-3.12s0-3,0-4.26,0-2.39,0-3.42,0-1.73,0-2.08a10,10,0,0,0-.24-2.3,4.2,4.2,0,0,0-.68-1.59,2.64,2.64,0,0,0-1.1-.8,4.65,4.65,0,0,0-1.81-.3,7.43,7.43,0,0,0-2.78.7,26.84,26.84,0,0,0-3.91,2.17v6.08c0,1.34,0,3,0,5s0,3.29,0,3.94h-1.43c0-.43,0-1.27,0-2.51s0-3.52,0-6.82c0-1.33,0-2.8,0-4.41s0-3.26,0-5h1.41l0,2.45.06,0A28.63,28.63,0,0,1,112.3,13a8,8,0,0,1,3.12-.74,4.72,4.72,0,0,1,2.87.84,4.22,4.22,0,0,1,1.56,2h.07a22.56,22.56,0,0,1,3.9-2,9.65,9.65,0,0,1,3.44-.82,4.43,4.43,0,0,1,3.68,1.5,6.28,6.28,0,0,1,1.21,4.06c0,1.44,0,2.64,0,3.57s0,1.75,0,2.43,0,2,0,3.82S132.17,30.7,132.17,31.36Z" transform="translate(-3.3 -12.25)"/><path d="M152,21H138.31a11.9,11.9,0,0,0,.71,4.37,7.73,7.73,0,0,0,2.7,3.26,8.08,8.08,0,0,0,2.66,1.24,13.09,13.09,0,0,0,3.4.42l1.39,0,1.14-.05-.22,1.17-.73,0c-.35,0-.92,0-1.69,0a13.47,13.47,0,0,1-4.61-.74,9.14,9.14,0,0,1-3.45-2.17,9.35,9.35,0,0,1-2-3.05,9.8,9.8,0,0,1-.72-3.71,12.17,12.17,0,0,1,.51-3.78,9.62,9.62,0,0,1,1.82-3.09,7.21,7.21,0,0,1,2.52-2,7.33,7.33,0,0,1,3.15-.68,7.21,7.21,0,0,1,2.78.51,6,6,0,0,1,2.14,1.49,7.69,7.69,0,0,1,1.56,2.81A12.81,12.81,0,0,1,152,21Zm-1.37-1.06a8.11,8.11,0,0,0-1.8-4.94,5.18,5.18,0,0,0-3.92-1.6A5.89,5.89,0,0,0,140.7,15a8.69,8.69,0,0,0-2.33,4.88Z" transform="translate(-3.3 -12.25)"/></g></g></svg>