<?xml version="1.0" encoding="utf-8"?>
<!-- Generator: Adobe Illustrator 24.0.1, SVG Export Plug-In . SVG Version: 6.00 Build 0)  -->
<svg version="1.1" id="Layer_1" xmlns="http://www.w3.org/2000/svg" xmlns:xlink="http://www.w3.org/1999/xlink" x="0px" y="0px"
	 viewBox="0 0 36 48" style="enable-background:new 0 0 36 48;" xml:space="preserve">
<style type="text/css">
	.st0{enable-background:new    ;}
</style>
<title>Idea</title>
<desc>Created with Sketch.</desc>
<g class="st0">
	<path d="M6.3,15.4L11,27l4.6-11.6H18v14.2h-1.9v-5.5l0.2-6l-4.7,11.5h-1.4L5.6,18.1l0.2,5.9v5.5H3.9V15.4H6.3z"/>
	<path d="M32.3,23c0,1.4-0.2,2.6-0.7,3.6c-0.5,1-1.1,1.8-2,2.4c-0.9,0.5-1.9,0.8-3,0.8c-1.1,0-2.1-0.3-3-0.8c-0.9-0.5-1.5-1.3-2-2.3
		c-0.5-1-0.7-2.2-0.7-3.5v-1c0-1.4,0.2-2.6,0.7-3.6c0.5-1,1.1-1.8,2-2.4c0.9-0.6,1.9-0.8,3-0.8c1.1,0,2.1,0.3,3,0.8
		c0.9,0.5,1.5,1.3,2,2.4c0.5,1,0.7,2.3,0.7,3.6V23z M30.4,22.1c0-1.7-0.3-3-1-3.9s-1.6-1.4-2.8-1.4c-1.2,0-2.1,0.5-2.8,1.4
		c-0.7,0.9-1,2.1-1,3.7v1c0,1.6,0.3,2.9,1,3.8c0.7,0.9,1.6,1.4,2.8,1.4c1.2,0,2.1-0.4,2.8-1.3s1-2.1,1-3.8V22.1z"/>
</g>
<g class="st0">
	<path d="M9.3,34.1l0,0.4c0.2-0.3,0.5-0.4,0.9-0.4c0.4,0,0.7,0.2,0.9,0.5c0.1-0.2,0.2-0.3,0.4-0.4S12,34,12.2,34
		c0.7,0,1,0.4,1.1,1.1v2.1h-0.5v-2.1c0-0.2-0.1-0.4-0.2-0.5c-0.1-0.1-0.3-0.2-0.5-0.2c-0.2,0-0.4,0.1-0.5,0.2
		c-0.1,0.1-0.2,0.3-0.2,0.5v2.1h-0.5v-2.1c0-0.5-0.2-0.7-0.7-0.7c-0.4,0-0.6,0.2-0.7,0.5v2.3H8.8v-3.2H9.3z"/>
	<path d="M13.9,35.6c0-0.3,0.1-0.6,0.2-0.8s0.3-0.4,0.5-0.6s0.5-0.2,0.7-0.2c0.4,0,0.8,0.1,1,0.4s0.4,0.7,0.4,1.2v0
		c0,0.3-0.1,0.6-0.2,0.8c-0.1,0.2-0.3,0.4-0.5,0.6s-0.5,0.2-0.8,0.2c-0.4,0-0.8-0.2-1-0.4S13.9,36.2,13.9,35.6L13.9,35.6z
		 M14.5,35.7c0,0.4,0.1,0.6,0.2,0.8s0.4,0.3,0.7,0.3c0.3,0,0.5-0.1,0.7-0.3c0.2-0.2,0.2-0.5,0.2-0.9c0-0.3-0.1-0.6-0.2-0.8
		c-0.2-0.2-0.4-0.3-0.7-0.3c-0.3,0-0.5,0.1-0.6,0.3S14.5,35.3,14.5,35.7z"/>
	<path d="M18.2,33.3v0.8h0.6v0.4h-0.6v2c0,0.1,0,0.2,0.1,0.3c0.1,0.1,0.1,0.1,0.3,0.1c0.1,0,0.1,0,0.3,0v0.4c-0.1,0-0.3,0.1-0.4,0.1
		c-0.2,0-0.4-0.1-0.5-0.2s-0.2-0.4-0.2-0.6v-2h-0.6v-0.4h0.6v-0.8H18.2z"/>
	<path d="M19.5,33.2c0-0.1,0-0.2,0.1-0.2s0.1-0.1,0.2-0.1S20,33,20,33s0.1,0.1,0.1,0.2s0,0.2-0.1,0.2s-0.1,0.1-0.2,0.1
		s-0.2,0-0.2-0.1S19.5,33.3,19.5,33.2z M20.1,37.3h-0.5v-3.2h0.5V37.3z"/>
	<path d="M20.8,35.6c0-0.3,0.1-0.6,0.2-0.8s0.3-0.4,0.5-0.6s0.5-0.2,0.7-0.2c0.4,0,0.8,0.1,1,0.4s0.4,0.7,0.4,1.2v0
		c0,0.3-0.1,0.6-0.2,0.8c-0.1,0.2-0.3,0.4-0.5,0.6s-0.5,0.2-0.8,0.2c-0.4,0-0.8-0.2-1-0.4S20.8,36.2,20.8,35.6L20.8,35.6z
		 M21.3,35.7c0,0.4,0.1,0.6,0.2,0.8s0.4,0.3,0.7,0.3c0.3,0,0.5-0.1,0.7-0.3c0.2-0.2,0.2-0.5,0.2-0.9c0-0.3-0.1-0.6-0.2-0.8
		c-0.2-0.2-0.4-0.3-0.7-0.3c-0.3,0-0.5,0.1-0.6,0.3S21.3,35.3,21.3,35.7z"/>
	<path d="M24.9,34.1l0,0.4c0.2-0.3,0.6-0.5,0.9-0.5c0.7,0,1,0.4,1,1.1v2.1h-0.5v-2.1c0-0.2-0.1-0.4-0.2-0.5s-0.3-0.2-0.5-0.2
		c-0.2,0-0.3,0-0.5,0.1S25,34.8,24.9,35v2.3h-0.5v-3.2H24.9z"/>
</g>
</svg>
