<?xml version="1.0" encoding="utf-8"?>
<!-- Generator: Adobe Illustrator 24.0.1, SVG Export Plug-In . SVG Version: 6.00 Build 0)  -->
<svg version="1.1" id="Layer_2" xmlns="http://www.w3.org/2000/svg" xmlns:xlink="http://www.w3.org/1999/xlink" x="0px" y="0px"
	 viewBox="0 0 368.6 115.2" style="enable-background:new 0 0 368.6 115.2;" xml:space="preserve">
<style type="text/css">
	.st0{fill:#413F56;}
	.st1{fill:#0E0E10;}
	.st2{fill:#F1F1F1;}
	.st3{opacity:0.1;fill:#0E0E10;enable-background:new    ;}
	.st4{fill:#A5A5A5;}
	.st5{opacity:0.2;enable-background:new    ;}
	.st6{fill:#ECB6B6;}
	.st7{fill:#323242;}
	.st8{opacity:0.1;enable-background:new    ;}
	.st9{fill:#585A85;}
	.st10{fill:#E8E8F1;}
	.st11{fill:url(#SVGID_1_);}
	.st12{fill:#ECB7B7;}
	.st13{fill:#4D4D76;}
	.st14{fill:none;}
	.st15{fill:#767997;}
	.st16{fill:#C9CBD7;}
	.st17{opacity:5.000000e-02;enable-background:new    ;}
	.st18{fill:#A56B6B;}
	.st19{fill:#F1CE48;}
	.st20{fill:#CDCBDE;}
	.st21{opacity:0.2;fill:#FFFFFF;enable-background:new    ;}
	.st22{fill:#8F6169;}
</style>
<path class="st0" d="M26.3,60.4c0,0,0.5-2.1,4-1.4c3.5,0.7,4,1.4,4,1.4H26.3z"/>
<path class="st0" d="M9.2,57.7c0,0,0.5-2.1,4-1.4c3.5,0.7,4,1.4,4,1.4H9.2z"/>
<path class="st0" d="M25.3,55.7c0,0-2.8-1.7-4,0H25.3z"/>
<path class="st0" d="M9.7,54.1c0.8,1.5,2.6,2.2,2.6,2.2s0.4-1.8-0.4-3.4c-0.8-1.5-2.6-2.2-2.6-2.2S8.8,52.6,9.7,54.1z"/>
<path class="st1" d="M10.2,53.6c1.5,0.9,2.1,2.7,2.1,2.7s-1.8,0.3-3.3-0.6S6.9,53,6.9,53S8.7,52.7,10.2,53.6z"/>
<path class="st2" d="M32.4,29.4C32.4,41.7,25,46,16,46S-0.3,41.7-0.3,29.4S16,1.5,16,1.5S32.4,17.1,32.4,29.4z"/>
<polygon class="st0" points="15.4,44.1 15.6,33.8 22.6,21.1 15.6,32.2 15.7,27.6 20.5,18.4 15.7,26.4 15.7,26.4 15.9,18.1 21,10.7 
	15.9,16.8 16,1.5 15.4,21.7 15.5,20.9 10.3,12.9 15.4,22.5 14.9,31.7 14.9,31.5 8.9,23.1 14.9,32.4 14.8,33.5 14.8,33.5 14.8,33.6 
	13.6,57.2 15.2,57.2 15.4,45 21.4,35.8 "/>
<path class="st3" d="M134.2,49.6c2,0.7,4.4,0.3,6.7,0.3c0.3,0,0.6,0,0.9,0.2c0.2,0.1,0.4,0.3,0.5,0.5c0.6,0.6,1.9,0.9,3.1,0.7
	c1.1-0.1,2.2-0.5,3.3-0.7c1.9-0.5,4-0.7,5.8-0.2c0.2,0.1,0.3,0.1,0.5,0.1c0.4,0,0.5-0.4,0.8-0.6c0.5-0.4,1.6-0.3,1.8-0.7
	c0.1-0.3-0.2-0.6-0.5-0.7c-1.3-0.7-3-0.8-4.7-0.7c-1.6,0.1-3.3,0.4-4.9,0.4c-2.1,0-4-0.5-6.1-0.7c-1.4-0.1-2.9-0.1-4.3,0.3
	C135.8,48.2,135.5,49.1,134.2,49.6z"/>
<path class="st1" d="M156.8,47.7c0.2-0.1,0.3-0.3,0.4-0.6c0-0.2,0-0.5-0.3-0.6c-0.2-0.1-0.5,0.1-0.7,0.2s-0.4,0.4-0.7,0.3
	c0.3-0.2,0.4-0.6,0.3-0.9c0-0.1,0-0.1-0.1-0.2c-0.1-0.1-0.4-0.1-0.5,0c-0.5,0.4-0.6,1-0.6,1.7c-0.1-0.2,0-0.5,0-0.7
	s-0.1-0.5-0.3-0.6c-0.1-0.1-0.3-0.1-0.4-0.1c-0.2,0-0.5,0-0.6,0.2c-0.2,0.2-0.1,0.6,0,0.8c0.2,0.2,0.4,0.4,0.7,0.5
	c0.2,0.1,0.3,0.3,0.5,0.4c0,0,0,0.1,0,0.1h1.4C156.2,48.2,156.5,48,156.8,47.7z"/>
<path class="st1" d="M169.5-0.1c0,0.6-1,2.2-1,2.2s-1-1.6-1-2.2c0-0.6,0.5-1,1-1C169-1.2,169.5-0.7,169.5-0.1L169.5-0.1z"/>
<path class="st1" d="M190.1-19.6c-0.3,0.5-2.1,1.3-2.1,1.3s0-1.9,0.3-2.4c0.3-0.5,0.9-0.6,1.4-0.3C190.3-20.8,190.4-20.1,190.1-19.6
	C190.1-19.6,190.1-19.6,190.1-19.6z"/>
<path class="st1" d="M93.3,31.9c-0.5,0.3-2.4,0.1-2.4,0.1s1-1.7,1.5-1.9c0.5-0.3,1.1-0.1,1.4,0.4C94.1,31,93.9,31.6,93.3,31.9
	C93.4,31.9,93.4,31.9,93.3,31.9z"/>
<path class="st1" d="M156.2,14.7c-0.5,0.3-2.4,0.5-2.4,0.5s0.7-1.8,1.2-2.1c0.5-0.3,1.1-0.2,1.4,0.3
	C156.7,13.7,156.6,14.3,156.2,14.7L156.2,14.7z"/>
<path class="st1" d="M158.7-16.6c0.5,0.3,2.4,0.5,2.4,0.5s-0.7-1.8-1.2-2.1c-0.4-0.4-1.1-0.3-1.4,0.1
	C158.1-17.6,158.2-17,158.7-16.6C158.6-16.6,158.6-16.6,158.7-16.6L158.7-16.6z"/>
<path class="st1" d="M149.6-5c0,0.6-1,2.2-1,2.2s-1-1.6-1-2.2c0-0.6,0.5-1,1-1C149.2-6,149.6-5.5,149.6-5L149.6-5z"/>
<path class="st1" d="M107.5,33.9c-0.3,0.4-1.9,1.2-1.9,1.2s0-1.7,0.3-2.2c0.3-0.4,0.9-0.6,1.3-0.3C107.7,32.8,107.8,33.4,107.5,33.9
	C107.6,33.8,107.5,33.9,107.5,33.9z"/>
<path class="st3" d="M416.2,11.5l-248.1,5.1c-3,6.5-5,13.8-5.9,21.4h249.7c1.6-4.5,2.8-9,3.6-13.7C416.2,19.8,416.5,15.5,416.2,11.5
	z M212.5,28H208c1.2,0,2.2,0.8,2.2,1.9s-1,1.9-2.2,1.9h-25.9c-1.2,0-2.2-0.8-2.2-1.9s1-1.9,2.2-1.9h4.5c-1.2,0-2.2-0.9-2.2-1.9
	c0-1,1-1.8,2.2-1.8h-3.2c-1.2,0-2.2-0.9-2.2-1.9c0-1,1-1.8,2.2-1.8h25.9c1.2,0,2.2,0.9,2.2,1.9c0,1-1,1.8-2.2,1.8h3.2
	c1.2,0,2.3,0.8,2.3,1.8c0,1-0.9,1.9-2.2,1.9C212.6,28,212.6,28,212.5,28L212.5,28z"/>
<path class="st1" d="M190.1,0.3c-0.5,0.3-2.4,0.1-2.4,0.1s1-1.7,1.5-1.9c0.5-0.3,1.1-0.1,1.4,0.4C190.8-0.6,190.6,0,190.1,0.3
	C190.1,0.3,190.1,0.3,190.1,0.3z"/>
<path class="st1" d="M196.6,30c-0.5,0.3-2.4,0.5-2.4,0.5s0.7-1.8,1.2-2.1c0.5-0.3,1.1-0.2,1.4,0.3C197.1,29.1,197.1,29.7,196.6,30
	L196.6,30z"/>
<path class="st1" d="M101.9,28.3c0.4,0.3,2.2,0.4,2.2,0.4s-0.7-1.6-1.1-1.9c-0.4-0.3-1-0.3-1.4,0.1
	C101.3,27.3,101.4,27.9,101.9,28.3C101.8,28.3,101.8,28.3,101.9,28.3L101.9,28.3z"/>
<path class="st4" d="M142.3,49c0,0,1.7-0.3,2.1-0.8s2.4-1.2,2.6-0.7s3,2.4,1.1,2.7c-1.9,0.3-4.4,0.4-5,0.2S142.3,49,142.3,49z"/>
<ellipse class="st1" cx="180.7" cy="50.5" rx="24.1" ry="4.5"/>
<path class="st5" d="M148.2,50.1c-1.9,0.3-4.4,0.4-5,0.2c-0.4-0.2-0.7-1-0.8-1.3l-0.1,0c0,0,0.3,1.3,0.9,1.5c0.6,0.2,3.1,0.1,5-0.2
	c0.5-0.1,0.7-0.3,0.6-0.6C148.7,49.9,148.6,50,148.2,50.1z"/>
<g>
	<path class="st6" d="M161.4,28.5l1.2,3.6c0,0-1.1,3.4-0.6,7.2s0.2,3.9,0.2,3.9s-5-0.3-4.5,1.2c0.5,1.5,5.4,0.6,5.4,0.6
		s0.9-0.3,1.4-2.9c0.4-2.7,1.6-7.9,1.6-7.9l-1.1-4.9L161.4,28.5z"/>
	<path class="st1" d="M161.8,21c0,0-2.1,0.8-2.1,2.9s0.8,5,1.3,5.2c0.5,0.2,3.9,2.5,4.5,0.8C166,28.4,161.8,21,161.8,21z"/>
	<polygon class="st6" points="179.5,46.2 184,46 187.4,45.5 186.4,48.9 178.1,49.1 	"/>
	<path class="st7" d="M186,46.6c0,0-0.1-1.2-0.6-1.2s-0.2-0.4,0.3-0.6c0.4-0.1,1.7-0.7,1.7-0.7l5.1,0.3c0,0,3.3,2.9,2,4.5
		s-4.8,0.2-4.8,0.2l-3.7,0.1C185.9,49.3,184.7,47.3,186,46.6z"/>
	<polygon class="st6" points="188,42.3 189.6,49.9 192.9,49.3 191,39.8 189,38.7 	"/>
	<path class="st7" d="M168.7,41.4c0,0-9.4,4.2-5.4,8.6c0,0,0,2,4.2,1.6c4.2-0.4,12.3-1.1,12.7-0.9c0.4,0.2,1.6-4.4,0.6-4.6
		c-1.1-0.2-2.3-0.5-2.3-0.5s1.1-0.2,1.1-1.1c0,0,3.2-0.2,4.1-2.2s1.8-3.5,1.8-3.5l2.2,5.6c0,0,2.5-4.6,4.4-2.6
		c0,0-2.1-13.4-3.7-14.6c-1.6-1.2-2.7-1.6-4.2-0.5c-1.5,1.1-2.9,4-2.9,4L168.7,41.4z"/>
	<path class="st7" d="M191.1,47.6c-0.4,0.3-0.8,0.6-1.1,1c-0.4,0.4-1.1,0.2-1.1,0c-0.1-0.2-1.1,0.2-1.2,1.8c-0.1,1.6-0.8,3.1,1,3.6
		c1.8,0.5,1.7,2,1.7,2c1.4,0.7,3,0.8,4.5,0.3c2.5-0.8,1.6-1.7,1.6-1.7l-3.4-5.5C193.2,48.9,192.3,47.3,191.1,47.6z"/>
	<path class="st6" d="M181.8,19.9c0,0,5.4,1.8,5.9,2.2c0.6,0.4,3.1,2.2,1.8,3.2s-2.2,1.6-4.6,0.8s-5.1-3-5.1-3L181.8,19.9z"/>
	<path class="st1" d="M176.5,17.5c0,0,2.1-0.4,3.6,0.4c1.5,0.8,2.8,2.5,2.8,2.5s-1.4,3-2.4,3.4c-1,0.4-2.9-1.8-2.9-1.8L176.5,17.5z"
		/>
	<path class="st6" d="M166.7,15.8c0,0,0.1,2.2-0.2,2.4c-0.2,0.2,2.7,6.8,5.9,3.9s0.7-4.1,0.7-4.1s-1.2-2.2-1.1-2.4
		c0.1-0.2-5.2,0-5.2,0L166.7,15.8z"/>
	<path class="st8" d="M166.7,15.8c0,0,0.1,2.2-0.2,2.4c-0.2,0.2,2.7,6.8,5.9,3.9s0.7-4.1,0.7-4.1s-1.2-2.2-1.1-2.4
		c0.1-0.2-5.2,0-5.2,0L166.7,15.8z"/>
	<path class="st1" d="M167.6,20c0,0,2.1,1.5,3,1.1c0.9-0.3,2-1.8,2.1-1.9c0.1-0.1,5.8,11.3,5.8,11.3s-0.8,4.2-3.1,5.4
		c-2.2,1.2-2.2,2.2-2.5,3c-0.3,0.8-3.9-2.7-3.9-2.7l-2.3-9.7v-5.9L167.6,20z"/>
	<path class="st9" d="M166.7,17.4c0,0-0.7-0.1-1.4,0.5c-0.7,0.6-4.1,2.9-4,3.1s1.7,3.4,2,4.7c0.3,1.3,0.8,1.5,0.8,1.5s1.2,0.8,1,1.5
		c-0.2,0.6-0.9,9,0.1,10.8c1,1.8,0.8,3.5,0.6,3.9c-0.3,0.4,2.7-1.3,2.7-1.3s4.4-3.6,4.8-4.6c0.2-0.7,0.4-1.5,0.4-2.2
		c0,0-2.9-11.3-3.7-11.9C169,22.7,166.7,17.4,166.7,17.4z"/>
	<path class="st9" d="M172.8,17.5c0,0,1.4-0.9,1.7-0.6s2.9,0.2,3,0.4s0.2,5.6,2.1,7c1.9,1.4,0.7,4.2,0.7,4.2l1.4,2.2
		c0,0-7.6,7.3-7.1,4.8c0-0.1,0-0.2,0-0.2s-3-12.7-2.6-13.4S173,18.3,172.8,17.5z"/>
	<path class="st6" d="M184.5,22.6l-7.6,2.6c0,0-7.5,1.8-6.4,3.9s6.1-1.5,6.1-1.5l10.1-1.1C186.8,26.5,190.8,23.1,184.5,22.6z"/>
	<circle class="st6" cx="169.7" cy="13.8" r="4.1"/>
	<path class="st7" d="M166.4,9.7l-0.8-0.3c0,0,1.6-1.6,3.8-1.5l-0.6-0.6c0,0,1.5-0.6,2.9,0.9c0.7,0.8,1.6,1.7,2.1,2.7h0.8l-0.3,0.7
		l1.2,0.7l-1.2-0.1c0.1,0.6,0.1,1.2-0.1,1.8l-0.3,0.8c0,0-1.1-2.2-1.1-2.5v0.7c0,0-0.8-0.6-0.8-1l-0.4,0.5l-0.2-0.8l-2.6,0.8
		l0.4-0.6l-1.6,0.2l0.6-0.8c0,0-1.8,0.9-1.9,1.7c-0.1,0.8-1,1.7-1,1.7l-0.4-0.7C165,13.8,164.4,10.7,166.4,9.7z"/>
</g>
<path class="st3" d="M467.7,140.2c4,14.4,12.6,26.9,26.1,32.9c28,12.6,91.2,6.1,138.4-1.4c23.8-3.7,45.5-14.1,61.4-29.4L467.7,140.2
	z"/>
<path class="st3" d="M411.7,0.5h-25.9c-1.2,0-2.2-0.8-2.2-1.9c0-1,1-1.9,2.2-1.9h4.5c-1.2,0-2.2-0.9-2.2-1.9c0-1,1-1.8,2.2-1.8h-3.2
	c-1.2,0-2.2-0.9-2.2-1.9c0-1,1-1.8,2.2-1.8h13.5c-3-1.2-6.5-2-10.5-2.4c-36.8-4-50-1.3-54.6,1.4c-5.7,3.3-12.1,5.8-18.9,6.9
	C293.7-1,251.2,3.7,212.7-6.4c-19.2-5.1-33.4,3.5-41.9,17.7h245.4c-0.3-4.1-1.3-8-3-11.3C412.7,0.3,412.2,0.5,411.7,0.5z"/>
<path class="st3" d="M162.1,38.2c-1,8.4-0.7,16.8,1,25.2l227.3,7c6.3-6.1,11.6-12.9,15.8-20.2L162.1,38.2z M252,56.2h-4.5
	c1.2,0,2.2,0.8,2.2,1.9c0,1-1,1.9-2.2,1.9l0,0h-25.9c-1.2,0-2.2-0.8-2.2-1.9c0-1,1-1.9,2.2-1.9h4.5c-1.2,0-2.2-0.9-2.2-1.9
	c0-1,1-1.8,2.2-1.8h-3.2c-1.2,0-2.2-0.9-2.2-1.9c0-1,1-1.8,2.2-1.8h25.9c1.2,0,2.2,0.9,2.2,1.9c0,1-1,1.8-2.2,1.8h3.2
	c1.2,0,2.3,0.8,2.3,1.8c0,1-0.9,1.9-2.2,1.9C252.1,56.2,252,56.2,252,56.2L252,56.2z"/>
<path class="st10" d="M230.5,24.4h6.1c0.2,0,0.4,0.2,0.4,0.4v0.1c0,0.2-0.2,0.4-0.4,0.4h-6.1c-0.2,0-0.4-0.2-0.4-0.4v-0.1
	C230.1,24.6,230.3,24.4,230.5,24.4z"/>
<circle class="st10" cx="239.5" cy="24.9" r="0.7"/>
<g>
	
		<linearGradient id="SVGID_1_" gradientUnits="userSpaceOnUse" x1="73.527" y1="16.5145" x2="73.527" y2="59.4077" gradientTransform="matrix(1 0 0 -1 -47.22 72.64)">
		<stop  offset="0" style="stop-color:#7F7F7F;stop-opacity:0.25"/>
		<stop  offset="0.54" style="stop-color:#7F7F7F;stop-opacity:0.12"/>
		<stop  offset="1" style="stop-color:#7F7F7F;stop-opacity:0.1"/>
	</linearGradient>
	<path class="st11" d="M37.2,28.6c0,0-0.6-1.5-2.6-2.8s-2-2.1-2-2.1s-0.4-2.8-0.9-3.5c-0.5-0.8-0.8-1.9-0.8-1.9s0,0-0.1,0.1
		c0,0,0,0,0-0.1c0-0.4-0.2-1.2-0.4-0.9c0,0,0,0-0.1,0.1l0,0c-0.2-0.3-0.5-0.7-0.5-0.7c0-0.1-2.4-2-3-2.3c-0.4-0.2-1.4-0.7-1.9-1
		c-0.2-0.1-0.5-0.2-0.8-0.1c-0.7,0.1-2.2,0.5-2,1.1c0.3,0.9,1.2,0.6,1.9,0.1c0,0,0.6-0.2,1.3,0.4c0.7,0.7,3.4,2.7,3.4,2.7l0.2,0.6
		l0,0.1c-0.1,0-0.2,0-0.3,0c-0.2,0-0.1,0.2,0,0.4c0,0,0,0.1,0.1,0.1c0,0-0.1,0-0.1,0c0,0,0,0,0,0.1l0,0c0,0,1.1,2,1.1,2.4
		c0,0.2,0,0.3,0,0.5c0,0.2,0,0.3-0.1,0.4c-0.1,0.1-0.4,0.8-0.4,0.8l-1.1,0l0,0c0,0-0.1,0-0.1,0l-0.1,0c0,0,0,0,0,0
		c0-0.5-0.2-0.9-0.4-1.2h0c0.2-0.5-0.3-1-0.4-1.6c0-0.2,0-0.4,0-0.5c0-0.1,0-0.1,0-0.2c-0.1-0.7-0.8-1.2-1.5-1.5
		c-0.4-0.2-0.9-0.3-1.3-0.1c-0.5,0.2-0.7,0.8-1.1,1.1c-0.7,0.5-1.6,0.1-2.4,0.3c-0.3,0.1-0.6,0.2-0.8,0.5c-0.2,0.2-0.2,0.5-0.2,0.8
		c0,0.8,0.1,1.5-0.1,2.2c-0.3,1.2-1.4,1.9-2.3,2.8c-0.5,0.6-1,1.2-1.3,1.9c-0.1,0.3-0.2,0.6,0,0.8c0.1,0.1,0.3,0.2,0.4,0.3
		c0.1,0.2,0.2,0.4,0.1,0.6c-0.1,0.8-0.7,1.4-1.2,2s-0.8,1.5-0.4,2.2c0.3,0.6,1.1,0.8,1.7,0.9c0.2,0,0.4,0.1,0.6,0
		c0.2-0.1,0.3-0.2,0.4-0.4c0.3-0.4,0.5-0.7,0.7-1.2c0.1-0.2,0.2-0.4,0.4-0.5c0.2-0.1,0.4-0.1,0.6-0.1l1.5,0.1c0.1,0,0.2,0,0.4,0
		c0.1-0.1,0.2-0.2,0.3-0.3c0.1-0.2,0.2-0.4,0.3-0.6c0.2-0.6,0.3-1.2,0.7-1.6c0.4-0.4,0.9-0.5,1.4-0.5c0.3,0,0.6,0,0.9,0
		c0.1,0,0.2,0,0.3,0c0.1,0,0.1,0,0.2,0c0.1,0.8,0.3,2,0.1,2.3c-0.2,0.5-0.2,0.8-0.2,0.8l0.1,0c0,0,0,0,0,0.1
		c-0.1,0.2-0.1,0.6,0.1,0.8c0,0,0.1,0.1,0.1,0.1l0,0.1c-0.3,0.7-0.8,2.5-0.9,2.9c-0.1,0.6-0.9,2.4-0.9,2.4S22,40.4,24,41.1
		c0,0,0.2-0.7,0.6-1.3c0.3-0.3,0.5-0.7,0.6-1.1c0.1-0.2,0.1-0.3,0.2-0.5c0.2-0.3,0.6-1.1,0.9-1.8l0.3,0.1c-0.1,0.6-0.2,1.7,0.4,3.4
		c0,0,0,0.1,0,0.2c0,0,0,0,0,0c-0.3-0.1-0.7,0.3-0.9,0.8c-0.2,0.5-0.2,1,0,1.2c0,0,0,0,0.1,0c0.1,0,0.2,0,0.2,0c0,0,0,0,0,0
		c0.1,0,0.1-0.1,0.2-0.1c0.2,0,0.4-0.1,0.6-0.1c0.1,0,0.1,0,0.2,0c0,0.2,0,0.4,0,0.6c0,0.9,0,1.3,0,1.3s-0.1,0.7-0.2,0.8
		s-0.2,3.6,0.2,5.2c0,0,0.3,1.6,0.2,1.9v0c-0.1,0.1-0.1,0.3-0.1,0.4c0,0.1,0,0.3,0,0.4l-0.6,1.9c0,0,0,0,0,0.1
		c-0.1,0.2-0.1,0.3-0.1,0.5c0,0.1,0,0.2,0.1,0.2l0,0c0,0-0.1,0.8,0.9,0.8c1,0,1.1-0.7,1.1-0.7l-0.1-0.3c0,0,0,0,0-0.1
		c0,0,0-0.1,0-0.3c0-0.4,0-1.2,0.1-1.4c0.1-0.2,0.1-1.3,0.1-1.3l0-0.3l0-0.3l-0.1-0.4c0,0,0-1.8,0.1-2.1c0.1-0.2,0.6-2.5,0.5-4
		c0-0.2,0-0.5,0.1-0.7c0.1-0.4,0.3-1.2,0.3-1.7c0,0,0-0.1,0-0.2c0.2,0.3,0.6,0.6,1,0.6h0h0.1c0.3,0,0.6-0.1,0.8-0.3
		c0.5-0.4,1-1,1.3-2c0.1-0.3,0.2-0.5,0.3-0.8c0.3-0.6,0.7-1.8,0.8-2.6l0,0c0,0,0.7-1.9,0.6-2.7c0-0.1,0-0.2,0-0.3l0-0.1c0,0,0,0,0,0
		c0,0-0.3-2-0.3-3.8l0.8-0.6c0,0-0.4-0.8-0.1-1c0.3-0.2,0.6,0.8,0.6,0.8S37.9,30,37.2,28.6z M27.9,30.8l0.5-0.5
		c0.1,0.3-0.1,0.6-0.5,1l0,0C27.9,31.1,27.9,30.8,27.9,30.8z M27.2,25c0,0-0.1,0-0.2,0.1c0-0.1,0-0.2-0.1-0.3c0,0,0.1,0,0.1,0.1
		C27.2,24.9,27.2,25,27.2,25L27.2,25z M29.9,37.5L30,37l0.1,0.1c-0.1,0.4-0.2,0.8-0.3,1.2C29.9,37.9,29.9,37.6,29.9,37.5L29.9,37.5z
		 M29.8,39.3c0,0.1,0,0.2,0,0.3h0c0-0.3,0-0.5,0.1-0.8C29.8,39,29.8,39.2,29.8,39.3L29.8,39.3z"/>
	<path class="st12" d="M26.2,41.2V42c0.3,0.1,0.6-0.1,0.9-0.1c0.2,0,0.4,0.1,0.5,0.1c0,0,0.1,0,0.1,0c0,0,0.1-0.1,0.1-0.1
		c0.1-0.4,0.1-1.4-0.5-1.4C26.9,40.4,26.7,41.2,26.2,41.2z"/>
	<path class="st8" d="M26.2,41.2V42c0.3,0.1,0.6-0.1,0.9-0.1c0.2,0,0.4,0.1,0.5,0.1c0,0,0.1,0,0.1,0c0,0,0.1-0.1,0.1-0.1
		c0.1-0.4,0.1-1.4-0.5-1.4C26.9,40.4,26.7,41.2,26.2,41.2z"/>
	<path class="st13" d="M28.6,51.8c-0.3,0.1-0.9,0.3-1.3,0.3c0-0.2,0-0.3,0.1-0.4c0.3,0.1,0.8,0.1,1.2-0.1L28.6,51.8z"/>
	<path class="st13" d="M28.4,55.2C28,55,27.2,54.7,26.5,55c0-0.2,0-0.4,0.1-0.5c0.4-0.1,1.2-0.1,1.9,0.3c0,0.2,0,0.3,0,0.3
		C28.5,55.1,28.5,55.1,28.4,55.2z"/>
	<path class="st14" d="M30,39.7c0,0-0.7-0.5-1,0.8c-0.3,1.3,0.8,1.6,0.8,1.6L30,39.7z"/>
	<path class="st8" d="M33.6,36.8c-0.1-0.4-0.8-0.5-1.5-0.5c0.6,0,1.2,0.1,1.3,0.5c0.2,0.7-0.5,2.4-0.8,3.2c-0.1,0.3-0.2,0.5-0.3,0.8
		c-0.3,1-0.8,1.6-1.3,1.9c-0.2,0.1-0.4,0.2-0.7,0.2c0.3,0,0.6-0.1,0.8-0.2c0.5-0.4,1-1,1.3-1.9c0.1-0.3,0.2-0.5,0.3-0.8
		C33.1,39.2,33.8,37.6,33.6,36.8z"/>
	<path class="st8" d="M26.7,34.3c0,0-0.5,2-0.6,2.1c0,0,3.3,0.7,3.7,1.1l0.1-0.6l0.2,0.2c0,0,1.9-1.3,3.5,0.3c0,0,0.8-2.4,0.6-2.9
		s-3-0.1-3-0.1L26.7,34.3z"/>
	<path class="st15" d="M33.1,26l0.6,4.8l0.9-0.7c0,0-0.4-0.8-0.1-1c0.2-0.1,0.6,0.8,0.6,0.8s2.4,0.1,1.7-1.2l-0.8-1l-1.5-1.1
		L33.1,26z"/>
	<path class="st8" d="M28.4,23.1c0,0.8-0.5,1.6-1.3,1.9c-0.2-0.2-0.5-0.3-0.8-0.3c0,0-0.1-3.7,0.6-2.5C27.2,22.8,27.8,23,28.4,23.1
		C28.4,23.1,28.4,23.1,28.4,23.1z"/>
	<path class="st8" d="M30.5,17.7l-1.4,0.9L29,18.4c0.4-0.1,1-0.6,1.3-0.8C30.4,17.7,30.5,17.7,30.5,17.7z"/>
	<path class="st8" d="M27.2,32.9v0.6c-0.1,0-0.7,0-1.1-0.3c0.1-0.2,0.1-0.3,0.1-0.3L27.2,32.9z"/>
	<path class="st16" d="M27.4,32.3l-0.1,0.4l-0.2,0.8c0,0-0.8,0-1.3-0.3c-0.3-0.2-0.2-0.5-0.1-0.8c0-0.1,0.1-0.2,0.1-0.2L27.4,32.3z"
		/>
	<path class="st8" d="M27.4,32.3l-0.1,0.4c-0.4,0.2-1.3-0.2-1.6-0.3c0-0.1,0.1-0.2,0.1-0.2L27.4,32.3z"/>
	<path class="st15" d="M25.9,27.6l-0.2,0.8c0,0,0.4,2.6,0.3,3.1c-0.2,0.5-0.2,0.8-0.2,0.8s1.2,0.7,1.7,0.3s0.4-1.7,0.4-1.7l0.9-0.9
		l-1.1-1.6L25.9,27.6z"/>
	<path class="st8" d="M30.1,24.3c0,0,1.1,3.6-2.4,2.7l1,4l-2,3.7c0,0,6.4,1.1,7.5-0.3c0,0-0.5-4.2-0.3-5.7c0.2-1.4-0.6-3.6-1.1-3.8
		S30.1,24.3,30.1,24.3z"/>
	<path class="st8" d="M30.1,24.5c0,0,1.1,3.6-2.4,2.7l1,4l-2,3.7c0,0,6.4,1.1,7.5-0.3c0,0-0.5-4.2-0.3-5.7c0.2-1.4-0.6-3.6-1.1-3.8
		S30.1,24.5,30.1,24.5z"/>
	<path class="st8" d="M30.1,19.1c-0.2,0.1-0.7,0.2-1.3-0.1c0,0,1,2,1.1,2.4c0.1,0.4,0.1,0.9,0,0.9c-0.1,0.1-0.4,0.8-0.4,0.8l-1.1,0
		c0,0,0.7,0.3,0.7,0.8s1.5,1.5,2.3,1.9c0.8,0.4,4,1.5,4,1.5l1.4,1.4c0,0-0.6-1.5-2.5-2.8c-1.9-1.3-1.9-2.1-1.9-2.1s-0.4-2.7-0.8-3.5
		s-0.7-1.9-0.7-1.9S30.6,19,30.3,19C30.3,19,30.2,19,30.1,19.1z"/>
	<path class="st8" d="M30.9,18.7l-0.1,0.3l-1.6,0.5c-0.2-0.2-0.3-0.4-0.4-0.6c0.7,0.3,1.1,0.2,1.3,0.1c0.1,0,0.1,0,0.2-0.1
		c0.2,0,0.4-0.3,0.5-0.5C30.9,18.6,30.9,18.7,30.9,18.7z"/>
	<path class="st8" d="M25,24.6c0.1-0.2,0-0.4,0.1-0.7c0.1-0.6,0.6-1.1,0.6-1.7c0-0.1,0-0.1,0-0.2c0,0,0.1-0.1,0.1-0.1
		c0.3-0.1,0.6,0,0.9-0.2c0.2-0.2,0.2-0.6,0.2-0.9c0-0.2,0-0.4-0.2-0.5c-0.1-0.1-0.2-0.1-0.3-0.1c-0.4-0.1-0.7-0.2-1.1-0.2
		c-0.4-0.1-0.8-0.1-1.1,0c-0.4,0.1-0.6,0.4-0.9,0.7c-0.2,0.3-0.5,0.6-0.4,1c0,0.2,0.2,0.4,0.3,0.5c0.2,0.4,0.2,0.9-0.1,1.2
		c-0.2,0.3-0.5,0.5-0.5,0.8c-0.1,0.3,0.1,0.6,0.4,0.8C23.4,25.5,24.8,25.2,25,24.6z"/>
	<path class="st8" d="M27.3,25.1c0,0-1.7,1.3-1.7,1.8s0.2,1.5,0.2,1.5l1.7,1.1c0,0,1.9,0.8,0.5,2c-1.4,1.3-2,4-2,4s0.7,0.8,2-1.6
		c0,0,1.3-1.4,1.3-2.1c0.1-0.7,0.3-2.8-0.6-4c-0.6-0.9-0.9-1.8-1.1-2.3C27.5,25.3,27.4,25.2,27.3,25.1z"/>
	<path class="st8" d="M27.8,31.4c0,0-1.5,0.5-1.3,1.9"/>
	<polygon class="st8" points="28.2,29.4 27.8,30.9 28.5,30.2 	"/>
	<polygon class="st8" points="29.9,36.9 29.4,37.2 29.8,37.5 	"/>
	<g>
		<path class="st13" d="M27,41.3c-0.2,0.4-0.4,0.7-0.7,0.8c0,0,0,0,0,0c-0.1,0-0.1,0-0.2,0c0,0,0,0-0.1,0c-0.2-0.2-0.2-0.7,0-1.2
			c0.2-0.6,0.6-0.9,0.9-0.8C27.2,40.2,27.3,40.7,27,41.3z"/>
		<path class="st13" d="M26.6,55l0,0.2c0,0-0.1,0.8,0.8,0.8c0.9,0,1.1-0.6,1.1-0.6l-0.1-0.4L26.6,55z"/>
		<path class="st12" d="M29.8,37.5c0,0-0.4,4.4-0.4,5.2c0.1,0.5-0.1,1.2-0.3,1.7c-0.1,0.2-0.1,0.5-0.1,0.7c0.1,1.5-0.3,3.7-0.5,3.9
			c-0.2,0.3-0.1,2.1-0.1,2.1l0,0.4l0,0.3l0,0.3c0,0,0.1,1.1-0.1,1.3c-0.1,0.2-0.1,1-0.1,1.4c0,0.2,0,0.3,0,0.3c0,0.1,0,0.1-0.1,0.2
			c-0.1,0.1-0.4,0.3-1.1,0.3c-0.6,0-0.7-0.3-0.8-0.5c0-0.2,0-0.4,0.1-0.5c0-0.1,0-0.1,0-0.1l0.6-1.9c0-0.1,0-0.3,0-0.4
			c0-0.2,0-0.3,0.1-0.4v0c0.1-0.3-0.2-1.9-0.2-1.9c-0.4-1.6-0.3-5-0.2-5.2c0.1-0.2,0.2-0.8,0.2-0.8s0-0.4,0-1.3
			c0-0.9-0.3-2.5-0.3-2.5c-1-3.1,0-4.1,0-4.1l2.9,0.7L29.8,37.5z"/>
		<path class="st12" d="M27.2,32.9v1.7c0,0-1.3,3-1.7,3.6c-0.1,0.1-0.2,0.3-0.2,0.5c-0.1,0.4-0.3,0.8-0.6,1.1
			c-0.4,0.5-0.6,1.2-0.6,1.2c-2-0.7,0.2-2.5,0.2-2.5s0.8-1.8,0.9-2.4c0.1-0.5,0.6-2.2,0.9-2.9c0.1-0.2,0.1-0.3,0.1-0.3L27.2,32.9z"
			/>
		<path class="st17" d="M30,39.7c0,0-0.7-0.5-1,0.8c-0.3,1.3,0.8,1.6,0.8,1.6L30,39.7z"/>
		<path class="st12" d="M30.2,36.5c0,0-0.6,1.4-0.6,2.8c0,0.1,0,0.3-0.1,0.4c-0.3,0.7-0.4,1.4-0.4,2.1c0,0,0,0,0,0
			c0,0.7,0.6,1.2,1.3,1.2c0.2,0,0.5-0.1,0.7-0.2c0.5-0.4,1-1,1.3-1.9c0.1-0.3,0.2-0.5,0.3-0.8c0.3-0.8,1-2.5,0.8-3.2
			C33.3,35.9,30.2,36.5,30.2,36.5z"/>
		<path class="st13" d="M26.7,34.2c0,0-0.5,2-0.6,2.1c0,0,3.3,0.7,3.7,1.1l0.1-0.6l0.2,0.2c0,0,1.9-1.3,3.5,0.3c0,0,0.8-2.4,0.6-2.9
			s-3-0.1-3-0.1L26.7,34.2z"/>
		<path class="st18" d="M26.6,22.5c0,0.1,0,0.2,0,0.3c0,0.2,0.1,0.4,0.1,0.6c0,0.1,0,0.1,0,0.2c0.1,0.6,0.2,1.2,0.3,1.7
			c0,0.3,0.1,0.6,0.1,0.9c0,0.5,0,1.1-0.1,1.6c-0.1,0.3-0.2,0.6-0.4,0.8c-0.1,0.1-0.1,0.2-0.2,0.3c0,0,0,0-0.1,0
			c-0.1,0.1-0.3,0.1-0.5,0.1c-0.1,0-0.2,0-0.3,0c-0.1,0-0.2,0-0.3,0c-0.3,0-0.6,0-0.9,0c-0.5,0-1,0.1-1.4,0.5
			c-0.4,0.4-0.5,1-0.7,1.6c-0.1,0.2-0.1,0.4-0.3,0.6C22,31.9,21.9,32,21.8,32c-0.1,0-0.2,0-0.4,0L20,32c-0.2,0-0.4,0-0.6,0.1
			c-0.2,0.1-0.3,0.3-0.3,0.5c-0.2,0.4-0.4,0.8-0.7,1.2c-0.1,0.2-0.2,0.3-0.4,0.4c-0.2,0.1-0.4,0-0.6,0c-0.6-0.1-1.4-0.3-1.7-0.9
			c-0.4-0.7,0-1.5,0.4-2.2c0.4-0.6,1-1.2,1.1-2c0-0.2,0-0.4-0.1-0.6c-0.1-0.1-0.3-0.2-0.4-0.3c-0.2-0.2-0.1-0.6,0-0.8
			c0.3-0.7,0.7-1.3,1.3-1.9c0.8-0.9,1.9-1.6,2.2-2.8c0.2-0.7,0-1.5,0.1-2.2c0-0.3,0-0.6,0.2-0.8c0.2-0.3,0.5-0.4,0.8-0.5
			c0.8-0.1,1.7,0.2,2.3-0.3c0.4-0.3,0.6-0.8,1.1-1c0.4-0.2,0.9-0.1,1.3,0.1c0.7,0.3,1.4,0.8,1.5,1.5c0,0.1,0,0.1,0,0.2
			c0,0.2,0,0.4,0,0.5c0.1,0.5,0.6,1.1,0.4,1.6C27.2,21.9,26.7,21.9,26.6,22.5z"/>
		<path class="st8" d="M27,27.9c-0.2,0.4-0.5,0.8-0.7,1.2c-0.1,0.1-0.3,0.1-0.5,0.1c-0.1,0-0.2,0-0.3,0c-0.1,0-0.2,0-0.3,0
			c-0.3,0-0.6,0-0.9,0c-0.5,0-1,0.1-1.4,0.5c-0.4,0.4-0.5,1-0.7,1.6c0,0,0,0-0.1,0c-0.4,0-0.7-0.2-0.9-0.4c-0.1-0.1-0.1-0.1-0.2-0.2
			c0-0.1-0.1-0.2,0-0.3c0-0.4,0.3-0.7,0.5-1c0.3-0.3,0.5-0.7,0.7-1.1c0.1-0.2,0.2-0.4,0.2-0.5c0-0.2-0.1-0.3-0.1-0.4
			c-0.1-0.4,0.2-0.8,0.5-1c0.3-0.3,0.7-0.4,0.9-0.7c0.3-0.3,0.4-0.7,0.4-1.1c0-0.3,0-0.6,0.2-0.8c0.3-0.3,0.7-0.1,1.1-0.1
			c0.4,0,0.7,0.1,1.1,0.1c0,0.1,0,0.1,0,0.2c0.1,0.6,0.2,1.2,0.3,1.7c0,0.3,0.1,0.6,0.1,0.9C27.2,26.8,27.2,27.3,27,27.9z"/>
		<path class="st12" d="M30.5,17.7l-1.4,0.9L29,18.4l-0.2-0.6c0,0-2.7-2-3.3-2.6s-1.2-0.4-1.2-0.4c-0.7,0.5-1.6,0.7-1.9-0.1
			c-0.2-0.6,1.2-1,1.9-1.1c0.3,0,0.5,0,0.8,0.1c0.5,0.3,1.4,0.8,1.8,1c0.6,0.3,3,2.1,3,2.2c0,0.1,0.3,0.5,0.5,0.7
			C30.4,17.7,30.5,17.7,30.5,17.7z"/>
		<path class="st8" d="M33.1,26l0.6,4.8l0.9-0.7c0,0-0.4-0.8-0.1-1c0.2-0.1,0.6,0.8,0.6,0.8s2.4,0.1,1.7-1.2l-0.8-1l-1.5-1.1
			L33.1,26z"/>
		<path class="st12" d="M30.8,25.7l-0.3,2.4l-2,0.2c0,0-2.1-0.6-1.3-2.1c0.4-0.7,0.1-1.1-0.2-1.3c-0.2-0.2-0.5-0.3-0.8-0.3
			c0,0-0.1-3.7,0.6-2.5c0.3,0.6,0.9,0.8,1.5,0.9c0.5,0.1,0.9,0,1.4,0L30.8,25.7z"/>
		<circle class="st12" cx="26.3" cy="23" r="2"/>
		<path class="st16" d="M30.9,18.7l-0.1,0.3l-1.6,0.5c-0.2-0.2-0.3-0.4-0.4-0.6c-0.1-0.2-0.2-0.4,0-0.4c0.4,0.1,1.7-1,1.7-1
			c0.2-0.2,0.3,0.5,0.4,0.9C30.9,18.6,30.9,18.7,30.9,18.7z"/>
		<path class="st16" d="M30.1,24.4c0,0,1.1,3.6-2.4,2.7l1,4l-2,3.7c0,0,6.4,1.1,7.5-0.3c0,0-0.5-4.2-0.3-5.7
			c0.2-1.4-0.6-3.6-1.1-3.8S30.1,24.4,30.1,24.4z"/>
		<path class="st15" d="M30.1,19c-0.2,0.1-0.7,0.2-1.3-0.1c0,0,1,2,1.1,2.4c0.1,0.4,0.1,0.9,0,0.9c-0.1,0.1-0.4,0.8-0.4,0.8l-1.1,0
			c0,0,0.7,0.3,0.7,0.8c0,0.5,1.5,1.5,2.3,1.9c0.8,0.4,4,1.5,4,1.5l1.4,1.4c0,0-0.6-1.5-2.5-2.8s-1.9-2.1-1.9-2.1s-0.4-2.7-0.8-3.5
			s-0.7-1.9-0.7-1.9s-0.4,0.5-0.6,0.5C30.3,19,30.2,19,30.1,19z"/>
		<path class="st18" d="M25,24.6c0.1-0.2,0-0.4,0.1-0.7c0.1-0.6,0.6-1.1,0.6-1.7c0-0.1,0-0.1,0-0.2c0,0,0.1-0.1,0.1-0.1
			c0.3-0.1,0.6,0,0.9-0.2c0.2-0.2,0.2-0.6,0.2-0.9c0-0.2,0-0.4-0.2-0.5c-0.1-0.1-0.2-0.1-0.3-0.1c-0.4-0.1-0.7-0.2-1.1-0.2
			c-0.4-0.1-0.8-0.1-1.1,0c-0.4,0.1-0.6,0.4-0.9,0.7c-0.2,0.3-0.5,0.6-0.4,1c0,0.2,0.2,0.4,0.3,0.5c0.2,0.4,0.2,0.9-0.1,1.2
			c-0.2,0.3-0.5,0.5-0.5,0.8c-0.1,0.3,0.1,0.6,0.4,0.8C23.3,25.5,24.7,25.2,25,24.6z"/>
		<path class="st15" d="M27.2,25.1c0,0-1.7,1.3-1.7,1.8s0.2,1.5,0.2,1.5l1.7,1.1c0,0,1.9,0.8,0.5,2c-1.4,1.3-2,4-2,4s0.7,0.8,2-1.6
			c0,0,1.3-1.4,1.3-2.1c0.1-0.7,0.3-2.8-0.6-4c-0.6-0.9-0.9-1.8-1.1-2.3C27.4,25.3,27.3,25.2,27.2,25.1z"/>
		<path class="st8" d="M32.4,29.4c0,0,1.5,0,1.5-0.5"/>
	</g>
</g>
<path class="st1" d="M9.1,42.3c0,0,0.8,1-0.4,2.5c-1.1,1.5-2,2.8-1.7,3.7c0,0,1.7-2.8,3.1-2.8C11.5,45.6,10.6,44,9.1,42.3z"/>
<path class="st8" d="M9.1,42.3c0.1,0.1,0.1,0.2,0.2,0.3c1.3,1.6,2,3,0.8,3.1c-1.2,0-2.6,2.2-3,2.7c0,0,0,0.1,0,0.1
	c0,0,1.7-2.8,3.1-2.8C11.5,45.6,10.6,44,9.1,42.3z"/>
<path class="st19" d="M10.5,43.6c0,0.4,0,0.6-0.1,0.6c0,0-0.1-0.3-0.1-0.6c0-0.4,0-0.2,0.1-0.2C10.5,43.4,10.5,43.2,10.5,43.6z"/>
<path class="st19" d="M11,44c-0.3,0.2-0.6,0.3-0.6,0.2c0,0,0.2-0.2,0.5-0.4s0.2,0,0.2,0C11.2,43.9,11.3,43.8,11,44z"/>
<path class="st1" d="M5.1,42.3c0,0-0.8,1,0.4,2.5c1.1,1.5,2,2.8,1.7,3.7c0,0-1.7-2.8-3.1-2.8C2.7,45.6,3.6,44,5.1,42.3z"/>
<path class="st8" d="M5.1,42.3c-0.1,0.1-0.1,0.2-0.2,0.3c-1.3,1.6-2,3-0.8,3.1c1.2,0,2.6,2.2,3,2.7c0,0,0,0.1,0,0.1
	c0,0-1.7-2.8-3.1-2.8C2.7,45.6,3.6,44,5.1,42.3z"/>
<path class="st19" d="M3.6,43.6c0,0.4,0,0.6,0.1,0.6s0.1-0.3,0.1-0.6c0-0.4,0-0.2-0.1-0.2S3.6,43.2,3.6,43.6z"/>
<path class="st19" d="M3.2,44c0.3,0.2,0.6,0.3,0.6,0.2c0,0-0.2-0.2-0.5-0.4s-0.2,0-0.2,0C3,43.9,2.9,43.8,3.2,44z"/>
<path class="st4" d="M3.9,48.4c0,0,2.1-0.1,2.8-0.5c0.6-0.5,3.3-1,3.4-0.3s3.2,3.7,0.8,3.7c-2.4,0-5.6-0.4-6.2-0.8
	C4,50.1,3.9,48.4,3.9,48.4z"/>
<path class="st5" d="M11,51c-2.4,0-5.6-0.4-6.2-0.8C4.2,49.9,4,48.9,4,48.4H3.9c0,0,0.1,1.7,0.8,2.1s3.8,0.8,6.2,0.8
	c0.7,0,0.9-0.3,0.9-0.6C11.7,50.8,11.5,51,11,51z"/>
<path class="st20" d="M54.3,35.7l-0.1-0.1c1-1.6,0.8-3.6-0.6-4.9c-0.1-0.1-0.1-0.1-0.2-0.2c-0.2-0.1-0.3-0.3-0.5-0.5
	c-0.2-0.2-0.3-0.6-0.2-0.9l0.1,0.1c-0.1,0.3,0,0.6,0.1,0.8c0.1,0.2,0.3,0.3,0.5,0.5c0.1,0.1,0.1,0.1,0.2,0.2
	C55.1,31.9,55.4,34.1,54.3,35.7z"/>
<path class="st9" d="M73.8,48.8c-1.4-3.3-5.1-5-8.5-4.1c-0.1,0-0.3,0.1-0.4,0.1C64.5,44.9,64,45,63.6,45c-0.5,0-1.2-0.1-1.6-0.7
	l0.1-0.1c0.3,0.5,0.9,0.6,1.4,0.6c0.4,0,0.8-0.1,1.2-0.2c0.1,0,0.3-0.1,0.4-0.1c3.5-0.9,7.2,0.9,8.7,4.2L73.8,48.8z"/>
<path class="st9" d="M69.4,21.5l-0.1,0c0.5-2.9-1.1-5.8-3.9-6.8c-0.1,0-0.2-0.1-0.4-0.1c-0.3-0.1-0.7-0.2-1-0.4
	c-0.4-0.2-0.8-0.7-0.7-1.2l0.1,0c0,0.5,0.3,0.9,0.7,1.1c0.3,0.2,0.6,0.3,0.9,0.4c0.1,0,0.2,0.1,0.4,0.1C68.3,15.6,70,18.5,69.4,21.5
	z"/>
<path class="st20" d="M56,27.9c-0.6,1.1-1.8,1.6-2.7,1.2c0,0,0,0,0,0l0,0.1c0,0,0,0,0,0c0,0.1-0.1,0.2-0.2,0.1c0,0,0,0-0.1,0
	l-0.2-0.2c-0.1-0.1-0.1-0.2-0.1-0.3c0,0,0,0,0,0l0,0l0-0.1l0,0c-0.7-0.7-0.8-2-0.2-3.1c0.7-1.2,2-1.7,3-1.1
	C56.4,25.2,56.7,26.7,56,27.9z"/>
<ellipse transform="matrix(0.8633 -0.5047 0.5047 0.8633 -5.2556 30.4987)" class="st21" cx="53.7" cy="25" rx="0.6" ry="0.2"/>
<path class="st9" d="M53.3,29.2C53.3,29.2,53.3,29.2,53.3,29.2l-0.6-0.4l0-0.1L53.3,29.2C53.3,29.2,53.3,29.2,53.3,29.2L53.3,29.2z"
	/>
<ellipse class="st20" cx="70.7" cy="52.8" rx="32.1" ry="2"/>
<path class="st20" d="M74.4,50.8c0,0-0.2-0.4-0.3-1.1c-0.1-0.6,0-1.7,0.5-3.3c1.1-2.9-0.2-5.2-0.3-5.2l0.1,0c0.3,0.5,0.4,1,0.5,1.5
	c0.3,1.2,0.2,2.5-0.3,3.7C73.6,49.4,74.4,50.8,74.4,50.8L74.4,50.8z"/>
<circle class="st20" cx="74" cy="40.6" r="0.5"/>
<circle class="st20" cx="75.5" cy="42.4" r="0.5"/>
<circle class="st20" cx="74.5" cy="43.6" r="0.5"/>
<circle class="st20" cx="75.7" cy="44.7" r="0.5"/>
<circle class="st20" cx="74.1" cy="46.2" r="0.5"/>
<path class="st20" d="M74.7,50.9c0,0-0.5-1.2,1-2.1L74.7,50.9z"/>
<path class="st20" d="M74.1,50.8c0,0-0.2-1.3-1.9-1.3L74.1,50.8z"/>
<path class="st22" d="M45.3,37.6l0.4,3.2c0,0-1.4,4,0.1,7.9l0.5,2.8h1.9l0.2-0.9c0,0-0.9-0.7-0.9-2.4l0.7-7.4l0.1-3.8L45.3,37.6z"/>
<path class="st7" d="M46.9,51.2c0,0-0.7-0.4-0.8,0c-0.1,0.4-0.9,2.4-0.1,2.4c0.8,0,2.1-0.4,2.1-0.4s0.8-0.6,1.7-0.6s1.1-1.1,1-1.4
	c-0.1-0.3-0.5-0.7-0.9-0.6c-0.3,0-0.5,0.1-0.8,0.1L48,50.1C48,50.1,47.8,51.3,46.9,51.2z"/>
<path class="st22" d="M49.8,36.9l1.9,2.7c0,0,0.6,4.2,3.7,7l1.7,2.3l1.7-0.9l-0.2-0.9c0,0-1.1-0.2-1.8-1.7l-2.7-6.9L52.3,35
	L49.8,36.9z"/>
<path class="st7" d="M57.5,48.3c0,0-0.8-0.1-0.7,0.4s0.3,2.6,1,2.2c0.7-0.4,1.7-1.3,1.7-1.3s0.4-0.9,1.3-1.3s0.5-1.5,0.2-1.7
	c-0.3-0.2-0.8-0.4-1.1-0.2c-0.2,0.2-0.4,0.3-0.7,0.4l-1.3,0C58,46.8,58.4,47.9,57.5,48.3z"/>
<circle class="st22" cx="47.4" cy="16.2" r="2"/>
<polygon class="st22" points="45.9,17 44.3,19.3 46.3,20 47.2,17.9 "/>
<path class="st7" d="M48.8,20.1L48.8,20.1c-0.6-0.6-1.4-0.8-2.1-0.7l0,0c0,0,0.1-1-1.9-0.9l-1,0.8c0,0-1.3,1.3-1,3.3
	s0.4,7.1,0.4,7.1l1.1,8.8c0,0,8.1-0.4,9.6-3.7l-4.6-9.6L48.8,20.1z"/>
<path class="st22" d="M47,22.2l0.8,4.3l3.3,5.5c0,0,0,2.6,1.4,2.3c1.4-0.3-0.1-2.7-0.1-2.7l-2.9-5.8l-0.6-3.6L47,22.2z"/>
<polygon class="st7" points="46.8,20.4 46.9,22.9 49.1,22.6 48.8,20.2 "/>
<path class="st7" d="M49.6,15.6c0,0,1.2-2.3-1.6-2.4c0,0-1.7-1-3.1,1l-1.5,2.1l0.3-0.1l0,0.3l0.4,0.3l0.3-0.3l-0.1,0.5l3.7,1.8
	c0,0-1.3-1.7-0.7-3.5l0.2,0.5L49.6,15.6z"/>
<path class="st1" d="M69.3,38.8c-0.8,3.1-3.4,5.2-6,5.1c0,0-0.1,0-0.1,0l0,0.1c0,0,0,0,0,0c0,0.3-0.3,0.5-0.6,0.5c0,0-0.1,0-0.1,0
	l-0.7-0.2c-0.3-0.1-0.5-0.4-0.4-0.7c0,0,0-0.1,0-0.1l0,0l0.1-0.2l0,0c-2.2-1.2-3.4-4.2-2.5-7.3c0.9-3.5,4-5.7,6.8-4.9
	C68.6,31.9,70.2,35.3,69.3,38.8z"/>
<ellipse transform="matrix(0.7044 -0.7098 0.7098 0.7044 -5.5853 53.5977)" class="st21" cx="61.6" cy="33.5" rx="1.6" ry="0.5"/>
<path class="st9" d="M63.2,44C63.2,44,63.2,44,63.2,44l-1.8-0.5l0.1-0.2l1.8,0.5c0,0-0.1,0-0.1,0L63.2,44z"/>
<ellipse transform="matrix(0.9024 -0.4309 0.4309 0.9024 1.149 32.0931)" class="st21" cx="71.4" cy="13.5" rx="0.4" ry="1.2"/>
<path class="st1" d="M64.7,6.5c1.2,2.2,1,4.6-0.6,5.9c0,0,0,0-0.1,0.1l0.1,0.1c0,0,0,0,0,0c0.2,0.2,0.1,0.4,0,0.6c0,0-0.1,0-0.1,0.1
	l-0.5,0.3c-0.2,0.1-0.5,0-0.6-0.2c0,0,0,0,0,0l0,0l0-0.1l0,0c-1.9,0.5-4.1-0.6-5.4-2.7C56.1,7.8,56.6,5,58.6,4S63.3,4.1,64.7,6.5z"
	/>
<ellipse transform="matrix(1.785116e-03 -1 1 1.785116e-03 54.9753 64.0873)" class="st21" cx="59.6" cy="4.5" rx="1.5" ry="0.5"/>
<path class="st0" d="M96,50.8c0,0,0.4-1.5,3-1c2.6,0.5,3,1,3,1H96z"/>
<path class="st0" d="M104.9,50.8c0,0-2.1-1.2-3,0H104.9z"/>
<path class="st0" d="M139.2,50.8c-1.8-0.3-3.5-0.5-5.2-0.7l0.6-1.2c-0.2-0.1-1.2,0.6-1.2,0.6l0.8-3.5c-1.1,0.1-1.6,3.7-1.6,3.7
	l-1.3-1.2l0.6,1.4c-5.1-0.5-9.4-0.7-13.1-0.6l0.5-1c-0.2-0.1-1.2,0.6-1.2,0.6l0.8-3.5c-1.1,0.1-1.6,3.7-1.6,3.7l-1.3-1.2l0.7,1.4
	c-2.5,0.1-5,0.3-7.5,0.6c0.5-1.6,2.4-3.2,2.4-3.2c-1.5,0.4-2.2,1.1-2.6,1.8c-0.1-3.3,0.5-6.6,1.6-9.8c0,0-3,6.3-2.5,10.5l0.1,0.7
	c-2.6,0.4-3.9,0.8-3.9,0.8H139.2z"/>
<path class="st0" d="M119.9,54c0,0,13.6-1.9,22,0"/>
<path class="st0" d="M99.9,56.6c0,0,13.6-1.9,22,0"/>
<circle class="st1" cx="158.1" cy="2.4" r="0.8"/>
<circle class="st0" cx="147.2" cy="23.1" r="0.8"/>
<circle class="st1" cx="190" cy="13.2" r="0.8"/>
<circle class="st0" cx="145" cy="-14.5" r="0.8"/>
<circle class="st0" cx="182.9" cy="-6.2" r="0.8"/>
<circle class="st0" cx="170.2" cy="-10.2" r="0.8"/>
<path class="st2" d="M140.5,26.3c0,10.6-6.6,14.3-14.8,14.3s-14.8-3.7-14.8-14.3s14.8-24.1,14.8-24.1S140.5,15.7,140.5,26.3z"/>
<polygon class="st0" points="125.1,39 125.3,30.1 131.6,19.2 125.3,28.7 125.4,24.8 129.7,16.8 125.4,23.7 125.4,23.7 125.5,16.5 
	130.2,10.2 125.5,15.4 125.6,2.3 125.1,19.7 125.2,18.9 120.4,12.1 125.1,20.3 124.7,28.3 124.6,28.1 119.2,20.9 124.6,28.9 
	124.6,29.9 124.6,29.9 124.6,30 123.4,50.3 124.9,50.3 125.1,39.8 130.6,31.8 "/>
</svg>
