<?xml version="1.0" encoding="utf-8"?>
<!-- Generator: Adobe Illustrator 24.0.1, SVG Export Plug-In . SVG Version: 6.00 Build 0)  -->
<svg version="1.1" id="Layer_1" xmlns="http://www.w3.org/2000/svg" xmlns:xlink="http://www.w3.org/1999/xlink" x="0px" y="0px"
	 viewBox="0 0 36 48" style="enable-background:new 0 0 36 48;" xml:space="preserve">
<style type="text/css">
	.st0{enable-background:new    ;}
</style>
<title>Idea</title>
<desc>Created with Sketch.</desc>
<g class="st0">
	<path d="M7,15.4L11.6,27l4.6-11.6h2.4v14.2h-1.9v-5.5l0.2-6l-4.7,11.5h-1.4L6.2,18.1l0.2,5.9v5.5H4.5V15.4H7z"/>
	<path d="M32.9,23c0,1.4-0.2,2.6-0.7,3.6c-0.5,1-1.1,1.8-2,2.4c-0.9,0.5-1.9,0.8-3,0.8c-1.1,0-2.1-0.3-3-0.8c-0.9-0.5-1.5-1.3-2-2.3
		c-0.5-1-0.7-2.2-0.7-3.5v-1c0-1.4,0.2-2.6,0.7-3.6c0.5-1,1.1-1.8,2-2.4c0.9-0.6,1.9-0.8,3-0.8c1.1,0,2.1,0.3,3,0.8
		c0.9,0.5,1.5,1.3,2,2.4c0.5,1,0.7,2.3,0.7,3.6V23z M31,22.1c0-1.7-0.3-3-1-3.9s-1.6-1.4-2.8-1.4c-1.2,0-2.1,0.5-2.8,1.4
		c-0.7,0.9-1,2.1-1,3.7v1c0,1.6,0.3,2.9,1,3.8s1.6,1.4,2.8,1.4c1.2,0,2.1-0.4,2.8-1.3c0.7-0.9,1-2.1,1-3.8V22.1z"/>
</g>
<g class="st0">
	<path d="M4.6,34.1l0,0.4C4.8,34.2,5.1,34,5.5,34c0.4,0,0.7,0.2,0.9,0.5c0.1-0.2,0.2-0.3,0.4-0.4S7.2,34,7.4,34c0.7,0,1,0.4,1.1,1.1
		v2.1H8v-2.1c0-0.2-0.1-0.4-0.2-0.5c-0.1-0.1-0.3-0.2-0.5-0.2c-0.2,0-0.4,0.1-0.5,0.2c-0.1,0.1-0.2,0.3-0.2,0.5v2.1H6v-2.1
		c0-0.5-0.2-0.7-0.7-0.7c-0.4,0-0.6,0.2-0.7,0.5v2.3H4.1v-3.2H4.6z"/>
	<path d="M9.2,35.6c0-0.3,0.1-0.6,0.2-0.8s0.3-0.4,0.5-0.6s0.5-0.2,0.7-0.2c0.4,0,0.8,0.1,1,0.4s0.4,0.7,0.4,1.2v0
		c0,0.3-0.1,0.6-0.2,0.8c-0.1,0.2-0.3,0.4-0.5,0.6s-0.5,0.2-0.8,0.2c-0.4,0-0.8-0.2-1-0.4S9.2,36.2,9.2,35.6L9.2,35.6z M9.7,35.7
		c0,0.4,0.1,0.6,0.2,0.8s0.4,0.3,0.7,0.3c0.3,0,0.5-0.1,0.7-0.3c0.2-0.2,0.2-0.5,0.2-0.9c0-0.3-0.1-0.6-0.2-0.8
		c-0.2-0.2-0.4-0.3-0.7-0.3c-0.3,0-0.5,0.1-0.6,0.3S9.7,35.3,9.7,35.7z"/>
	<path d="M13.7,36.5l0.8-2.4h0.6l-1.1,3.2h-0.4l-1.1-3.2h0.6L13.7,36.5z"/>
	<path d="M16.9,37.3c-0.4,0-0.8-0.1-1-0.4c-0.3-0.3-0.4-0.7-0.4-1.1v-0.1c0-0.3,0.1-0.6,0.2-0.8c0.1-0.2,0.3-0.4,0.5-0.6
		c0.2-0.1,0.4-0.2,0.7-0.2c0.4,0,0.7,0.1,1,0.4s0.3,0.7,0.3,1.2v0.2H16c0,0.3,0.1,0.6,0.3,0.8c0.2,0.2,0.4,0.3,0.7,0.3
		c0.2,0,0.4,0,0.5-0.1s0.2-0.2,0.3-0.3l0.3,0.3C17.9,37.1,17.5,37.3,16.9,37.3z M16.9,34.5c-0.2,0-0.4,0.1-0.6,0.2
		c-0.1,0.2-0.2,0.4-0.3,0.7h1.6v0c0-0.3-0.1-0.5-0.2-0.6C17.3,34.5,17.1,34.5,16.9,34.5z"/>
	<path d="M19.3,34.1l0,0.4c0.2-0.3,0.5-0.4,0.9-0.4c0.4,0,0.7,0.2,0.9,0.5c0.1-0.2,0.2-0.3,0.4-0.4s0.4-0.1,0.6-0.1
		c0.7,0,1,0.4,1.1,1.1v2.1h-0.5v-2.1c0-0.2-0.1-0.4-0.2-0.5c-0.1-0.1-0.3-0.2-0.5-0.2c-0.2,0-0.4,0.1-0.5,0.2
		c-0.1,0.1-0.2,0.3-0.2,0.5v2.1h-0.5v-2.1c0-0.5-0.2-0.7-0.7-0.7c-0.4,0-0.6,0.2-0.7,0.5v2.3h-0.5v-3.2H19.3z"/>
	<path d="M25.4,37.3c-0.4,0-0.8-0.1-1-0.4c-0.3-0.3-0.4-0.7-0.4-1.1v-0.1c0-0.3,0.1-0.6,0.2-0.8c0.1-0.2,0.3-0.4,0.5-0.6
		c0.2-0.1,0.5-0.2,0.7-0.2c0.4,0,0.7,0.1,1,0.4s0.3,0.7,0.3,1.2v0.2h-2.1c0,0.3,0.1,0.6,0.3,0.8c0.2,0.2,0.4,0.3,0.7,0.3
		c0.2,0,0.4,0,0.5-0.1s0.2-0.2,0.3-0.3l0.3,0.3C26.3,37.1,25.9,37.3,25.4,37.3z M25.3,34.5c-0.2,0-0.4,0.1-0.6,0.2
		c-0.1,0.2-0.2,0.4-0.3,0.7h1.6v0c0-0.3-0.1-0.5-0.2-0.6C25.7,34.5,25.5,34.5,25.3,34.5z"/>
	<path d="M27.7,34.1l0,0.4c0.2-0.3,0.6-0.5,0.9-0.5c0.7,0,1,0.4,1,1.1v2.1h-0.5v-2.1c0-0.2-0.1-0.4-0.2-0.5s-0.3-0.2-0.5-0.2
		c-0.2,0-0.3,0-0.5,0.1s-0.2,0.2-0.3,0.4v2.3h-0.5v-3.2H27.7z"/>
	<path d="M31.3,33.3v0.8h0.6v0.4h-0.6v2c0,0.1,0,0.2,0.1,0.3c0.1,0.1,0.1,0.1,0.3,0.1c0.1,0,0.1,0,0.3,0v0.4c-0.1,0-0.3,0.1-0.4,0.1
		c-0.2,0-0.4-0.1-0.5-0.2s-0.2-0.4-0.2-0.6v-2h-0.6v-0.4h0.6v-0.8H31.3z"/>
</g>
</svg>
