<?xml version="1.0" encoding="utf-8"?>
<!-- Generator: Adobe Illustrator 24.0.1, SVG Export Plug-In . SVG Version: 6.00 Build 0)  -->
<svg version="1.1" id="Layer_1" xmlns="http://www.w3.org/2000/svg" xmlns:xlink="http://www.w3.org/1999/xlink" x="0px" y="0px"
	 viewBox="0 0 800 592" style="enable-background:new 0 0 800 592;" xml:space="preserve">
<style type="text/css">
	.st0{opacity:0.5;fill:#00ADEE;}
	.st1{fill:#FFFFFF;stroke:#231F20;stroke-width:0.3926;stroke-miterlimit:10;}
	.st2{fill:#FFFFFF;stroke:#231F20;stroke-width:0.5;stroke-miterlimit:10;}
	.st3{fill:#231F20;}
</style>
<title>Hes</title>
<desc>Created with Sketch.</desc>
<path class="st0" d="M454.2,91.7c-0.1,0-0.2,0-0.2,0c0,0-0.1,0-0.1,0c-0.1,0-0.1,0-0.2,0.1c0,0-0.1,0-0.1,0.1
	c-0.1,0-0.1,0.1-0.2,0.1c0,0-0.1,0.1-0.1,0.1c-0.1,0-0.1,0.1-0.2,0.1c0,0-0.1,0.1-0.1,0.1c-0.1,0.1-0.1,0.1-0.2,0.2
	c0,0-0.1,0.1-0.1,0.1c-0.1,0.1-0.1,0.1-0.2,0.2c0,0.1-0.1,0.1-0.1,0.2c-0.1,0.1-0.1,0.1-0.2,0.2c0,0.1-0.1,0.1-0.2,0.2
	c-0.1,0.1-0.1,0.2-0.2,0.3c-0.1,0.1-0.1,0.2-0.2,0.2c-0.1,0.1-0.1,0.2-0.2,0.3c0,0.1-0.1,0.2-0.2,0.3c-0.1,0.1-0.1,0.2-0.2,0.4
	c-0.1,0.1-0.1,0.2-0.2,0.3c-0.1,0.1-0.1,0.3-0.2,0.4c-0.1,0.1-0.1,0.2-0.2,0.3c-0.1,0.1-0.1,0.3-0.2,0.4c-0.1,0.1-0.1,0.2-0.2,0.4
	c-0.1,0.2-0.1,0.3-0.2,0.5c-0.1,0.1-0.1,0.3-0.2,0.4c-0.1,0.2-0.1,0.4-0.2,0.6c-0.1,0.1-0.1,0.3-0.2,0.4c-0.1,0.2-0.2,0.4-0.2,0.6
	c-0.1,0.1-0.1,0.3-0.2,0.5c-0.1,0.2-0.2,0.4-0.2,0.7c-0.1,0.2-0.1,0.3-0.2,0.5c-0.1,0.2-0.2,0.5-0.2,0.7c-0.1,0.2-0.1,0.3-0.2,0.5
	c-0.1,0.3-0.2,0.5-0.2,0.8c-0.1,0.2-0.1,0.4-0.2,0.5c-0.1,0.3-0.2,0.6-0.2,0.8c-0.1,0.2-0.1,0.4-0.2,0.6c-0.1,0.3-0.2,0.6-0.2,0.9
	c0,0.2-0.1,0.4-0.2,0.6c-0.1,0.3-0.2,0.7-0.2,1c0,0.2-0.1,0.4-0.1,0.6c-0.1,0.3-0.2,0.7-0.2,1.1c0,0.2-0.1,0.4-0.1,0.6
	c-0.1,0.4-0.2,0.8-0.2,1.1c0,0.2-0.1,0.4-0.1,0.7c-0.1,0.4-0.2,0.8-0.2,1.2c0,0.2-0.1,0.5-0.1,0.7c-0.1,0.4-0.2,0.9-0.2,1.3
	c0,0.2-0.1,0.5-0.1,0.7c-0.1,0.5-0.2,0.9-0.2,1.4c0,0.2-0.1,0.5-0.1,0.7c-0.1,0.5-0.2,1-0.2,1.5c0,0.2-0.1,0.5-0.1,0.7
	c-0.1,0.5-0.2,1.1-0.2,1.6c0,0.2-0.1,0.5-0.1,0.7c-0.1,0.6-0.2,1.2-0.2,1.8c0,0.2-0.1,0.4-0.1,0.7c-0.1,0.6-0.2,1.3-0.2,1.9
	c0,0.2,0,0.4-0.1,0.6c-0.1,0.7-0.2,1.4-0.2,2.1c0,0.2,0,0.4-0.1,0.6c0,0.1,0,0.2,0,0.3h17.2l-19.1,15.6l-2.9,2.4
	c0.2,5.3,0.4,10.8,0.4,16.2c0,9.6-0.4,19-1.1,27.9h2.9h2l0.2,2c2.8,32.1,8.9,42.5,11.4,42.5c4.2,0,12-22.3,12.6-66.9
	c0-1.9,0-14.2-0.2-18.2C465.3,113,458.4,91.7,454.2,91.7z"/>
<g>
	<g>
		<path class="st1" d="M294.9,297.8c-0.5,3.9-3.5,7.2-3.5,8.7c0,1.5-3.5,10.3-3.5,11.6c0,1.3,0.7,6.9,1.5,7.7
			c0.7,0.8,3.7,2.8,5.4,4.1c1.7,1.3,6.4,4.1,7.2,4.9c0.7,0.8,5.9-1,6.2-1.8c0.2-0.8-2.3-15-2.2-13.9c0.3,3.9,1,10.5,1.7,11.6
			c0.7,1-0.2,3.1,1.7,2.8s2.7-2.8,2.7-4.9s0-20.8,0-20.8s-1.5-4.4-2-6.9c-0.5-2.6-0.5-9-0.5-9l-0.5-4.9h-16.3"/>
		<path class="st2" d="M487.5,99.9c0,0,0.1-6.1,0-6.4c-0.1-0.2-3.7-5.9-6.3-8c-2.5-2-4-3.6-4-3.6s0.1-1.4,0-1.9s-1.7-4.3-1.9-4.7
			s-3.1-3.6-3.7-4.8C471,69.3,471,66,471,66s1.3-1,1.9-0.7c0.6,0.2,3.3,2.2,4.9,4.2c1.7,2,1.9,4,2.9,4.9c1,1,1.1,2.5,1.9,1.1
			c0.8-1.4,1.9-2.8,1.8-4.8s-0.2-7.3-0.2-8.7c0-1.3,0.4-5.9,0.2-8s0.2-4.3,0.8-4.9s1.2-1.9,2.2-0.7c1,1.2,0.7,8.3,0.9,9
			c0.2,0.7,0.8,6.4,1.1,7.2c0.2,0.8,1,2.4,1.7,1.7c0.7-0.7,0.8-4.5,1.3-5.8c0.5-1.3,0-10.2,0-10.2s0.4-4,1-4.8s2-0.8,2.9,0
			c0.8,0.8,0.7,11.1,0.7,11.7s0,8.2,0,8.2s1.1,1.7,1.2,0.5s0-12.8,0-12.8l0.6-3.3c0,0,0.4-1.8,1.6-1.1c1.2,0.7,1.7,2.2,1.7,3.1
			c0,1-0.7,14.9-0.7,14.9s2.4-3.4,3-4.5c0.6-1.1,1.2-4,1.6-4.2c0.4-0.2,1.2-1.7,2.2-1.1s2.2,1.1,1.6,2.8c-0.6,1.7-4.2,7.8-4.3,8.7
			s-1,4.7-1.2,6.1c-0.2,1.4-1.2,4.6-1.1,6s0.1,2.4,0,5.2s-0.7,5.9-0.7,6.5c0,0.6-0.4,3.5-0.2,4.1c0.1,0.6,0.4,2.7,0.4,2.7l0.2,1.9"
			/>
		<path class="st2" d="M321.5,522.9c0,0.7-1.2,5.1-1.2,6.3c0,1.2-0.5,3.6,0.6,4.8c1.1,1.2,3.7,1.9,4.9,3.4c1.2,1.4,3.1,3.9,3.9,5.1
			c0.7,1.2,0.7,3.6,2.9,4.1c2.2,0.5,6,0.5,7.7,0s7.2-4.6,9.6-4.8c2.4-0.2,6.3-0.2,8-0.7c1.7-0.5,4.8-2.7,6-3.4
			c1.2-0.7,1.9-3.7,3.4-2.7c1.4,1,5.3,1,5.3,1s2.2-1.2,1.2-2.7c-1-1.4-3.4-5.3-3.4-6.3c0,0-0.6-4.6-0.4-5.5c0.2-0.8,0.1-4.3,0.4-5.5
			c0.2-1.2,0.1-2.7,0.1-2.7s-2.5-2-3-2.4s-1.3-0.7-2.9-0.8s-3.9-0.4-4.5-0.8c-0.6-0.5-3.3-1.6-3.3-1.6l-2.8,1.3c0,0,0.7,5.9,0.4,6.5
			c-0.4,0.6-1.6,2.8-2,4.1c-0.5,1.3-1.2,2-1.6,3c-0.4,1-0.4,2.5-1.3,2.4s-2.7-0.7-2.4-1.4c0.3-0.7,0.1-1.7-0.9-2.3s-2.8-1.1-3.3-2.4
			c-0.5-1.3-1.3-2.7-1.3-2.7s-6.4,0.2-7.2,0.5c-0.8,0.2-5.2,2.2-6.1,2.8c-1,0.6-4.1,1.9-4.5,2.2S321.5,522.9,321.5,522.9z"/>
		<path class="st2" d="M346.1,95.6c0-1.1,1-6.3,1.3-8s1.9-3.9,2.4-4.7s1.9-5,2.9-6.3s7.2-7.1,7.9-8.1c0.6-1,2.2-0.8,3.7-1.3
			c1.4-0.5,2.4,1.8,3.4,2.6c0,0,0.3,1.4,0.6,2.1c0.3,0.6,0.8,0.5,2.1,1s1.6-0.2,3.1-0.5s3.5,1,5.3,1.9c1.8,1,2.9,2.6,3.5,3.5
			c0.6,1,1.6,5.1,1.8,6.1c0.2,1,0.6,3.5,1,4.5c0.3,1,1.1,2.7,1.4,3.4c0.3,0.6,0.5,3.7,0.5,4.8c0,1.1,1,5-0.2,6.9
			c-1.1,1.9,1.1-1.9,1.1-1.9s1.3-2.7,1.8-3.2c0.5-0.5,1.1,1,1.1,2s-0.6,5.6-0.8,6.7c-0.2,1.1-1.9,4.2-2.9,4.8c-1,0.6-1.8,1-3.1,1.3
			c-1.3,0.3-3.1,5.5-3.5,6.1c-0.5,0.6-2.1,8.4-2.1,8.4l1.3,2.2c0,0-17.3,5.1-20.7,3.4c-3.4-1.8-8-3.7-9-4.5c-1-0.8-0.6-2.6-0.6-2.6
			s1.3-3.1,1.3-4.7s-1-7.7-1.1-8.2l-2.2-3.5c0,0-1.4-0.2-2.2-0.3c-0.8-0.2-2.9-2.7-2.7-3.9c0.2-1.1-1.1-8.2-1.1-8.7
			c0-0.5,0-3.7,0-3.7s1.3-0.6,1.6-0.2s1.8,4,1.8,4l0.8,2.2L346.1,95.6z"/>
		<path class="st3" d="M306.3,179.8c3.6,1.2,1.8,7.7,2.8,8.9c1,1.2,4.6,14.9,6.5,21.4s0.2,18.1,1,22.7c0.7,4.6-3.4,17.4-4,18.6
			c-0.6,1.1-1.1,3.5-2.2,5.3c-1.1,1.8-0.3,10.6-0.2,11.9s2.2,3.9,2.7,5.3c0.5,1.4-0.8,5-1,6.7s-1.1,5-1.8,7.1
			c-0.6,2.1,1.1,2.1,1.8,2.6c0.6,0.5-0.2,3.5-0.6,5.1c-0.5,1.6-1.3,12.5-1.9,16.1c-0.6,3.5,0.2,12.2,1.1,14.8
			c1,2.6,2.4,10.3,3.5,12.4s7.1,21.3,7.1,21.3s0.7,6.9,1.7,9.4c1,2.5,0.7,8.2,0.4,11.9s1.1,8.1,1.2,9.5c0.1,1.4,0.4,5.1,0.4,7.5
			c0,2.4-0.5,3.5-0.4,4.9c0.1,1.4-0.5,6-0.5,7.8c0,1.8-0.7,2.4-0.7,2.4s-0.8,1.3-1.1,1.9c-0.2,0.6-1,7.3-1.3,8.7
			c-0.4,1.3-0.5,5.4-1.2,6.9c-0.7,1.4-0.8,3.6-1,5.7s-1.6,16.9-1.7,19.3c-0.1,2.4,0.5,18,0.1,20.1c-0.4,2.2,0.5,10.8,0.5,10.8
			s0.2,2,0.6,3c0.5,1,0.9,3.6,1,5.2s1,11.9,0.8,13.3s-1.1,1.9-1.3,3c-0.2,1,1.1,6.7,1.1,7.7c0,1,1.8,4,1.8,4s0.8-0.4,1.1-0.6
			c0.4-0.2,11.7-5.6,11.7-5.6l7.2-0.5c0,0-0.5-6.1-0.5-7c0-0.8,1.1-1.6,1.3-3s0.4-1.6-0.7-3c-1.1-1.4-0.4-4.3-0.5-7.3s1.8-3.4,3.1-6
			s0.8-8,1.2-13.5c0.4-5.5,0-9.8,0-12.4s3.3-13.8,3.7-15.4s1.9-18.5,2.9-21.2c1-2.7,3.7-13.5,4-16.5s0.6-8.2,0.5-9.6
			c-0.2-1.4,1.9-2.6,2.7-2.9c0.8-0.3,0.3,4.8,0.3,5.8c0,1-0.3,2.4-0.5,4.5s1.4,5.1,1.9,8c0.5,2.9,0.2,12.4-1.6,16.1
			c-1.8,3.7-1.3,9.6-1.9,13s-1,14.5-0.8,17.8c0.2,3.4-0.4,23.3-0.6,25.1s-1,2.8-1.5,4.2c-0.6,1.4-0.4,11.1-0.6,11.2s0,5,0,5
			s3.5,0.4,4.7,0.4c1.2,0,11.7,3.9,11.7,3.9s1-2.5,1.4-3c0.3-0.5,1.7-4.3,1.7-4.3s2.1-6,2.7-10.5c0,0-1.6-1.6-1-2.6s4.5-3.2,5.5-4.5
			c1-1.3,3.2-20.2,3.9-24.1c0.6-3.9,5.5-26.3,6.1-30.5c0.6-4.2-0.6-16.1-1-18.3c-0.3-2.2,0.6-7.7,1-12.2c0.3-4.5,7.7-36,10.3-42.1
			c2.6-6.1,10.7-34,11.9-36.4c1.2-2.4,0-9.6,0-16.1s0-24.1-0.2-25.3s0.2-8.7,0.2-10.8c0-2.2,2.4-12,2.4-12s-2.4-4.6-6-13.7
			s-2.9-32.8-1.7-36.9s9.5-21.8,9.3-22c-2.6-2.6,2.2-35.4,2.2-35.4l4.9-5.4"/>
		<path class="st3" d="M312.2,205.9"/>
		<path class="st3" d="M424,147.2c-3.6-1.5-16.2-5.6-17.7-6.6s-2.7,0.6-4,0c-1.3-0.6-5-0.5-6.3-1.4c-1.3-1-3.5,0.6-6.6,0
			c-3.1-0.6-6.7-3.3-7.6-4.1c-1-0.8-2.2-5.1-2.2-5.1l-4-0.2c0,0-7.1-0.1-9,0c-1.9,0.1-6.7-0.5-9.9-0.6c-3.1-0.1-9.4-1.9-9.4-1.9
			s-0.5,2.1-0.5,2.6s0,2.4-0.6,2.9c-0.6,0.5-2.6,1.4-3.2,2.2s-5.1,1.4-6.1,1.8c-1,0.3-3.1,0.2-3.9-0.2c-0.8-0.3-2.9,1-3.5,1.3
			c-0.6,0.3-3.5,0.3-5.3-0.3c-1.8-0.6-2.7-0.3-4-0.3s-2.4,1.3-2.9,1.4c-0.5,0.2-5.9,0.8-6.6,0.8l-4.5,3.3c0,0-2.2,1.8-4.9,7.9
			c-2.8,6.4-8.7,32.1-8.7,32.1s-0.2,19.9-0.1,23.8c0.1,3.9,0,39.4,0,39.4l-1.3,10.1c0,0-1.3,8.3,0,14.1c1.3,5.8,1,11.3,0.4,13.2
			c-0.6,1.9,2.2,18.4,2.2,18.4l0.6,0.6h16.5l4.8-61.6"/>
		<path class="st3" d="M342.1,93.2c0.5-1.2-0.1-5.9,0-7c0.1-1.1,1.4-7.6,1.8-8.8c0.4-1.2,3-7.7,4.1-8.6s4.5-5.2,5.4-5.9
			c1-0.7,4.6-4,6.6-4.2c2-0.2,3.5,0,4.8,0c1.3,0,1.9-0.5,2.9-0.1c1,0.3,3.1-0.7,4.2-0.1c1.1,0.6,5.5,1.8,7.3,3s5.7,5.2,6.3,5.7
			c0.6,0.5,2.4,5.1,3.1,5.7c0.7,0.6,2,7.5,2.2,8c0.1,0.5,0.8,6,1,6.9s1.3,1.9,0.6,3.3c-0.7,1.3-0.8,6.9-1.4,8.1
			c-0.6,1.2-1.4-0.7-1.6,0c-0.1,0.7-1.8,3-1.8,3c-1.1,0.1-0.7-7.1-1-8.3s-1-2.4-1.4-3.9c-0.5-1.4-1-1.6-1.2-3.7s-0.1-4.8-1.1-6.9
			c-1-2.1-3-4.1-4-4.9c-1-0.7-1.7-1.6-3.5-1.8c-1.8-0.2-4.9,0.3-6-0.1c-1.1-0.4-1.3-1.5-2.1-2.3c-0.8-0.8-1.4-3.1-2.4-3.1
			c-1,0-2.7-0.1-3.4,0.4c-0.7,0.5-2.6,2-3.5,3.3c-0.8,1.1-3.2,2.9-3.9,3.7c-0.7,0.7-3.5,6.3-4.2,7.4c-0.7,1.1-2.5,4.4-2.7,5.3
			c-0.2,0.8-0.4,2.9-0.7,4.2s-0.5,3-0.6,3.8s-0.5,3.4-0.5,3.4s-1-2.6-1.1-3s-1-0.5-1-0.5L342.1,93.2z"/>
		<path class="st3" d="M391.1,139.1c5.3-4.3,24.2,4.3,29.3,6.3s22.7,6,24.6,7c1.9,1,8.9,3.1,11.8,4.3c2.9,1.2,6.3-0.7,7.2-1.9
			c1-1.2,3.6-8.2,5.1-11.6s12.8-34,13.5-38.1c0.7-4.1-2.4-11.2-2.4-11.2s1.2-3.6,5.8-1.4s18.1-0.8,18.1-0.8s2.4,0.7,1.4,2.2
			c-1,1.4-1.9,19.5-2.9,22.8c-1,3.3-2.9,23.5-3.6,26.4c-0.7,2.9-3.9,18.6-5.3,21.4c-1.4,2.9-3.9,6.2-4.8,10.1
			c-0.9,3.9-2.9,5.8-2.7,6.7c0.2,1-4.3,2.9-5.8,2.6c-1.4-0.2-54.4-4.5-54.4-4.5l-16.4-2.6l-6.8,4.8c0,0-9.4,11.8-10.2,0.9
			C391.9,171.7,391.1,139.1,391.1,139.1z"/>
	</g>
	<path class="st0" d="M432.8,196.4l-11.2,0h-11.2c2.9,30.2,8.7,40.1,11.2,40.1h26.2c-5.4-8.4-8.1-26.9-9.3-40.1
		C438.6,196.4,432.8,196.4,432.8,196.4z"/>
	<path class="st0" d="M438.5,142.1L438.5,142.1l9.5-7.7l-9.6,0l0.2-2.4c1.2-12.6,3.8-31.6,9.3-40.2l-26.2,0
		c-2.4,0-8.3,9.9-11.2,40.6l-0.2,2H400l23.1,20.2l12.2-9.9L438.5,142.1z"/>
</g>
</svg>
