<?xml version="1.0" encoding="utf-8"?>
<!-- Generator: Adobe Illustrator 24.0.1, SVG Export Plug-In . SVG Version: 6.00 Build 0)  -->
<svg version="1.1" id="Layer_1" xmlns="http://www.w3.org/2000/svg" xmlns:xlink="http://www.w3.org/1999/xlink" x="0px" y="0px"
	 viewBox="0 0 800 592" style="enable-background:new 0 0 800 592;" xml:space="preserve">
<style type="text/css">
	.st0{opacity:0.5;fill:#00ADEE;}
	.st1{fill:#FFFFFF;stroke:#231F20;stroke-width:0.5;stroke-miterlimit:10;}
	.st2{fill:#231F20;}
</style>
<g>
	<path class="st0" d="M342.2,266.2c-39.5,1.4-61.3,8.4-61.3,12.8c0,0.1,0,0.2,0,0.2c0,0,0,0.1,0,0.1c0,0.1,0,0.1,0.1,0.2
		c0,0,0,0.1,0.1,0.1c0,0.1,0.1,0.1,0.1,0.2c0,0,0.1,0.1,0.1,0.1c0,0.1,0.1,0.1,0.1,0.2c0,0,0.1,0.1,0.1,0.1c0.1,0.1,0.1,0.1,0.2,0.2
		c0,0,0.1,0.1,0.2,0.1c0.1,0.1,0.1,0.1,0.2,0.2c0.1,0,0.1,0.1,0.2,0.1c0.1,0.1,0.2,0.1,0.2,0.2c0.1,0.1,0.1,0.1,0.2,0.2
		c0.1,0.1,0.2,0.1,0.3,0.2c0.1,0.1,0.2,0.1,0.2,0.2c0.1,0.1,0.2,0.1,0.3,0.2c0.1,0,0.2,0.1,0.3,0.2c0.1,0.1,0.2,0.1,0.4,0.2
		c0.1,0.1,0.2,0.1,0.3,0.2c0.1,0.1,0.3,0.1,0.4,0.2c0.1,0.1,0.2,0.1,0.3,0.2c0.1,0.1,0.3,0.1,0.5,0.2c0.1,0.1,0.2,0.1,0.4,0.2
		c0.2,0.1,0.3,0.1,0.5,0.2c0.1,0.1,0.3,0.1,0.4,0.2c0.2,0.1,0.4,0.2,0.6,0.2c0.1,0.1,0.3,0.1,0.4,0.2c0.2,0.1,0.4,0.2,0.6,0.2
		c0.2,0.1,0.3,0.1,0.5,0.2c0.2,0.1,0.4,0.2,0.7,0.2c0.2,0.1,0.3,0.1,0.5,0.2c0.2,0.1,0.5,0.2,0.7,0.2c0.2,0.1,0.3,0.1,0.5,0.2
		c0.3,0.1,0.5,0.2,0.8,0.2c0.2,0.1,0.4,0.1,0.6,0.2c0.3,0.1,0.6,0.2,0.9,0.2c0.2,0.1,0.4,0.1,0.6,0.2c0.3,0.1,0.6,0.2,0.9,0.2
		c0.2,0.1,0.4,0.1,0.6,0.2c0.3,0.1,0.7,0.2,1,0.2c0.2,0.1,0.4,0.1,0.6,0.2c0.4,0.1,0.7,0.2,1.1,0.2c0.2,0,0.4,0.1,0.7,0.1
		c0.4,0.1,0.8,0.2,1.2,0.3c0.2,0,0.5,0.1,0.7,0.1c0.4,0.1,0.8,0.2,1.2,0.2c0.2,0,0.5,0.1,0.7,0.1c0.4,0.1,0.9,0.2,1.3,0.2
		c0.2,0,0.5,0.1,0.7,0.1c0.5,0.1,0.9,0.2,1.4,0.2c0.2,0,0.5,0.1,0.7,0.1c0.5,0.1,1,0.2,1.5,0.2c0.2,0,0.5,0.1,0.7,0.1
		c0.5,0.1,1.1,0.2,1.7,0.2c0.2,0,0.5,0.1,0.7,0.1c0.6,0.1,1.2,0.2,1.8,0.2c0.2,0,0.5,0.1,0.7,0.1c0.6,0.1,1.3,0.2,2,0.2
		c0.2,0,0.4,0,0.7,0.1c0.7,0.1,1.4,0.2,2.2,0.2c0.2,0,0.4,0,0.6,0.1c0.1,0,0.2,0,0.3,0v-17.7l16,19.6l2.4,3
		c5.5-0.2,11.1-0.4,16.7-0.4c9.9,0,98.3,0.4,107.4,1.1v-3v-2.1l2.1-0.2c32.9-2.9,43.6-9.1,43.6-11.7c0-4.4-22.3-8.1-47.5-10.4
		c-36-3.2-73.1-2.2-99.9-2.6C358.9,266,346.3,266.1,342.2,266.2z"/>
	<g>
		<path class="st1" d="M214.5,150.2c0,0-6,0.1-6.3,0c-0.2-0.1-5.8-3.7-7.8-6.2c-2-2.5-3.6-3.9-3.6-3.9s-1.4,0.1-1.9,0
			c-0.5-0.1-4.3-1.7-4.6-1.9c-0.4-0.2-3.6-3.1-4.7-3.7c-1.2-0.6-4.4-0.6-4.4-0.6s-0.9,1.3-0.7,1.9c0.2,0.6,2.1,3.2,4.1,4.9
			c2,1.7,3.9,1.9,4.9,2.8s2.5,1.1,1.1,1.9c-1.4,0.8-2.7,1.9-4.7,1.8c-2-0.1-7.2-0.2-8.5-0.2c-1.3,0-5.8,0.4-7.8,0.2
			c-2-0.1-4.3,0.2-4.9,0.8s-1.9,1.2-0.7,2.2c1.2,1,8.2,0.7,8.9,0.9c0.7,0.2,6.3,0.8,7.1,1.1c0.8,0.2,2.4,0.9,1.7,1.7
			s-4.4,0.8-5.7,1.3c-1.3,0.5-10.1,0-10.1,0s-3.9,0.4-4.7,0.9c-0.8,0.6-0.8,2,0,2.8c0.8,0.8,10.9,0.7,11.5,0.7s8,0,8,0
			s1.7,1.1,0.5,1.2c-1.2,0.1-12.5,0-12.5,0l-3.2,0.6c0,0-1.8,0.4-1.1,1.5c0.7,1.2,2.1,1.7,3.1,1.7s14.7-0.7,14.7-0.7s-3.3,2.4-4.4,3
			c-1.1,0.6-3.9,1.2-4.1,1.5c-0.2,0.4-1.7,1.2-1.1,2.1s1.1,2.1,2.7,1.5c1.7-0.6,7.7-4.1,8.5-4.3c0.8-0.1,4.6-0.9,6-1.2
			c1.4-0.2,4.5-1.2,5.9-1.1c1.4,0.1,2.4,0.1,5.1,0c2.7-0.1,5.8-0.7,6.4-0.7s3.4-0.4,4-0.2s2.6,0.4,2.6,0.4l1.9,0.2"/>
		<path class="st1" d="M583.5,158.2c0,0,6,0.1,6.3,0c0.2-0.1,5.8-3.7,7.8-6.2c2-2.5,3.6-3.9,3.6-3.9s1.4,0.1,1.9,0
			c0.5-0.1,4.3-1.7,4.6-1.9s3.6-3.1,4.7-3.7c1.2-0.6,4.4-0.6,4.4-0.6s0.9,1.3,0.7,1.9c-0.2,0.6-2.1,3.2-4.1,4.9
			c-2,1.7-3.9,1.9-4.9,2.8c-0.9,0.9-2.5,1.1-1.1,1.9s2.7,1.9,4.7,1.8c2-0.1,7.2-0.2,8.5-0.2c1.3,0,5.8,0.4,7.8,0.2
			c2-0.1,4.3,0.2,4.9,0.8c0.6,0.6,1.9,1.2,0.7,2.2c-1.2,1-8.2,0.7-8.9,0.9s-6.3,0.8-7.1,1.1s-2.4,0.9-1.7,1.7
			c0.7,0.7,4.4,0.8,5.7,1.3c1.3,0.5,10.1,0,10.1,0s3.9,0.4,4.7,0.9c0.8,0.6,0.8,2,0,2.8c-0.8,0.8-10.9,0.7-11.5,0.7c-0.6,0-8,0-8,0
			s-1.7,1.1-0.5,1.2c1.2,0.1,12.5,0,12.5,0l3.2,0.6c0,0,1.8,0.4,1.1,1.5s-2.1,1.7-3.1,1.7c-0.9,0-14.7-0.7-14.7-0.7s3.3,2.4,4.4,3
			c1.1,0.6,3.9,1.2,4.1,1.5c0.2,0.4,1.7,1.2,1.1,2.1c-0.6,0.9-1.1,2.1-2.7,1.5s-7.7-4.1-8.5-4.3c-0.8-0.1-4.6-0.9-6-1.2
			c-1.4-0.2-4.5-1.2-5.9-1.1c-1.4,0.1-2.4,0.1-5.1,0c-2.7-0.1-5.8-0.7-6.4-0.7s-3.4-0.4-4-0.2c-0.6,0.1-2.6,0.4-2.6,0.4l-1.9,0.2"/>
		<path class="st1" d="M363.3,512.3c0,0.7-1.2,5-1.2,6.2c0,1.2-0.5,3.6,0.6,4.7c1.1,1.2,3.7,1.9,4.9,3.3c1.2,1.4,3.1,3.8,3.8,5
			c0.7,1.2,0.7,3.6,2.8,4c2.1,0.5,5.9,0.5,7.6,0c1.7-0.5,7.1-4.5,9.5-4.7c2.4-0.2,6.2-0.2,7.8-0.7c1.7-0.5,4.7-2.6,5.9-3.3
			c1.2-0.7,1.9-3.7,3.3-2.7c1.4,1,5.2,1,5.2,1s2.1-1.2,1.2-2.6c-0.9-1.4-3.3-5.2-3.3-6.2c0,0-0.6-4.6-0.4-5.4
			c0.2-0.8,0.1-4.3,0.4-5.4s0.1-2.6,0.1-2.6s-2.5-2-3-2.4c-0.5-0.4-1.3-0.7-2.8-0.8c-1.5-0.1-3.8-0.4-4.4-0.8
			c-0.6-0.5-3.2-1.5-3.2-1.5l-2.7,1.3c0,0,0.7,5.8,0.4,6.4s-1.5,2.7-2,4c-0.5,1.3-1.2,2-1.5,3s-0.4,2.5-1.3,2.4
			c-0.9-0.1-2.6-0.7-2.4-1.4c0.3-0.7,0.1-1.7-0.9-2.2s-2.7-1.1-3.2-2.4c-0.5-1.3-1.3-2.6-1.3-2.6s-6.3,0.2-7.1,0.5s-5.1,2.1-6,2.7
			c-0.9,0.6-4,1.9-4.4,2.1S363.3,512.3,363.3,512.3z"/>
		<path class="st1" d="M387.5,92.5c0-1.1,0.9-6.2,1.3-7.9c0.3-1.7,1.9-3.8,2.4-4.6c0.5-0.8,1.9-4.9,2.8-6.2c0.9-1.3,7.1-6.9,7.7-7.9
			c0.6-1,2.2-0.8,3.6-1.2s2.4,1.7,3.3,2.5c0,0,0.3,1.4,0.6,2.1c0.3,0.6,0.8,0.5,2.1,0.9s1.6-0.2,3-0.5s3.5,0.9,5.2,1.9
			c1.7,0.9,2.8,2.5,3.5,3.5s1.6,5.1,1.7,6c0.2,0.9,0.6,3.5,0.9,4.4s1.1,2.7,1.4,3.3c0.3,0.6,0.5,3.6,0.5,4.7c0,1.1,0.9,4.9-0.2,6.8
			s1.1-1.9,1.1-1.9s1.3-2.7,1.7-3.2s1.1,0.9,1.1,2s-0.6,5.5-0.8,6.6c-0.2,1.1-1.9,4.1-2.8,4.7c-0.9,0.6-1.7,0.9-3,1.3
			c-1.3,0.3-3,5.4-3.5,6c-0.5,0.6-2.1,8.2-2.1,8.2l1.3,2.2c0,0-17,5.1-20.4,3.3s-7.9-3.6-8.8-4.4c-0.9-0.8-0.6-2.5-0.6-2.5
			s1.3-3,1.3-4.6c0-1.6-0.9-7.6-1.1-8l-2.2-3.5c0,0-1.4-0.2-2.2-0.3c-0.8-0.2-2.8-2.7-2.7-3.8c0.2-1.1-1.1-8-1.1-8.5s0-3.6,0-3.6
			s1.3-0.6,1.6-0.2s1.7,3.9,1.7,3.9l0.8,2.2L387.5,92.5z"/>
		<path class="st2" d="M388.7,123.5c0,0,6.2,1.8,9.2,1.9c3.1,0.1,7.8,0.7,9.7,0.6s8.9,0,8.9,0l3.9,0.2c0,0,1.2,4.1,2.1,5
			c0.9,0.8,4.5,3.4,7.5,4c3,0.6,5.2-0.9,6.5,0s4.9,0.8,6.2,1.4c1.3,0.6,2.5-0.9,3.9,0s13.8,3.4,17.4,4.9c3.6,1.5,9.5,4.6,10.9,5.3
			c1.4,0.7,4.3,1.9,6.2,2.6c1.9,0.7,7.6,2.1,10.4,2.6c2.8,0.5,14,3.3,17.3,4c3.3,0.7,5.4,0.9,7.1,1.4c1.7,0.5,13-0.5,18.5,0
			c5.4,0.5,14.9-0.4,17.8,0.1c2.8,0.6,12.3,0.6,18.7,0l12.1-0.6c0,0,0.7-0.2,1,0.2s0,18.1,0,18.1s-12.3,1.5-13.7,1.7
			s-8.3,1.3-11,1.2c-2.8-0.1-7.7-0.2-8.8,0.4c-1.2,0.6-5.9,2.1-7.6,2.6s-6,0.8-6.6,0c-0.6-0.8-1.9-2.3-2.8-2.1s-2,0.5-2.7,1.3
			s-2.3,2.7-4.2,2.8c-1.9,0.2-4.5-0.4-4.9-0.9c-0.4-0.5-2.8-1.7-2.8-1.7s-17.4-0.3-19.3,0.2c-1.9,0.5-15.6-2.5-15.6-2.5
			s-7.5-0.5-10.5-0.9c-3.1-0.5-11.1,1.1-11.1,1.1s-5.3,4.6-5.1,4.8c0.2,0.2-7.9,17.6-9.1,21.6c-1.2,4-1.9,27.2,1.7,36.2
			c3.6,9,5.9,13.5,5.9,13.5s-2.4,9.7-2.4,11.8s-0.5,9.5-0.2,10.7c0.2,1.2,0.2,18.5,0.2,24.9s1.2,13.5,0,15.9
			c-1.2,2.4-9.2,29.7-11.7,35.7s-9.8,36.9-10.1,41.3c-0.3,4.4-1.3,9.8-0.9,12c0.3,2.2,1.6,13.9,0.9,18s-5.4,26.2-6,30
			c-0.6,3.8-2.8,22.4-3.8,23.7c-0.9,1.3-4.7,3.5-5.4,4.4c-0.6,0.9,0.9,2.5,0.9,2.5c-0.6,4.4-2.7,10.3-2.7,10.3s-1.3,3.7-1.7,4.2
			c-0.3,0.5-1.3,2.9-1.3,2.9s-10.3-3.9-11.5-3.9s-4.6-0.4-4.6-0.4s-0.2-4.7,0-4.9c0.2-0.2,0-9.7,0.6-11c0.6-1.3,1.3-2.3,1.5-4.1
			c0.2-1.8,0.8-21.4,0.6-24.7c-0.2-3.3,0.2-14.2,0.8-17.5s0.2-9.2,1.9-12.8s2.1-12.9,1.6-15.8c-0.5-2.8-2.1-5.8-1.9-7.9
			c0.2-2.1,0.5-3.5,0.5-4.4c0-0.9,0.5-6-0.3-5.7c-0.8,0.3-2.8,1.4-2.7,2.8c0.2,1.4-0.2,6.5-0.5,9.5s-3,13.6-3.9,16.3
			c-0.9,2.7-2.4,19.3-2.8,20.8c-0.5,1.6-3.7,12.5-3.7,15.2c0,2.6,0.4,6.7,0,12.2c-0.4,5.4,0.1,10.7-1.2,13.3c-1.3,2.6-3.2,3-3.1,5.9
			s-0.6,5.8,0.5,7.2c1.1,1.4,0.9,1.5,0.7,3c-0.2,1.4-1.3,2.1-1.3,3c0,0.8,0.5,6.9,0.5,6.9l-7.1,0.5c0,0-11.2,5.3-11.5,5.5
			c-0.4,0.2-1.1,0.6-1.1,0.6s-1.8-3-1.8-4c0-0.9-1.3-6.5-1.1-7.5s1.1-1.5,1.3-2.9c0.2-1.4-0.7-11.4-0.8-13c-0.1-1.6-0.5-4.2-0.9-5.1
			c-0.5-0.9-0.6-2.9-0.6-2.9s-0.8-8.5-0.5-10.7s-0.2-17.4-0.1-19.8c0.1-2.4,1.5-16.9,1.6-18.9c0.1-2,0.2-4.1,0.9-5.6
			c0.7-1.4,0.8-5.4,1.2-6.7c0.4-1.3,1.1-7.9,1.3-8.5c0.2-0.6,1.1-1.9,1.1-1.9s0.7-0.6,0.7-2.4c0-1.8,0.6-6.3,0.5-7.7
			c-0.1-1.4,0.4-2.5,0.4-4.9c0-2.4-0.2-5.9-0.4-7.3s-1.5-5.7-1.2-9.4s0.6-9.2-0.4-11.7c-0.9-2.5-1.7-9.2-1.7-9.2s-5.9-18.9-7-21
			c-1.1-2.1-2.5-9.6-3.5-12.2c-0.9-2.5-1.7-11-1.1-14.5c0.6-3.5,1.4-14.2,1.9-15.8c0.5-1.6,1.3-4.6,0.6-5.1
			c-0.6-0.5-2.4-0.5-1.7-2.5c0.6-2.1,1.6-5.2,1.7-6.9c0.2-1.7,1.4-5.2,0.9-6.6c-0.5-1.4-2.5-3.9-2.7-5.2c-0.2-1.3-0.9-9.9,0.2-11.7
			c1.1-1.7,1.6-4.1,2.2-5.2c0.6-1.1,4.7-13.7,3.9-18.2s0.9-15.9-0.9-22.3s-5.4-19.9-6.4-21.1s-4.3-7.6-7.8-8.8
			c-3.6-1.2-8.7-2.9-8.7-2.9s-3.8-0.6-6.2-0.8c-2.4-0.2-13.4,0.2-14.7,0.2c-1.3,0-14-0.2-15.8-0.3c-1.7-0.2-3.3-0.8-5.8-0.6
			s-3.5,0-4.6-0.5c-1.1-0.5-3.3-2.1-3.8-1.7s-0.8,1.3-2.4,2.5c-1.6,1.3-1.3,0.4-2.1,0.4s-10.9,0.5-11.7-0.1s-4.4-3.1-4.9-3.4
			s-2.6-0.7-4-0.7c-1.4,0-3.2,0.4-3.9,0.5c-0.7,0.1-15.3-0.4-16.3-0.5c-1.1-0.1-5.7-0.7-7.9-0.5c-2.2,0.2-8.5,0.5-9.2,0.6
			c-0.7,0.1-6.2,0-6.2,0s-0.6-2.7-1.1-4.4c-0.5-1.7,0-14.7,0-14.7l13.7-0.5c0,0,17.8,0.1,18.1,0s33-1.1,33.9-0.9
			c0.8,0.1,3.9,0.7,5.4,0.6s6.3-1.4,6.7-1.7c0.5-0.2,9.6-0.7,13.2-0.9c3.6-0.2,7.7-0.5,9.9-0.5s5.5-0.8,6.9-0.6
			c1.4,0.2,2.7-0.5,4.3-1.6s2.1-1.9,4.1-1.7c2.1,0.2,2.8,0.2,4.3-0.3c1.4-0.5,2.1-1.4,3.6-1.9c1.6-0.5,5.1-0.9,6.2-1.4
			c1.1-0.5,7.6-1.3,8.2-1.3c0.6,0,6-0.6,6.5-0.8s1.6-1.4,2.8-1.4c1.3,0,2.2-0.3,3.9,0.3c1.7,0.6,4.6,0.6,5.2,0.3
			c0.6-0.3,2.7-1.6,3.5-1.3s2.8,0.5,3.8,0.2c0.9-0.3,5.4-0.9,6-1.7c0.6-0.8,2.5-1.7,3.2-2.2c0.6-0.5,0.6-2.4,0.6-2.8
			S388.7,123.5,388.7,123.5z"/>
		<path class="st2" d="M383.5,90.2c0.5-1.2-0.1-5.8,0-6.9c0.1-1.1,1.4-7.5,1.8-8.6c0.4-1.2,3-7.6,4-8.4c1.1-0.8,4.4-5.1,5.3-5.8
			c0.9-0.7,4.5-3.9,6.5-4.1s3.4,0,4.7,0c1.3,0,1.9-0.4,2.8-0.1c0.9,0.3,3.1-0.7,4.1-0.1c1.1,0.6,5.4,1.8,7.2,3
			c1.8,1.2,5.6,5.1,6.2,5.6c0.6,0.5,2.4,5,3.1,5.6c0.7,0.6,2,7.3,2.1,7.8c0.1,0.5,0.8,5.9,0.9,6.7s1.3,1.9,0.6,3.2
			c-0.7,1.3-0.8,6.7-1.4,7.9c-0.6,1.2-1.4-0.7-1.5,0c-0.1,0.7-1.8,3-1.8,3c-1.1,0.1-0.7-6.9-0.9-8.1c-0.2-1.2-0.9-2.4-1.4-3.8
			c-0.5-1.4-0.9-1.5-1.2-3.7c-0.2-2.1-0.1-4.8-1.1-6.8c-0.9-2.1-3-4.1-3.9-4.8c-0.9-0.7-1.7-1.5-3.4-1.8c-1.8-0.2-4.8,0.3-5.9-0.1
			s-1.3-1.5-2.1-2.3s-1.4-3-2.4-3c-0.9,0-2.6-0.1-3.3,0.4c-0.7,0.5-2.6,2-3.4,3.2c-0.8,1.1-3.1,2.9-3.8,3.6
			c-0.7,0.7-3.4,6.2-4.1,7.3c-0.7,1.1-2.4,4.4-2.7,5.2c-0.2,0.8-0.4,2.9-0.7,4.2s-0.5,2.9-0.6,3.8c-0.1,0.8-0.5,3.3-0.5,3.3
			s-0.9-2.6-1.1-2.9c-0.1-0.4-0.9-0.5-0.9-0.5L383.5,90.2z"/>
	</g>
	<path class="st0" d="M335.2,298.3l-2.7-3.3l0,0l-7.9-9.7v9.9l-2.5-0.2c-12.9-1.2-32.5-3.9-41.2-9.6v26.9c0,2.5,10.2,8.5,41.7,11.5
		l2.1,0.2v10.5l20.8-23.7L335.2,298.3z"/>
	<path class="st0" d="M508.3,285.4c-8.6,5.5-27.6,8.3-41.1,9.6v5.9v11.4v11.5c31-3,41.1-9,41.1-11.5V285.4z"/>
</g>
</svg>
