<?xml version="1.0" encoding="utf-8"?>
<!-- Generator: Adobe Illustrator 24.0.1, SVG Export Plug-In . SVG Version: 6.00 Build 0)  -->
<svg version="1.1" id="Layer_1" xmlns="http://www.w3.org/2000/svg" xmlns:xlink="http://www.w3.org/1999/xlink" x="0px" y="0px"
	 viewBox="0 0 800 592" style="enable-background:new 0 0 800 592;" xml:space="preserve">
<style type="text/css">
	.st0{opacity:0.5;fill:#00ADEE;}
	.st1{fill:#231F20;}
	.st2{fill:#FFFFFF;stroke:#231F20;stroke-width:0.5;stroke-miterlimit:10;}
	.st3{opacity:0.5;fill:#25A9E0;}
</style>
<title>Aerum</title>
<desc>Created with Sketch.</desc>
<g>
	<path class="st0" d="M536.7,421.6c-17.9-14.2-113.8-75.8-133.3-78.8c20.9-4.2,21.2-7.1,25.8-10.6l4,8.7c0.4,1,1.4,1.5,2.5,1.4
		c1-0.1,1.9-0.9,2.1-1.9l2.8-12.6c1.9,1,3.7,2,5.3,3C555.7,403.4,551.6,404,552.2,406l0,1C551.3,413.1,545.3,417.9,536.7,421.6z"/>
	<g>
		<path class="st1" d="M415.4,130.5c0,0-3.3,2.5-5.1,3.8c-1.8,1.3-3.5,3.3-3.5,3.3s-1.2,1.3-2.5,0c-1.3-1.3-6.2-2-6.2-4.4
			s0.7-7.7,2-9.9c1.3-2.1,4.8-6.7,5.4-8.2c0.7-1.5,0.5-3.5-0.5-4.6c-1-1.2-1.8-4.1-1.6-5.8c0.2-1.6,0.5-13.2,0.5-13.2
			s0.4-7.6,2.9-12.7s6.7-10.4,8.6-12.3c2-2,7.9-4.7,9.9-5.4c2-0.7,7.9-0.2,9.1,0c1.2,0.2,1.2,1.1,2.5,1.4c1.2,0.2,2.3-0.4,3.8,0
			s4.1,2.8,6,4.6s6.2,6.4,8.1,9s3.8,8.4,3.9,10s-1,5.3-0.9,7c0.1,1.7-2.5,4.6-2.5,4.6l-1.1,0.7"/>
		<path class="st2" d="M218.1,158.9c0,0-5.9,0.7-7.9,0c-2-0.7-6.3-4.6-6.8-5.1s-4.6-4.7-5.7-5.5c-1.1-0.9-4.6-3.1-5.1-3.3
			c-0.5-0.2-7-1.4-7.8-1.6c-0.7-0.2-5.7-3-5.7-3s-3.7-1.7-4.8-1.4c-1.1,0.4-2.5,1.4-2.5,2.1c0,0.7,4.2,4.8,5.3,5.5
			c1.1,0.7,6.3,3.9,7.6,4.3s1.8,1.8,0.7,1.8c-1.1,0-17.6-2.2-18.1-2.5c-0.5-0.2-6.9-1.7-8.1-1.3c-1.2,0.4-8-0.3-8.5,0
			c-0.5,0.3-3.1,2-3,2.6c0.1,0.6,1.7,3,3.2,3.3c1.5,0.4,10.7,1,12,1c1.2,0,8.3,1.5,8.8,1.4s-15.8,0.4-16.3,0.2
			c-0.5-0.1-6.7,0.1-7.6,0.4c-1,0.2-3,2.8-1.2,4.1c0,0,1.6,0.5,2.3,0.6s23.2,0.7,23.2,0.7s1.5,0.2,1,0.5c-0.6,0.2-11.7,0-11.7,0
			s-5.9,0-6.2,0.1c-0.3,0.1-3.1,0.4-3.1,0.4l-0.5,1.3c0.4,1.6,0.6,2.8,3.1,2.8c2.5,0,18.1,0.9,19.2,1.1c1.1,0.2,4.7-0.1,3.7,1.1
			c-1,1.2-12.3,5.2-13.7,5.5c-1.4,0.4-4.9,0.4-3.1,2.5c1.8,2.1,6.7,1,7.4,0.9c0.7-0.1,14.4-2.1,15.7-2.5c1.2-0.4,12.6-1.8,13.9-1.8
			c1.4,0,5.1-0.7,6.5-0.9c1.5-0.1,6.7,0.4,7.9,0.5c1.2,0.1,5.5,0.6,5.5,0.6l2.3,0.4"/>
		<path class="st2" d="M601.1,174c1.2-0.4,4.7-0.1,5.3-0.4c0.6-0.3,4.6-4,5.2-4.8c0.6-0.7,3.9-4.4,5.1-5c1.2-0.7,9.5-5.4,10.2-5.8
			s3.2-1.4,3.8-0.4c0.6,1-0.2,2.6-1.5,3.7s-7.4,5.5-7.7,5.9c-0.3,0.4-2.7,1.4-0.5,2s12.7-0.8,13.2-0.9c0.5-0.1,11.3-0.3,12.2-0.5
			c0,0,1.9,0.7,1.4,1.8c-0.5,1.1-3.4,1.7-3.4,1.7c-1.6,0.4-8.2,1-8.9,1.4c-0.7,0.4-3.9,1.7-3.9,2.8c-0.1,1.1,0.8,0.7,2.8,0.7
			c2,0.1,8.6-0.2,10,0s6.7-0.5,7.2,0c0.5,0.5,1.4,2.3,0.7,3.1c-0.7,0.8-8.3,1-8.3,1s-9.8,1-10.1,1.2c-0.3,0.2-2.1,0.4-0.2,1.3
			c1.8,0.9,12.2-0.8,12.8-0.6c0.6,0.2,3.4,0.4,3.5,1.2s-0.7,2.3-2.1,2.6s-13,1-13.7,1s-4.3-0.4-4.1,0c0.2,0.4,5.2,2.5,5.9,3
			s5.6,3.2,6,3.5s1.3,3.2-1.1,3.1c-2.4-0.1-8-3.5-8-3.5l-5.4-3.6c0,0-3.6-1-4.6-0.8c-1,0.2-5,0.4-6.2,0.6c-1.2,0.2-6.9-0.7-8.5-0.8
			c-1.6-0.1-3-0.1-3.9,0.2c-0.9,0.2-2.1,0.7-2.1,0.7"/>
		<path class="st2" d="M337.4,478.8c-0.5,1.8,0.2,6.1-1,7.9c-1.2,1.8-2.8,10.4-3,12.2c-0.2,1.8-1.8,5.9-2,7.9c-0.2,2,0,5.3,0,6.4
			s2.6,1.8,4.3,2.8c1.6,1,16.8,1.2,16.8,1.2s2.6-2.3,2.3-3.5c-0.3-1.2-1.8-3.3-2.1-3.9s0-4.9,0.5-6.1c0.5-1.2,2.2-5.8,1.7-7.2
			c-0.5-1.5-0.7-10.4-0.7-10.4"/>
		<path class="st2" d="M494.3,499.3c1.2,2.1-0.5,9.2,0,10.7c0.5,1.5-1,4.9,0.4,6.2c1.4,1.3,9.4,3.1,11.4,3s4.1,0.3,5.9,1
			s12.8,4.8,15.3,6.2c2.5,1.5,7.2,2.5,9,3.1s5.4,2,6.9,1.2c1.5-0.8,2-2.8,2.8-3c0.8-0.2,0-6.1,0-6.1s-0.3-3.1-1.6-4.1
			c-1.3-1-10.9-4.9-11.5-5.1s-8.7-5.3-9.2-5.3c-0.5,0-6.4-4.6-6.4-4.6l-1.2-4.8"/>
		<path class="st2" d="M433.6,71.3c0,0-4.7,4.5-6,5.3c-1.4,0.7-6.4,5.2-6.9,5.9c-0.5,0.7-2.3,2.5-1.7,3.2c0.6,0.7,0.6,1.4-0.1,2.2
			c-0.7,0.9-4.6,3.1-4.6,3.7s-3.1,7.8-2.8,9.5c0.2,1.7,1.8,6,2,6.5c0.1,0.5-2.5,0-2.5,0s-2.5-4.4-2.5-4.9s-1.4-4.3-1.8-5.1
			c-0.5-0.7-1.5-1.6-1.8-1.1s-1.4,4.2-1.4,4.7c0,0.5-0.5,4.1,0,5.2c0.5,1.1,0.7,2.6,1.4,3.7c0.6,1.1,1.6,2,2.6,2.7s2,0.5,2.6,0.9
			c0.6,0.4,1,1.2,1.5,2.1c0.5,0.9,0.1,4.9,0.2,5.8c0.1,0.9-0.2,4.4-0.1,5.8c0.1,1.4-0.2,4.4-0.1,5.4s-1.5,2,0.2,2.7
			c1.7,0.7,14.1,6.2,16.8,6.8c2.7,0.6,13.1-0.6,13.8-1.7c0.7-1.1,1.1-3.6,1-3.9c-0.1-0.4-0.6-1.6-0.5-2.6c0.1-1-0.4-2.8,0.5-3.7
			s4.3-5.4,5.4-7.2c1.1-1.7,1.5-3.8,2.6-5.9c1.2-2.1,2.8-5.8,2.8-7.8c0-2,0.5-4.9,0-6.9c-0.5-2-0.5-3.3,0.2-5.1
			c0.8-1.7,1-4.9,0.6-6.8s-0.7-4.8-2.1-6.7s-2.3-3.5-3.5-4.1c-1.1-0.6-2.3-1.4-4.2-1.6c-1.8-0.2-3.7-0.7-4.8-1.2
			c-1.1-0.5-1.7-0.4-2.5-1.8s-1.1-2.5-1.8-2.8C435.4,72.2,433.6,71.3,433.6,71.3z"/>
		<path class="st1" d="M215.4,156.3c0.1,1,1.2,7.8,1,11.2c-0.2,3.5-1.3,11.2-0.5,11.7c0.8,0.5,4.1,1.5,5.4,1.7
			c1.4,0.2,25.9,0,27.6,0c1.7,0,3.5-0.3,4.9,0.1c1.5,0.4,5.5,0.8,8.3,0.5c2.7-0.2,5.3-0.5,6.4-0.6c1.1-0.1,3.2-1.5,4.7-0.5
			c1.5,1,1.8,3.2,3.6,3.6s8,2.1,10.6,2c2.6-0.1,8-1,8.6-1.6s0.2-0.5,3.1-0.7c2.8-0.2,8.4,0.4,8.4,0.4s18.6,0.3,23.6,1.1
			c4.9,0.8,15.8,0.4,18.6,0.9c2.8,0.4,9.2,3.1,11.7,4.2c2.5,1.2,5.6,3,8.5,11.3c3,8.4,4.1,10.7,4.6,15.1c0.5,4.4,0.5,21,0,23
			c-0.5,2-1.6,14.8-2.1,16.3c-0.5,1.5-2.8,6.1-4.1,8.2s-1.6,4.9-2.1,5.1c-0.5,0.2,0,8.1,0.1,9s-0.1,13.8-0.4,14.2s-2.8,13.6-3,15
			c-0.1,1.5-1.2,11.5-2,13.9c-0.7,2.5-1.7,5.8-1.6,6.2c0.1,0.4,0,19.4,0.7,22.8c0.7,3.5,1.2,9.4,1.2,9.9c0,0.5,2.5,16.6,2.8,18.5
			c0.3,1.8,0.8,30.6,0.7,33c-0.2,2.5-6.6,10.9-6.6,10.9s-8.1,10.9-10.2,17.4c-2.1,6.6-6.2,17.1-6.2,18.7s-1.8,6.4-2.1,7.6
			c-0.3,1.2-1,1.8-1.2,3.5c-0.2,1.6-0.7,8.9-0.7,8.9s3.8,4.1,5.6,5.4c1.8,1.3,5.8,1.6,7.6,1.5c1.8-0.2,3.3-0.8,3.6-1.5
			c0.3-0.7,5.4-8.1,7.4-9.9c2-1.8,6.1-6.2,7.1-7.2c1-1,1.8-4.4,3.3-7.1c1.5-2.6,5.4-8.5,6.7-10.5s12.7-13,15.8-16.1
			c3.1-3.1,6.9-5.9,7.6-11s1.2-9.7,1.8-13.3c0.7-3.6,2.1-12.7,2.1-13.8c0-1.2,2.4-24.4,4.9-31.6c2.5-7.2,8.1-17.8,9.6-19.5
			c1.5-1.7,5.4-6.7,5.4-6.7s11.6,8.9,19.2,16.5c7.6,7.6,16.8,15.8,20.5,19.5s9.6,10.9,12.6,14.1c3,3.2,4.2,4.2,5.7,8.6
			c1.5,4.4,1,6.7,3.7,8.9c2.7,2.2,2.5,3.9,2.5,3.9s1,1.6,1.5,4.9c0.5,3.3-0.5,10.4-1.5,16.9c-1,6.6-1,22.4-0.5,31.7
			c0.5,9.4,3.2,12.5,2.1,15.5c-1.1,3-0.2,3.7-0.5,5.5c-0.3,1.8,0.6,5.3,0.8,6.7c0.2,1.3,0.3,3.6,0.9,4.9c0.6,1.2,1.3,4.2,2.1,5.3
			c0.8,1.1,1.6,3,4,3.9c2.4,0.9,9.2,0.2,10.2,0c1-0.2,5.9-2.5,6.5-3c0.6-0.5,0.8-4.4,0.8-4.4s1.2-14.6,0.8-16.6
			c-0.3-2,1-8.9,1.2-10.4c0.2-1.5,2.5-14.5,2.5-14.5s4.4-21.7,4.8-23.3c0.3-1.6,1-8.2,1.2-9.5c0.2-1.3-0.3-7.7,0-8.7
			c0.3-1,0.2-8.4,0-9.2c-0.2-0.8-0.9-8.5-0.9-8.5s-3.2-15.1-6.7-24.7s-9.4-19-14.8-29.1c-5.4-10.1-29.6-43.4-29.6-43.4
			s-2.6-0.6-3.2-1.8c-0.6-1.2-1-3.1-0.7-3.9c0.2-0.9,0.5-2.3-0.5-3.5c-1-1.1-2-1.7-2.1-2.6c-0.1-0.9,1.5-3.9,1.5-4.8
			c0-0.9,0.2-3.5-1-6.5c-1.2-3.1-3-6.2-3-6.2s-1.1-11.5-2-13.9c-0.9-2.5-1.6-5.8-1.6-9.1s-0.9-8.4-0.6-11c0.2-2.6,8.5-21.4,10-24
			c1.5-2.6,5.1-9.9,5.6-10.4c0.5-0.5,3.9-3.8,5.6-4.1s7.4-2,12.2-2.6s9.4,1.5,10.4,1.6s7.2,0.5,10.2,0.3c3-0.2,15.9-0.3,16.9-0.2
			s2-1.2,3.5,0s6.4,3.1,7.7,3s3.8-0.5,5.1-1.5s2.1-1.8,3.8-1.5c1.6,0.3,3.3,0.5,3.3,0.5s10.5-0.3,18.2-1.2c7.6-0.9,18.6-2.8,20.8-3
			c2.2-0.1,6-1.1,6.4-1.4c0.4-0.2,1.4-2.3,1.4-3.1c0-0.7,0-3.6,0-6.5c0-3-1.7-6.9-1.7-6.9s-6.8-0.7-8-0.6
			c-1.2,0.1-14.3-0.4-14.3-0.4s-38.8-0.4-40.1,0s-3,1.1-3.7,0.7c-0.7-0.4-4.7-1.5-4.7-1.5s-10.5-4.6-11.1-4.8
			c-0.6-0.2-7.6-0.1-8.6-0.4c-1-0.2-7.4-3.1-11.2-5.2c-3.8-2.1-20.7-8.3-23.4-9.4c-2.7-1.1-7.4-2.1-8.1-2.8c-0.7-0.7-1.7-1.2-3-1
			c-1.2,0.2-3.2,0.9-3.6,0.7s-1.8-0.6-2.8-0.8s-3.7-1.9-4.7-2.2c-1-0.2-1.7-0.2-3.5-0.7c-1.7-0.5-2.3-1-3.5-1.5s-2-0.6-3-1.2
			c-1-0.6-0.6-5.7-0.6-5.7s-10.2,0.3-11.4,0c-1.2-0.3-9-1.7-9.9-1.8c-0.9-0.1-5.3-1.3-6.3-1.5s-5.5,0-5.5,0s-0.9,2.7-1.2,3.3
			c-0.2,0.6-2.2,2.7-4.3,3.4c-2.1,0.7-5.4,0.5-6.8,1.1c-1.4,0.6-7.2,1.7-8.7,1.8c-1.5,0.1-2.2-0.2-4.9-0.5c-2.6-0.2-7.1-0.4-7.8,0.1
			c-0.7,0.5-19.1,4.3-23,5.5c-3.9,1.2-9.6,3.7-13.8,4.9c-4.2,1.2-9.4,1.7-13.3,2.2s-15.8,0.2-19.2,0.7c-3.5,0.5-6.9,0.2-10.4,0.2
			s-20.5-0.7-21.9-0.5c-1.5,0.2-39.5,0-40.9,0s-13.6-0.2-13.6-0.2L215.4,156.3z"/>
	</g>
	<path class="st0" d="M437.3,320.8l-1.1,4.9l-1.5,6.6l-2.3-5.1c-0.3-0.7-1-1.2-1.8-1.4c-0.8-0.1-1.6,0.1-2.2,0.7
		c-0.7,0.7-14,13.6-55.3,17.7c-9.1,0.9-19.5,1.4-31.4,1.3l0-0.4l-0.2-27.2l0-2.1c6.6,0.4,24,0.7,44.3-5.3
		c9.7-2.9,20.1-7.2,30.3-13.7c1-0.7,1.4-2,0.9-3.1l-3.5-7.6l28.6,13L437.3,320.8z"/>
	<path class="st0" d="M468.1,466.3l-0.2-27.6c10.6-0.4,45.2-2.2,68.1-11.4c0.9-0.4,1.7-0.7,2.5-1.1c0.8-0.4,1.6-0.7,2.4-1.1
		c4.6-2.3,8.6-4.9,11.4-8l0.1,20.3l0,4.1l0,3.4c0,0.1-0.1,0.3-0.2,0.5C550.8,448.4,540,461.2,468.1,466.3z"/>
	<path class="st3" d="M319.1,380.8"/>
	<path class="st3" d="M340.4,370"/>
</g>
</svg>
