<?xml version="1.0" encoding="UTF-8"?>
<svg width="800px" height="592px" viewBox="0 0 800 592" version="1.1" xmlns="http://www.w3.org/2000/svg" xmlns:xlink="http://www.w3.org/1999/xlink">
    <!-- Generator: Sketch 53.2 (72643) - https://sketchapp.com -->
    <title>Csort</title>
    <desc>Created with Sketch.</desc>
    <g id="Scenarios" stroke="none" stroke-width="1" fill="none" fill-rule="evenodd">
        <g id="-g-Exyte_Illustrations" transform="translate(-301.000000, -842.000000)" fill="#1B1A19">
            <g id="Csort" transform="translate(443.000000, 945.000000)">
                <polygon id="Fill-1" points="289.159 385.391 461.333 385.391 461.333 383.391 289.159 383.391"></polygon>
                <path d="M171.834,348 L379.833,348 L379.833,2 L171.834,2 L171.834,348 Z M169.834,350 L381.833,350 L381.833,0 L169.834,0 L169.834,350 Z" id="Fill-2"></path>
                <polygon id="Fill-3" points="24.25 211.667 54.25 211.667 54.25 103 24.25 103"></polygon>
                <polyline id="Fill-4" points="98.917 237.333 53.25 237.333 53.25 77.333 98.917 77.333 98.917 79.333 55.25 79.333 55.25 235.333 98.917 235.333 98.917 237.333"></polyline>
                <polyline id="Fill-5" points="99.917 103 97.917 103 97.917 55.333 170.834 55.333 170.834 57.333 99.917 57.333 99.917 103"></polyline>
                <polyline id="Fill-6" points="170.834 259.333 97.917 259.333 97.917 175.279 99.917 175.279 99.917 257.333 170.834 257.333 170.834 259.333"></polyline>
                <polygon id="Fill-7" points="170.834 15.667 380.833 15.667 380.833 1 170.834 1"></polygon>
                <path d="M287.167,327.667 C287.167,333.926 282.093,339 275.833,339 C269.574,339 264.5,333.926 264.5,327.667 C264.5,321.408 269.574,316.333 275.833,316.333 C282.093,316.333 287.167,321.408 287.167,327.667" id="Fill-8"></path>
                <path d="M170.834,219 C150.031,219 133.167,235.865 133.167,256.667 C133.167,277.47 150.031,294.333 170.834,294.333 L170.834,219" id="Fill-9"></path>
                <polygon id="Fill-10" points="0 256.917 20 256.917 20 236.917 0 236.917"></polygon>
                <path d="M65.417,41.333 C59.811,41.333 55.25,45.894 55.25,51.5 C55.25,57.107 59.811,61.667 65.417,61.667 C71.023,61.667 75.584,57.107 75.584,51.5 C75.584,45.894 71.023,41.333 65.417,41.333 Z M65.417,63.667 C58.708,63.667 53.25,58.209 53.25,51.5 C53.25,44.791 58.708,39.333 65.417,39.333 C72.126,39.333 77.584,44.791 77.584,51.5 C77.584,58.209 72.126,63.667 65.417,63.667 L65.417,63.667 Z" id="Fill-11"></path>
                <path d="M88.339,119.66 C88.339,121.249 87.051,122.537 85.462,122.537 C83.872,122.537 82.584,121.249 82.584,119.66 C82.584,118.071 83.872,116.782 85.462,116.782 C87.051,116.782 88.339,118.071 88.339,119.66" id="Fill-12"></path>
                <path d="M101.56,119.66 C101.56,121.249 100.271,122.537 98.682,122.537 C97.092,122.537 95.804,121.249 95.804,119.66 C95.804,118.071 97.092,116.782 98.682,116.782 C100.271,116.782 101.56,118.071 101.56,119.66" id="Fill-13"></path>
                <path d="M114.78,119.66 C114.78,121.249 113.491,122.537 111.902,122.537 C110.313,122.537 109.024,121.249 109.024,119.66 C109.024,118.071 110.313,116.782 111.902,116.782 C113.491,116.782 114.78,118.071 114.78,119.66" id="Fill-14"></path>
                <path d="M125.122,117.782 C124.087,117.782 123.244,118.624 123.244,119.66 C123.244,120.695 124.087,121.537 125.122,121.537 C126.158,121.537 127,120.695 127,119.66 C127,118.624 126.158,117.782 125.122,117.782 Z M125.122,123.537 C122.984,123.537 121.244,121.798 121.244,119.66 C121.244,117.521 122.984,115.782 125.122,115.782 C127.26,115.782 129,117.521 129,119.66 C129,121.798 127.26,123.537 125.122,123.537 L125.122,123.537 Z" id="Fill-15"></path>
                <path d="M85.462,131.324 C84.426,131.324 83.584,132.166 83.584,133.202 C83.584,134.238 84.426,135.08 85.462,135.08 C86.497,135.08 87.339,134.238 87.339,133.202 C87.339,132.166 86.497,131.324 85.462,131.324 Z M85.462,137.08 C83.323,137.08 81.584,135.341 81.584,133.202 C81.584,131.064 83.323,129.324 85.462,129.324 C87.6,129.324 89.339,131.064 89.339,133.202 C89.339,135.341 87.6,137.08 85.462,137.08 L85.462,137.08 Z" id="Fill-16"></path>
                <path d="M98.682,131.324 C97.646,131.324 96.804,132.166 96.804,133.202 C96.804,134.238 97.646,135.08 98.682,135.08 C99.717,135.08 100.56,134.238 100.56,133.202 C100.56,132.166 99.717,131.324 98.682,131.324 Z M98.682,137.08 C96.544,137.08 94.804,135.341 94.804,133.202 C94.804,131.064 96.544,129.324 98.682,129.324 C100.82,129.324 102.56,131.064 102.56,133.202 C102.56,135.341 100.82,137.08 98.682,137.08 L98.682,137.08 Z" id="Fill-17"></path>
                <path d="M114.78,133.202 C114.78,134.791 113.491,136.08 111.902,136.08 C110.313,136.08 109.024,134.791 109.024,133.202 C109.024,131.613 110.313,130.324 111.902,130.324 C113.491,130.324 114.78,131.613 114.78,133.202" id="Fill-18"></path>
                <path d="M128,133.202 C128,134.791 126.712,136.08 125.122,136.08 C123.533,136.08 122.244,134.791 122.244,133.202 C122.244,131.613 123.533,130.324 125.122,130.324 C126.712,130.324 128,131.613 128,133.202" id="Fill-19"></path>
                <path d="M88.339,146.744 C88.339,148.334 87.051,149.622 85.462,149.622 C83.872,149.622 82.584,148.334 82.584,146.744 C82.584,145.155 83.872,143.867 85.462,143.867 C87.051,143.867 88.339,145.155 88.339,146.744" id="Fill-20"></path>
                <path d="M98.682,144.867 C97.646,144.867 96.804,145.709 96.804,146.744 C96.804,147.78 97.646,148.622 98.682,148.622 C99.717,148.622 100.56,147.78 100.56,146.744 C100.56,145.709 99.717,144.867 98.682,144.867 Z M98.682,150.622 C96.544,150.622 94.804,148.883 94.804,146.744 C94.804,144.606 96.544,142.867 98.682,142.867 C100.82,142.867 102.56,144.606 102.56,146.744 C102.56,148.883 100.82,150.622 98.682,150.622 L98.682,150.622 Z" id="Fill-21"></path>
                <path d="M114.78,146.744 C114.78,148.334 113.491,149.622 111.902,149.622 C110.313,149.622 109.024,148.334 109.024,146.744 C109.024,145.155 110.313,143.867 111.902,143.867 C113.491,143.867 114.78,145.155 114.78,146.744" id="Fill-22"></path>
                <path d="M125.122,144.867 C124.087,144.867 123.244,145.709 123.244,146.744 C123.244,147.78 124.087,148.622 125.122,148.622 C126.158,148.622 127,147.78 127,146.744 C127,145.709 126.158,144.867 125.122,144.867 Z M125.122,150.622 C122.984,150.622 121.244,148.883 121.244,146.744 C121.244,144.606 122.984,142.867 125.122,142.867 C127.26,142.867 129,144.606 129,146.744 C129,148.883 127.26,150.622 125.122,150.622 L125.122,150.622 Z" id="Fill-23"></path>
                <path d="M85.462,158.409 C84.426,158.409 83.584,159.251 83.584,160.287 C83.584,161.323 84.426,162.165 85.462,162.165 C86.497,162.165 87.339,161.323 87.339,160.287 C87.339,159.251 86.497,158.409 85.462,158.409 Z M85.462,164.165 C83.323,164.165 81.584,162.426 81.584,160.287 C81.584,158.149 83.323,156.409 85.462,156.409 C87.6,156.409 89.339,158.149 89.339,160.287 C89.339,162.426 87.6,164.165 85.462,164.165 L85.462,164.165 Z" id="Fill-24"></path>
                <path d="M98.682,158.409 C97.646,158.409 96.804,159.251 96.804,160.287 C96.804,161.323 97.646,162.165 98.682,162.165 C99.717,162.165 100.56,161.323 100.56,160.287 C100.56,159.251 99.717,158.409 98.682,158.409 Z M98.682,164.165 C96.544,164.165 94.804,162.426 94.804,160.287 C94.804,158.149 96.544,156.409 98.682,156.409 C100.82,156.409 102.56,158.149 102.56,160.287 C102.56,162.426 100.82,164.165 98.682,164.165 L98.682,164.165 Z" id="Fill-25"></path>
                <path d="M111.902,158.409 C110.866,158.409 110.024,159.251 110.024,160.287 C110.024,161.323 110.866,162.165 111.902,162.165 C112.938,162.165 113.78,161.323 113.78,160.287 C113.78,159.251 112.938,158.409 111.902,158.409 Z M111.902,164.165 C109.764,164.165 108.024,162.426 108.024,160.287 C108.024,158.149 109.764,156.409 111.902,156.409 C114.04,156.409 115.78,158.149 115.78,160.287 C115.78,162.426 114.04,164.165 111.902,164.165 L111.902,164.165 Z" id="Fill-26"></path>
                <path d="M128,160.287 C128,161.876 126.712,163.165 125.122,163.165 C123.533,163.165 122.244,161.876 122.244,160.287 C122.244,158.698 123.533,157.409 125.122,157.409 C126.712,157.409 128,158.698 128,160.287" id="Fill-27"></path>
                <path d="M226.115,149.125 L317.115,149.125 L317.115,84.438 L226.115,84.438 L226.115,149.125 Z M228.115,147.125 L315.115,147.125 L315.115,86.438 L228.115,86.438 L228.115,147.125 Z" id="Fill-28"></path>
                <path d="M206.115,245.917 L336.615,245.917 L336.615,149.146 L206.115,149.146 L206.115,245.917 Z M204.115,247.917 L338.615,247.917 L338.615,147.146 L204.115,147.146 L204.115,247.917 Z" id="Fill-29"></path>
                <polygon id="Fill-30" points="170.834 307.5 380.833 307.5 380.833 305.5 170.834 305.5"></polygon>
                <path d="M242.143,218.134 L301.088,218.134 L301.088,176.279 L242.143,176.279 L242.143,218.134 Z M240.143,220.134 L303.088,220.134 L303.088,174.279 L240.143,174.279 L240.143,220.134 Z" id="Fill-31"></path>
                <polyline id="Fill-32" points="272.114 134.7 124.313 134.569 124.315 132.569 272.116 132.7 272.114 134.7"></polyline>
                <polyline id="Fill-33" points="333.24 136.855 354.24 136.855 354.24 236.708 338.115 248 338.115 148.146 316.115 148.146 316.115 84.438 226.115 84.438 242.24 73.147 333.24 73.147 333.24 136.855"></polyline>
                <path d="M275.46,133.636 C275.46,135.759 273.738,137.48 271.615,137.48 C269.492,137.48 267.771,135.759 267.771,133.636 C267.771,131.513 269.492,129.791 271.615,129.791 C273.738,129.791 275.46,131.513 275.46,133.636" id="Fill-34"></path>
                <path d="M419.552,115.782 L437.323,115.782 L437.323,98.01 L419.552,98.01 L419.552,115.782 Z M417.552,117.782 L439.323,117.782 L439.323,96.01 L417.552,96.01 L417.552,117.782 Z" id="Fill-35"></path>
                <path d="M439.323,115.782 L457.095,115.782 L457.095,98.01 L439.323,98.01 L439.323,115.782 Z M437.323,117.782 L459.095,117.782 L459.095,96.01 L437.323,96.01 L437.323,117.782 Z" id="Fill-36"></path>
                <polygon id="Fill-37" points="458.095 116.782 477.866 116.782 477.866 97.01 458.095 97.01"></polygon>
                <path d="M459.095,115.782 L476.866,115.782 L476.866,98.01 L459.095,98.01 L459.095,115.782 Z M457.095,117.782 L478.866,117.782 L478.866,96.01 L457.095,96.01 L457.095,117.782 Z" id="Fill-38"></path>
                <path d="M478.866,115.782 L496.637,115.782 L496.637,98.01 L478.866,98.01 L478.866,115.782 Z M476.866,117.782 L498.637,117.782 L498.637,96.01 L476.866,96.01 L476.866,117.782 Z" id="Fill-39"></path>
                <path d="M419.552,135.553 L437.323,135.553 L437.323,117.782 L419.552,117.782 L419.552,135.553 Z M417.552,137.553 L439.323,137.553 L439.323,115.782 L417.552,115.782 L417.552,137.553 Z" id="Fill-40"></path>
                <path d="M439.323,135.553 L457.095,135.553 L457.095,117.782 L439.323,117.782 L439.323,135.553 Z M437.323,137.553 L459.095,137.553 L459.095,115.782 L437.323,115.782 L437.323,137.553 Z" id="Fill-41"></path>
                <path d="M459.095,135.553 L476.866,135.553 L476.866,117.782 L459.095,117.782 L459.095,135.553 Z M457.095,137.553 L478.866,137.553 L478.866,115.782 L457.095,115.782 L457.095,137.553 Z" id="Fill-42"></path>
                <path d="M478.866,135.553 L496.637,135.553 L496.637,117.782 L478.866,117.782 L478.866,135.553 Z M476.866,137.553 L498.637,137.553 L498.637,115.782 L476.866,115.782 L476.866,137.553 Z" id="Fill-43"></path>
                <path d="M498.637,115.782 L516.408,115.782 L516.408,98.01 L498.637,98.01 L498.637,115.782 Z M496.637,117.782 L518.408,117.782 L518.408,96.01 L496.637,96.01 L496.637,117.782 Z" id="Fill-44"></path>
                <polygon id="Fill-45" points="497.637 136.553 517.408 136.553 517.408 116.782 497.637 116.782"></polygon>
                <path d="M498.637,135.553 L516.408,135.553 L516.408,117.782 L498.637,117.782 L498.637,135.553 Z M496.637,137.553 L518.408,137.553 L518.408,115.782 L496.637,115.782 L496.637,137.553 Z" id="Fill-46"></path>
                <path d="M446.107,375.404 L454.075,375.404 C455.172,369.263 462.029,330.819 463.063,323.63 C463.832,318.281 468.452,303.84 471.826,293.295 C473.343,288.556 474.652,284.462 474.832,283.565 C475.188,281.786 475.191,280.317 475.153,279.538 L454.265,272.475 C453.646,277.124 451.973,291.046 450.35,304.555 C448.322,321.423 446.408,337.356 446.107,339.012 C445.665,341.437 445.944,365.213 446.107,375.404 Z M455.749,377.404 L444.14,377.404 L444.123,376.42 C444.1,375.011 443.554,341.867 444.14,338.654 C444.43,337.057 446.43,320.413 448.364,304.317 C450.251,288.615 452.033,273.784 452.451,270.993 L452.629,269.811 L477.004,278.053 L477.088,278.665 C477.101,278.758 477.393,280.958 476.793,283.957 C476.592,284.965 475.392,288.715 473.731,293.906 C470.568,303.791 465.788,318.731 465.043,323.915 C463.919,331.727 455.977,376.132 455.897,376.579 L455.749,377.404 L455.749,377.404 Z" id="Fill-47"></path>
                <path d="M467.538,280.471 C461.474,280.471 449.877,276.281 449.37,276.096 L448.558,275.801 L448.733,274.954 C448.775,274.752 452.953,254.525 456.764,235.671 L458.725,236.068 C455.358,252.725 451.703,270.453 450.868,274.503 C453.725,275.494 463.342,278.717 468.019,278.459 C473.716,278.175 482.536,277.138 484.59,276.618 C485.588,272.839 485.398,241.509 484.29,234.586 C483.372,228.85 476.053,212.912 472.535,205.254 C471.983,204.051 471.522,203.046 471.19,202.308 L464.963,204.059 C464.73,205.537 464.219,208.317 463.441,212.347 L461.478,211.968 C462.383,207.273 462.922,204.302 463.078,203.139 L463.166,202.488 L472.323,199.911 L472.67,200.714 C472.973,201.415 473.57,202.716 474.353,204.419 C477.907,212.159 485.304,228.264 486.265,234.27 C486.893,238.191 487.213,249.532 487.245,258.41 C487.316,277.712 486.392,278.082 485.649,278.379 C483.913,279.075 473.296,280.199 468.118,280.457 C467.932,280.466 467.737,280.471 467.538,280.471" id="Fill-48"></path>
                <path d="M487.236,382.666 L497.173,382.666 L504.18,380.367 L500.822,373.506 L497.154,374.639 C498.047,376.587 498.239,377.64 497.9,378.457 C497.703,378.935 497.327,379.278 496.816,379.449 C496.453,379.569 495.832,379.675 494.674,379.867 C492.762,380.182 489.563,380.711 488.431,381.428 C487.994,381.705 487.579,382.182 487.236,382.666 Z M497.493,384.666 L483.952,384.666 L484.589,383.255 C484.702,383.003 485.746,380.761 487.36,379.739 C488.723,378.875 491.442,378.373 494.348,377.893 C495.029,377.781 495.732,377.664 496.059,377.585 C496.052,377.287 495.87,376.503 494.856,374.474 L494.328,373.419 L501.867,371.09 L506.986,381.55 L497.493,384.666 L497.493,384.666 Z" id="Fill-49"></path>
                <path d="M437.315,383.333 L454.955,383.333 L452.731,377.901 L449.327,377.854 C449.467,378.384 449.459,378.838 449.239,379.239 C448.87,379.916 448.149,379.993 447.717,380.039 C447.544,380.058 447.38,380.076 447.262,380.116 C446.891,380.239 446.146,380.368 444.749,380.605 C442.861,380.926 438.932,381.593 438.211,382.133 C437.816,382.43 437.522,382.89 437.315,383.333 Z M457.936,385.333 L434.765,385.333 L434.959,384.169 C435,383.924 435.404,381.739 437.012,380.534 C438.038,379.764 440.848,379.24 444.414,378.633 C445.339,378.476 446.388,378.298 446.629,378.217 C446.867,378.138 447.096,378.1 447.297,378.075 C447.227,377.89 447.114,377.632 446.939,377.281 L446.203,375.811 L454.08,375.918 L457.936,385.333 L457.936,385.333 Z" id="Fill-50"></path>
                <path d="M463.814,196.114 C463.973,196.114 464.124,196.127 464.268,196.156 C464.856,196.275 466.166,196.54 465.333,201.877 L470.839,200.328 L472.289,188.314 L468.134,180.465 L463.159,179.025 L460.838,186.74 C460.465,188.013 460.072,189.203 459.712,190.298 C458.794,193.081 457.927,195.709 458.671,196.407 C459.321,197.02 460.83,196.676 462.042,196.401 C462.704,196.249 463.298,196.114 463.814,196.114 Z M462.773,204.675 L463.088,203.077 C463.483,201.079 463.675,198.961 463.556,198.133 C463.254,198.175 462.827,198.273 462.486,198.35 C460.901,198.711 458.731,199.205 457.302,197.866 C455.628,196.294 456.544,193.517 457.813,189.672 C458.167,188.596 458.553,187.426 458.919,186.175 L458.921,186.167 L461.814,176.554 L469.505,178.78 L474.35,187.931 L472.665,201.893 L462.773,204.675 L462.773,204.675 Z" id="Fill-51"></path>
                <path d="M460.548,181.719 C456.402,177.789 458.841,171.537 462.235,172.842 C465.629,174.148 465.525,177.255 467.195,175.975 C469.615,174.122 474.256,175.086 474.569,177.789 C474.989,181.408 481.736,185.539 480.771,190.334 C479.791,195.201 474.919,197.397 472.569,197.136 C470.22,196.874 467.273,193.939 467.902,192.372 C468.533,190.806 471.402,191.036 471.402,189.122 C471.402,186.599 469.194,187.572 467.736,185.455 C466.277,183.339 466.057,181.076 464.402,180.205 C462.472,179.189 460.548,181.719 460.548,181.719" id="Fill-52"></path>
                <path d="M400.817,224.159 C400.447,226.5 402.26,230.047 404.372,231.414 C405.601,232.209 408.864,232.786 410.562,233.019 L411.837,231.382 C410.15,230.851 408.53,230.083 408.211,229.043 C408.058,228.546 408.084,227.916 408.117,227.118 C408.164,225.985 408.235,224.272 407.519,223.919 C407.275,224.155 406.957,225.028 406.816,225.414 C406.566,226.105 406.367,226.65 405.972,226.978 C404.494,228.206 402.72,226.254 401.155,224.529 C401.05,224.413 400.934,224.285 400.817,224.159 Z M411.443,235.141 L410.885,235.076 C410.32,235.011 405.307,234.401 403.286,233.094 C399.954,230.937 397.522,225.185 399.505,222.032 L399.77,221.612 L400.341,221.519 C401.061,221.469 401.558,221.997 402.636,223.185 C403.158,223.761 404.168,224.873 404.748,225.233 C404.811,225.076 404.879,224.888 404.937,224.732 C405.306,223.715 405.765,222.451 406.808,222.031 C407.159,221.89 407.721,221.791 408.399,222.123 C410.288,223.049 410.185,225.547 410.115,227.201 C410.097,227.655 410.071,228.277 410.123,228.455 C410.358,228.738 412.121,229.442 413.781,229.845 L415.285,230.21 L411.443,235.141 L411.443,235.141 Z" id="Fill-53"></path>
                <path d="M412.542,233.731 C420.127,237.468 437.143,245.547 440.529,245.75 C443.571,245.589 469.988,226.273 472.534,223.047 C473.503,221.821 475.44,215.701 472.612,212.873 C469.561,209.822 464.642,211.41 461.359,214.555 C460.965,214.933 459.76,216.156 458.195,217.741 C448.787,227.277 446.985,228.942 446.306,229.297 C446.274,229.393 446.238,229.53 446.212,229.63 C446.063,230.205 445.814,231.169 444.842,231.523 C444.165,231.77 443.373,231.673 442.674,231.589 C442.511,231.57 442.297,231.543 442.124,231.531 C442.09,231.653 442.054,231.791 442.023,231.909 C441.747,232.962 441.285,234.727 439.734,234.831 C439.721,234.832 439.705,234.832 439.689,234.832 C438.166,234.833 422.994,231.253 415.811,229.537 L412.542,233.731 Z M440.492,247.749 C440.471,247.749 440.45,247.749 440.43,247.747 C435.843,247.493 413.13,236.259 410.555,234.979 L409.459,234.434 L415.024,227.293 L415.65,227.443 C424.125,229.47 437.916,232.677 439.562,232.829 C439.773,232.608 439.991,231.77 440.088,231.402 C440.257,230.756 440.379,230.29 440.71,229.959 C441.264,229.404 442.065,229.5 442.914,229.604 C443.318,229.652 443.931,229.728 444.158,229.643 C444.151,229.612 444.23,229.309 444.276,229.128 C444.41,228.61 444.63,227.763 445.449,227.486 C446.549,226.699 453.433,219.72 456.772,216.335 C458.356,214.731 459.576,213.493 459.976,213.112 C464.621,208.659 470.531,207.963 474.026,211.459 C477.769,215.201 475.55,222.455 474.105,224.286 C472.106,226.818 444.648,247.747 440.492,247.749 L440.492,247.749 Z" id="Fill-54"></path>
                <polygon id="Fill-55" points="227.115 120.125 317.115 120.125 317.115 118.125 227.115 118.125"></polygon>
                <polygon id="Fill-56" points="256.115 148.146 258.115 148.146 258.115 119.125 256.115 119.125"></polygon>
                <polygon id="Fill-57" points="286.115 148.146 288.115 148.146 288.115 119.125 286.115 119.125"></polygon>
                <path d="M250.742,209.534 L248.969,208.608 C251.188,204.36 253.316,200.619 256.913,197.872 C260.381,195.225 266.216,193.524 270.834,196.049 C271.566,196.449 272.217,196.927 272.847,197.39 C273.603,197.947 274.316,198.472 275.114,198.826 C278.726,200.428 283.341,198.12 286.037,195.016 C287.152,193.73 288.131,192.275 289.078,190.867 C290.554,188.672 292.079,186.403 294.22,184.58 L295.517,186.104 C293.585,187.747 292.202,189.804 290.737,191.983 C289.757,193.441 288.743,194.949 287.547,196.326 C284.467,199.874 279.007,202.74 274.304,200.654 C273.307,200.211 272.471,199.596 271.661,199.001 C271.059,198.558 270.489,198.139 269.875,197.804 C266.041,195.705 261.097,197.195 258.126,199.462 C254.857,201.959 252.848,205.5 250.742,209.534" id="Fill-58"></path>
                <polygon id="Fill-59" points="475 385.391 497.333 385.391 497.333 383.391 475 383.391"></polygon>
                <path d="M444.438,41.29 C438.563,41.29 435.6,39.394 432.733,37.56 C429.989,35.803 427.397,34.144 422.107,34.144 C416.816,34.144 414.224,35.803 411.48,37.559 C408.613,39.394 405.65,41.29 399.775,41.29 C393.899,41.29 390.935,39.394 388.068,37.56 C385.323,35.803 382.732,34.144 377.44,34.144 C372.148,34.144 369.556,35.803 366.811,37.56 C363.944,39.394 360.981,41.29 355.105,41.29 L355.105,39.29 C360.396,39.29 362.987,37.631 365.733,35.875 C368.599,34.04 371.563,32.144 377.44,32.144 C383.316,32.144 386.28,34.04 389.147,35.875 C391.892,37.631 394.483,39.29 399.775,39.29 C405.065,39.29 407.657,37.631 410.401,35.875 C413.268,34.04 416.231,32.144 422.107,32.144 C427.983,32.144 430.945,34.04 433.812,35.875 C436.556,37.631 439.148,39.29 444.438,39.29 L444.438,41.29" id="Fill-60"></path>
                <path d="M444.438,57.333 C438.563,57.333 435.6,55.437 432.733,53.603 C429.989,51.846 427.397,50.187 422.107,50.187 C416.816,50.187 414.224,51.846 411.48,53.602 C408.613,55.437 405.65,57.333 399.775,57.333 C393.899,57.333 390.935,55.437 388.068,53.603 C385.323,51.846 382.732,50.187 377.44,50.187 C372.148,50.187 369.556,51.846 366.811,53.603 C363.944,55.437 360.981,57.333 355.105,57.333 L355.105,55.333 C360.396,55.333 362.987,53.674 365.733,51.918 C368.599,50.083 371.563,48.187 377.44,48.187 C383.316,48.187 386.28,50.083 389.147,51.918 C391.892,53.674 394.483,55.333 399.775,55.333 C405.065,55.333 407.657,53.674 410.401,51.918 C413.268,50.083 416.231,48.187 422.107,48.187 C427.983,48.187 430.945,50.083 433.812,51.918 C436.556,53.674 439.148,55.333 444.438,55.333 L444.438,57.333" id="Fill-61"></path>
                <path d="M485.5,331.191 C483.86,329.315 483.17,323.465 483.242,321.722 C483.367,318.722 480.755,316.451 480.242,315.347 C478.573,311.753 485.555,292.417 485.242,277.451 L476.027,278.67 C476.1,280.319 476.1,282.326 475.813,283.761 C475.306,286.295 467.402,309.423 464.786,320.215 C465.69,326.588 466.427,331.215 466.742,331.847 C467.89,334.142 493.882,375.256 493.882,375.256 L503.061,372.675 C503.061,372.675 488.367,334.472 485.5,331.191" id="Fill-62"></path>
                <path d="M485.277,234.428 C485.736,237.298 486.058,244.672 486.186,252.521 C490.045,248.504 496.833,241.03 496.833,238.166 C496.833,236.838 493.936,231.02 491.186,227.846 C489.326,225.701 481.591,217.344 476.775,212.158 C480.359,220.15 484.58,230.071 485.277,234.428" id="Fill-63"></path>
                <path d="M472.833,260.333 C471.083,254.333 462.256,259.083 458.89,256.083 C456.725,254.154 462.596,239.355 467.062,229.037 C464.405,231.118 461.192,233.533 457.916,235.904 C454.124,255.331 449.712,275.157 449.712,275.157 C449.712,275.157 462.332,279.745 468.068,279.458 C469.947,279.365 473.749,279.031 476.098,278.802 C476.373,275.957 474.4,265.706 472.833,260.333" id="Fill-64"></path>
                <path d="M400.352,222.564 C400.733,221.956 404.102,227.232 405.333,226.208 C405.926,225.716 406.302,222.208 407.958,223.021 C409.841,223.944 408.833,227.666 409.167,228.749 C409.433,229.615 412.058,230.413 413.109,230.702 L417.337,227.828 L407.417,218.083 L400,222.416 L400.284,222.696 C400.309,222.653 400.325,222.605 400.352,222.564" id="Fill-65"></path>
            </g>
        </g>
    </g>
</svg>