<?xml version="1.0" encoding="utf-8"?>
<!-- Generator: Adobe Illustrator 24.0.1, SVG Export Plug-In . SVG Version: 6.00 Build 0)  -->
<svg version="1.1" id="Layer_1" xmlns="http://www.w3.org/2000/svg" xmlns:xlink="http://www.w3.org/1999/xlink" x="0px" y="0px"
	 viewBox="0 0 800 592" style="enable-background:new 0 0 800 592;" xml:space="preserve">
<style type="text/css">
	.st0{fill:#231F20;}
	.st1{fill:#FFFFFF;stroke:#231F20;stroke-width:0.5;stroke-miterlimit:10;}
	.st2{opacity:0.5;fill:#25A9E0;}
</style>
<title>Csort</title>
<desc>Created with Sketch.</desc>
<path class="st0" d="M354,498.6"/>
<g>
	<g>
		<path class="st1" d="M448.6,493.4c0,0-4.7,5.8-5.8,7.3s-3.3,6-2.8,7.3c0.5,1.3,4.2,4,4.2,4h3.2c0,0,44.2,15.1,45.3,15.3
			c1.1,0.2,20.8,0.7,21.4,0c0.6-0.7,0.4-2.8,0-3.6s-4.5-4.3-5.2-4.9c-0.7-0.6-2.4-2.8-4.7-3.2s-6-0.6-8.4-0.7
			c-2.4-0.2-3.5-0.7-4.8-1.7c-1.3-0.9-3.8-3.9-3.8-3.9l-30.4-9.6L448.6,493.4z"/>
		<path class="st1" d="M447.5,512.1c0,0-0.4,2.3-3,4.6c-2.6,2.2-5.1,5.8-4.3,8.2c0.7,2.4,8.1,8.2,14.2,11.8
			c6.2,3.6,16.9,7.5,18.9,9.7s2.1,3.9,5.1,5.1s32,0,32,0s2.1,0.2,4.4-2.6c2.2-2.8,1.7-3.6,0-5.4c-1.7-1.9-4.1-3.2-6.2-4.3
			s-4.3-0.4-6.7-1.7c-2.4-1.3-6.4-3.5-8.4-5.4s-4.7-3.8-6.6-6s-5.8-4.8-5.8-4.8L447.5,512.1z"/>
		<path class="st1" d="M519.6,53.8l2.3,2.8c1.5,1.8,0.8,0.8,3.1,7.5c2.6,7.7,1.7,10.7,2.2,15c0.6,4.3-0.9,5.1,0.7,7.9
			c1.7,2.8,3,6.2,3.4,7.5s0.7,3-0.9,4.1c-1.7,1.1-4.6,0.2-4.1,1.1s-0.5,5.1,0,6s0.1,2.1-0.8,2.8c-0.9,0.7-1.9,0.9-1.9,1.7
			s-0.4,4.5-0.4,5.2s-1.7,2-2.2,2.4c-1,0.8-3,1.5-5.2,1.3s-5.6-0.9-7.1,0s-3.4,2.5-3.7,3.7s-1.6,3.4-1.6,3.4s-34.9,4.3-34.2,2.8
			c0.7-1.5-0.2-6.2-0.2-6.2l0.7-4.7l0.7-3.4"/>
		<path class="st0" d="M469,123c-0.9,1.9-0.7,2.6-2.2,2.6c-1.5,0-4.7,1.1-4.7,3c0,1.9-1.7,4.3-1.7,4.3s-10.5,6.5-11.1,13.6
			c-0.6,7.1,2.8,65.5,4.5,68.9c1.7,3.4,3.9,10.1,2.8,15.7c-1.1,5.6-2.8,8.4-2.8,11.8s2.2,5.6,1.7,7.3s-1.8,2.8-6.2,6.7
			c-4.4,3.9-6.7,7.3-6.7,9.6s5.6,3.9,3.4,6.7c-2.2,2.8-3.1,5.9-3.4,11.2c-0.3,5.3-5.6,22.5-3.7,31.5c2,9,9,26.2,26.2,41.9
			c17.2,15.7,53.4,47.5,55.7,49.8c2.2,2.2,3.4,4.2,2.5,5.1c-0.8,0.8-12.7,7-15.7,10.4c-3.1,3.4-31.4,37.6-34.6,41.7
			s-3.6,2.8-7.5,5.2c-3.9,2.4-5.1,2.4-6.9,5.1c-1.9,2.6-4.5,5.6-5.1,7.9s0.4,5.2-1.3,6.9s-5.4,1.7-3.6,3.4c1.9,1.7,5.1,4.5,5.1,4.5
			l-1.5,4.5c0,0-1,4-2.1,5.4c-1.1,1.4-2.5,4.2-2.5,4.2s5.8,7.6,7.6,8.6c1.8,1,14.2,2.1,17.7,1.7s8.2-1.1,8.2-1.1s2.6-7.2,4.3-10.1
			c1.7-3,6.3-10.2,11.3-13.5c5.1-3.3,42.9-29.5,44.7-31.3c1.8-1.8,30.7-26.2,33.6-29.8c2.8-3.7,4-4.6,5.2-6.9
			c1.2-2.3,1.9-4.9,1.6-7.1c-0.3-2.2,1.2-3,0.1-7.9c-1.1-4.9-4.1-15.1-7.5-22.8c-3.4-7.7-24.2-42.9-36.4-57.9
			c-12.2-15-15.4-17.5-16.4-19.1c-1-1.6-2.9-5.8-2.9-5.8l0-1.6c0,0,0.6-0.1,2.3-3c1.8-2.9,3.1-3.3,4.6-11.3
			c1.5-8.1,2.8-27.6,2.6-43.7c-0.2-16.1-0.1-24.4,1.3-28.5s2.9-8.9,4.6-13.6c1.7-4.6,2.5-9.8,2-12.8c-0.6-3-0.8-7.9-7.2-16.3
			c-6.3-8.4-11.2-13.4-14.1-17.9c-2.8-4.5-9.8-14.7-11.5-16.8s-3.3-5.1-3-8.4s1.7-5.1,2.7-6.1c1-1.1,0.4-2.6,0.4-2.6
			s0.8-1.5-1.5-2.1c-2.2-0.6-24-1.1-24.5-1.2S469,123,469,123z"/>
		<path class="st1" d="M507,167.5c-2.4-0.6-4.1-1.4-6-1.4c-2,0-4.2,0.6-4.4,2.1c-0.1,1.5,0.3,3.1,1.7,4.2c1.4,1.1,4.5,2.7,5.9,3.7
			c1.4,1,3.5,1.5,1.1,2c-2.4,0.4-5.3,0.4-6.5,1.1c-1.1,0.7-1.7,2.4-1.7,2.8c0,0.4,1.5,2.7,2.4,3c0.8,0.3,7.5,0,7.5,0
			s-0.4,0.6-1.4,1.3c-1,0.7-5.5,2-6.2,2.5s-1.8,0.6-1.4,2.5c0.4,2-0.1,3.4,2.1,3.9s3.4,0.1,5.1-0.7s3.4-2.4,3.9-1.9s1.5,0.5,0,1.9
			s-3.4,3.8-4.2,5.8c-0.8,2-2.4,4.5-1.6,5.3s2.3,2.2,3.5,2.4c1.1,0.1,3.8-2.4,4.2-3s1.3-2.7,2.7-4.2c1.4-1.5,2.4-2.8,3.1-3.4
			c0.7-0.6,1.4-2,1.4-3.1s-0.6-3-0.7-4.2c-0.1-1.3,0-2.7-0.6-3.8c-0.6-1.1-1.4-1.3-1-3.2c0.4-2,0.6-2.2,1-3.4s0.6-2.4,0.4-3
			s0.3-2.7-1.3-5.9c-1.5-3.2-2.5-6.2-3.4-7.7c-0.8-1.5-1-3.4-1.1-4.8c-0.1-1.4-0.4-3.8-0.6-5.1s0.1-2.1-0.8-3.8
			c-1-1.7-1.4-2.8-3.5-3c-2.1-0.1-4.4,0.3-4.6,1.1c-0.3,0.8-0.8,0.6,0.3,2.2s1.7,1.8,1.8,3.4s0.6,2.5,0.6,4.5c0,2-0.1,3.7,0.1,4.9
			c0.3,1.3-0.6,1.1,0.8,3C507,167.5,507,167.5,507,167.5z"/>
		<polyline class="st1" points="470.5,114.9 466.8,102.4 475.8,70.1 519.6,53.8 		"/>
		<path class="st0" d="M459.7,121.3c-1.8,1-2.2,4.6-3.8,7.3c-1.6,2.7-3.2,0.8-4.7,0.8c-1.5,0-3.9-0.1-5.5,0.7s-3.5,2.4-5.9,2.4
			s-2.2,0.4-4.4-0.8c-2.1-1.3-0.8-1.3-0.3-2.3c0.6-1-1-3.5-2.8-5.6c-1.8-2.1-3.5-5.1-4.2-6.9c-0.7-1.8,0.3-9.4,1.4-11.2
			c1.1-1.8,4.6-4.1,5.5-5.3c0.8-1.3,1.1-2.4,2.4-3.8c1.3-1.4,3.1-2.8,5.2-3.7c2.1-0.9,4.4-1.4,6-0.8c1.7,0.6,7.3,1.6,7.3,1.6
			s2.2-0.5,2.2-1.9s-1.1-14-1-15.8c0.1-1.8,1-7.7,1.7-9.4c0.7-1.7,4.1-8.9,4.8-10.1c0.7-1.3,8.4-11.8,9.4-12.2c1-0.4,7.3-3.5,8-3.4
			s9.1-2,10.7-2c1.5,0,8.2,1.6,8.7,1.8c0.5,0.3,5.7,3.1,6.4,3s4.5,2,5.3,2.5c0.8,0.6,7.2,6.8,7.2,6.8l0.3,1.7c0,0-1.8,4.7-2,5.3
			c-0.1,0.6-5.9,11.5-6.9,12.6c-1,1.1-2.5,3.1-3.7,4.4c-1.3,1.3-4,3.8-3.9,5s0.4,5.2,0.7,7.9c0.3,2.7-0.1,3.2-0.8,3
			c-0.6-0.3-0.6,0-1.5-1.2c-0.9-1.2-8.2-10.1-8.6-11c-0.4-0.9-2.4-2.7-3.7-2.6s-3.5,0.9-4.4,2c-0.9,1-1.7,4.3-1.7,5
			c0,0.7-1.3,7.3-1.4,10.8c-0.1,3.5-0.5,9.7-1.9,12.2c-1.4,2.5-3.6,6.4-9.3,6.9s-6.9,0.2-7.8,0.7c-0.8,0.5-2.4,4-2.4,4L459.7,121.3z
			"/>
	</g>
	<g>
		<path class="st1" d="M246,479.5c-1.5-1.4-6.7,1.3-10.4,3.5c-3.5,2.1-6,5.8-6.1,10c-0.1,2.2-1.5,2.5,0.3,4.5
			c5.2,5.8,20.2,21.1,22.1,25.3c1.9,4.1,6.7,12.5,7.9,16s17.6,2,20.6,2s6.9-2.8,1-6.1c-5.9-3.3-12.3-17.3-14.5-20
			c-2.2-2.8-5.1-7.4-5.1-7.4"/>
		<path class="st1" d="M320,145.9l2.3,2.8c1.5,1.8,0.8,0.8,3.1,7.5c2.6,7.7,1.7,10.7,2.2,15c0.6,4.3-0.9,5.1,0.7,7.9s3,6.2,3.4,7.5
			c0.4,1.3,0.7,3-0.9,4.1s-4.6,0.2-4.1,1.1s-0.5,5.1,0,6c0.5,0.9,0.1,2.1-0.8,2.8s-1.9,0.9-1.9,1.7s-0.4,4.5-0.4,5.2
			c0,0.7-1.7,2-2.2,2.4c-1,0.8-3,1.5-5.2,1.3s-5.6-0.9-7.1,0c-1.5,0.9-3.4,2.5-3.7,3.7s-1.6,3.4-1.6,3.4s-34.9,4.3-34.2,2.8
			s-0.2-6.2-0.2-6.2l0.7-4.7l0.7-3.4"/>
		<polyline class="st1" points="270.8,207 267.1,194.5 276.1,162.2 320,145.9 		"/>
		<path class="st0" d="M260.1,213.4c-1.8,1-2.2,4.6-3.8,7.3c-1.6,2.7-3.2,0.8-4.7,0.8s-3.9-0.1-5.5,0.7s-3.5,2.4-5.9,2.4
			c-2.4,0-2.2,0.4-4.4-0.8c-2.1-1.3-0.8-1.3-0.3-2.3c0.6-1-1-3.5-2.8-5.6c-1.8-2.1-3.5-5.1-4.2-6.9c-0.7-1.8,0.3-9.4,1.4-11.2
			c1.1-1.8,4.6-4.1,5.5-5.3s1.1-2.4,2.4-3.8c1.3-1.4,3.1-2.8,5.2-3.7c2.1-0.9,4.4-1.4,6-0.8s7.3,1.6,7.3,1.6s2.2-0.5,2.2-1.9
			c0-1.3-1.1-14-1-15.8c0.1-1.8,1-7.7,1.7-9.4c0.7-1.7,4.1-8.9,4.8-10.1s8.4-11.8,9.4-12.2c1-0.4,7.3-3.5,8-3.4
			c0.7,0.1,9.1-2,10.7-2c1.5,0,8.2,1.6,8.7,1.8c0.5,0.3,5.7,3.1,6.4,3c0.7-0.1,4.5,2,5.3,2.5c0.8,0.6,7.2,6.8,7.2,6.8l0.3,1.7
			c0,0-1.8,4.7-2,5.3s-5.9,11.5-6.9,12.6c-1,1.1-2.5,3.1-3.7,4.4c-1.3,1.3-4,3.8-3.9,5s0.4,5.2,0.7,7.9c0.3,2.7-0.1,3.2-0.8,3
			c-0.6-0.3-0.6,0-1.5-1.2c-0.9-1.2-8.2-10.1-8.6-11c-0.4-0.9-2.4-2.7-3.7-2.6s-3.5,0.9-4.4,2s-1.7,4.3-1.7,5s-1.3,7.3-1.4,10.8
			c-0.1,3.5-0.5,9.7-1.9,12.2c-1.4,2.5-3.6,6.4-9.3,6.9s-6.9,0.2-7.8,0.7c-0.8,0.5-2.4,4-2.4,4L260.1,213.4z"/>
		<path class="st1" d="M232.1,491.3c-1.5-1.4-6.7,1.3-10.4,3.5c-3.5,2.1-6,5.8-6.1,10c-0.1,2.2,0.5,4.5,2.3,6.5
			c5.2,5.8,18.2,19.1,20.1,23.3s4.7,10.5,5.9,13.9c1.1,3.4,19.6,4,22.6,4s6.9-2.8,1-6.1c-5.9-3.3-12.3-17.3-14.5-20
			c-2.2-2.8-5.1-7.4-5.1-7.4"/>
		<path class="st0" d="M365.9,515.4c-4.6,0.7-42.5-1.2-45-1.1c-2.5,0-39.4-0.2-45.4-1.3c-5.9-1.1-14.2,0.9-17.5,1.8
			c-3.3,1-10.1,4.3-10.1,4.3s-3.9-2.8-6.7-4.9c-2.8-2.1-11-11.5-11.6-13.5c-0.6-2,0.5-11.4,0.5-11.4s3-1.1,4.7-1.3
			c1.8-0.2,5.3-2.5,5.3-2.5l4.2-2.2c0,0-0.3-4.2-0.5-6.8c-0.2-2.5,2.5,0.1,4.9,0c2.4,0,3.8-2.9,5.8-4.1s5.9-1.6,9.1-2.2
			c3.2-0.6,4,0.2,8.5,1.2c4.5,1,3.9,2.2,9,1.4c2.1-0.3,10.9-1.4,20.7-2.5l-36.5-20.4c-17.2-15.7-24.2-32.9-26.2-41.9
			c-2-9,3.4-26.2,3.7-31.5s1.1-8.4,3.4-11.2c2.2-2.8-3.4-4.5-3.4-6.7s2.2-5.6,6.7-9.6c4.4-3.9,5.7-5.1,6.2-6.7s-1.7-3.9-1.7-7.3
			s1.7-6.2,2.8-11.8c1.1-5.6-1.1-12.4-2.8-15.7s-5.1-61.9-4.5-68.9c0.6-7.1,11.1-13.6,11.1-13.6s1.7-2.4,1.7-4.3c0-1.9,3.2-3,4.7-3
			c1.5,0,1.3-0.7,2.2-2.6c0,0,8-0.1,8.4,0s22.2,0.7,24.5,1.2c2.2,0.6,1.5,2.1,1.5,2.1s0.6,1.5-0.4,2.6c-1,1.1-2.3,2.7-2.7,6.1
			s1.3,6.3,3,8.4c1.7,2.1,8.7,12.3,11.5,16.8c2.8,4.5,7.7,9.4,14.1,17.9c6.3,8.4,6.6,13.4,7.2,16.3s-0.3,8.2-2,12.8
			s-3.2,9.5-4.6,13.6c-1.4,4.1-1.5,12.4-1.3,28.5c0.2,16.1-1.1,35.6-2.6,43.7c-1.5,8.1-2.8,8.4-4.6,11.3c-1.8,2.9-2.3,3-2.3,3l0,1.6
			c0,0,1.9,4.2,2.9,5.8c1,1.6,4.2,4.1,16.4,19.1c12.2,15,34.3,46.7,38.2,54.2C391.2,508.3,365.9,515.4,365.9,515.4z"/>
		<path class="st1" d="M307.3,259.6c-2.4-0.6-4.1-1.4-6-1.4c-2,0-4.2,0.6-4.4,2.1c-0.1,1.5,0.3,3.1,1.7,4.2c1.4,1.1,4.5,2.7,5.9,3.7
			c1.4,1,3.5,1.5,1.1,2c-2.4,0.4-5.3,0.4-6.5,1.1c-1.1,0.7-1.7,2.4-1.7,2.8c0,0.4,1.5,2.7,2.4,3c0.8,0.3,7.5,0,7.5,0
			s-0.4,0.6-1.4,1.3c-1,0.7-5.5,2-6.2,2.5s-1.8,0.6-1.4,2.5c0.4,2-0.1,3.4,2.1,3.9s3.4,0.1,5.1-0.7c1.7-0.8,3.4-2.4,3.9-1.9
			c0.6,0.5,1.5,0.5,0,1.9s-3.4,3.8-4.2,5.8c-0.8,2-2.4,4.5-1.6,5.3c0.8,0.8,2.3,2.2,3.5,2.4c1.1,0.1,3.8-2.4,4.2-3s1.3-2.7,2.7-4.2
			c1.4-1.5,2.4-2.8,3.1-3.4s1.4-2,1.4-3.1s-0.6-3-0.7-4.2c-0.1-1.3,0-2.7-0.6-3.8s-1.4-1.3-1-3.2c0.4-2,0.6-2.2,1-3.4
			c0.4-1.1,0.6-2.4,0.4-3s0.3-2.7-1.3-5.9s-2.5-6.2-3.4-7.7s-1-3.4-1.1-4.8s-0.4-3.8-0.6-5.1c-0.1-1.3,0.1-2.1-0.8-3.8
			c-1-1.7-1.4-2.8-3.5-3c-2.1-0.1-4.4,0.3-4.6,1.1c-0.3,0.8-0.8,0.6,0.3,2.2c1.1,1.7,1.7,1.8,1.8,3.4s0.6,2.5,0.6,4.5
			s-0.1,3.7,0.1,4.9c0.3,1.3-0.6,1.1,0.8,3C307.3,259.6,307.3,259.6,307.3,259.6z"/>
	</g>
	<path class="st2" d="M301.8,385.4c-11.8,5.8-18.4,8.7-18.9,8.8c-1,0-2,0.6-2.6,1.4c-0.7,0.8-0.9,1.9-0.7,2.8l1.7,6.4l-6.6-4.2
		l-4.9-3.1l-21.6-13.6l17.6-36.8l2.5,9.5c0.4,1.4,1.8,2.1,3.3,1.7c7.5-1.9,13.3-3.9,25.1-10.2l0,0.1c7.2-2.3,114-64.9,120.7-69.8
		c52.3-37.1,58.5-42.2,66.7-53.3c0.8-1.1,0.7-2.7-0.3-3.7l-6.9-6.7l36,2.1l3.8,25.1l0.9,5.7l1.2,7.7l-4.6-4.5
		c-0.7-0.6-1.6-0.9-2.5-0.7c-0.9,0.2-1.7,0.8-2,1.6c-0.4,1-33.7,31.8-92.8,71.5C388.1,341.6,338.2,369.3,301.8,385.4l-0.2-1.4"/>
</g>
</svg>
