<?xml version="1.0" encoding="utf-8"?>
<!-- Generator: Adobe Illustrator 24.0.1, SVG Export Plug-In . SVG Version: 6.00 Build 0)  -->
<svg version="1.1" id="Layer_1" xmlns="http://www.w3.org/2000/svg" xmlns:xlink="http://www.w3.org/1999/xlink" x="0px" y="0px"
	 viewBox="0 0 36 48" style="enable-background:new 0 0 36 48;" xml:space="preserve">
<style type="text/css">
	.st0{fill:none;}
	.st1{fill:#FFC107;}
</style>
<title>Idea</title>
<desc>Created with Sketch.</desc>
<g>
	<path class="st0" d="M2.5,14.2h31v24.5h-31V14.2z"/>
	<path class="st0" d="M4.7,12h26.7v24.5H4.7V12z"/>
	<path class="st1" d="M18,10.3c0-1.5-1.2-2.7-2.7-2.7c-1.5,0-2.7,1.2-2.7,2.7c0,1.4,3.9,6,5.3,6c1.5,0,5.3-4.6,5.3-6
		c0-1.5-1.2-2.7-2.7-2.7C19.2,7.6,18,8.8,18,10.3"/>
	<path d="M33.5,13.6h-1.6V12c0-0.3-0.2-0.5-0.5-0.5h-7.8c0.2-0.4,0.3-0.8,0.4-1.2c0-1.7-1.5-3.1-3.2-3.1c-1.1,0-2.1,0.5-2.7,1.4
		c-0.6-0.9-1.6-1.4-2.7-1.4c-1.7,0-3.2,1.4-3.2,3.1c0,0.4,0.2,0.8,0.4,1.2H4.7c-0.3,0-0.5,0.2-0.5,0.5v1.6H2.5
		c-0.3,0-0.5,0.2-0.5,0.5v24.5c0,0.3,0.2,0.5,0.5,0.5h31c0.3,0,0.5-0.2,0.5-0.5V14.2C34,13.9,33.8,13.6,33.5,13.6z M30.8,12.6V36
		H18.5V16.7c1.3-0.5,3.2-2.4,4.3-4.1H30.8z M15.3,8.3c1.1,0,2.1,0.9,2.1,2c0,0.3,0.2,0.5,0.5,0.5s0.5-0.2,0.5-0.5c0.1-1.1,1-2,2.1-2
		c1.1,0,2.1,0.9,2.1,2c0,1.2-3.7,5.4-4.8,5.4s-4.8-4.2-4.8-5.4C13.2,9.2,14.2,8.3,15.3,8.3z M5.2,12.6h7.9c1.2,1.7,3.1,3.7,4.3,4.1
		V36H5.2V12.6z M32.9,38.2H3.1V14.7h1.1v21.9c0,0.3,0.2,0.5,0.5,0.5h26.7c0.3,0,0.5-0.2,0.5-0.5V14.7h1.1V38.2z"/>
	<path d="M7.9,17.9H10c0.3,0,0.5-0.2,0.5-0.5c0-0.3-0.2-0.5-0.5-0.5H7.9c-0.3,0-0.5,0.2-0.5,0.5C7.3,17.7,7.6,17.9,7.9,17.9z"/>
	<path d="M14.8,19H7.9c-0.3,0-0.5,0.2-0.5,0.5c0,0.3,0.2,0.5,0.5,0.5h6.9c0.3,0,0.5-0.2,0.5-0.5C15.3,19.2,15.1,19,14.8,19z"/>
	<path d="M14.8,21.1H7.9c-0.3,0-0.5,0.2-0.5,0.5c0,0.3,0.2,0.5,0.5,0.5h6.9c0.3,0,0.5-0.2,0.5-0.5C15.3,21.3,15.1,21.1,14.8,21.1z"
		/>
	<path d="M14.8,23.2H7.9c-0.3,0-0.5,0.2-0.5,0.5c0,0.3,0.2,0.5,0.5,0.5h6.9c0.3,0,0.5-0.2,0.5-0.5C15.3,23.5,15.1,23.2,14.8,23.2z"
		/>
	<path d="M14.8,25.4H7.9c-0.3,0-0.5,0.2-0.5,0.5c0,0.3,0.2,0.5,0.5,0.5h6.9c0.3,0,0.5-0.2,0.5-0.5C15.3,25.6,15.1,25.4,14.8,25.4z"
		/>
	<path d="M14.8,27.5H7.9c-0.3,0-0.5,0.2-0.5,0.5c0,0.3,0.2,0.5,0.5,0.5h6.9c0.3,0,0.5-0.2,0.5-0.5C15.3,27.7,15.1,27.5,14.8,27.5z"
		/>
	<path d="M14.8,29.6H7.9c-0.3,0-0.5,0.2-0.5,0.5c0,0.3,0.2,0.5,0.5,0.5h6.9c0.3,0,0.5-0.2,0.5-0.5C15.3,29.9,15.1,29.6,14.8,29.6z"
		/>
	<path d="M12.1,31.8H7.9c-0.3,0-0.5,0.2-0.5,0.5c0,0.3,0.2,0.5,0.5,0.5h4.3c0.3,0,0.5-0.2,0.5-0.5C12.7,32,12.4,31.8,12.1,31.8z"/>
	<path d="M21.2,17.9h2.1c0.3,0,0.5-0.2,0.5-0.5c0-0.3-0.2-0.5-0.5-0.5h-2.1c-0.3,0-0.5,0.2-0.5,0.5C20.7,17.7,20.9,17.9,21.2,17.9z"
		/>
	<path d="M20.7,19.5c0,0.3,0.2,0.5,0.5,0.5h6.9c0.3,0,0.5-0.2,0.5-0.5c0-0.3-0.2-0.5-0.5-0.5h-6.9C20.9,19,20.7,19.2,20.7,19.5z"/>
	<path d="M28.1,21.1h-6.9c-0.3,0-0.5,0.2-0.5,0.5c0,0.3,0.2,0.5,0.5,0.5h6.9c0.3,0,0.5-0.2,0.5-0.5C28.7,21.3,28.4,21.1,28.1,21.1z"
		/>
	<path d="M28.1,23.2h-6.9c-0.3,0-0.5,0.2-0.5,0.5c0,0.3,0.2,0.5,0.5,0.5h6.9c0.3,0,0.5-0.2,0.5-0.5C28.7,23.5,28.4,23.2,28.1,23.2z"
		/>
	<path d="M28.1,25.4h-6.9c-0.3,0-0.5,0.2-0.5,0.5c0,0.3,0.2,0.5,0.5,0.5h6.9c0.3,0,0.5-0.2,0.5-0.5C28.7,25.6,28.4,25.4,28.1,25.4z"
		/>
	<path d="M28.1,27.5h-6.9c-0.3,0-0.5,0.2-0.5,0.5c0,0.3,0.2,0.5,0.5,0.5h6.9c0.3,0,0.5-0.2,0.5-0.5C28.7,27.7,28.4,27.5,28.1,27.5z"
		/>
	<path d="M28.1,29.6h-6.9c-0.3,0-0.5,0.2-0.5,0.5c0,0.3,0.2,0.5,0.5,0.5h6.9c0.3,0,0.5-0.2,0.5-0.5C28.7,29.9,28.4,29.6,28.1,29.6z"
		/>
	<path d="M25.5,31.8h-4.3c-0.3,0-0.5,0.2-0.5,0.5c0,0.3,0.2,0.5,0.5,0.5h4.3c0.3,0,0.5-0.2,0.5-0.5C26,32,25.8,31.8,25.5,31.8z"/>
</g>
</svg>
