<svg xmlns="http://www.w3.org/2000/svg" width="34" height="32" viewBox="0 0 34 32">
    <path fill="#000" fill-rule="evenodd" d="M25.646 29.15c-4.005 2.377-9.512 2.621-15.052.18C6.108 27.37 2.386 23.936 0 20.013c1.145.98 2.481 1.766 3.913 2.452 5.721 2.756 11.442 2.568 15.467.007a.044.044 0 0 1-.006-.007C13.648 17.951 8.78 12.066 5.154 7.259c-.764-.785-1.337-1.766-1.91-2.649 4.391 4.12 11.358 9.32 13.84 10.792-5.25-5.69-9.926-12.753-9.736-12.557 8.304 8.632 16.035 13.537 16.035 13.537.256.149.453.272.612.382.167-.437.314-.891.438-1.362C25.769 10.399 24.242 4.708 20.9 0c7.73 4.807 12.312 13.831 10.403 21.385-.05.204-.104.405-.162.603l.066.084c3.818 4.906 2.768 10.104 2.29 9.124-2.07-4.165-5.903-2.892-7.852-2.047z"/>
</svg>
