<?xml version="1.0" encoding="UTF-8"?>
<svg width="25px" height="20px" viewBox="0 0 25 20" version="1.1" xmlns="http://www.w3.org/2000/svg" xmlns:xlink="http://www.w3.org/1999/xlink">
    <!-- Generator: Sketch 52.6 (67491) - http://www.bohemiancoding.com/sketch -->
    <title>twitter</title>
    <desc>Created with Sketch.</desc>
    <g id="Page-1" stroke="none" stroke-width="1" fill="none" fill-rule="evenodd">
        <g id="twitter" fill="#000000">
            <path d="M16.3333333,0.00444444444 L16.3333333,0 L17.4788889,0 L17.8977778,0.0844444444 C18.1766667,0.14 18.4311111,0.211111111 18.6588889,0.3 C18.8866667,0.388888889 19.1066667,0.492222222 19.32,0.611111111 C19.5333333,0.728888889 19.7255556,0.848888889 19.8988889,0.972222222 C20.0711111,1.09444444 20.2255556,1.22222222 20.3622222,1.35888889 C20.4977778,1.49666667 20.7088889,1.53111111 20.9955556,1.46555556 C21.2811111,1.39888889 21.59,1.30555556 21.9211111,1.18777778 C22.2511111,1.06888889 22.5777778,0.935555556 22.9011111,0.787777778 C23.2244444,0.64 23.4222222,0.545555556 23.4922222,0.505555556 C23.529429,0.48361745 23.5664671,0.461394575 23.6033333,0.438888889 L23.6066667,0.433333333 L23.6288889,0.422222222 L23.6511111,0.411111111 L23.6733333,0.4 L23.6955556,0.388888889 L23.6988889,0.382222222 L23.7055556,0.377777778 L23.7122222,0.373333333 L23.7166667,0.366666667 L23.7388889,0.36 L23.7611111,0.355555556 L23.7566667,0.388888889 L23.75,0.422222222 L23.7388889,0.455555556 L23.7277778,0.488888889 L23.7166667,0.511111111 L23.7055556,0.533333333 L23.6944444,0.566666667 C23.6852942,0.595833166 23.6778739,0.625514431 23.6722222,0.655555556 C23.6655556,0.692222222 23.5955556,0.84 23.4633333,1.09888889 C23.3311111,1.35777778 23.1655556,1.62111111 22.9677778,1.88777778 C22.7688889,2.15333333 22.5911111,2.35444444 22.4344444,2.49111111 C22.2755556,2.62777778 22.17,2.72444444 22.1188889,2.78 C22.0635987,2.83964619 22.000861,2.89192759 21.9322222,2.93555556 L21.8211111,3.00777778 L21.7988889,3.01888889 L21.7766667,3.03 L21.7733333,3.03666667 L21.7666667,3.04111111 L21.76,3.04555556 L21.7555556,3.05222222 L21.7333333,3.06333333 L21.7111111,3.07444444 L21.7066667,3.08111111 L21.7,3.08555556 L21.6933333,3.09 L21.6888889,3.09666667 L21.6844444,3.10333333 L21.6777778,3.10777778 L21.6711111,3.11222222 L21.6666667,3.11888889 L21.7777778,3.11888889 L22.3944444,2.98555556 C22.8055556,2.89666667 23.1988889,2.79 23.5733333,2.66333333 L24.1688889,2.46333333 L24.2355556,2.44111111 L24.2688889,2.43 L24.2911111,2.41888889 L24.3122222,2.40777778 L24.3344444,2.39666667 L24.3566667,2.38555556 L24.4011111,2.38 L24.4444444,2.37555556 L24.4444444,2.42 L24.4333333,2.42444444 L24.4222222,2.43111111 L24.4177778,2.43777778 L24.4111111,2.44222222 L24.4044444,2.44666667 L24.4,2.45333333 L24.3955556,2.46 L24.3888889,2.46444444 L24.3822222,2.46888889 L24.3777778,2.47555556 L24.3744444,2.48222222 L24.3677778,2.48666667 L24.3566667,2.50888889 L24.3455556,2.53111111 L24.3388889,2.53444444 L24.0588889,2.91222222 C23.8755556,3.16111111 23.7755556,3.28666667 23.7611111,3.29 C23.7466667,3.29444444 23.7255556,3.31666667 23.6988889,3.35666667 C23.6744444,3.39777778 23.5188889,3.56222222 23.2322222,3.85111111 C22.9455556,4.14 22.6655556,4.39555556 22.39,4.62111111 C22.1144444,4.84777778 21.9744444,5.12666667 21.9711111,5.45666667 C21.9666667,5.78444444 21.95,6.15666667 21.9211111,6.57 C21.8911111,6.98444444 21.8366667,7.43222222 21.7544444,7.91444444 C21.6744444,8.39444444 21.55,8.93777778 21.3811111,9.54444444 C21.2128013,10.1490842 21.0064645,10.742488 20.7633333,11.3211111 C20.5211111,11.8988889 20.2677778,12.4155556 20.0033333,12.8744444 C19.594871,13.6003168 19.1265813,14.2908582 18.6033333,14.9388889 C18.3755556,15.22 18.0877778,15.5366667 17.7388889,15.8888889 C17.39,16.24 17.1988889,16.4322222 17.1666667,16.4666667 C17.1333333,16.4988889 16.9888889,16.62 16.7333333,16.83 C16.4811111,17.0411111 16.21,17.2533333 15.9188889,17.4655556 C15.63,17.6755556 15.3633333,17.85 15.1211111,17.9911111 C14.8777778,18.1322222 14.5855556,18.2922222 14.2433333,18.4733333 C13.884624,18.6632992 13.5151033,18.8321064 13.1366667,18.9788889 C12.74,19.1344444 12.3211111,19.2788889 11.8811111,19.4122222 C11.44,19.5455556 11.0144444,19.6488889 10.6022222,19.7233333 C10.1911111,19.7966667 9.72444444,19.8588889 9.20222222,19.9122222 L8.42,19.9888889 L8.42,20 L6.98666667,20 L6.98666667,19.9888889 L6.8,19.9777778 C6.69692828,19.9719688 6.59395291,19.9645605 6.49111111,19.9555556 C6.18579428,19.9186632 5.88095519,19.8779192 5.57666667,19.8333333 C5.04777778,19.76 4.63222222,19.6855556 4.33222222,19.6111111 C3.87787016,19.4896839 3.4289386,19.3488135 2.98666667,19.1888889 C2.46464332,19.0121505 1.95435909,18.80247 1.45888889,18.5611111 C1.03666667,18.3511111 0.773333333,18.2177778 0.665555556,18.1611111 C0.544230801,18.0976982 0.425262613,18.0298752 0.308888889,17.9577778 L0.11,17.8355556 L0.105555556,17.8288889 L0.0988888889,17.8244444 L0.0922222222,17.82 L0.0877777778,17.8133333 L0.0655555556,17.8022222 L0.0433333333,17.7911111 L0.04,17.7844444 L0.0333333333,17.78 L0.0266666667,17.7755556 L0.0222222222,17.7688889 L0.0177777778,17.7622222 L0.0111111111,17.7577778 L0,17.7577778 L0,17.7133333 L0.0222222222,17.7177778 L0.0444444444,17.7244444 L0.143333333,17.7355556 C0.21,17.7433333 0.388888889,17.7544444 0.683333333,17.7688889 C1.75437031,17.8198111 2.82655194,17.695968 3.85777778,17.4022222 C4.30038979,17.2861312 4.73349875,17.1364374 5.15333333,16.9544444 C5.54555556,16.78 5.82444444,16.65 5.99111111,16.5633333 C6.25058183,16.4204817 6.50206658,16.263582 6.74444444,16.0933333 L7.25222222,15.7488889 L7.25666667,15.7422222 L7.26333333,15.7377778 L7.26888889,15.7333333 L7.27333333,15.7266667 L7.27777778,15.72 L7.28444444,15.7155556 L7.29111111,15.7111111 L7.29555556,15.7044444 L7.31777778,15.6977778 L7.34,15.6933333 L7.34444444,15.6711111 L7.35111111,15.6488889 L7.35777778,15.6444444 L7.36222222,15.6377778 L7.18555556,15.6266667 C7.07183655,15.619496 6.9581326,15.6120886 6.84444444,15.6044444 C6.66908139,15.5850686 6.49555961,15.5516276 6.32555556,15.5044444 C6.06539626,15.436357 5.81122099,15.3471727 5.56555556,15.2377778 C5.29070825,15.1179493 5.025482,14.977164 4.77222222,14.8166667 C4.57470459,14.6981883 4.38805161,14.5624745 4.21444444,14.4111111 C4.06252218,14.2648316 3.91540708,14.1136403 3.77333333,13.9577778 C3.60083654,13.7695672 3.44471464,13.5669805 3.30666667,13.3522222 C3.16234925,13.1227326 3.035331,12.8828092 2.92666667,12.6344444 L2.74444444,12.2311111 L2.73333333,12.1977778 L2.72222222,12.1644444 L2.71555556,12.1422222 L2.71111111,12.12 L2.74444444,12.1244444 L2.77777778,12.1311111 L3.02,12.1644444 C3.18111111,12.1866667 3.43444444,12.1933333 3.78,12.1866667 C4.12555556,12.1788889 4.36444444,12.1644444 4.49666667,12.1422222 C4.57778957,12.1295717 4.65855925,12.1147516 4.73888889,12.0977778 L4.78333333,12.0866667 L4.83888889,12.0755556 L4.89333333,12.0644444 L4.89777778,12.0577778 L4.90444444,12.0533333 L4.91111111,12.0488889 L4.91555556,12.0422222 L4.87111111,12.0311111 L4.82666667,12.02 L4.78222222,12.0088889 L4.73888889,11.9977778 L4.69444444,11.9866667 C4.6430448,11.972866 4.59192366,11.9580483 4.54111111,11.9422222 C4.33954872,11.8683634 4.140885,11.7868223 3.94555556,11.6977778 C3.67589739,11.5858542 3.41766446,11.4481796 3.17444444,11.2866667 C2.98286093,11.1532334 2.80024586,11.007364 2.62777778,10.85 C2.42534468,10.6573149 2.23603285,10.4512991 2.06111111,10.2333333 C1.84380303,9.96323521 1.65884198,9.66864 1.51,9.35555556 C1.35882783,9.05006382 1.23716483,8.73083796 1.14666667,8.40222222 C1.06601717,8.10023183 1.01283772,7.79156787 0.987777778,7.48 L0.947777778,7.01444444 L0.97,7.01888889 L0.992222222,7.02555556 L1.01444444,7.03666667 L1.03666667,7.04777778 L1.05888889,7.05888889 L1.08,7.07 L1.42222222,7.22555556 C1.65,7.32888889 1.93333333,7.41777778 2.27,7.49222222 C2.60777778,7.56555556 2.81,7.60666667 2.87666667,7.61444444 L2.97666667,7.62555556 L3.17444444,7.62555556 L3.17,7.61777778 L3.16333333,7.61333333 L3.15666667,7.60888889 L3.15222222,7.60222222 L3.14777778,7.59555556 L3.14111111,7.59111111 L3.13444444,7.58666667 L3.13,7.58 L3.10777778,7.56888889 L3.08555556,7.55777778 L3.08111111,7.55111111 L3.07444444,7.54666667 L3.06777778,7.54222222 L3.06333333,7.53555556 L3.04111111,7.52444444 L3.01888889,7.51333333 L3.01555556,7.50666667 L2.82666667,7.36555556 C2.68930931,7.25655181 2.56212163,7.13531443 2.44666667,7.00333333 C2.31080751,6.85090616 2.17854879,6.69530766 2.05,6.53666667 C1.91761389,6.37357182 1.79975677,6.19920276 1.69777778,6.01555556 C1.57456682,5.78726996 1.46547313,5.55164243 1.37111111,5.31 C1.15302563,4.76372886 1.03231263,4.18347916 1.01444444,3.59555556 C1.00666667,3.31444444 1.01444444,3.07333333 1.03666667,2.87444444 C1.05888889,2.67444444 1.10222222,2.44888889 1.16777778,2.19666667 C1.24187892,1.92351314 1.33774103,1.65673408 1.45444444,1.39888889 L1.64222222,0.976666667 L1.65333333,0.943333333 L1.66444444,0.91 L1.67111111,0.905555556 L1.67555556,0.898888889 L1.68,0.892222222 L1.68666667,0.888888889 L1.69333333,0.893333333 L1.69777778,0.9 L1.70111111,0.906666667 L1.70777778,0.911111111 L1.71444444,0.915555556 L1.71888889,0.922222222 L1.72333333,0.928888889 L1.73,0.933333333 L1.74111111,0.955555556 L1.75222222,0.977777778 L1.75888889,0.982222222 L1.76333333,0.988888889 L2.06111111,1.32222222 C2.25888889,1.54444444 2.49444444,1.79222222 2.76666667,2.06555556 C3.03777778,2.33888889 3.18888889,2.48111111 3.21777778,2.49222222 C3.24777778,2.50333333 3.28444444,2.53666667 3.32888889,2.59333333 C3.37333333,2.64888889 3.51888889,2.78 3.76888889,2.98666667 C4.01888889,3.19333333 4.34666667,3.43444444 4.75,3.70888889 C5.15444444,3.98222222 5.60222222,4.25222222 6.09444444,4.51777778 C6.58666667,4.78444444 7.11666667,5.02555556 7.68111111,5.24 C8.24777778,5.45444444 8.64444444,5.59555556 8.87222222,5.66222222 C9.1,5.72888889 9.48888889,5.81333333 10.04,5.91777778 C10.5911111,6.02 11.0066667,6.08666667 11.2844444,6.11666667 C11.5644444,6.14666667 11.7555556,6.16333333 11.8588889,6.16777778 L12.0133333,6.17222222 L12.0088889,6.13888889 L12.0022222,6.10555556 L11.9577778,5.82777778 C11.9288889,5.64333333 11.9133333,5.38333333 11.9133333,5.05111111 C11.9133333,4.71777778 11.9388889,4.41111111 11.9911111,4.12888889 C12.0422222,3.84888889 12.1188889,3.56333333 12.2222222,3.27555556 C12.3255556,2.98666667 12.4255556,2.75555556 12.5244444,2.58 C12.6244444,2.40777778 12.7544444,2.21 12.9166667,1.98777778 C13.0777778,1.76555556 13.2877778,1.53666667 13.5444444,1.29888889 C13.8022222,1.06333333 14.0955556,0.852222222 14.4266667,0.666666667 C14.7566667,0.482222222 15.0622222,0.341111111 15.3411111,0.244444444 C15.62,0.148888889 15.8555556,0.0866666667 16.0466667,0.0555555556 C16.2377778,0.0266666667 16.3333333,0.01 16.3333333,0.00555555556 L16.3333333,0.00444444444 Z" id="Path"></path>
        </g>
    </g>
</svg>