<?xml version="1.0" encoding="UTF-8"?>
<svg width="800px" height="592px" viewBox="0 0 800 592" version="1.1" xmlns="http://www.w3.org/2000/svg" xmlns:xlink="http://www.w3.org/1999/xlink">
    <!-- Generator: Sketch 53.2 (72643) - https://sketchapp.com -->
    <title>Aerum</title>
    <desc>Created with Sketch.</desc>
    <defs>
        <path d="M3.217,20.678 L35.51,39.322 L67.582,20.684 L35.29,2.04 L3.217,20.678 Z M35.011,41.344 L0.722,21.547 L0.72,19.816 L34.786,0.019 L35.788,0.018 L70.077,19.814 L70.08,21.545 L36.014,41.342 L35.011,41.344 L35.011,41.344 Z" id="path-1"></path>
        <path d="M2.401,22.06 L2.506,59.155 L34.809,40.505 L34.704,3.41 L2.401,22.06 Z M2.011,61.75 L0.511,60.887 L0.4,21.486 L0.9,20.617 L35.199,0.814 L36.699,1.678 L36.811,41.078 L36.311,41.947 L2.011,61.75 L2.011,61.75 Z" id="path-3"></path>
        <polyline id="path-5" points="34.521 59.884 34.633 20.483 0.334 0.681 0.222 40.081 34.521 59.884"></polyline>
        <path d="M2.601,20.677 L34.893,39.32 L66.965,20.682 L34.673,2.039 L2.601,20.677 Z M34.395,41.342 L0.105,21.546 L0.103,19.815 L34.169,0.018 L35.171,0.017 L69.46,19.813 L69.463,21.544 L35.397,41.341 L34.395,41.342 L34.395,41.342 Z" id="path-7"></path>
        <path d="M2.785,22.058 L2.89,59.154 L35.192,40.504 L35.087,3.409 L2.785,22.058 Z M2.395,61.749 L0.895,60.886 L0.783,21.485 L1.283,20.616 L35.582,0.813 L37.082,1.677 L37.194,41.077 L36.694,41.946 L2.395,61.749 L2.395,61.749 Z" id="path-9"></path>
        <path d="M2.607,40.504 L34.91,59.154 L35.015,22.058 L2.712,3.409 L2.607,40.504 Z M35.405,61.749 L1.105,41.946 L0.605,41.077 L0.717,1.677 L2.217,0.813 L36.517,20.616 L37.017,21.485 L36.905,60.886 L35.405,61.749 L35.405,61.749 Z" id="path-11"></path>
        <path d="M3.026,13.939 L22.161,24.986 L41.163,13.944 L22.028,2.896 L3.026,13.939 Z M21.663,27.008 L0.531,14.808 L0.528,13.077 L21.523,0.876 L22.526,0.874 L43.658,13.075 L43.661,14.806 L22.665,27.007 L21.663,27.008 L21.663,27.008 Z" id="path-13"></path>
        <polyline id="path-15" points="0.164 37.428 0.095 13.146 21.233 0.941 21.302 25.224 0.164 37.428"></polyline>
        <path d="M2.033,24.648 L21.175,35.699 L21.236,13.722 L2.096,2.671 L2.033,24.648 Z M21.67,38.294 L0.531,26.09 L0.031,25.221 L0.101,0.938 L1.601,0.075 L22.738,12.28 L23.238,13.149 L23.17,37.431 L21.67,38.294 L21.67,38.294 Z" id="path-17"></path>
    </defs>
    <g id="Scenarios" stroke="none" stroke-width="1" fill="none" fill-rule="evenodd">
        <g id="-g-Exyte_Illustrations" transform="translate(-300.000000, -150.000000)">
            <g id="Aerum" transform="translate(421.000000, 239.000000)">
                <path d="M24.72,168.678 L57.013,187.322 L89.085,168.684 L56.793,150.04 L24.72,168.678 Z M56.514,189.344 L22.225,169.547 L22.223,167.816 L56.289,148.019 L57.291,148.018 L91.58,167.814 L91.583,169.545 L57.517,189.342 L56.514,189.344 L56.514,189.344 Z" id="Fill-1" fill="#1B1A19"></path>
                <g id="Group-4" transform="translate(21.503000, 148.000000)">
                    <mask id="mask-2" fill="white">
                        <use xlink:href="#path-1"></use>
                    </mask>
                    <g id="Clip-3"></g>
                    <path d="M3.217,20.678 L35.51,39.322 L67.582,20.684 L35.29,2.04 L3.217,20.678 Z M35.011,41.344 L0.722,21.547 L0.72,19.816 L34.786,0.019 L35.788,0.018 L70.077,19.814 L70.08,21.545 L36.014,41.342 L35.011,41.344 L35.011,41.344 Z" id="Fill-2" fill="#1B1A19" mask="url(#mask-2)"></path>
                </g>
                <path d="M57.904,189.06 L58.009,226.155 L90.312,207.505 L90.207,170.41 L57.904,189.06 Z M57.514,228.75 L56.014,227.887 L55.903,188.486 L56.403,187.617 L90.702,167.814 L92.202,168.678 L92.314,208.078 L91.814,208.947 L57.514,228.75 L57.514,228.75 Z" id="Fill-5" fill="#1B1A19"></path>
                <g id="Group-8" transform="translate(55.503000, 167.000000)">
                    <mask id="mask-4" fill="white">
                        <use xlink:href="#path-3"></use>
                    </mask>
                    <g id="Clip-7"></g>
                    <path d="M2.401,22.06 L2.506,59.155 L34.809,40.505 L34.704,3.41 L2.401,22.06 Z M2.011,61.75 L0.511,60.887 L0.4,21.486 L0.9,20.617 L35.199,0.814 L36.699,1.678 L36.811,41.078 L36.311,41.947 L2.011,61.75 L2.011,61.75 Z" id="Fill-6" fill="#1B1A19" mask="url(#mask-4)"></path>
                </g>
                <polyline id="Fill-9" fill="#1B1A19" points="57.024 227.884 57.136 188.483 22.837 168.681 22.725 208.081 57.024 227.884"></polyline>
                <g id="Group-12" transform="translate(22.503000, 168.000000)">
                    <mask id="mask-6" fill="white">
                        <use xlink:href="#path-5"></use>
                    </mask>
                    <g id="Clip-11"></g>
                    <polyline id="Fill-10" fill="#1B1A19" mask="url(#mask-6)" points="0.334 0.681 34.633 20.483 34.521 59.884 0.222 40.081 0.334 0.681"></polyline>
                </g>
                <path d="M144.104,249.677 L176.396,268.32 L208.468,249.682 L176.176,231.039 L144.104,249.677 Z M175.898,270.342 L141.608,250.546 L141.606,248.815 L175.672,229.018 L176.674,229.017 L210.963,248.813 L210.966,250.544 L176.9,270.341 L175.898,270.342 L175.898,270.342 Z" id="Fill-13" fill="#1B1A19"></path>
                <g id="Group-16" transform="translate(141.503000, 229.000000)">
                    <mask id="mask-8" fill="white">
                        <use xlink:href="#path-7"></use>
                    </mask>
                    <g id="Clip-15"></g>
                    <path d="M2.601,20.677 L34.893,39.32 L66.965,20.682 L34.673,2.039 L2.601,20.677 Z M34.395,41.342 L0.105,21.546 L0.103,19.815 L34.169,0.018 L35.171,0.017 L69.46,19.813 L69.463,21.544 L35.397,41.341 L34.395,41.342 L34.395,41.342 Z" id="Fill-14" fill="#1B1A19" mask="url(#mask-8)"></path>
                </g>
                <path d="M177.288,270.058 L177.393,307.154 L209.695,288.504 L209.59,251.409 L177.288,270.058 Z M176.898,309.749 L175.398,308.886 L175.286,269.485 L175.786,268.616 L210.085,248.813 L211.585,249.677 L211.697,289.077 L211.197,289.946 L176.898,309.749 L176.898,309.749 Z" id="Fill-17" fill="#1B1A19"></path>
                <g id="Group-20" transform="translate(174.503000, 248.000000)">
                    <mask id="mask-10" fill="white">
                        <use xlink:href="#path-9"></use>
                    </mask>
                    <g id="Clip-19"></g>
                    <path d="M2.785,22.058 L2.89,59.154 L35.192,40.504 L35.087,3.409 L2.785,22.058 Z M2.395,61.749 L0.895,60.886 L0.783,21.485 L1.283,20.616 L35.582,0.813 L37.082,1.677 L37.194,41.077 L36.694,41.946 L2.395,61.749 L2.395,61.749 Z" id="Fill-18" fill="#1B1A19" mask="url(#mask-10)"></path>
                </g>
                <path d="M143.11,288.504 L175.413,307.154 L175.518,270.058 L143.215,251.409 L143.11,288.504 Z M175.908,309.749 L141.608,289.946 L141.108,289.077 L141.22,249.677 L142.72,248.813 L177.02,268.616 L177.52,269.485 L177.408,308.886 L175.908,309.749 L175.908,309.749 Z" id="Fill-21" fill="#1B1A19"></path>
                <g id="Group-24" transform="translate(140.503000, 248.000000)">
                    <mask id="mask-12" fill="white">
                        <use xlink:href="#path-11"></use>
                    </mask>
                    <g id="Clip-23"></g>
                    <path d="M2.607,40.504 L34.91,59.154 L35.015,22.058 L2.712,3.409 L2.607,40.504 Z M35.405,61.749 L1.105,41.946 L0.605,41.077 L0.717,1.677 L2.217,0.813 L36.517,20.616 L37.017,21.485 L36.905,60.886 L35.405,61.749 L35.405,61.749 Z" id="Fill-22" fill="#1B1A19" mask="url(#mask-12)"></path>
                </g>
                <path d="M347.529,13.939 L366.664,24.986 L385.666,13.944 L366.531,2.896 L347.529,13.939 Z M366.166,27.008 L345.034,14.808 L345.031,13.077 L366.026,0.876 L367.029,0.874 L388.161,13.075 L388.164,14.806 L367.168,27.007 L366.166,27.008 L366.166,27.008 Z" id="Fill-25" fill="#1B1A19"></path>
                <g id="Group-28" transform="translate(344.503000, 0.000000)">
                    <mask id="mask-14" fill="white">
                        <use xlink:href="#path-13"></use>
                    </mask>
                    <g id="Clip-27"></g>
                    <path d="M3.026,13.939 L22.161,24.986 L41.163,13.944 L22.028,2.896 L3.026,13.939 Z M21.663,27.008 L0.531,14.808 L0.528,13.077 L21.523,0.876 L22.526,0.874 L43.658,13.075 L43.661,14.806 L22.665,27.007 L21.663,27.008 L21.663,27.008 Z" id="Fill-26" fill="#1B1A19" mask="url(#mask-14)"></path>
                </g>
                <polyline id="Fill-29" fill="#1B1A19" points="366.667 50.428 366.598 26.146 387.736 13.941 387.805 38.224 366.667 50.428"></polyline>
                <g id="Group-32" transform="translate(366.503000, 13.000000)">
                    <mask id="mask-16" fill="white">
                        <use xlink:href="#path-15"></use>
                    </mask>
                    <g id="Clip-31"></g>
                    <polyline id="Fill-30" fill="#1B1A19" mask="url(#mask-16)" points="21.233 0.941 0.095 13.146 0.164 37.428 21.302 25.224 21.233 0.941"></polyline>
                </g>
                <path d="M346.536,37.648 L365.678,48.699 L365.739,26.722 L346.599,15.671 L346.536,37.648 Z M366.173,51.294 L345.034,39.09 L344.534,38.221 L344.604,13.938 L346.104,13.075 L367.241,25.28 L367.741,26.149 L367.673,50.431 L366.173,51.294 L366.173,51.294 Z" id="Fill-33" fill="#1B1A19"></path>
                <g id="Group-36" transform="translate(344.503000, 13.000000)">
                    <mask id="mask-18" fill="white">
                        <use xlink:href="#path-17"></use>
                    </mask>
                    <g id="Clip-35"></g>
                    <path d="M2.033,24.648 L21.175,35.699 L21.236,13.722 L2.096,2.671 L2.033,24.648 Z M21.67,38.294 L0.531,26.09 L0.031,25.221 L0.101,0.938 L1.601,0.075 L22.738,12.28 L23.238,13.149 L23.17,37.431 L21.67,38.294 L21.67,38.294 Z" id="Fill-34" fill="#1B1A19" mask="url(#mask-18)"></path>
                </g>
                <path d="M84.264,322.429 C81.547,322.43 78.828,321.816 76.704,320.591 C74.494,319.314 73.27,317.558 73.258,315.645 L73.258,276.889 L75.258,276.889 L75.258,315.639 C75.265,316.807 76.134,317.952 77.704,318.858 C81.327,320.951 87.204,320.951 90.803,318.86 C92.358,317.956 93.211,316.814 93.204,315.646 L93.204,276.889 L95.2040746,276.889 L95.204,315.64 C95.215,317.55 94.009,319.31 91.808,320.589 C89.697,321.816 86.982,322.429 84.264,322.429" id="Fill-37" fill="#1B1A19"></path>
                <path d="M63.931,164.598 C60.022,162.341 53.711,162.339 49.826,164.596 C45.946,166.851 45.966,170.509 49.876,172.766 C53.782,175.021 60.097,175.021 63.977,172.766 C67.861,170.509 67.837,166.853 63.931,164.598" id="Fill-38" fill="#1B1A19"></path>
                <polyline id="Fill-39" fill="#1B1A19" points="282.351 183.884 141.225 183.884 141.225 60.55 334.166 60.55 334.166 131.083 332.166 131.083 332.166 62.55 143.225 62.55 143.225 181.884 282.351 181.884 282.351 183.884"></polyline>
                <path d="M204.5,159.551 C188.5,158.217 189.833,143.551 184.5,132.217 C180.35,123.399 164.895,121.439 142.225,113.782 L142.225,182.884 L257.5,182.884 C249.166,182.884 240.137,173.05 232,164.384 C223.862,155.717 220.5,160.884 204.5,159.551" id="Fill-40" fill="#1B1A19"></path>
                <polygon id="Fill-41" fill="#1B1A19" points="193.491 279.978 271.916 279.978 271.916 277.978 193.491 277.978"></polygon>
                <polyline id="Fill-42" fill="#1B1A19" points="428.999 279.978 394.416 279.978 394.416 277.978 426.999 277.978 426.999 108.884 428.999 108.884 428.999 279.978"></polyline>
                <polygon id="Fill-43" fill="#1B1A19" points="333.166 94.884 412.999 94.884 412.999 92.884 333.166 92.884"></polygon>
                <polyline id="Fill-44" fill="#1B1A19" points="57.903 168.681 55.903 168.681 55.903 92.884 173.75 92.884 173.75 94.884 57.903 94.884 57.903 168.681"></polyline>
                <polyline id="Fill-45" fill="#1B1A19" points="74.258 279.978 55.903 279.978 55.903 245.884 57.903 245.884 57.903 277.978 74.258 277.978 74.258 279.978"></polyline>
                <polygon id="Fill-46" fill="#1B1A19" points="94.204 279.978 128 279.978 128 277.978 94.204 277.978"></polygon>
                <path d="M142.643,385.884 L210.163,385.884 L176.403,327.411 L142.643,385.884 Z M213.627,387.884 L139.179,387.884 L176.403,323.411 L213.627,387.884 L213.627,387.884 Z" id="Fill-47" fill="#1B1A19"></path>
                <polyline id="Fill-48" fill="#1B1A19" points="140.911 386.884 193.608 355.211 211.895 386.884 140.911 386.884"></polyline>
                <path d="M272.916,347.983 L393.416,347.983 L393.416,260.28 L272.916,260.28 L272.916,347.983 Z M270.916,349.983 L395.416,349.983 L395.416,258.28 L270.916,258.28 L270.916,349.983 Z" id="Fill-49" fill="#1B1A19"></path>
                <path d="M272.916,285.983 L393.416,285.983 L393.416,260.28 L272.916,260.28 L272.916,285.983 Z M270.916,287.983 L395.416,287.983 L395.416,258.28 L270.916,258.28 L270.916,287.983 Z" id="Fill-50" fill="#1B1A19"></path>
                <path d="M286.768,334.634 L351.666,334.634 L351.666,302.134 L286.768,302.134 L286.768,334.634 Z M284.768,336.634 L353.666,336.634 L353.666,300.134 L284.768,300.134 L284.768,336.634 Z" id="Fill-51" fill="#1B1A19"></path>
                <path d="M381.916,328.884 C381.916,332.612 378.894,335.634 375.166,335.634 C371.439,335.634 368.416,332.612 368.416,328.884 C368.416,325.156 371.439,322.134 375.166,322.134 C378.894,322.134 381.916,325.156 381.916,328.884" id="Fill-52" fill="#1B1A19"></path>
                <path d="M285.768,277.183 C283.421,277.183 281.518,275.28 281.518,272.933 C281.518,270.585 283.421,268.683 285.768,268.683 C288.115,268.683 290.018,270.585 290.018,272.933 C290.018,275.28 288.115,277.183 285.768,277.183 Z M271.916,286.784 L299.619,286.784 L299.619,259.081 L271.916,259.081 L271.916,286.784 Z" id="Fill-53" fill="#1B1A19"></path>
                <path d="M334.151,132.083 C306.14,132.083 283.351,154.872 283.351,182.884 C283.351,210.896 306.14,233.685 334.151,233.685 C362.163,233.685 384.952,210.896 384.952,182.884 C384.952,154.872 362.163,132.083 334.151,132.083 Z M334.151,235.685 C305.037,235.685 281.351,211.998 281.351,182.884 C281.351,153.77 305.037,130.083 334.151,130.083 C363.266,130.083 386.952,153.77 386.952,182.884 C386.952,211.998 363.266,235.685 334.151,235.685 L334.151,235.685 Z" id="Fill-54" fill="#1B1A19"></path>
                <path d="M340.61,183.823 L318.69,183.823 L318.69,181.823 L340.61,181.823 C345.024,181.823 348.614,178.233 348.614,173.82 C348.614,169.407 345.024,165.816 340.61,165.816 L318.69,165.816 L318.69,163.816 L340.61,163.816 C346.127,163.816 350.614,168.304 350.614,173.82 C350.614,179.336 346.127,183.823 340.61,183.823" id="Fill-55" fill="#1B1A19"></path>
                <path d="M340.61,201.83 L318.69,201.83 L318.69,199.83 L340.61,199.83 C345.024,199.83 348.614,196.24 348.614,191.827 C348.614,187.414 345.024,183.823 340.61,183.823 L318.69,183.823 L318.69,181.823 L340.61,181.823 C346.127,181.823 350.614,186.311 350.614,191.827 C350.614,197.343 346.127,201.83 340.61,201.83" id="Fill-56" fill="#1B1A19"></path>
                <polygon id="Fill-57" fill="#1B1A19" points="322.129 203.353 324.129 203.353 324.129 162.415 322.129 162.415"></polygon>
                <path d="M193.469,271.023 C189.647,273.23 186.556,278.582 186.569,282.975 C186.581,287.37 189.691,289.139 193.514,286.932 C197.339,284.724 200.426,279.376 200.414,274.981 C200.401,270.588 197.294,268.814 193.469,271.023" id="Fill-58" fill="#1B1A19"></path>
                <path d="M457.191,373.535 L448.487,368.273 L448.508,367.687 C448.569,365.914 450.044,324.189 451.612,318.442 C453.174,312.717 478.373,261.039 479.445,258.842 L481.242,259.719 C480.981,260.255 455.055,313.423 453.542,318.969 C452.131,324.139 450.716,361.978 450.527,367.17 L456.14,370.563 C458.129,364.986 466.627,340.688 466.388,333.289 C466.348,332.048 466.191,329.202 466.007,326.769 C465.768,323.591 466.851,320.413 468.979,318.048 C486.137,298.972 497.127,286.174 498.377,283.813 C500.636,279.546 504.171,267.556 504.207,267.436 L506.125,267.999 C505.979,268.5 502.497,280.305 500.145,284.749 C498.307,288.219 480.761,307.939 470.465,319.386 C468.701,321.347 467.803,323.983 468.001,326.619 C468.187,329.078 468.346,331.963 468.386,333.225 C468.669,341.944 458.06,371.154 457.607,372.393 L457.191,373.535" id="Fill-59" fill="#1B1A19"></path>
                <polygon id="Fill-60" fill="#1B1A19" points="7.10542736e-15 246.884 39.931 246.884 39.931 244.884 7.10542736e-15 244.884"></polygon>
                <path d="M427.999,79.884 C420.279,79.884 413.999,86.164 413.999,93.884 C413.999,101.604 420.279,107.884 427.999,107.884 C435.719,107.884 441.999,101.604 441.999,93.884 C441.999,86.164 435.719,79.884 427.999,79.884 Z M427.999,109.884 C419.177,109.884 411.999,102.706 411.999,93.884 C411.999,85.062 419.177,77.884 427.999,77.884 C436.821,77.884 443.999,85.062 443.999,93.884 C443.999,102.706 436.821,109.884 427.999,109.884 L427.999,109.884 Z" id="Fill-61" fill="#1B1A19"></path>
                <path d="M459.159,232.026 C457.932,232.026 456.837,231.637 455.75,231.184 C453.709,230.333 432.415,219.691 431.51,219.238 L430.971,218.969 L430.795,210.938 L432.176,211.451 C441.538,214.933 456.277,220.112 458.507,220.112 C460.419,220.112 472.328,213.621 482.563,207.513 L483.588,209.231 C479.983,211.382 461.834,222.112 458.507,222.112 C455.557,222.112 438.251,215.823 432.859,213.836 L432.943,217.719 C436.348,219.419 454.716,228.587 456.52,229.338 C458.462,230.148 459.632,230.345 461.421,229.381 C462.827,228.624 470.38,225.382 476.469,222.796 L477.25,224.637 C468.699,228.269 463.414,230.579 462.369,231.142 C461.176,231.785 460.126,232.026 459.159,232.026" id="Fill-62" fill="#1B1A19"></path>
                <path d="M483.379,242.483 L481.416,242.1 C481.423,242.064 482.095,238.445 480.793,234.175 C480.115,231.955 478.933,229.908 477.89,228.102 C476.816,226.244 475.889,224.64 475.754,223.241 C475.453,220.132 477.412,216.681 479.486,213.027 C481.214,209.986 482.999,206.841 483.514,203.83 L483.684,202.832 L484.68,203.015 C485.665,203.196 490.654,204.198 492.116,206.1 L490.53,207.319 C489.899,206.496 487.337,205.651 485.274,205.18 C484.534,208.188 482.856,211.145 481.226,214.015 C479.313,217.385 477.505,220.569 477.744,223.049 C477.838,224.015 478.704,225.514 479.621,227.102 C480.719,229 481.962,231.153 482.705,233.592 C484.16,238.362 483.411,242.317 483.379,242.483" id="Fill-63" fill="#1B1A19"></path>
                <path d="M484.486,257.456 L488.668,261.166 C498.641,252.166 508.97,242.051 509.397,240.299 C510.546,234.908 498.323,212.865 496.648,211.65 C495.089,210.943 492.005,210.134 490.631,211.119 C489.95,211.607 489.681,212.598 489.831,214.063 C489.933,215.055 492.027,219.766 493.875,223.923 C496.983,230.914 499.028,235.624 499.122,237.329 C499.292,240.365 488.712,252.67 484.486,257.456 Z M488.677,263.848 L481.662,257.624 L482.328,256.875 C489.45,248.87 497.133,239.161 497.125,237.436 C497.044,235.974 494.274,229.742 492.048,224.735 C489.523,219.057 487.969,215.513 487.841,214.267 C487.612,212.036 488.159,210.43 489.466,209.493 C492.216,207.521 497.005,209.621 497.543,209.867 C499.993,210.986 512.71,234.349 511.352,240.717 C510.663,243.953 492.896,260.056 489.342,263.25 L488.677,263.848 L488.677,263.848 Z" id="Fill-64" fill="#1B1A19"></path>
                <path d="M482.009,182.163 C481.11,183.703 480.287,185.071 479.553,186.293 C476.016,192.173 474.964,194.101 476.373,195.51 C477.51,196.643 483.529,194.254 488.607,191.252 L490.142,183.681 L482.009,182.163 Z M477.398,197.74 C476.386,197.74 475.536,197.501 474.959,196.924 C472.377,194.342 474.088,191.497 477.839,185.262 C478.665,183.889 479.602,182.331 480.634,180.549 L480.987,179.938 L492.505,182.087 L490.392,192.513 L490.016,192.74 C487.774,194.092 481.352,197.74 477.398,197.74 L477.398,197.74 Z" id="Fill-65" fill="#1B1A19"></path>
                <polyline id="Fill-66" fill="#1B1A19" points="265.5 122.217 263.5 122.217 263.5 31.185 356.138 31.185 356.138 33.185 265.5 33.185 265.5 122.217"></polyline>
                <path d="M180,93.884 C180,97.335 177.201,100.134 173.75,100.134 C170.298,100.134 167.5,97.335 167.5,93.884 C167.5,90.432 170.298,87.634 173.75,87.634 C177.201,87.634 180,90.432 180,93.884" id="Fill-67" fill="#1B1A19"></path>
                <path d="M270.75,122.217 C270.75,125.669 267.951,128.467 264.5,128.467 C261.048,128.467 258.25,125.669 258.25,122.217 C258.25,118.766 261.048,115.967 264.5,115.967 C267.951,115.967 270.75,118.766 270.75,122.217" id="Fill-68" fill="#1B1A19"></path>
                <polygon id="Fill-69" fill="#1B1A19" points="232.704 387.884 475.698 387.884 475.698 385.884 232.704 385.884"></polygon>
                <polygon id="Fill-70" fill="#1B1A19" points="491.323 387.884 505.166 387.884 505.166 385.884 491.323 385.884"></polygon>
                <polygon id="Fill-71" fill="#1B1A19" points="285.768 319.384 352.666 319.384 352.666 317.384 285.768 317.384"></polygon>
                <polygon id="Fill-72" fill="#1B1A19" points="301.492 335.634 303.492 335.634 303.492 301.134 301.492 301.134"></polygon>
                <polygon id="Fill-73" fill="#1B1A19" points="318.217 335.634 320.217 335.634 320.217 301.134 318.217 301.134"></polygon>
                <polygon id="Fill-74" fill="#1B1A19" points="334.941 335.634 336.941 335.634 336.941 301.134 334.941 301.134"></polygon>
                <path d="M485.39,203.241 L488.499,204.275 L488.499,193.521 L484.179,195.736 L485.39,203.241 Z M490.499,207.047 L483.608,204.756 L481.972,194.62 L490.499,190.247 L490.499,207.047 L490.499,207.047 Z" id="Fill-75" fill="#1B1A19"></path>
                <path d="M479.152,169.352 C474.788,169.352 475.007,177.05 477.337,178.717 C479.666,180.384 478.832,180.553 481.499,181.05 C484.166,181.548 488.499,182.884 487.833,184.884 C487.166,186.884 485.127,186.934 486.564,188.909 C487.999,190.884 488.304,195.217 487.901,198.884 C487.499,202.55 485.523,207.064 489.345,211.057 C493.166,215.05 497.573,216.11 500.62,215.414 C503.666,214.717 517.333,207.384 516.999,198.884 C516.666,190.384 506.833,192.434 503.499,188.909 C500.166,185.384 498.833,177.05 493.666,175.717 C488.499,174.384 483.816,172.884 483.075,171.884 C482.333,170.884 482.52,169.352 479.152,169.352" id="Fill-76" fill="#1B1A19"></path>
                <path d="M428.999,205.321 L428.999,213.67 C428.999,214.558 429.436,215.388 430.165,215.892 L430.925,216.361 C431.045,213.394 431.007,208.636 430.005,206.879 L429.935,206.754 C429.731,206.394 429.411,205.828 428.999,205.321 Z M432.696,219.804 L429.072,217.566 C427.758,216.661 426.999,215.215 426.999,213.67 L426.999,201.955 L428.316,202.394 C430.105,202.99 431.166,204.868 431.676,205.771 L431.743,205.889 C433.489,208.952 432.898,217.236 432.824,218.17 L432.696,219.804 L432.696,219.804 Z" id="Fill-77" fill="#1B1A19"></path>
                <path d="M433.911,380.751 L450.854,385.396 L455.463,372.453 L450.973,369.489 L448.603,379.288 L447.746,379.213 C447.698,379.209 442.904,378.797 439.524,378.883 C437.01,378.948 435.089,379.93 433.911,380.751 Z M452.115,387.815 L430.026,381.761 L431.073,380.56 C431.199,380.416 434.22,377.019 439.474,376.884 C442.13,376.819 445.501,377.035 447.062,377.152 L449.697,366.252 L457.873,371.647 L452.115,387.815 L452.115,387.815 Z" id="Fill-78" fill="#1B1A19"></path>
                <path d="M548.89,365.424 L553.101,369.807 L552.577,370.489 C552.548,370.527 549.622,374.345 547.876,377.241 C546.566,379.414 546.361,381.556 546.424,382.984 L558.704,371.88 L552.863,362.88 L548.89,365.424 Z M545.191,386.796 L544.741,385.268 C544.688,385.083 543.45,380.71 546.163,376.209 C547.533,373.937 549.533,371.21 550.472,369.957 L545.759,365.053 L553.459,360.125 L561.31,372.221 L545.191,386.796 L545.191,386.796 Z" id="Fill-79" fill="#1B1A19"></path>
                <path d="M84.194,272.102 C81.823,272.102 79.456,272.624 77.657,273.669 C76.109,274.569 75.257,275.707 75.258,276.872 C75.26,278.049 76.128,279.199 77.704,280.108 C81.327,282.201 87.204,282.201 90.803,280.11 C92.353,279.209 93.206,278.071 93.204,276.906 C93.202,275.73 92.334,274.582 90.759,273.673 C88.945,272.625 86.568,272.102 84.194,272.102 Z M84.264,283.679 C81.547,283.68 78.828,283.066 76.704,281.841 C74.485,280.559 73.261,278.795 73.258,276.875 C73.256,274.966 74.461,273.213 76.652,271.94 C80.873,269.487 87.509,269.486 91.759,271.94 C93.978,273.221 95.201,274.983 95.204,276.903 C95.207,278.812 94.001,280.565 91.808,281.839 C89.697,283.066 86.982,283.679 84.264,283.679 L84.264,283.679 Z" id="Fill-80" fill="#1B1A19"></path>
                <polyline id="Fill-81" fill="#1B1A19" points="94.204 276.889 94.204 276.89 94.204 276.889"></polyline>
                <path d="M91.306,280.975 C89.505,282.021 87.181,282.575 84.816,282.65 L84.816,321.4 C87.181,321.325 89.505,320.771 91.306,319.725 C93.248,318.596 94.212,317.118 94.204,315.64 L94.2040494,276.89 C94.212,278.368 93.248,279.846 91.306,280.975" id="Fill-82" fill="#1B1A19"></path>
                <path d="M530.833,338.551 C523.833,333.551 517.166,319.884 515.499,314.408 C513.833,308.932 510.499,305.217 504.254,301.134 C500.05,298.385 497.632,293.848 496.878,287.563 C495.195,289.68 492.804,292.523 490.081,295.687 C498.325,310.006 508.608,322.618 512.218,326.001 C516.363,329.888 546.683,365.649 546.683,365.649 L550.428,363.251 C550.428,363.251 537.833,343.55 530.833,338.551" id="Fill-83" fill="#1B1A19"></path>
                <path d="M491.302,295.8 C499.535,309.953 509.55,322.13 512.901,325.272 C516.777,328.905 542.581,359.271 546.88,364.335 L551.847,361.157 C548.903,355.587 531.857,323.351 530.699,321.497 L530.699,321.498 C529.812,320.078 525.043,316.976 523.007,315.651 C522.267,315.169 521.706,314.803 521.465,314.622 C520.169,313.65 521.022,312.193 521.48,311.41 C521.772,310.911 522.102,310.346 522.102,309.935 C522.102,309.431 521.41,309.041 520.435,308.544 C520.052,308.35 519.655,308.148 519.308,307.917 C518.544,307.407 516.617,303.255 506.654,278.844 C505.789,276.724 505.02,274.839 504.44,273.429 C503.193,277.278 501.477,282.232 500.145,284.749 C499.443,286.071 496.55,289.688 491.302,295.8 Z M546.485,366.962 L545.92,366.295 C545.617,365.938 515.591,330.535 511.534,326.731 C508.061,323.475 497.616,310.779 489.215,296.186 L488.861,295.572 L489.323,295.035 C496.008,287.267 497.937,284.645 498.377,283.813 C499.963,280.818 502.176,274.022 503.354,270.238 L504.13,267.745 L505.218,270.119 C505.548,270.84 506.789,273.88 508.506,278.088 C512.031,286.725 519.316,304.575 520.517,306.316 C520.751,306.462 521.038,306.608 521.341,306.761 C522.506,307.354 524.102,308.165 524.102,309.935 C524.102,310.888 523.605,311.737 523.206,312.419 C523.079,312.635 522.904,312.936 522.82,313.133 C523.09,313.32 523.539,313.611 524.098,313.975 C527.569,316.233 531.359,318.781 532.395,320.437 L532.395,320.438 C533.695,322.518 553.215,359.464 554.045,361.036 L554.475,361.849 L546.485,366.962 L546.485,366.962 Z" id="Fill-84" fill="#1B1A19"></path>
                <path d="M482.895,258.717 C481.552,259.383 480.884,260.223 480.909,261.219 C480.953,262.978 482.921,264.77 483.406,264.94 C483.412,264.94 483.418,264.94 483.423,264.94 C483.918,264.941 485.572,263.862 487.166,262.507 L482.895,258.717 Z M483.315,266.918 C483.111,266.918 482.921,266.889 482.744,266.827 C481.464,266.378 478.975,263.864 478.909,261.27 C478.874,259.866 479.503,257.919 482.697,256.614 L483.274,256.379 L490.16,262.49 L489.354,263.24 C487.805,264.678 485.106,266.918 483.315,266.918 L483.315,266.918 Z" id="Fill-85" fill="#1B1A19"></path>
                <path d="M483.075,257.54 C483.075,257.54 498.294,240.434 498.124,237.384 C498.044,235.944 496.027,231.247 493.893,226.426 C484.331,229.228 477.332,238.225 477.332,248.899 C477.332,252.948 478.339,256.756 480.11,260.077 C480.472,259.135 481.36,258.24 483.075,257.54" id="Fill-86" fill="#1B1A19"></path>
                <path d="M506.131,226.313 C508.822,232.134 510.919,237.953 510.374,240.509 C509.718,243.591 488.673,262.507 488.673,262.507 C488.673,262.507 486.085,264.907 484.289,265.683 C488.406,269.764 494.017,272.281 500.205,272.281 C512.838,272.281 523.079,261.813 523.079,248.899 C523.079,238.081 515.891,228.983 506.131,226.313" id="Fill-87" fill="#1B1A19"></path>
            </g>
        </g>
    </g>
</svg>