<?xml version="1.0" encoding="utf-8"?>
<!-- Generator: Adobe Illustrator 24.0.1, SVG Export Plug-In . SVG Version: 6.00 Build 0)  -->
<svg version="1.1" id="Layer_1" xmlns="http://www.w3.org/2000/svg" xmlns:xlink="http://www.w3.org/1999/xlink" x="0px" y="0px"
	 viewBox="0 0 800 592" style="enable-background:new 0 0 800 592;" xml:space="preserve">
<style type="text/css">
	.st0{fill:#FFFFFF;stroke:#231F20;stroke-width:0.5;stroke-miterlimit:10;}
	.st1{fill:#231F20;}
	.st2{opacity:0.5;fill:#00ADEE;}
</style>
<g>
	<g>
		<path class="st0" d="M370,480c0,0-4.4,5.4-5.4,6.8s-3,5.6-2.6,6.8c0.5,1.2,4,3.8,4,3.8h3c0,0,41.1,14,42.2,14.2
			c1,0.2,19.4,0.7,19.9,0c0.5-0.7,0.3-2.6,0-3.3c-0.3-0.7-4.2-4-4.9-4.5c-0.7-0.5-2.3-2.6-4.4-3c-2.1-0.3-5.6-0.5-7.9-0.7
			c-2.3-0.2-3.3-0.7-4.5-1.6c-1.2-0.9-3.5-3.7-3.5-3.7l-28.3-8.9L370,480z"/>
		<path class="st0" d="M369,497.4c0,0-0.4,2.2-2.8,4.3c-2.4,2.1-4.7,5.4-4,7.7c0.7,2.3,7.5,7.7,13.3,11s15.7,7,17.6,9.1
			s1.9,3.7,4.7,4.7s29.8,0,29.8,0s2,0.2,4.1-2.4c2.1-2.6,1.6-3.3,0-5.1c-1.6-1.7-3.8-3-5.8-4c-1.9-1-4-0.3-6.3-1.6
			c-2.3-1.2-5.9-3.3-7.9-5c-1.9-1.8-4.4-3.5-6.1-5.6c-1.7-2.1-5.4-4.5-5.4-4.5L369,497.4z"/>
		<path class="st0" d="M436.1,70.8l2.2,2.6c1.4,1.7,0.7,0.7,2.9,7c2.4,7.2,1.6,9.9,2.1,14s-0.9,4.7,0.7,7.3c1.6,2.6,2.8,5.8,3.1,7
			s0.7,2.8-0.9,3.8c-1.6,1-4.2,0.2-3.8,1s-0.5,4.7,0,5.6s0.1,1.9-0.8,2.6c-0.9,0.7-1.7,0.9-1.7,1.6c0,0.7-0.3,4.2-0.3,4.9
			c0,0.7-1.5,1.8-2.1,2.3c-0.9,0.7-2.8,1.4-4.9,1.2c-2.1-0.2-5.2-0.8-6.6,0s-3.1,2.3-3.5,3.4c-0.3,1.1-1.5,3.2-1.5,3.2
			s-32.5,4-31.8,2.6c0.7-1.4-0.2-5.8-0.2-5.8l0.7-4.4l0.7-3.2"/>
		<path class="st1" d="M389,135.2c-0.9,1.7-0.7,2.4-2.1,2.4s-4.4,1-4.4,2.8c0,1.7-1.6,4-1.6,4s-9.8,6.1-10.3,12.6
			c-0.5,6.6,2.6,61,4.2,64.2s3.7,9.4,2.6,14.7c-1,5.2-2.6,7.9-2.6,11s2.1,5.2,1.6,6.8s-1.7,2.6-5.8,6.3c-4.1,3.7-6.2,6.8-6.2,8.9
			s5.2,3.7,3.1,6.3s-2.9,5.5-3.1,10.5c-0.3,5-5.2,20.9-3.4,29.3s8.4,24.3,24.3,39c16,14.7,49.7,44.2,51.8,46.3
			c2.1,2.1,3.1,3.9,2.4,4.7c-0.8,0.8-11.8,6.5-14.7,9.7c-2.9,3.1-29.2,35-32.2,38.8c-3,3.8-3.3,2.6-7,4.9c-3.7,2.3-4.7,2.3-6.5,4.7
			s-4.2,5.2-4.7,7.3c-0.5,2.1,0.3,4.9-1.2,6.5s-5.1,1.6-3.3,3.1c1.7,1.6,4.7,4.2,4.7,4.2l-1.4,4.2c0,0-0.9,3.8-2,5.1
			c-1,1.3-2.4,3.9-2.4,3.9s5.4,7.1,7.1,8c1.7,0.9,13.2,2,16.5,1.6c3.3-0.4,7.7-1,7.7-1s2.4-6.7,4-9.4c1.6-2.7,5.8-9.5,10.6-12.5
			c4.7-3.1,40-27.5,41.6-29.1s28.6-24.3,31.2-27.7c2.6-3.4,3.8-4.3,4.9-6.5s1.7-4.5,1.5-6.6c-0.3-2.1,1.1-2.8,0.1-7.3
			c-1-4.5-3.8-14-7-21.2c-3.1-7.2-22.5-40-33.9-53.9c-11.3-14-14.3-16.3-15.2-17.8c-0.9-1.5-2.7-5.4-2.7-5.4l0-1.5
			c0,0,0.5-0.1,2.2-2.8s2.9-3,4.3-10.5c1.4-7.5,2.6-25.7,2.4-40.7c-0.2-15-0.1-22.8,1.2-26.5c1.3-3.8,2.7-8.3,4.3-12.6
			c1.6-4.3,2.4-9.2,1.8-11.9c-0.5-2.7-0.8-7.3-6.7-15.2s-10.5-12.4-13.1-16.6c-2.6-4.2-9.2-13.7-10.7-15.6c-1.6-2-3.1-4.7-2.7-7.9
			c0.3-3.1,1.6-4.7,2.5-5.7c0.9-1,0.3-2.4,0.3-2.4s0.7-1.4-1.4-2c-2.1-0.5-22.4-1.1-22.8-1.2S389,135.2,389,135.2z"/>
		<path class="st0" d="M424.3,176.6c-2.2-0.5-3.8-1.3-5.6-1.3s-3.9,0.5-4.1,2c-0.1,1.4,0.3,2.9,1.6,3.9c1.3,1,4.2,2.5,5.5,3.4
			c1.3,0.9,3.3,1.4,1,1.8c-2.2,0.4-5,0.4-6,1c-1,0.7-1.6,2.2-1.6,2.6s1.4,2.5,2.2,2.7s6.9,0,6.9,0s-0.4,0.5-1.3,1.2
			s-5.1,1.8-5.8,2.4s-1.7,0.5-1.3,2.4c0.4,1.8-0.1,3.1,2,3.7c2.1,0.5,3.1,0.1,4.7-0.7c1.6-0.8,3.1-2.2,3.7-1.8
			c0.5,0.5,1.4,0.5,0,1.8c-1.4,1.3-3.1,3.5-3.9,5.4c-0.8,1.8-2.3,4.2-1.5,5c0.7,0.8,2.2,2.1,3.2,2.2s3.5-2.2,3.9-2.7
			c0.4-0.5,1.2-2.5,2.5-3.9s2.2-2.6,2.9-3.1s1.3-1.8,1.3-2.9c0-1-0.5-2.7-0.7-3.9c-0.1-1.2,0-2.5-0.5-3.5c-0.5-1-1.3-1.2-0.9-3
			c0.4-1.8,0.5-2.1,0.9-3.1c0.4-1,0.5-2.2,0.4-2.7s0.3-2.5-1.2-5.5s-2.4-5.8-3.1-7.2c-0.8-1.4-0.9-3.1-1-4.5
			c-0.1-1.3-0.4-3.5-0.5-4.7c-0.1-1.2,0.1-2-0.8-3.5c-0.9-1.6-1.3-2.6-3.3-2.7s-4.1,0.3-4.3,1s-0.8,0.5,0.3,2.1
			c1,1.6,1.6,1.7,1.7,3.1c0.1,1.4,0.5,2.4,0.5,4.2c0,1.8-0.1,3.4,0.1,4.6s-0.5,1,0.8,2.7C424.3,176.6,424.3,176.6,424.3,176.6z"/>
		<polyline class="st0" points="390.4,127.6 386.9,116 395.3,86 436.1,70.8 		"/>
		<path class="st1" d="M380.4,133.6c-1.7,0.9-2.1,4.3-3.6,6.8c-1.5,2.5-3,0.8-4.4,0.8c-1.4,0-3.7-0.1-5.1,0.7
			c-1.4,0.8-3.3,2.2-5.5,2.2s-2.1,0.4-4.1-0.8c-2-1.2-0.8-1.2-0.3-2.1c0.5-0.9-0.9-3.3-2.6-5.2c-1.7-2-3.3-4.7-3.9-6.4
			c-0.7-1.7,0.3-8.8,1.3-10.5s4.3-3.8,5.1-5c0.8-1.2,1-2.2,2.2-3.5s2.9-2.6,4.8-3.4c2-0.8,4.1-1.3,5.6-0.8c1.6,0.5,6.8,1.5,6.8,1.5
			s2-0.5,2-1.7c0-1.2-1-13-0.9-14.7s0.9-7.2,1.6-8.8c0.7-1.6,3.8-8.2,4.5-9.4s7.9-11,8.8-11.4c0.9-0.4,6.8-3.3,7.5-3.1
			c0.7,0.1,8.5-1.9,9.9-1.9s7.6,1.4,8.1,1.7s5.3,2.9,6,2.7s4.2,1.8,5,2.4c0.8,0.5,6.7,6.3,6.7,6.3l0.3,1.6c0,0-1.7,4.4-1.8,4.9
			s-5.5,10.7-6.4,11.7c-0.9,1-2.3,2.9-3.5,4.1c-1.2,1.2-3.7,3.5-3.7,4.6c0.1,1.1,0.4,4.8,0.7,7.3c0.3,2.5-0.1,3-0.7,2.7
			c-0.6-0.3-0.6,0-1.4-1.1c-0.9-1.1-7.6-9.4-8-10.2c-0.4-0.9-2.3-2.6-3.5-2.4c-1.2,0.2-3.2,0.9-4.1,1.8s-1.6,4-1.6,4.6
			s-1.2,6.8-1.3,10c-0.1,3.2-0.4,9-1.7,11.3c-1.3,2.4-3.3,6-8.7,6.4c-5.4,0.4-6.5,0.2-7.2,0.6s-2.2,3.8-2.2,3.8L380.4,133.6z"/>
	</g>
	<path class="st2" d="M315.9,420h-11.2l25.1,22l13.2-10.8l3.4-2.8l0,0l10.3-8.4h-10.5l0,0c0-18.8,0-66.5,0-76.3l-30.5,0"/>
	<path class="st2" d="M314.4,213.2h-11.2l25.1-22l13.2,10.8l3.4,2.8l0,0l10.3,8.4l-10.5,0l0,0c0,18.8,0,66.5,0,76.3l-30.5,0"/>
</g>
</svg>
